G04 #@! TF.GenerationSoftware,KiCad,Pcbnew,10.0.3-10.0.3~ubuntu24.04.1*
G04 #@! TF.CreationDate,2026-06-11T23:16:03-06:00*
G04 #@! TF.ProjectId,Z680 Standalone Subwoofer,5a363830-2053-4746-916e-64616c6f6e65,1*
G04 #@! TF.SameCoordinates,Original*
G04 #@! TF.FileFunction,Legend,Bot*
G04 #@! TF.FilePolarity,Positive*
%FSLAX46Y46*%
G04 Gerber Fmt 4.6, Leading zero omitted, Abs format (unit mm)*
G04 Created by KiCad (PCBNEW 10.0.3-10.0.3~ubuntu24.04.1) date 2026-06-11 23:16:03*
%MOMM*%
%LPD*%
G01*
G04 APERTURE LIST*
G04 Aperture macros list*
%AMRoundRect*
0 Rectangle with rounded corners*
0 $1 Rounding radius*
0 $2 $3 $4 $5 $6 $7 $8 $9 X,Y pos of 4 corners*
0 Add a 4 corners polygon primitive as box body*
4,1,4,$2,$3,$4,$5,$6,$7,$8,$9,$2,$3,0*
0 Add four circle primitives for the rounded corners*
1,1,$1+$1,$2,$3*
1,1,$1+$1,$4,$5*
1,1,$1+$1,$6,$7*
1,1,$1+$1,$8,$9*
0 Add four rect primitives between the rounded corners*
20,1,$1+$1,$2,$3,$4,$5,0*
20,1,$1+$1,$4,$5,$6,$7,0*
20,1,$1+$1,$6,$7,$8,$9,0*
20,1,$1+$1,$8,$9,$2,$3,0*%
G04 Aperture macros list end*
%ADD10C,0.120000*%
%ADD11C,0.150000*%
%ADD12C,2.200000*%
%ADD13R,1.600000X1.600000*%
%ADD14C,1.600000*%
%ADD15C,4.000000*%
%ADD16RoundRect,0.250000X-0.450000X0.262500X-0.450000X-0.262500X0.450000X-0.262500X0.450000X0.262500X0*%
%ADD17R,1.800000X1.800000*%
%ADD18C,1.800000*%
%ADD19C,16.500000*%
%ADD20C,2.000000*%
%ADD21C,3.000000*%
G04 APERTURE END LIST*
D10*
X44500000Y-34000000D02*
X44500000Y-34800000D01*
X44500000Y-34800000D02*
X45000000Y-34400000D01*
X45000000Y-34000000D02*
X45000000Y-34800000D01*
X45000000Y-34400000D02*
X44500000Y-34000000D01*
D11*
X68173810Y-11594875D02*
X67507144Y-11594875D01*
X67507144Y-11594875D02*
X68173810Y-12594875D01*
X68173810Y-12594875D02*
X67507144Y-12594875D01*
X66697620Y-11594875D02*
X66888096Y-11594875D01*
X66888096Y-11594875D02*
X66983334Y-11642494D01*
X66983334Y-11642494D02*
X67030953Y-11690113D01*
X67030953Y-11690113D02*
X67126191Y-11832970D01*
X67126191Y-11832970D02*
X67173810Y-12023446D01*
X67173810Y-12023446D02*
X67173810Y-12404398D01*
X67173810Y-12404398D02*
X67126191Y-12499636D01*
X67126191Y-12499636D02*
X67078572Y-12547256D01*
X67078572Y-12547256D02*
X66983334Y-12594875D01*
X66983334Y-12594875D02*
X66792858Y-12594875D01*
X66792858Y-12594875D02*
X66697620Y-12547256D01*
X66697620Y-12547256D02*
X66650001Y-12499636D01*
X66650001Y-12499636D02*
X66602382Y-12404398D01*
X66602382Y-12404398D02*
X66602382Y-12166303D01*
X66602382Y-12166303D02*
X66650001Y-12071065D01*
X66650001Y-12071065D02*
X66697620Y-12023446D01*
X66697620Y-12023446D02*
X66792858Y-11975827D01*
X66792858Y-11975827D02*
X66983334Y-11975827D01*
X66983334Y-11975827D02*
X67078572Y-12023446D01*
X67078572Y-12023446D02*
X67126191Y-12071065D01*
X67126191Y-12071065D02*
X67173810Y-12166303D01*
X66030953Y-12023446D02*
X66126191Y-11975827D01*
X66126191Y-11975827D02*
X66173810Y-11928208D01*
X66173810Y-11928208D02*
X66221429Y-11832970D01*
X66221429Y-11832970D02*
X66221429Y-11785351D01*
X66221429Y-11785351D02*
X66173810Y-11690113D01*
X66173810Y-11690113D02*
X66126191Y-11642494D01*
X66126191Y-11642494D02*
X66030953Y-11594875D01*
X66030953Y-11594875D02*
X65840477Y-11594875D01*
X65840477Y-11594875D02*
X65745239Y-11642494D01*
X65745239Y-11642494D02*
X65697620Y-11690113D01*
X65697620Y-11690113D02*
X65650001Y-11785351D01*
X65650001Y-11785351D02*
X65650001Y-11832970D01*
X65650001Y-11832970D02*
X65697620Y-11928208D01*
X65697620Y-11928208D02*
X65745239Y-11975827D01*
X65745239Y-11975827D02*
X65840477Y-12023446D01*
X65840477Y-12023446D02*
X66030953Y-12023446D01*
X66030953Y-12023446D02*
X66126191Y-12071065D01*
X66126191Y-12071065D02*
X66173810Y-12118684D01*
X66173810Y-12118684D02*
X66221429Y-12213922D01*
X66221429Y-12213922D02*
X66221429Y-12404398D01*
X66221429Y-12404398D02*
X66173810Y-12499636D01*
X66173810Y-12499636D02*
X66126191Y-12547256D01*
X66126191Y-12547256D02*
X66030953Y-12594875D01*
X66030953Y-12594875D02*
X65840477Y-12594875D01*
X65840477Y-12594875D02*
X65745239Y-12547256D01*
X65745239Y-12547256D02*
X65697620Y-12499636D01*
X65697620Y-12499636D02*
X65650001Y-12404398D01*
X65650001Y-12404398D02*
X65650001Y-12213922D01*
X65650001Y-12213922D02*
X65697620Y-12118684D01*
X65697620Y-12118684D02*
X65745239Y-12071065D01*
X65745239Y-12071065D02*
X65840477Y-12023446D01*
X65030953Y-11594875D02*
X64935715Y-11594875D01*
X64935715Y-11594875D02*
X64840477Y-11642494D01*
X64840477Y-11642494D02*
X64792858Y-11690113D01*
X64792858Y-11690113D02*
X64745239Y-11785351D01*
X64745239Y-11785351D02*
X64697620Y-11975827D01*
X64697620Y-11975827D02*
X64697620Y-12213922D01*
X64697620Y-12213922D02*
X64745239Y-12404398D01*
X64745239Y-12404398D02*
X64792858Y-12499636D01*
X64792858Y-12499636D02*
X64840477Y-12547256D01*
X64840477Y-12547256D02*
X64935715Y-12594875D01*
X64935715Y-12594875D02*
X65030953Y-12594875D01*
X65030953Y-12594875D02*
X65126191Y-12547256D01*
X65126191Y-12547256D02*
X65173810Y-12499636D01*
X65173810Y-12499636D02*
X65221429Y-12404398D01*
X65221429Y-12404398D02*
X65269048Y-12213922D01*
X65269048Y-12213922D02*
X65269048Y-11975827D01*
X65269048Y-11975827D02*
X65221429Y-11785351D01*
X65221429Y-11785351D02*
X65173810Y-11690113D01*
X65173810Y-11690113D02*
X65126191Y-11642494D01*
X65126191Y-11642494D02*
X65030953Y-11594875D01*
X63554762Y-12547256D02*
X63411905Y-12594875D01*
X63411905Y-12594875D02*
X63173810Y-12594875D01*
X63173810Y-12594875D02*
X63078572Y-12547256D01*
X63078572Y-12547256D02*
X63030953Y-12499636D01*
X63030953Y-12499636D02*
X62983334Y-12404398D01*
X62983334Y-12404398D02*
X62983334Y-12309160D01*
X62983334Y-12309160D02*
X63030953Y-12213922D01*
X63030953Y-12213922D02*
X63078572Y-12166303D01*
X63078572Y-12166303D02*
X63173810Y-12118684D01*
X63173810Y-12118684D02*
X63364286Y-12071065D01*
X63364286Y-12071065D02*
X63459524Y-12023446D01*
X63459524Y-12023446D02*
X63507143Y-11975827D01*
X63507143Y-11975827D02*
X63554762Y-11880589D01*
X63554762Y-11880589D02*
X63554762Y-11785351D01*
X63554762Y-11785351D02*
X63507143Y-11690113D01*
X63507143Y-11690113D02*
X63459524Y-11642494D01*
X63459524Y-11642494D02*
X63364286Y-11594875D01*
X63364286Y-11594875D02*
X63126191Y-11594875D01*
X63126191Y-11594875D02*
X62983334Y-11642494D01*
X62697619Y-11928208D02*
X62316667Y-11928208D01*
X62554762Y-11594875D02*
X62554762Y-12452017D01*
X62554762Y-12452017D02*
X62507143Y-12547256D01*
X62507143Y-12547256D02*
X62411905Y-12594875D01*
X62411905Y-12594875D02*
X62316667Y-12594875D01*
X61554762Y-12594875D02*
X61554762Y-12071065D01*
X61554762Y-12071065D02*
X61602381Y-11975827D01*
X61602381Y-11975827D02*
X61697619Y-11928208D01*
X61697619Y-11928208D02*
X61888095Y-11928208D01*
X61888095Y-11928208D02*
X61983333Y-11975827D01*
X61554762Y-12547256D02*
X61650000Y-12594875D01*
X61650000Y-12594875D02*
X61888095Y-12594875D01*
X61888095Y-12594875D02*
X61983333Y-12547256D01*
X61983333Y-12547256D02*
X62030952Y-12452017D01*
X62030952Y-12452017D02*
X62030952Y-12356779D01*
X62030952Y-12356779D02*
X61983333Y-12261541D01*
X61983333Y-12261541D02*
X61888095Y-12213922D01*
X61888095Y-12213922D02*
X61650000Y-12213922D01*
X61650000Y-12213922D02*
X61554762Y-12166303D01*
X61078571Y-11928208D02*
X61078571Y-12594875D01*
X61078571Y-12023446D02*
X61030952Y-11975827D01*
X61030952Y-11975827D02*
X60935714Y-11928208D01*
X60935714Y-11928208D02*
X60792857Y-11928208D01*
X60792857Y-11928208D02*
X60697619Y-11975827D01*
X60697619Y-11975827D02*
X60650000Y-12071065D01*
X60650000Y-12071065D02*
X60650000Y-12594875D01*
X59745238Y-12594875D02*
X59745238Y-11594875D01*
X59745238Y-12547256D02*
X59840476Y-12594875D01*
X59840476Y-12594875D02*
X60030952Y-12594875D01*
X60030952Y-12594875D02*
X60126190Y-12547256D01*
X60126190Y-12547256D02*
X60173809Y-12499636D01*
X60173809Y-12499636D02*
X60221428Y-12404398D01*
X60221428Y-12404398D02*
X60221428Y-12118684D01*
X60221428Y-12118684D02*
X60173809Y-12023446D01*
X60173809Y-12023446D02*
X60126190Y-11975827D01*
X60126190Y-11975827D02*
X60030952Y-11928208D01*
X60030952Y-11928208D02*
X59840476Y-11928208D01*
X59840476Y-11928208D02*
X59745238Y-11975827D01*
X58840476Y-12594875D02*
X58840476Y-12071065D01*
X58840476Y-12071065D02*
X58888095Y-11975827D01*
X58888095Y-11975827D02*
X58983333Y-11928208D01*
X58983333Y-11928208D02*
X59173809Y-11928208D01*
X59173809Y-11928208D02*
X59269047Y-11975827D01*
X58840476Y-12547256D02*
X58935714Y-12594875D01*
X58935714Y-12594875D02*
X59173809Y-12594875D01*
X59173809Y-12594875D02*
X59269047Y-12547256D01*
X59269047Y-12547256D02*
X59316666Y-12452017D01*
X59316666Y-12452017D02*
X59316666Y-12356779D01*
X59316666Y-12356779D02*
X59269047Y-12261541D01*
X59269047Y-12261541D02*
X59173809Y-12213922D01*
X59173809Y-12213922D02*
X58935714Y-12213922D01*
X58935714Y-12213922D02*
X58840476Y-12166303D01*
X58221428Y-12594875D02*
X58316666Y-12547256D01*
X58316666Y-12547256D02*
X58364285Y-12452017D01*
X58364285Y-12452017D02*
X58364285Y-11594875D01*
X57697618Y-12594875D02*
X57792856Y-12547256D01*
X57792856Y-12547256D02*
X57840475Y-12499636D01*
X57840475Y-12499636D02*
X57888094Y-12404398D01*
X57888094Y-12404398D02*
X57888094Y-12118684D01*
X57888094Y-12118684D02*
X57840475Y-12023446D01*
X57840475Y-12023446D02*
X57792856Y-11975827D01*
X57792856Y-11975827D02*
X57697618Y-11928208D01*
X57697618Y-11928208D02*
X57554761Y-11928208D01*
X57554761Y-11928208D02*
X57459523Y-11975827D01*
X57459523Y-11975827D02*
X57411904Y-12023446D01*
X57411904Y-12023446D02*
X57364285Y-12118684D01*
X57364285Y-12118684D02*
X57364285Y-12404398D01*
X57364285Y-12404398D02*
X57411904Y-12499636D01*
X57411904Y-12499636D02*
X57459523Y-12547256D01*
X57459523Y-12547256D02*
X57554761Y-12594875D01*
X57554761Y-12594875D02*
X57697618Y-12594875D01*
X56935713Y-11928208D02*
X56935713Y-12594875D01*
X56935713Y-12023446D02*
X56888094Y-11975827D01*
X56888094Y-11975827D02*
X56792856Y-11928208D01*
X56792856Y-11928208D02*
X56649999Y-11928208D01*
X56649999Y-11928208D02*
X56554761Y-11975827D01*
X56554761Y-11975827D02*
X56507142Y-12071065D01*
X56507142Y-12071065D02*
X56507142Y-12594875D01*
X55649999Y-12547256D02*
X55745237Y-12594875D01*
X55745237Y-12594875D02*
X55935713Y-12594875D01*
X55935713Y-12594875D02*
X56030951Y-12547256D01*
X56030951Y-12547256D02*
X56078570Y-12452017D01*
X56078570Y-12452017D02*
X56078570Y-12071065D01*
X56078570Y-12071065D02*
X56030951Y-11975827D01*
X56030951Y-11975827D02*
X55935713Y-11928208D01*
X55935713Y-11928208D02*
X55745237Y-11928208D01*
X55745237Y-11928208D02*
X55649999Y-11975827D01*
X55649999Y-11975827D02*
X55602380Y-12071065D01*
X55602380Y-12071065D02*
X55602380Y-12166303D01*
X55602380Y-12166303D02*
X56078570Y-12261541D01*
X54459522Y-12547256D02*
X54316665Y-12594875D01*
X54316665Y-12594875D02*
X54078570Y-12594875D01*
X54078570Y-12594875D02*
X53983332Y-12547256D01*
X53983332Y-12547256D02*
X53935713Y-12499636D01*
X53935713Y-12499636D02*
X53888094Y-12404398D01*
X53888094Y-12404398D02*
X53888094Y-12309160D01*
X53888094Y-12309160D02*
X53935713Y-12213922D01*
X53935713Y-12213922D02*
X53983332Y-12166303D01*
X53983332Y-12166303D02*
X54078570Y-12118684D01*
X54078570Y-12118684D02*
X54269046Y-12071065D01*
X54269046Y-12071065D02*
X54364284Y-12023446D01*
X54364284Y-12023446D02*
X54411903Y-11975827D01*
X54411903Y-11975827D02*
X54459522Y-11880589D01*
X54459522Y-11880589D02*
X54459522Y-11785351D01*
X54459522Y-11785351D02*
X54411903Y-11690113D01*
X54411903Y-11690113D02*
X54364284Y-11642494D01*
X54364284Y-11642494D02*
X54269046Y-11594875D01*
X54269046Y-11594875D02*
X54030951Y-11594875D01*
X54030951Y-11594875D02*
X53888094Y-11642494D01*
X53030951Y-11928208D02*
X53030951Y-12594875D01*
X53459522Y-11928208D02*
X53459522Y-12452017D01*
X53459522Y-12452017D02*
X53411903Y-12547256D01*
X53411903Y-12547256D02*
X53316665Y-12594875D01*
X53316665Y-12594875D02*
X53173808Y-12594875D01*
X53173808Y-12594875D02*
X53078570Y-12547256D01*
X53078570Y-12547256D02*
X53030951Y-12499636D01*
X52554760Y-12594875D02*
X52554760Y-11594875D01*
X52554760Y-11975827D02*
X52459522Y-11928208D01*
X52459522Y-11928208D02*
X52269046Y-11928208D01*
X52269046Y-11928208D02*
X52173808Y-11975827D01*
X52173808Y-11975827D02*
X52126189Y-12023446D01*
X52126189Y-12023446D02*
X52078570Y-12118684D01*
X52078570Y-12118684D02*
X52078570Y-12404398D01*
X52078570Y-12404398D02*
X52126189Y-12499636D01*
X52126189Y-12499636D02*
X52173808Y-12547256D01*
X52173808Y-12547256D02*
X52269046Y-12594875D01*
X52269046Y-12594875D02*
X52459522Y-12594875D01*
X52459522Y-12594875D02*
X52554760Y-12547256D01*
X51745236Y-11928208D02*
X51554760Y-12594875D01*
X51554760Y-12594875D02*
X51364284Y-12118684D01*
X51364284Y-12118684D02*
X51173808Y-12594875D01*
X51173808Y-12594875D02*
X50983332Y-11928208D01*
X50459522Y-12594875D02*
X50554760Y-12547256D01*
X50554760Y-12547256D02*
X50602379Y-12499636D01*
X50602379Y-12499636D02*
X50649998Y-12404398D01*
X50649998Y-12404398D02*
X50649998Y-12118684D01*
X50649998Y-12118684D02*
X50602379Y-12023446D01*
X50602379Y-12023446D02*
X50554760Y-11975827D01*
X50554760Y-11975827D02*
X50459522Y-11928208D01*
X50459522Y-11928208D02*
X50316665Y-11928208D01*
X50316665Y-11928208D02*
X50221427Y-11975827D01*
X50221427Y-11975827D02*
X50173808Y-12023446D01*
X50173808Y-12023446D02*
X50126189Y-12118684D01*
X50126189Y-12118684D02*
X50126189Y-12404398D01*
X50126189Y-12404398D02*
X50173808Y-12499636D01*
X50173808Y-12499636D02*
X50221427Y-12547256D01*
X50221427Y-12547256D02*
X50316665Y-12594875D01*
X50316665Y-12594875D02*
X50459522Y-12594875D01*
X49554760Y-12594875D02*
X49649998Y-12547256D01*
X49649998Y-12547256D02*
X49697617Y-12499636D01*
X49697617Y-12499636D02*
X49745236Y-12404398D01*
X49745236Y-12404398D02*
X49745236Y-12118684D01*
X49745236Y-12118684D02*
X49697617Y-12023446D01*
X49697617Y-12023446D02*
X49649998Y-11975827D01*
X49649998Y-11975827D02*
X49554760Y-11928208D01*
X49554760Y-11928208D02*
X49411903Y-11928208D01*
X49411903Y-11928208D02*
X49316665Y-11975827D01*
X49316665Y-11975827D02*
X49269046Y-12023446D01*
X49269046Y-12023446D02*
X49221427Y-12118684D01*
X49221427Y-12118684D02*
X49221427Y-12404398D01*
X49221427Y-12404398D02*
X49269046Y-12499636D01*
X49269046Y-12499636D02*
X49316665Y-12547256D01*
X49316665Y-12547256D02*
X49411903Y-12594875D01*
X49411903Y-12594875D02*
X49554760Y-12594875D01*
X48935712Y-11928208D02*
X48554760Y-11928208D01*
X48792855Y-12594875D02*
X48792855Y-11737732D01*
X48792855Y-11737732D02*
X48745236Y-11642494D01*
X48745236Y-11642494D02*
X48649998Y-11594875D01*
X48649998Y-11594875D02*
X48554760Y-11594875D01*
X47840474Y-12547256D02*
X47935712Y-12594875D01*
X47935712Y-12594875D02*
X48126188Y-12594875D01*
X48126188Y-12594875D02*
X48221426Y-12547256D01*
X48221426Y-12547256D02*
X48269045Y-12452017D01*
X48269045Y-12452017D02*
X48269045Y-12071065D01*
X48269045Y-12071065D02*
X48221426Y-11975827D01*
X48221426Y-11975827D02*
X48126188Y-11928208D01*
X48126188Y-11928208D02*
X47935712Y-11928208D01*
X47935712Y-11928208D02*
X47840474Y-11975827D01*
X47840474Y-11975827D02*
X47792855Y-12071065D01*
X47792855Y-12071065D02*
X47792855Y-12166303D01*
X47792855Y-12166303D02*
X48269045Y-12261541D01*
X47364283Y-12594875D02*
X47364283Y-11928208D01*
X47364283Y-12118684D02*
X47316664Y-12023446D01*
X47316664Y-12023446D02*
X47269045Y-11975827D01*
X47269045Y-11975827D02*
X47173807Y-11928208D01*
X47173807Y-11928208D02*
X47078569Y-11928208D01*
X65673809Y-14204819D02*
X66007142Y-13728628D01*
X66245237Y-14204819D02*
X66245237Y-13204819D01*
X66245237Y-13204819D02*
X65864285Y-13204819D01*
X65864285Y-13204819D02*
X65769047Y-13252438D01*
X65769047Y-13252438D02*
X65721428Y-13300057D01*
X65721428Y-13300057D02*
X65673809Y-13395295D01*
X65673809Y-13395295D02*
X65673809Y-13538152D01*
X65673809Y-13538152D02*
X65721428Y-13633390D01*
X65721428Y-13633390D02*
X65769047Y-13681009D01*
X65769047Y-13681009D02*
X65864285Y-13728628D01*
X65864285Y-13728628D02*
X66245237Y-13728628D01*
X64721428Y-14204819D02*
X65292856Y-14204819D01*
X65007142Y-14204819D02*
X65007142Y-13204819D01*
X65007142Y-13204819D02*
X65102380Y-13347676D01*
X65102380Y-13347676D02*
X65197618Y-13442914D01*
X65197618Y-13442914D02*
X65292856Y-13490533D01*
X64292856Y-13823866D02*
X63530952Y-13823866D01*
X62721428Y-13681009D02*
X62578571Y-13728628D01*
X62578571Y-13728628D02*
X62530952Y-13776247D01*
X62530952Y-13776247D02*
X62483333Y-13871485D01*
X62483333Y-13871485D02*
X62483333Y-14014342D01*
X62483333Y-14014342D02*
X62530952Y-14109580D01*
X62530952Y-14109580D02*
X62578571Y-14157200D01*
X62578571Y-14157200D02*
X62673809Y-14204819D01*
X62673809Y-14204819D02*
X63054761Y-14204819D01*
X63054761Y-14204819D02*
X63054761Y-13204819D01*
X63054761Y-13204819D02*
X62721428Y-13204819D01*
X62721428Y-13204819D02*
X62626190Y-13252438D01*
X62626190Y-13252438D02*
X62578571Y-13300057D01*
X62578571Y-13300057D02*
X62530952Y-13395295D01*
X62530952Y-13395295D02*
X62530952Y-13490533D01*
X62530952Y-13490533D02*
X62578571Y-13585771D01*
X62578571Y-13585771D02*
X62626190Y-13633390D01*
X62626190Y-13633390D02*
X62721428Y-13681009D01*
X62721428Y-13681009D02*
X63054761Y-13681009D01*
X62054761Y-14204819D02*
X62054761Y-13204819D01*
X62054761Y-13204819D02*
X61816666Y-13204819D01*
X61816666Y-13204819D02*
X61673809Y-13252438D01*
X61673809Y-13252438D02*
X61578571Y-13347676D01*
X61578571Y-13347676D02*
X61530952Y-13442914D01*
X61530952Y-13442914D02*
X61483333Y-13633390D01*
X61483333Y-13633390D02*
X61483333Y-13776247D01*
X61483333Y-13776247D02*
X61530952Y-13966723D01*
X61530952Y-13966723D02*
X61578571Y-14061961D01*
X61578571Y-14061961D02*
X61673809Y-14157200D01*
X61673809Y-14157200D02*
X61816666Y-14204819D01*
X61816666Y-14204819D02*
X62054761Y-14204819D01*
X61054761Y-14204819D02*
X61054761Y-13204819D01*
X61054761Y-13204819D02*
X60721428Y-13919104D01*
X60721428Y-13919104D02*
X60388095Y-13204819D01*
X60388095Y-13204819D02*
X60388095Y-14204819D01*
X59911904Y-13823866D02*
X59150000Y-13823866D01*
X58721428Y-13300057D02*
X58673809Y-13252438D01*
X58673809Y-13252438D02*
X58578571Y-13204819D01*
X58578571Y-13204819D02*
X58340476Y-13204819D01*
X58340476Y-13204819D02*
X58245238Y-13252438D01*
X58245238Y-13252438D02*
X58197619Y-13300057D01*
X58197619Y-13300057D02*
X58150000Y-13395295D01*
X58150000Y-13395295D02*
X58150000Y-13490533D01*
X58150000Y-13490533D02*
X58197619Y-13633390D01*
X58197619Y-13633390D02*
X58769047Y-14204819D01*
X58769047Y-14204819D02*
X58150000Y-14204819D01*
X57530952Y-13204819D02*
X57435714Y-13204819D01*
X57435714Y-13204819D02*
X57340476Y-13252438D01*
X57340476Y-13252438D02*
X57292857Y-13300057D01*
X57292857Y-13300057D02*
X57245238Y-13395295D01*
X57245238Y-13395295D02*
X57197619Y-13585771D01*
X57197619Y-13585771D02*
X57197619Y-13823866D01*
X57197619Y-13823866D02*
X57245238Y-14014342D01*
X57245238Y-14014342D02*
X57292857Y-14109580D01*
X57292857Y-14109580D02*
X57340476Y-14157200D01*
X57340476Y-14157200D02*
X57435714Y-14204819D01*
X57435714Y-14204819D02*
X57530952Y-14204819D01*
X57530952Y-14204819D02*
X57626190Y-14157200D01*
X57626190Y-14157200D02*
X57673809Y-14109580D01*
X57673809Y-14109580D02*
X57721428Y-14014342D01*
X57721428Y-14014342D02*
X57769047Y-13823866D01*
X57769047Y-13823866D02*
X57769047Y-13585771D01*
X57769047Y-13585771D02*
X57721428Y-13395295D01*
X57721428Y-13395295D02*
X57673809Y-13300057D01*
X57673809Y-13300057D02*
X57626190Y-13252438D01*
X57626190Y-13252438D02*
X57530952Y-13204819D01*
X56816666Y-13300057D02*
X56769047Y-13252438D01*
X56769047Y-13252438D02*
X56673809Y-13204819D01*
X56673809Y-13204819D02*
X56435714Y-13204819D01*
X56435714Y-13204819D02*
X56340476Y-13252438D01*
X56340476Y-13252438D02*
X56292857Y-13300057D01*
X56292857Y-13300057D02*
X56245238Y-13395295D01*
X56245238Y-13395295D02*
X56245238Y-13490533D01*
X56245238Y-13490533D02*
X56292857Y-13633390D01*
X56292857Y-13633390D02*
X56864285Y-14204819D01*
X56864285Y-14204819D02*
X56245238Y-14204819D01*
X55388095Y-13204819D02*
X55578571Y-13204819D01*
X55578571Y-13204819D02*
X55673809Y-13252438D01*
X55673809Y-13252438D02*
X55721428Y-13300057D01*
X55721428Y-13300057D02*
X55816666Y-13442914D01*
X55816666Y-13442914D02*
X55864285Y-13633390D01*
X55864285Y-13633390D02*
X55864285Y-14014342D01*
X55864285Y-14014342D02*
X55816666Y-14109580D01*
X55816666Y-14109580D02*
X55769047Y-14157200D01*
X55769047Y-14157200D02*
X55673809Y-14204819D01*
X55673809Y-14204819D02*
X55483333Y-14204819D01*
X55483333Y-14204819D02*
X55388095Y-14157200D01*
X55388095Y-14157200D02*
X55340476Y-14109580D01*
X55340476Y-14109580D02*
X55292857Y-14014342D01*
X55292857Y-14014342D02*
X55292857Y-13776247D01*
X55292857Y-13776247D02*
X55340476Y-13681009D01*
X55340476Y-13681009D02*
X55388095Y-13633390D01*
X55388095Y-13633390D02*
X55483333Y-13585771D01*
X55483333Y-13585771D02*
X55673809Y-13585771D01*
X55673809Y-13585771D02*
X55769047Y-13633390D01*
X55769047Y-13633390D02*
X55816666Y-13681009D01*
X55816666Y-13681009D02*
X55864285Y-13776247D01*
X54864285Y-13823866D02*
X54102381Y-13823866D01*
X53435714Y-13204819D02*
X53340476Y-13204819D01*
X53340476Y-13204819D02*
X53245238Y-13252438D01*
X53245238Y-13252438D02*
X53197619Y-13300057D01*
X53197619Y-13300057D02*
X53150000Y-13395295D01*
X53150000Y-13395295D02*
X53102381Y-13585771D01*
X53102381Y-13585771D02*
X53102381Y-13823866D01*
X53102381Y-13823866D02*
X53150000Y-14014342D01*
X53150000Y-14014342D02*
X53197619Y-14109580D01*
X53197619Y-14109580D02*
X53245238Y-14157200D01*
X53245238Y-14157200D02*
X53340476Y-14204819D01*
X53340476Y-14204819D02*
X53435714Y-14204819D01*
X53435714Y-14204819D02*
X53530952Y-14157200D01*
X53530952Y-14157200D02*
X53578571Y-14109580D01*
X53578571Y-14109580D02*
X53626190Y-14014342D01*
X53626190Y-14014342D02*
X53673809Y-13823866D01*
X53673809Y-13823866D02*
X53673809Y-13585771D01*
X53673809Y-13585771D02*
X53626190Y-13395295D01*
X53626190Y-13395295D02*
X53578571Y-13300057D01*
X53578571Y-13300057D02*
X53530952Y-13252438D01*
X53530952Y-13252438D02*
X53435714Y-13204819D01*
X52245238Y-13204819D02*
X52435714Y-13204819D01*
X52435714Y-13204819D02*
X52530952Y-13252438D01*
X52530952Y-13252438D02*
X52578571Y-13300057D01*
X52578571Y-13300057D02*
X52673809Y-13442914D01*
X52673809Y-13442914D02*
X52721428Y-13633390D01*
X52721428Y-13633390D02*
X52721428Y-14014342D01*
X52721428Y-14014342D02*
X52673809Y-14109580D01*
X52673809Y-14109580D02*
X52626190Y-14157200D01*
X52626190Y-14157200D02*
X52530952Y-14204819D01*
X52530952Y-14204819D02*
X52340476Y-14204819D01*
X52340476Y-14204819D02*
X52245238Y-14157200D01*
X52245238Y-14157200D02*
X52197619Y-14109580D01*
X52197619Y-14109580D02*
X52150000Y-14014342D01*
X52150000Y-14014342D02*
X52150000Y-13776247D01*
X52150000Y-13776247D02*
X52197619Y-13681009D01*
X52197619Y-13681009D02*
X52245238Y-13633390D01*
X52245238Y-13633390D02*
X52340476Y-13585771D01*
X52340476Y-13585771D02*
X52530952Y-13585771D01*
X52530952Y-13585771D02*
X52626190Y-13633390D01*
X52626190Y-13633390D02*
X52673809Y-13681009D01*
X52673809Y-13681009D02*
X52721428Y-13776247D01*
X51721428Y-13823866D02*
X50959524Y-13823866D01*
X49959524Y-14204819D02*
X50530952Y-14204819D01*
X50245238Y-14204819D02*
X50245238Y-13204819D01*
X50245238Y-13204819D02*
X50340476Y-13347676D01*
X50340476Y-13347676D02*
X50435714Y-13442914D01*
X50435714Y-13442914D02*
X50530952Y-13490533D01*
X49340476Y-13204819D02*
X49245238Y-13204819D01*
X49245238Y-13204819D02*
X49150000Y-13252438D01*
X49150000Y-13252438D02*
X49102381Y-13300057D01*
X49102381Y-13300057D02*
X49054762Y-13395295D01*
X49054762Y-13395295D02*
X49007143Y-13585771D01*
X49007143Y-13585771D02*
X49007143Y-13823866D01*
X49007143Y-13823866D02*
X49054762Y-14014342D01*
X49054762Y-14014342D02*
X49102381Y-14109580D01*
X49102381Y-14109580D02*
X49150000Y-14157200D01*
X49150000Y-14157200D02*
X49245238Y-14204819D01*
X49245238Y-14204819D02*
X49340476Y-14204819D01*
X49340476Y-14204819D02*
X49435714Y-14157200D01*
X49435714Y-14157200D02*
X49483333Y-14109580D01*
X49483333Y-14109580D02*
X49530952Y-14014342D01*
X49530952Y-14014342D02*
X49578571Y-13823866D01*
X49578571Y-13823866D02*
X49578571Y-13585771D01*
X49578571Y-13585771D02*
X49530952Y-13395295D01*
X49530952Y-13395295D02*
X49483333Y-13300057D01*
X49483333Y-13300057D02*
X49435714Y-13252438D01*
X49435714Y-13252438D02*
X49340476Y-13204819D01*
X65411905Y-15719524D02*
X65459524Y-15767144D01*
X65459524Y-15767144D02*
X65602381Y-15814763D01*
X65602381Y-15814763D02*
X65697619Y-15814763D01*
X65697619Y-15814763D02*
X65840476Y-15767144D01*
X65840476Y-15767144D02*
X65935714Y-15671905D01*
X65935714Y-15671905D02*
X65983333Y-15576667D01*
X65983333Y-15576667D02*
X66030952Y-15386191D01*
X66030952Y-15386191D02*
X66030952Y-15243334D01*
X66030952Y-15243334D02*
X65983333Y-15052858D01*
X65983333Y-15052858D02*
X65935714Y-14957620D01*
X65935714Y-14957620D02*
X65840476Y-14862382D01*
X65840476Y-14862382D02*
X65697619Y-14814763D01*
X65697619Y-14814763D02*
X65602381Y-14814763D01*
X65602381Y-14814763D02*
X65459524Y-14862382D01*
X65459524Y-14862382D02*
X65411905Y-14910001D01*
X64411905Y-15719524D02*
X64459524Y-15767144D01*
X64459524Y-15767144D02*
X64602381Y-15814763D01*
X64602381Y-15814763D02*
X64697619Y-15814763D01*
X64697619Y-15814763D02*
X64840476Y-15767144D01*
X64840476Y-15767144D02*
X64935714Y-15671905D01*
X64935714Y-15671905D02*
X64983333Y-15576667D01*
X64983333Y-15576667D02*
X65030952Y-15386191D01*
X65030952Y-15386191D02*
X65030952Y-15243334D01*
X65030952Y-15243334D02*
X64983333Y-15052858D01*
X64983333Y-15052858D02*
X64935714Y-14957620D01*
X64935714Y-14957620D02*
X64840476Y-14862382D01*
X64840476Y-14862382D02*
X64697619Y-14814763D01*
X64697619Y-14814763D02*
X64602381Y-14814763D01*
X64602381Y-14814763D02*
X64459524Y-14862382D01*
X64459524Y-14862382D02*
X64411905Y-14910001D01*
X62888095Y-15290953D02*
X62745238Y-15338572D01*
X62745238Y-15338572D02*
X62697619Y-15386191D01*
X62697619Y-15386191D02*
X62650000Y-15481429D01*
X62650000Y-15481429D02*
X62650000Y-15624286D01*
X62650000Y-15624286D02*
X62697619Y-15719524D01*
X62697619Y-15719524D02*
X62745238Y-15767144D01*
X62745238Y-15767144D02*
X62840476Y-15814763D01*
X62840476Y-15814763D02*
X63221428Y-15814763D01*
X63221428Y-15814763D02*
X63221428Y-14814763D01*
X63221428Y-14814763D02*
X62888095Y-14814763D01*
X62888095Y-14814763D02*
X62792857Y-14862382D01*
X62792857Y-14862382D02*
X62745238Y-14910001D01*
X62745238Y-14910001D02*
X62697619Y-15005239D01*
X62697619Y-15005239D02*
X62697619Y-15100477D01*
X62697619Y-15100477D02*
X62745238Y-15195715D01*
X62745238Y-15195715D02*
X62792857Y-15243334D01*
X62792857Y-15243334D02*
X62888095Y-15290953D01*
X62888095Y-15290953D02*
X63221428Y-15290953D01*
X62030952Y-15338572D02*
X62030952Y-15814763D01*
X62364285Y-14814763D02*
X62030952Y-15338572D01*
X62030952Y-15338572D02*
X61697619Y-14814763D01*
X61364285Y-15433810D02*
X60602381Y-15433810D01*
X60173809Y-15767144D02*
X60030952Y-15814763D01*
X60030952Y-15814763D02*
X59792857Y-15814763D01*
X59792857Y-15814763D02*
X59697619Y-15767144D01*
X59697619Y-15767144D02*
X59650000Y-15719524D01*
X59650000Y-15719524D02*
X59602381Y-15624286D01*
X59602381Y-15624286D02*
X59602381Y-15529048D01*
X59602381Y-15529048D02*
X59650000Y-15433810D01*
X59650000Y-15433810D02*
X59697619Y-15386191D01*
X59697619Y-15386191D02*
X59792857Y-15338572D01*
X59792857Y-15338572D02*
X59983333Y-15290953D01*
X59983333Y-15290953D02*
X60078571Y-15243334D01*
X60078571Y-15243334D02*
X60126190Y-15195715D01*
X60126190Y-15195715D02*
X60173809Y-15100477D01*
X60173809Y-15100477D02*
X60173809Y-15005239D01*
X60173809Y-15005239D02*
X60126190Y-14910001D01*
X60126190Y-14910001D02*
X60078571Y-14862382D01*
X60078571Y-14862382D02*
X59983333Y-14814763D01*
X59983333Y-14814763D02*
X59745238Y-14814763D01*
X59745238Y-14814763D02*
X59602381Y-14862382D01*
X59221428Y-15529048D02*
X58745238Y-15529048D01*
X59316666Y-15814763D02*
X58983333Y-14814763D01*
X58983333Y-14814763D02*
X58650000Y-15814763D01*
X57126190Y-15148096D02*
X57126190Y-15814763D01*
X57364285Y-14767144D02*
X57602380Y-15481429D01*
X57602380Y-15481429D02*
X56983333Y-15481429D01*
X56602380Y-15719524D02*
X56554761Y-15767144D01*
X56554761Y-15767144D02*
X56602380Y-15814763D01*
X56602380Y-15814763D02*
X56649999Y-15767144D01*
X56649999Y-15767144D02*
X56602380Y-15719524D01*
X56602380Y-15719524D02*
X56602380Y-15814763D01*
X55935714Y-14814763D02*
X55840476Y-14814763D01*
X55840476Y-14814763D02*
X55745238Y-14862382D01*
X55745238Y-14862382D02*
X55697619Y-14910001D01*
X55697619Y-14910001D02*
X55650000Y-15005239D01*
X55650000Y-15005239D02*
X55602381Y-15195715D01*
X55602381Y-15195715D02*
X55602381Y-15433810D01*
X55602381Y-15433810D02*
X55650000Y-15624286D01*
X55650000Y-15624286D02*
X55697619Y-15719524D01*
X55697619Y-15719524D02*
X55745238Y-15767144D01*
X55745238Y-15767144D02*
X55840476Y-15814763D01*
X55840476Y-15814763D02*
X55935714Y-15814763D01*
X55935714Y-15814763D02*
X56030952Y-15767144D01*
X56030952Y-15767144D02*
X56078571Y-15719524D01*
X56078571Y-15719524D02*
X56126190Y-15624286D01*
X56126190Y-15624286D02*
X56173809Y-15433810D01*
X56173809Y-15433810D02*
X56173809Y-15195715D01*
X56173809Y-15195715D02*
X56126190Y-15005239D01*
X56126190Y-15005239D02*
X56078571Y-14910001D01*
X56078571Y-14910001D02*
X56030952Y-14862382D01*
X56030952Y-14862382D02*
X55935714Y-14814763D01*
X53935714Y-15814763D02*
X54411904Y-15814763D01*
X54411904Y-15814763D02*
X54411904Y-14814763D01*
X53602380Y-15814763D02*
X53602380Y-15148096D01*
X53602380Y-14814763D02*
X53649999Y-14862382D01*
X53649999Y-14862382D02*
X53602380Y-14910001D01*
X53602380Y-14910001D02*
X53554761Y-14862382D01*
X53554761Y-14862382D02*
X53602380Y-14814763D01*
X53602380Y-14814763D02*
X53602380Y-14910001D01*
X52697619Y-15767144D02*
X52792857Y-15814763D01*
X52792857Y-15814763D02*
X52983333Y-15814763D01*
X52983333Y-15814763D02*
X53078571Y-15767144D01*
X53078571Y-15767144D02*
X53126190Y-15719524D01*
X53126190Y-15719524D02*
X53173809Y-15624286D01*
X53173809Y-15624286D02*
X53173809Y-15338572D01*
X53173809Y-15338572D02*
X53126190Y-15243334D01*
X53126190Y-15243334D02*
X53078571Y-15195715D01*
X53078571Y-15195715D02*
X52983333Y-15148096D01*
X52983333Y-15148096D02*
X52792857Y-15148096D01*
X52792857Y-15148096D02*
X52697619Y-15195715D01*
X51888095Y-15767144D02*
X51983333Y-15814763D01*
X51983333Y-15814763D02*
X52173809Y-15814763D01*
X52173809Y-15814763D02*
X52269047Y-15767144D01*
X52269047Y-15767144D02*
X52316666Y-15671905D01*
X52316666Y-15671905D02*
X52316666Y-15290953D01*
X52316666Y-15290953D02*
X52269047Y-15195715D01*
X52269047Y-15195715D02*
X52173809Y-15148096D01*
X52173809Y-15148096D02*
X51983333Y-15148096D01*
X51983333Y-15148096D02*
X51888095Y-15195715D01*
X51888095Y-15195715D02*
X51840476Y-15290953D01*
X51840476Y-15290953D02*
X51840476Y-15386191D01*
X51840476Y-15386191D02*
X52316666Y-15481429D01*
X51411904Y-15148096D02*
X51411904Y-15814763D01*
X51411904Y-15243334D02*
X51364285Y-15195715D01*
X51364285Y-15195715D02*
X51269047Y-15148096D01*
X51269047Y-15148096D02*
X51126190Y-15148096D01*
X51126190Y-15148096D02*
X51030952Y-15195715D01*
X51030952Y-15195715D02*
X50983333Y-15290953D01*
X50983333Y-15290953D02*
X50983333Y-15814763D01*
X50554761Y-15767144D02*
X50459523Y-15814763D01*
X50459523Y-15814763D02*
X50269047Y-15814763D01*
X50269047Y-15814763D02*
X50173809Y-15767144D01*
X50173809Y-15767144D02*
X50126190Y-15671905D01*
X50126190Y-15671905D02*
X50126190Y-15624286D01*
X50126190Y-15624286D02*
X50173809Y-15529048D01*
X50173809Y-15529048D02*
X50269047Y-15481429D01*
X50269047Y-15481429D02*
X50411904Y-15481429D01*
X50411904Y-15481429D02*
X50507142Y-15433810D01*
X50507142Y-15433810D02*
X50554761Y-15338572D01*
X50554761Y-15338572D02*
X50554761Y-15290953D01*
X50554761Y-15290953D02*
X50507142Y-15195715D01*
X50507142Y-15195715D02*
X50411904Y-15148096D01*
X50411904Y-15148096D02*
X50269047Y-15148096D01*
X50269047Y-15148096D02*
X50173809Y-15195715D01*
X49316666Y-15767144D02*
X49411904Y-15814763D01*
X49411904Y-15814763D02*
X49602380Y-15814763D01*
X49602380Y-15814763D02*
X49697618Y-15767144D01*
X49697618Y-15767144D02*
X49745237Y-15671905D01*
X49745237Y-15671905D02*
X49745237Y-15290953D01*
X49745237Y-15290953D02*
X49697618Y-15195715D01*
X49697618Y-15195715D02*
X49602380Y-15148096D01*
X49602380Y-15148096D02*
X49411904Y-15148096D01*
X49411904Y-15148096D02*
X49316666Y-15195715D01*
X49316666Y-15195715D02*
X49269047Y-15290953D01*
X49269047Y-15290953D02*
X49269047Y-15386191D01*
X49269047Y-15386191D02*
X49745237Y-15481429D01*
X29804819Y-29033333D02*
X29328628Y-28700000D01*
X29804819Y-28461905D02*
X28804819Y-28461905D01*
X28804819Y-28461905D02*
X28804819Y-28842857D01*
X28804819Y-28842857D02*
X28852438Y-28938095D01*
X28852438Y-28938095D02*
X28900057Y-28985714D01*
X28900057Y-28985714D02*
X28995295Y-29033333D01*
X28995295Y-29033333D02*
X29138152Y-29033333D01*
X29138152Y-29033333D02*
X29233390Y-28985714D01*
X29233390Y-28985714D02*
X29281009Y-28938095D01*
X29281009Y-28938095D02*
X29328628Y-28842857D01*
X29328628Y-28842857D02*
X29328628Y-28461905D01*
X28804819Y-29366667D02*
X28804819Y-29985714D01*
X28804819Y-29985714D02*
X29185771Y-29652381D01*
X29185771Y-29652381D02*
X29185771Y-29795238D01*
X29185771Y-29795238D02*
X29233390Y-29890476D01*
X29233390Y-29890476D02*
X29281009Y-29938095D01*
X29281009Y-29938095D02*
X29376247Y-29985714D01*
X29376247Y-29985714D02*
X29614342Y-29985714D01*
X29614342Y-29985714D02*
X29709580Y-29938095D01*
X29709580Y-29938095D02*
X29757200Y-29890476D01*
X29757200Y-29890476D02*
X29804819Y-29795238D01*
X29804819Y-29795238D02*
X29804819Y-29509524D01*
X29804819Y-29509524D02*
X29757200Y-29414286D01*
X29757200Y-29414286D02*
X29709580Y-29366667D01*
X48938094Y-35754819D02*
X48938094Y-34754819D01*
X48938094Y-34754819D02*
X48699999Y-34754819D01*
X48699999Y-34754819D02*
X48557142Y-34802438D01*
X48557142Y-34802438D02*
X48461904Y-34897676D01*
X48461904Y-34897676D02*
X48414285Y-34992914D01*
X48414285Y-34992914D02*
X48366666Y-35183390D01*
X48366666Y-35183390D02*
X48366666Y-35326247D01*
X48366666Y-35326247D02*
X48414285Y-35516723D01*
X48414285Y-35516723D02*
X48461904Y-35611961D01*
X48461904Y-35611961D02*
X48557142Y-35707200D01*
X48557142Y-35707200D02*
X48699999Y-35754819D01*
X48699999Y-35754819D02*
X48938094Y-35754819D01*
X47414285Y-35754819D02*
X47985713Y-35754819D01*
X47699999Y-35754819D02*
X47699999Y-34754819D01*
X47699999Y-34754819D02*
X47795237Y-34897676D01*
X47795237Y-34897676D02*
X47890475Y-34992914D01*
X47890475Y-34992914D02*
X47985713Y-35040533D01*
X57254819Y-25104761D02*
X56778628Y-24771428D01*
X57254819Y-24533333D02*
X56254819Y-24533333D01*
X56254819Y-24533333D02*
X56254819Y-24914285D01*
X56254819Y-24914285D02*
X56302438Y-25009523D01*
X56302438Y-25009523D02*
X56350057Y-25057142D01*
X56350057Y-25057142D02*
X56445295Y-25104761D01*
X56445295Y-25104761D02*
X56588152Y-25104761D01*
X56588152Y-25104761D02*
X56683390Y-25057142D01*
X56683390Y-25057142D02*
X56731009Y-25009523D01*
X56731009Y-25009523D02*
X56778628Y-24914285D01*
X56778628Y-24914285D02*
X56778628Y-24533333D01*
X56254819Y-25390476D02*
X57254819Y-25723809D01*
X57254819Y-25723809D02*
X56254819Y-26057142D01*
X57254819Y-26914285D02*
X57254819Y-26342857D01*
X57254819Y-26628571D02*
X56254819Y-26628571D01*
X56254819Y-26628571D02*
X56397676Y-26533333D01*
X56397676Y-26533333D02*
X56492914Y-26438095D01*
X56492914Y-26438095D02*
X56540533Y-26342857D01*
X43454819Y-25516666D02*
X44169104Y-25516666D01*
X44169104Y-25516666D02*
X44311961Y-25469047D01*
X44311961Y-25469047D02*
X44407200Y-25373809D01*
X44407200Y-25373809D02*
X44454819Y-25230952D01*
X44454819Y-25230952D02*
X44454819Y-25135714D01*
X44454819Y-26516666D02*
X44454819Y-25945238D01*
X44454819Y-26230952D02*
X43454819Y-26230952D01*
X43454819Y-26230952D02*
X43597676Y-26135714D01*
X43597676Y-26135714D02*
X43692914Y-26040476D01*
X43692914Y-26040476D02*
X43740533Y-25945238D01*
D10*
X30265000Y-28972936D02*
X30265000Y-29427064D01*
X31735000Y-28972936D02*
X31735000Y-29427064D01*
X46390000Y-34064000D02*
X46390000Y-34220000D01*
X46390000Y-36380000D02*
X46390000Y-36536000D01*
X43158563Y-34220000D02*
G75*
G02*
X46390000Y-34064484I1671437J-1080000D01*
G01*
X43789039Y-34220000D02*
G75*
G02*
X45870961Y-34220000I1040961J-1080000D01*
G01*
X45870961Y-36380000D02*
G75*
G02*
X43789039Y-36380000I-1040961J1080000D01*
G01*
X46390000Y-36535516D02*
G75*
G02*
X43158563Y-36380000I-1560000J1235516D01*
G01*
X58000000Y-16700000D02*
X58000000Y-34700000D01*
X58000000Y-16700000D02*
X72000000Y-16700000D01*
X58000000Y-34700000D02*
X72000000Y-34700000D01*
X72000000Y-16700000D02*
G75*
G02*
X72000000Y-34700000I0J-9000000D01*
G01*
X47000000Y-18850000D02*
X53000000Y-18850000D01*
X47000000Y-21850000D02*
X47000000Y-18850000D01*
X47000000Y-32850001D02*
X47000000Y-29850001D01*
X53000000Y-18850000D02*
X53000000Y-21850000D01*
X53000000Y-29850001D02*
X53000000Y-32850001D01*
X53000000Y-32850001D02*
X47000000Y-32850001D01*
X47000000Y-29850000D02*
G75*
G02*
X47000000Y-21850000I3000000J4000000D01*
G01*
X53000000Y-21850001D02*
G75*
G02*
X52999999Y-29850000I-3000001J-3999999D01*
G01*
%LPC*%
D12*
X26000000Y-11750000D03*
X66000000Y-40250000D03*
D13*
X37400000Y-30300000D03*
D14*
X37400000Y-28010000D03*
X37400000Y-25720000D03*
X37400000Y-23430000D03*
X37400000Y-21140000D03*
X35420000Y-31445000D03*
X35420000Y-29155000D03*
X35420000Y-26865000D03*
X35420000Y-24575000D03*
X35420000Y-22285000D03*
X33440000Y-30300000D03*
X33440000Y-28010000D03*
X33440000Y-25720000D03*
X33440000Y-23430000D03*
X33440000Y-21140000D03*
D15*
X35420000Y-13485000D03*
X35420000Y-38485000D03*
D16*
X31000000Y-28287500D03*
X31000000Y-30112500D03*
D17*
X46100000Y-35300000D03*
D18*
X43560000Y-35300000D03*
D19*
X71750000Y-25700000D03*
D20*
X60000000Y-20700000D03*
X60000000Y-25700000D03*
X60000000Y-30700000D03*
D21*
X51600000Y-25850000D03*
X50000000Y-31000000D03*
X50000000Y-20700000D03*
%LPD*%
M02*
