G04 #@! TF.GenerationSoftware,KiCad,Pcbnew,5.1.10-88a1d61d58~90~ubuntu20.04.1*
G04 #@! TF.CreationDate,2021-10-27T23:57:33-06:00*
G04 #@! TF.ProjectId,Z680 Standalone Subwoofer,5a363830-2053-4746-916e-64616c6f6e65,rev?*
G04 #@! TF.SameCoordinates,Original*
G04 #@! TF.FileFunction,Legend,Top*
G04 #@! TF.FilePolarity,Positive*
%FSLAX46Y46*%
G04 Gerber Fmt 4.6, Leading zero omitted, Abs format (unit mm)*
G04 Created by KiCad (PCBNEW 5.1.10-88a1d61d58~90~ubuntu20.04.1) date 2021-10-27 23:57:33*
%MOMM*%
%LPD*%
G01*
G04 APERTURE LIST*
%ADD10C,0.150000*%
%ADD11C,0.010000*%
%ADD12C,0.120000*%
%ADD13C,3.000000*%
%ADD14C,4.000000*%
%ADD15C,1.600000*%
%ADD16R,1.600000X1.600000*%
%ADD17R,5.800000X6.400000*%
%ADD18R,1.200000X2.200000*%
%ADD19C,2.000000*%
%ADD20C,16.500000*%
%ADD21C,2.200000*%
%ADD22C,1.800000*%
%ADD23R,1.800000X1.800000*%
G04 APERTURE END LIST*
D10*
X51242857Y-40114285D02*
X51214285Y-40142857D01*
X51128571Y-40171428D01*
X51071428Y-40171428D01*
X50985714Y-40142857D01*
X50928571Y-40085714D01*
X50900000Y-40028571D01*
X50871428Y-39914285D01*
X50871428Y-39828571D01*
X50900000Y-39714285D01*
X50928571Y-39657142D01*
X50985714Y-39600000D01*
X51071428Y-39571428D01*
X51128571Y-39571428D01*
X51214285Y-39600000D01*
X51242857Y-39628571D01*
X51842857Y-40114285D02*
X51814285Y-40142857D01*
X51728571Y-40171428D01*
X51671428Y-40171428D01*
X51585714Y-40142857D01*
X51528571Y-40085714D01*
X51500000Y-40028571D01*
X51471428Y-39914285D01*
X51471428Y-39828571D01*
X51500000Y-39714285D01*
X51528571Y-39657142D01*
X51585714Y-39600000D01*
X51671428Y-39571428D01*
X51728571Y-39571428D01*
X51814285Y-39600000D01*
X51842857Y-39628571D01*
X52757142Y-39857142D02*
X52842857Y-39885714D01*
X52871428Y-39914285D01*
X52900000Y-39971428D01*
X52900000Y-40057142D01*
X52871428Y-40114285D01*
X52842857Y-40142857D01*
X52785714Y-40171428D01*
X52557142Y-40171428D01*
X52557142Y-39571428D01*
X52757142Y-39571428D01*
X52814285Y-39600000D01*
X52842857Y-39628571D01*
X52871428Y-39685714D01*
X52871428Y-39742857D01*
X52842857Y-39800000D01*
X52814285Y-39828571D01*
X52757142Y-39857142D01*
X52557142Y-39857142D01*
X53271428Y-39885714D02*
X53271428Y-40171428D01*
X53071428Y-39571428D02*
X53271428Y-39885714D01*
X53471428Y-39571428D01*
X53671428Y-39942857D02*
X54128571Y-39942857D01*
X54385714Y-40142857D02*
X54471428Y-40171428D01*
X54614285Y-40171428D01*
X54671428Y-40142857D01*
X54700000Y-40114285D01*
X54728571Y-40057142D01*
X54728571Y-40000000D01*
X54700000Y-39942857D01*
X54671428Y-39914285D01*
X54614285Y-39885714D01*
X54500000Y-39857142D01*
X54442857Y-39828571D01*
X54414285Y-39800000D01*
X54385714Y-39742857D01*
X54385714Y-39685714D01*
X54414285Y-39628571D01*
X54442857Y-39600000D01*
X54500000Y-39571428D01*
X54642857Y-39571428D01*
X54728571Y-39600000D01*
X54957142Y-40000000D02*
X55242857Y-40000000D01*
X54900000Y-40171428D02*
X55100000Y-39571428D01*
X55300000Y-40171428D01*
X56214285Y-39771428D02*
X56214285Y-40171428D01*
X56071428Y-39542857D02*
X55928571Y-39971428D01*
X56300000Y-39971428D01*
X56528571Y-40114285D02*
X56557142Y-40142857D01*
X56528571Y-40171428D01*
X56500000Y-40142857D01*
X56528571Y-40114285D01*
X56528571Y-40171428D01*
X56928571Y-39571428D02*
X56985714Y-39571428D01*
X57042857Y-39600000D01*
X57071428Y-39628571D01*
X57100000Y-39685714D01*
X57128571Y-39800000D01*
X57128571Y-39942857D01*
X57100000Y-40057142D01*
X57071428Y-40114285D01*
X57042857Y-40142857D01*
X56985714Y-40171428D01*
X56928571Y-40171428D01*
X56871428Y-40142857D01*
X56842857Y-40114285D01*
X56814285Y-40057142D01*
X56785714Y-39942857D01*
X56785714Y-39800000D01*
X56814285Y-39685714D01*
X56842857Y-39628571D01*
X56871428Y-39600000D01*
X56928571Y-39571428D01*
X47076190Y-11702380D02*
X47742857Y-11702380D01*
X47076190Y-12702380D01*
X47742857Y-12702380D01*
X48552380Y-11702380D02*
X48361904Y-11702380D01*
X48266666Y-11750000D01*
X48219047Y-11797619D01*
X48123809Y-11940476D01*
X48076190Y-12130952D01*
X48076190Y-12511904D01*
X48123809Y-12607142D01*
X48171428Y-12654761D01*
X48266666Y-12702380D01*
X48457142Y-12702380D01*
X48552380Y-12654761D01*
X48599999Y-12607142D01*
X48647619Y-12511904D01*
X48647619Y-12273809D01*
X48599999Y-12178571D01*
X48552380Y-12130952D01*
X48457142Y-12083333D01*
X48266666Y-12083333D01*
X48171428Y-12130952D01*
X48123809Y-12178571D01*
X48076190Y-12273809D01*
X49219047Y-12130952D02*
X49123809Y-12083333D01*
X49076190Y-12035714D01*
X49028571Y-11940476D01*
X49028571Y-11892857D01*
X49076190Y-11797619D01*
X49123809Y-11750000D01*
X49219047Y-11702380D01*
X49409523Y-11702380D01*
X49504761Y-11750000D01*
X49552380Y-11797619D01*
X49599999Y-11892857D01*
X49599999Y-11940476D01*
X49552380Y-12035714D01*
X49504761Y-12083333D01*
X49409523Y-12130952D01*
X49219047Y-12130952D01*
X49123809Y-12178571D01*
X49076190Y-12226190D01*
X49028571Y-12321428D01*
X49028571Y-12511904D01*
X49076190Y-12607142D01*
X49123809Y-12654761D01*
X49219047Y-12702380D01*
X49409523Y-12702380D01*
X49504761Y-12654761D01*
X49552380Y-12607142D01*
X49599999Y-12511904D01*
X49599999Y-12321428D01*
X49552380Y-12226190D01*
X49504761Y-12178571D01*
X49409523Y-12130952D01*
X50219047Y-11702380D02*
X50314285Y-11702380D01*
X50409523Y-11750000D01*
X50457142Y-11797619D01*
X50504761Y-11892857D01*
X50552380Y-12083333D01*
X50552380Y-12321428D01*
X50504761Y-12511904D01*
X50457142Y-12607142D01*
X50409523Y-12654761D01*
X50314285Y-12702380D01*
X50219047Y-12702380D01*
X50123809Y-12654761D01*
X50076190Y-12607142D01*
X50028571Y-12511904D01*
X49980952Y-12321428D01*
X49980952Y-12083333D01*
X50028571Y-11892857D01*
X50076190Y-11797619D01*
X50123809Y-11750000D01*
X50219047Y-11702380D01*
X51695238Y-12654761D02*
X51838095Y-12702380D01*
X52076190Y-12702380D01*
X52171428Y-12654761D01*
X52219047Y-12607142D01*
X52266666Y-12511904D01*
X52266666Y-12416666D01*
X52219047Y-12321428D01*
X52171428Y-12273809D01*
X52076190Y-12226190D01*
X51885714Y-12178571D01*
X51790476Y-12130952D01*
X51742857Y-12083333D01*
X51695238Y-11988095D01*
X51695238Y-11892857D01*
X51742857Y-11797619D01*
X51790476Y-11750000D01*
X51885714Y-11702380D01*
X52123809Y-11702380D01*
X52266666Y-11750000D01*
X52552380Y-12035714D02*
X52933333Y-12035714D01*
X52695238Y-11702380D02*
X52695238Y-12559523D01*
X52742857Y-12654761D01*
X52838095Y-12702380D01*
X52933333Y-12702380D01*
X53695238Y-12702380D02*
X53695238Y-12178571D01*
X53647619Y-12083333D01*
X53552380Y-12035714D01*
X53361904Y-12035714D01*
X53266666Y-12083333D01*
X53695238Y-12654761D02*
X53599999Y-12702380D01*
X53361904Y-12702380D01*
X53266666Y-12654761D01*
X53219047Y-12559523D01*
X53219047Y-12464285D01*
X53266666Y-12369047D01*
X53361904Y-12321428D01*
X53599999Y-12321428D01*
X53695238Y-12273809D01*
X54171428Y-12035714D02*
X54171428Y-12702380D01*
X54171428Y-12130952D02*
X54219047Y-12083333D01*
X54314285Y-12035714D01*
X54457142Y-12035714D01*
X54552380Y-12083333D01*
X54599999Y-12178571D01*
X54599999Y-12702380D01*
X55504761Y-12702380D02*
X55504761Y-11702380D01*
X55504761Y-12654761D02*
X55409523Y-12702380D01*
X55219047Y-12702380D01*
X55123809Y-12654761D01*
X55076190Y-12607142D01*
X55028571Y-12511904D01*
X55028571Y-12226190D01*
X55076190Y-12130952D01*
X55123809Y-12083333D01*
X55219047Y-12035714D01*
X55409523Y-12035714D01*
X55504761Y-12083333D01*
X56409523Y-12702380D02*
X56409523Y-12178571D01*
X56361904Y-12083333D01*
X56266666Y-12035714D01*
X56076190Y-12035714D01*
X55980952Y-12083333D01*
X56409523Y-12654761D02*
X56314285Y-12702380D01*
X56076190Y-12702380D01*
X55980952Y-12654761D01*
X55933333Y-12559523D01*
X55933333Y-12464285D01*
X55980952Y-12369047D01*
X56076190Y-12321428D01*
X56314285Y-12321428D01*
X56409523Y-12273809D01*
X57028571Y-12702380D02*
X56933333Y-12654761D01*
X56885714Y-12559523D01*
X56885714Y-11702380D01*
X57552380Y-12702380D02*
X57457142Y-12654761D01*
X57409523Y-12607142D01*
X57361904Y-12511904D01*
X57361904Y-12226190D01*
X57409523Y-12130952D01*
X57457142Y-12083333D01*
X57552380Y-12035714D01*
X57695238Y-12035714D01*
X57790476Y-12083333D01*
X57838095Y-12130952D01*
X57885714Y-12226190D01*
X57885714Y-12511904D01*
X57838095Y-12607142D01*
X57790476Y-12654761D01*
X57695238Y-12702380D01*
X57552380Y-12702380D01*
X58314285Y-12035714D02*
X58314285Y-12702380D01*
X58314285Y-12130952D02*
X58361904Y-12083333D01*
X58457142Y-12035714D01*
X58600000Y-12035714D01*
X58695238Y-12083333D01*
X58742857Y-12178571D01*
X58742857Y-12702380D01*
X59600000Y-12654761D02*
X59504761Y-12702380D01*
X59314285Y-12702380D01*
X59219047Y-12654761D01*
X59171428Y-12559523D01*
X59171428Y-12178571D01*
X59219047Y-12083333D01*
X59314285Y-12035714D01*
X59504761Y-12035714D01*
X59600000Y-12083333D01*
X59647619Y-12178571D01*
X59647619Y-12273809D01*
X59171428Y-12369047D01*
X60790476Y-12654761D02*
X60933333Y-12702380D01*
X61171428Y-12702380D01*
X61266666Y-12654761D01*
X61314285Y-12607142D01*
X61361904Y-12511904D01*
X61361904Y-12416666D01*
X61314285Y-12321428D01*
X61266666Y-12273809D01*
X61171428Y-12226190D01*
X60980952Y-12178571D01*
X60885714Y-12130952D01*
X60838095Y-12083333D01*
X60790476Y-11988095D01*
X60790476Y-11892857D01*
X60838095Y-11797619D01*
X60885714Y-11750000D01*
X60980952Y-11702380D01*
X61219047Y-11702380D01*
X61361904Y-11750000D01*
X62219047Y-12035714D02*
X62219047Y-12702380D01*
X61790476Y-12035714D02*
X61790476Y-12559523D01*
X61838095Y-12654761D01*
X61933333Y-12702380D01*
X62076190Y-12702380D01*
X62171428Y-12654761D01*
X62219047Y-12607142D01*
X62695238Y-12702380D02*
X62695238Y-11702380D01*
X62695238Y-12083333D02*
X62790476Y-12035714D01*
X62980952Y-12035714D01*
X63076190Y-12083333D01*
X63123809Y-12130952D01*
X63171428Y-12226190D01*
X63171428Y-12511904D01*
X63123809Y-12607142D01*
X63076190Y-12654761D01*
X62980952Y-12702380D01*
X62790476Y-12702380D01*
X62695238Y-12654761D01*
X63504761Y-12035714D02*
X63695238Y-12702380D01*
X63885714Y-12226190D01*
X64076190Y-12702380D01*
X64266666Y-12035714D01*
X64790476Y-12702380D02*
X64695238Y-12654761D01*
X64647619Y-12607142D01*
X64599999Y-12511904D01*
X64599999Y-12226190D01*
X64647619Y-12130952D01*
X64695238Y-12083333D01*
X64790476Y-12035714D01*
X64933333Y-12035714D01*
X65028571Y-12083333D01*
X65076190Y-12130952D01*
X65123809Y-12226190D01*
X65123809Y-12511904D01*
X65076190Y-12607142D01*
X65028571Y-12654761D01*
X64933333Y-12702380D01*
X64790476Y-12702380D01*
X65695238Y-12702380D02*
X65599999Y-12654761D01*
X65552380Y-12607142D01*
X65504761Y-12511904D01*
X65504761Y-12226190D01*
X65552380Y-12130952D01*
X65599999Y-12083333D01*
X65695238Y-12035714D01*
X65838095Y-12035714D01*
X65933333Y-12083333D01*
X65980952Y-12130952D01*
X66028571Y-12226190D01*
X66028571Y-12511904D01*
X65980952Y-12607142D01*
X65933333Y-12654761D01*
X65838095Y-12702380D01*
X65695238Y-12702380D01*
X66314285Y-12035714D02*
X66695238Y-12035714D01*
X66457142Y-12702380D02*
X66457142Y-11845238D01*
X66504761Y-11750000D01*
X66599999Y-11702380D01*
X66695238Y-11702380D01*
X67409523Y-12654761D02*
X67314285Y-12702380D01*
X67123809Y-12702380D01*
X67028571Y-12654761D01*
X66980952Y-12559523D01*
X66980952Y-12178571D01*
X67028571Y-12083333D01*
X67123809Y-12035714D01*
X67314285Y-12035714D01*
X67409523Y-12083333D01*
X67457142Y-12178571D01*
X67457142Y-12273809D01*
X66980952Y-12369047D01*
X67885714Y-12702380D02*
X67885714Y-12035714D01*
X67885714Y-12226190D02*
X67933333Y-12130952D01*
X67980952Y-12083333D01*
X68076190Y-12035714D01*
X68171428Y-12035714D01*
X51171428Y-13828571D02*
X51314285Y-13876190D01*
X51361904Y-13923809D01*
X51409523Y-14019047D01*
X51409523Y-14161904D01*
X51361904Y-14257142D01*
X51314285Y-14304761D01*
X51219047Y-14352380D01*
X50838095Y-14352380D01*
X50838095Y-13352380D01*
X51171428Y-13352380D01*
X51266666Y-13400000D01*
X51314285Y-13447619D01*
X51361904Y-13542857D01*
X51361904Y-13638095D01*
X51314285Y-13733333D01*
X51266666Y-13780952D01*
X51171428Y-13828571D01*
X50838095Y-13828571D01*
X51838095Y-14352380D02*
X51838095Y-13352380D01*
X52076190Y-13352380D01*
X52219047Y-13400000D01*
X52314285Y-13495238D01*
X52361904Y-13590476D01*
X52409523Y-13780952D01*
X52409523Y-13923809D01*
X52361904Y-14114285D01*
X52314285Y-14209523D01*
X52219047Y-14304761D01*
X52076190Y-14352380D01*
X51838095Y-14352380D01*
X52838095Y-14352380D02*
X52838095Y-13352380D01*
X53171428Y-14066666D01*
X53504761Y-13352380D01*
X53504761Y-14352380D01*
X54695238Y-13447619D02*
X54742857Y-13400000D01*
X54838095Y-13352380D01*
X55076190Y-13352380D01*
X55171428Y-13400000D01*
X55219047Y-13447619D01*
X55266666Y-13542857D01*
X55266666Y-13638095D01*
X55219047Y-13780952D01*
X54647619Y-14352380D01*
X55266666Y-14352380D01*
X55885714Y-13352380D02*
X55980952Y-13352380D01*
X56076190Y-13400000D01*
X56123809Y-13447619D01*
X56171428Y-13542857D01*
X56219047Y-13733333D01*
X56219047Y-13971428D01*
X56171428Y-14161904D01*
X56123809Y-14257142D01*
X56076190Y-14304761D01*
X55980952Y-14352380D01*
X55885714Y-14352380D01*
X55790476Y-14304761D01*
X55742857Y-14257142D01*
X55695238Y-14161904D01*
X55647619Y-13971428D01*
X55647619Y-13733333D01*
X55695238Y-13542857D01*
X55742857Y-13447619D01*
X55790476Y-13400000D01*
X55885714Y-13352380D01*
X56600000Y-13447619D02*
X56647619Y-13400000D01*
X56742857Y-13352380D01*
X56980952Y-13352380D01*
X57076190Y-13400000D01*
X57123809Y-13447619D01*
X57171428Y-13542857D01*
X57171428Y-13638095D01*
X57123809Y-13780952D01*
X56552380Y-14352380D01*
X57171428Y-14352380D01*
X58123809Y-14352380D02*
X57552380Y-14352380D01*
X57838095Y-14352380D02*
X57838095Y-13352380D01*
X57742857Y-13495238D01*
X57647619Y-13590476D01*
X57552380Y-13638095D01*
X58552380Y-13971428D02*
X59314285Y-13971428D01*
X60314285Y-14352380D02*
X59742857Y-14352380D01*
X60028571Y-14352380D02*
X60028571Y-13352380D01*
X59933333Y-13495238D01*
X59838095Y-13590476D01*
X59742857Y-13638095D01*
X60933333Y-13352380D02*
X61028571Y-13352380D01*
X61123809Y-13400000D01*
X61171428Y-13447619D01*
X61219047Y-13542857D01*
X61266666Y-13733333D01*
X61266666Y-13971428D01*
X61219047Y-14161904D01*
X61171428Y-14257142D01*
X61123809Y-14304761D01*
X61028571Y-14352380D01*
X60933333Y-14352380D01*
X60838095Y-14304761D01*
X60790476Y-14257142D01*
X60742857Y-14161904D01*
X60695238Y-13971428D01*
X60695238Y-13733333D01*
X60742857Y-13542857D01*
X60790476Y-13447619D01*
X60838095Y-13400000D01*
X60933333Y-13352380D01*
X61695238Y-13971428D02*
X62457142Y-13971428D01*
X62885714Y-13447619D02*
X62933333Y-13400000D01*
X63028571Y-13352380D01*
X63266666Y-13352380D01*
X63361904Y-13400000D01*
X63409523Y-13447619D01*
X63457142Y-13542857D01*
X63457142Y-13638095D01*
X63409523Y-13780952D01*
X62838095Y-14352380D01*
X63457142Y-14352380D01*
X63790476Y-13352380D02*
X64457142Y-13352380D01*
X64028571Y-14352380D01*
X49838095Y-15907142D02*
X49790476Y-15954761D01*
X49647619Y-16002380D01*
X49552380Y-16002380D01*
X49409523Y-15954761D01*
X49314285Y-15859523D01*
X49266666Y-15764285D01*
X49219047Y-15573809D01*
X49219047Y-15430952D01*
X49266666Y-15240476D01*
X49314285Y-15145238D01*
X49409523Y-15050000D01*
X49552380Y-15002380D01*
X49647619Y-15002380D01*
X49790476Y-15050000D01*
X49838095Y-15097619D01*
X50838095Y-15907142D02*
X50790476Y-15954761D01*
X50647619Y-16002380D01*
X50552380Y-16002380D01*
X50409523Y-15954761D01*
X50314285Y-15859523D01*
X50266666Y-15764285D01*
X50219047Y-15573809D01*
X50219047Y-15430952D01*
X50266666Y-15240476D01*
X50314285Y-15145238D01*
X50409523Y-15050000D01*
X50552380Y-15002380D01*
X50647619Y-15002380D01*
X50790476Y-15050000D01*
X50838095Y-15097619D01*
X52361904Y-15478571D02*
X52504761Y-15526190D01*
X52552380Y-15573809D01*
X52600000Y-15669047D01*
X52600000Y-15811904D01*
X52552380Y-15907142D01*
X52504761Y-15954761D01*
X52409523Y-16002380D01*
X52028571Y-16002380D01*
X52028571Y-15002380D01*
X52361904Y-15002380D01*
X52457142Y-15050000D01*
X52504761Y-15097619D01*
X52552380Y-15192857D01*
X52552380Y-15288095D01*
X52504761Y-15383333D01*
X52457142Y-15430952D01*
X52361904Y-15478571D01*
X52028571Y-15478571D01*
X53219047Y-15526190D02*
X53219047Y-16002380D01*
X52885714Y-15002380D02*
X53219047Y-15526190D01*
X53552380Y-15002380D01*
X53885714Y-15621428D02*
X54647619Y-15621428D01*
X55076190Y-15954761D02*
X55219047Y-16002380D01*
X55457142Y-16002380D01*
X55552380Y-15954761D01*
X55600000Y-15907142D01*
X55647619Y-15811904D01*
X55647619Y-15716666D01*
X55600000Y-15621428D01*
X55552380Y-15573809D01*
X55457142Y-15526190D01*
X55266666Y-15478571D01*
X55171428Y-15430952D01*
X55123809Y-15383333D01*
X55076190Y-15288095D01*
X55076190Y-15192857D01*
X55123809Y-15097619D01*
X55171428Y-15050000D01*
X55266666Y-15002380D01*
X55504761Y-15002380D01*
X55647619Y-15050000D01*
X56028571Y-15716666D02*
X56504761Y-15716666D01*
X55933333Y-16002380D02*
X56266666Y-15002380D01*
X56600000Y-16002380D01*
X58123809Y-15335714D02*
X58123809Y-16002380D01*
X57885714Y-14954761D02*
X57647619Y-15669047D01*
X58266666Y-15669047D01*
X58647619Y-15907142D02*
X58695238Y-15954761D01*
X58647619Y-16002380D01*
X58600000Y-15954761D01*
X58647619Y-15907142D01*
X58647619Y-16002380D01*
X59314285Y-15002380D02*
X59409523Y-15002380D01*
X59504761Y-15050000D01*
X59552380Y-15097619D01*
X59600000Y-15192857D01*
X59647619Y-15383333D01*
X59647619Y-15621428D01*
X59600000Y-15811904D01*
X59552380Y-15907142D01*
X59504761Y-15954761D01*
X59409523Y-16002380D01*
X59314285Y-16002380D01*
X59219047Y-15954761D01*
X59171428Y-15907142D01*
X59123809Y-15811904D01*
X59076190Y-15621428D01*
X59076190Y-15383333D01*
X59123809Y-15192857D01*
X59171428Y-15097619D01*
X59219047Y-15050000D01*
X59314285Y-15002380D01*
X61314285Y-16002380D02*
X60838095Y-16002380D01*
X60838095Y-15002380D01*
X61647619Y-16002380D02*
X61647619Y-15335714D01*
X61647619Y-15002380D02*
X61600000Y-15050000D01*
X61647619Y-15097619D01*
X61695238Y-15050000D01*
X61647619Y-15002380D01*
X61647619Y-15097619D01*
X62552380Y-15954761D02*
X62457142Y-16002380D01*
X62266666Y-16002380D01*
X62171428Y-15954761D01*
X62123809Y-15907142D01*
X62076190Y-15811904D01*
X62076190Y-15526190D01*
X62123809Y-15430952D01*
X62171428Y-15383333D01*
X62266666Y-15335714D01*
X62457142Y-15335714D01*
X62552380Y-15383333D01*
X63361904Y-15954761D02*
X63266666Y-16002380D01*
X63076190Y-16002380D01*
X62980952Y-15954761D01*
X62933333Y-15859523D01*
X62933333Y-15478571D01*
X62980952Y-15383333D01*
X63076190Y-15335714D01*
X63266666Y-15335714D01*
X63361904Y-15383333D01*
X63409523Y-15478571D01*
X63409523Y-15573809D01*
X62933333Y-15669047D01*
X63838095Y-15335714D02*
X63838095Y-16002380D01*
X63838095Y-15430952D02*
X63885714Y-15383333D01*
X63980952Y-15335714D01*
X64123809Y-15335714D01*
X64219047Y-15383333D01*
X64266666Y-15478571D01*
X64266666Y-16002380D01*
X64695238Y-15954761D02*
X64790476Y-16002380D01*
X64980952Y-16002380D01*
X65076190Y-15954761D01*
X65123809Y-15859523D01*
X65123809Y-15811904D01*
X65076190Y-15716666D01*
X64980952Y-15669047D01*
X64838095Y-15669047D01*
X64742857Y-15621428D01*
X64695238Y-15526190D01*
X64695238Y-15478571D01*
X64742857Y-15383333D01*
X64838095Y-15335714D01*
X64980952Y-15335714D01*
X65076190Y-15383333D01*
X65933333Y-15954761D02*
X65838095Y-16002380D01*
X65647619Y-16002380D01*
X65552380Y-15954761D01*
X65504761Y-15859523D01*
X65504761Y-15478571D01*
X65552380Y-15383333D01*
X65647619Y-15335714D01*
X65838095Y-15335714D01*
X65933333Y-15383333D01*
X65980952Y-15478571D01*
X65980952Y-15573809D01*
X65504761Y-15669047D01*
D11*
G36*
X54103910Y-33742348D02*
G01*
X54182454Y-33742778D01*
X54239298Y-33743942D01*
X54278105Y-33746207D01*
X54302538Y-33749940D01*
X54316262Y-33755506D01*
X54322940Y-33763273D01*
X54326236Y-33773605D01*
X54326556Y-33774943D01*
X54331562Y-33799079D01*
X54340829Y-33846701D01*
X54353392Y-33912741D01*
X54368287Y-33992128D01*
X54384551Y-34079796D01*
X54385119Y-34082875D01*
X54401410Y-34168789D01*
X54416652Y-34244696D01*
X54429861Y-34306045D01*
X54440054Y-34348282D01*
X54446248Y-34366855D01*
X54446543Y-34367184D01*
X54464788Y-34376253D01*
X54502405Y-34391367D01*
X54551271Y-34409262D01*
X54551543Y-34409358D01*
X54613093Y-34432493D01*
X54685657Y-34461965D01*
X54754057Y-34491597D01*
X54757294Y-34493062D01*
X54868702Y-34543626D01*
X55115399Y-34375160D01*
X55191077Y-34323803D01*
X55259631Y-34277889D01*
X55317088Y-34240030D01*
X55359476Y-34212837D01*
X55382825Y-34198921D01*
X55385042Y-34197889D01*
X55402010Y-34202484D01*
X55433701Y-34224655D01*
X55481352Y-34265447D01*
X55546198Y-34325905D01*
X55612397Y-34390227D01*
X55676214Y-34453612D01*
X55733329Y-34511451D01*
X55780305Y-34560175D01*
X55813703Y-34596210D01*
X55830085Y-34615984D01*
X55830694Y-34617002D01*
X55832505Y-34630572D01*
X55825683Y-34652733D01*
X55808540Y-34686478D01*
X55779393Y-34734800D01*
X55736555Y-34800692D01*
X55679448Y-34885517D01*
X55628766Y-34960177D01*
X55583461Y-35027140D01*
X55546150Y-35082516D01*
X55519452Y-35122420D01*
X55505985Y-35142962D01*
X55505137Y-35144356D01*
X55506781Y-35164038D01*
X55519245Y-35202293D01*
X55540048Y-35251889D01*
X55547462Y-35267728D01*
X55579814Y-35338290D01*
X55614328Y-35418353D01*
X55642365Y-35487629D01*
X55662568Y-35539045D01*
X55678615Y-35578119D01*
X55687888Y-35598541D01*
X55689041Y-35600114D01*
X55706096Y-35602721D01*
X55746298Y-35609863D01*
X55804302Y-35620523D01*
X55874763Y-35633685D01*
X55952335Y-35648333D01*
X56031672Y-35663449D01*
X56107431Y-35678018D01*
X56174264Y-35691022D01*
X56226828Y-35701445D01*
X56259776Y-35708270D01*
X56267857Y-35710199D01*
X56276205Y-35714962D01*
X56282506Y-35725718D01*
X56287045Y-35746098D01*
X56290104Y-35779734D01*
X56291967Y-35830255D01*
X56292918Y-35901292D01*
X56293240Y-35996476D01*
X56293257Y-36035492D01*
X56293257Y-36352799D01*
X56217057Y-36367839D01*
X56174663Y-36375995D01*
X56111400Y-36387899D01*
X56034962Y-36402116D01*
X55953043Y-36417210D01*
X55930400Y-36421355D01*
X55854806Y-36436053D01*
X55788953Y-36450505D01*
X55738366Y-36463375D01*
X55708574Y-36473322D01*
X55703612Y-36476287D01*
X55691426Y-36497283D01*
X55673953Y-36537967D01*
X55654577Y-36590322D01*
X55650734Y-36601600D01*
X55625339Y-36671523D01*
X55593817Y-36750418D01*
X55562969Y-36821266D01*
X55562817Y-36821595D01*
X55511447Y-36932733D01*
X55680399Y-37181253D01*
X55849352Y-37429772D01*
X55632429Y-37647058D01*
X55566819Y-37711726D01*
X55506979Y-37768733D01*
X55456267Y-37815033D01*
X55418046Y-37847584D01*
X55395675Y-37863343D01*
X55392466Y-37864343D01*
X55373626Y-37856469D01*
X55335180Y-37834578D01*
X55281330Y-37801267D01*
X55216276Y-37759131D01*
X55145940Y-37711943D01*
X55074555Y-37663810D01*
X55010908Y-37621928D01*
X54959041Y-37588871D01*
X54922995Y-37567218D01*
X54906867Y-37559543D01*
X54887189Y-37566037D01*
X54849875Y-37583150D01*
X54802621Y-37607326D01*
X54797612Y-37610013D01*
X54733977Y-37641927D01*
X54690341Y-37657579D01*
X54663202Y-37657745D01*
X54649057Y-37643204D01*
X54648975Y-37643000D01*
X54641905Y-37625779D01*
X54625042Y-37584899D01*
X54599695Y-37523525D01*
X54567171Y-37444819D01*
X54528778Y-37351947D01*
X54485822Y-37248072D01*
X54444222Y-37147502D01*
X54398504Y-37036516D01*
X54356526Y-36933703D01*
X54319548Y-36842215D01*
X54288827Y-36765201D01*
X54265622Y-36705815D01*
X54251190Y-36667209D01*
X54246743Y-36652800D01*
X54257896Y-36636272D01*
X54287069Y-36609930D01*
X54325971Y-36580887D01*
X54436757Y-36489039D01*
X54523351Y-36383759D01*
X54584716Y-36267266D01*
X54619815Y-36141776D01*
X54627608Y-36009507D01*
X54621943Y-35948457D01*
X54591078Y-35821795D01*
X54537920Y-35709941D01*
X54465767Y-35614001D01*
X54377917Y-35535076D01*
X54277665Y-35474270D01*
X54168310Y-35432687D01*
X54053147Y-35411428D01*
X53935475Y-35411599D01*
X53818590Y-35434301D01*
X53705789Y-35480638D01*
X53600369Y-35551713D01*
X53556368Y-35591911D01*
X53471979Y-35695129D01*
X53413222Y-35807925D01*
X53379704Y-35927010D01*
X53371035Y-36049095D01*
X53386823Y-36170893D01*
X53426678Y-36289116D01*
X53490207Y-36400475D01*
X53577021Y-36501684D01*
X53674029Y-36580887D01*
X53714437Y-36611162D01*
X53742982Y-36637219D01*
X53753257Y-36652825D01*
X53747877Y-36669843D01*
X53732575Y-36710500D01*
X53708612Y-36771642D01*
X53677244Y-36850119D01*
X53639732Y-36942780D01*
X53597333Y-37046472D01*
X53555663Y-37147526D01*
X53509690Y-37258607D01*
X53467107Y-37361541D01*
X53429221Y-37453165D01*
X53397340Y-37530316D01*
X53372771Y-37589831D01*
X53356820Y-37628544D01*
X53350910Y-37643000D01*
X53336948Y-37657685D01*
X53309940Y-37657642D01*
X53266413Y-37642099D01*
X53202890Y-37610284D01*
X53202388Y-37610013D01*
X53154560Y-37585323D01*
X53115897Y-37567338D01*
X53094095Y-37559614D01*
X53093133Y-37559543D01*
X53076721Y-37567378D01*
X53040487Y-37589165D01*
X52988474Y-37622328D01*
X52924725Y-37664291D01*
X52854060Y-37711943D01*
X52782116Y-37760191D01*
X52717274Y-37802151D01*
X52663735Y-37835227D01*
X52625697Y-37856821D01*
X52607533Y-37864343D01*
X52590808Y-37854457D01*
X52557180Y-37826826D01*
X52510010Y-37784495D01*
X52452658Y-37730505D01*
X52388484Y-37667899D01*
X52367497Y-37646983D01*
X52150499Y-37429623D01*
X52315668Y-37187220D01*
X52365864Y-37112781D01*
X52409919Y-37045972D01*
X52445362Y-36990665D01*
X52469719Y-36950729D01*
X52480522Y-36930036D01*
X52480838Y-36928563D01*
X52475143Y-36909058D01*
X52459826Y-36869822D01*
X52437537Y-36817430D01*
X52421893Y-36782355D01*
X52392641Y-36715201D01*
X52365094Y-36647358D01*
X52343737Y-36590034D01*
X52337935Y-36572572D01*
X52321452Y-36525938D01*
X52305340Y-36489905D01*
X52296490Y-36476287D01*
X52276960Y-36467952D01*
X52234334Y-36456137D01*
X52174145Y-36442181D01*
X52101922Y-36427422D01*
X52069600Y-36421355D01*
X51987522Y-36406273D01*
X51908795Y-36391669D01*
X51841109Y-36378980D01*
X51792160Y-36369642D01*
X51782943Y-36367839D01*
X51706743Y-36352799D01*
X51706743Y-36035492D01*
X51706914Y-35931154D01*
X51707616Y-35852213D01*
X51709134Y-35795038D01*
X51711749Y-35755999D01*
X51715746Y-35731465D01*
X51721409Y-35717805D01*
X51729020Y-35711389D01*
X51732143Y-35710199D01*
X51750978Y-35705980D01*
X51792588Y-35697562D01*
X51851630Y-35685961D01*
X51922757Y-35672195D01*
X52000625Y-35657280D01*
X52079887Y-35642232D01*
X52155198Y-35628069D01*
X52221213Y-35615806D01*
X52272587Y-35606461D01*
X52303975Y-35601050D01*
X52310959Y-35600114D01*
X52317285Y-35587596D01*
X52331290Y-35554246D01*
X52350355Y-35506377D01*
X52357634Y-35487629D01*
X52386996Y-35415195D01*
X52421571Y-35335170D01*
X52452537Y-35267728D01*
X52475323Y-35216159D01*
X52490482Y-35173785D01*
X52495542Y-35147834D01*
X52494736Y-35144356D01*
X52484041Y-35127936D01*
X52459620Y-35091417D01*
X52424095Y-35038687D01*
X52380087Y-34973635D01*
X52330217Y-34900151D01*
X52320356Y-34885645D01*
X52262492Y-34799704D01*
X52219956Y-34734261D01*
X52191054Y-34686304D01*
X52174090Y-34652820D01*
X52167367Y-34630795D01*
X52169190Y-34617217D01*
X52169236Y-34617131D01*
X52183586Y-34599297D01*
X52215323Y-34564817D01*
X52261010Y-34517268D01*
X52317204Y-34460222D01*
X52380468Y-34397255D01*
X52387602Y-34390227D01*
X52467330Y-34313020D01*
X52528857Y-34256330D01*
X52573421Y-34219110D01*
X52602257Y-34200315D01*
X52614958Y-34197889D01*
X52633494Y-34208471D01*
X52671961Y-34232916D01*
X52726386Y-34268612D01*
X52792798Y-34312947D01*
X52867225Y-34363311D01*
X52884601Y-34375160D01*
X53131297Y-34543626D01*
X53242706Y-34493062D01*
X53310457Y-34463595D01*
X53383183Y-34433959D01*
X53445703Y-34410330D01*
X53448457Y-34409358D01*
X53497360Y-34391457D01*
X53535057Y-34376320D01*
X53553425Y-34367210D01*
X53553456Y-34367184D01*
X53559285Y-34350717D01*
X53569192Y-34310219D01*
X53582195Y-34250242D01*
X53597309Y-34175340D01*
X53613552Y-34090064D01*
X53614881Y-34082875D01*
X53631175Y-33995014D01*
X53646133Y-33915260D01*
X53658791Y-33848681D01*
X53668186Y-33800347D01*
X53673354Y-33775325D01*
X53673444Y-33774943D01*
X53676589Y-33764299D01*
X53682704Y-33756262D01*
X53695453Y-33750467D01*
X53718500Y-33746547D01*
X53755509Y-33744135D01*
X53810144Y-33742865D01*
X53886067Y-33742371D01*
X53986944Y-33742286D01*
X54000000Y-33742286D01*
X54103910Y-33742348D01*
G37*
X54103910Y-33742348D02*
X54182454Y-33742778D01*
X54239298Y-33743942D01*
X54278105Y-33746207D01*
X54302538Y-33749940D01*
X54316262Y-33755506D01*
X54322940Y-33763273D01*
X54326236Y-33773605D01*
X54326556Y-33774943D01*
X54331562Y-33799079D01*
X54340829Y-33846701D01*
X54353392Y-33912741D01*
X54368287Y-33992128D01*
X54384551Y-34079796D01*
X54385119Y-34082875D01*
X54401410Y-34168789D01*
X54416652Y-34244696D01*
X54429861Y-34306045D01*
X54440054Y-34348282D01*
X54446248Y-34366855D01*
X54446543Y-34367184D01*
X54464788Y-34376253D01*
X54502405Y-34391367D01*
X54551271Y-34409262D01*
X54551543Y-34409358D01*
X54613093Y-34432493D01*
X54685657Y-34461965D01*
X54754057Y-34491597D01*
X54757294Y-34493062D01*
X54868702Y-34543626D01*
X55115399Y-34375160D01*
X55191077Y-34323803D01*
X55259631Y-34277889D01*
X55317088Y-34240030D01*
X55359476Y-34212837D01*
X55382825Y-34198921D01*
X55385042Y-34197889D01*
X55402010Y-34202484D01*
X55433701Y-34224655D01*
X55481352Y-34265447D01*
X55546198Y-34325905D01*
X55612397Y-34390227D01*
X55676214Y-34453612D01*
X55733329Y-34511451D01*
X55780305Y-34560175D01*
X55813703Y-34596210D01*
X55830085Y-34615984D01*
X55830694Y-34617002D01*
X55832505Y-34630572D01*
X55825683Y-34652733D01*
X55808540Y-34686478D01*
X55779393Y-34734800D01*
X55736555Y-34800692D01*
X55679448Y-34885517D01*
X55628766Y-34960177D01*
X55583461Y-35027140D01*
X55546150Y-35082516D01*
X55519452Y-35122420D01*
X55505985Y-35142962D01*
X55505137Y-35144356D01*
X55506781Y-35164038D01*
X55519245Y-35202293D01*
X55540048Y-35251889D01*
X55547462Y-35267728D01*
X55579814Y-35338290D01*
X55614328Y-35418353D01*
X55642365Y-35487629D01*
X55662568Y-35539045D01*
X55678615Y-35578119D01*
X55687888Y-35598541D01*
X55689041Y-35600114D01*
X55706096Y-35602721D01*
X55746298Y-35609863D01*
X55804302Y-35620523D01*
X55874763Y-35633685D01*
X55952335Y-35648333D01*
X56031672Y-35663449D01*
X56107431Y-35678018D01*
X56174264Y-35691022D01*
X56226828Y-35701445D01*
X56259776Y-35708270D01*
X56267857Y-35710199D01*
X56276205Y-35714962D01*
X56282506Y-35725718D01*
X56287045Y-35746098D01*
X56290104Y-35779734D01*
X56291967Y-35830255D01*
X56292918Y-35901292D01*
X56293240Y-35996476D01*
X56293257Y-36035492D01*
X56293257Y-36352799D01*
X56217057Y-36367839D01*
X56174663Y-36375995D01*
X56111400Y-36387899D01*
X56034962Y-36402116D01*
X55953043Y-36417210D01*
X55930400Y-36421355D01*
X55854806Y-36436053D01*
X55788953Y-36450505D01*
X55738366Y-36463375D01*
X55708574Y-36473322D01*
X55703612Y-36476287D01*
X55691426Y-36497283D01*
X55673953Y-36537967D01*
X55654577Y-36590322D01*
X55650734Y-36601600D01*
X55625339Y-36671523D01*
X55593817Y-36750418D01*
X55562969Y-36821266D01*
X55562817Y-36821595D01*
X55511447Y-36932733D01*
X55680399Y-37181253D01*
X55849352Y-37429772D01*
X55632429Y-37647058D01*
X55566819Y-37711726D01*
X55506979Y-37768733D01*
X55456267Y-37815033D01*
X55418046Y-37847584D01*
X55395675Y-37863343D01*
X55392466Y-37864343D01*
X55373626Y-37856469D01*
X55335180Y-37834578D01*
X55281330Y-37801267D01*
X55216276Y-37759131D01*
X55145940Y-37711943D01*
X55074555Y-37663810D01*
X55010908Y-37621928D01*
X54959041Y-37588871D01*
X54922995Y-37567218D01*
X54906867Y-37559543D01*
X54887189Y-37566037D01*
X54849875Y-37583150D01*
X54802621Y-37607326D01*
X54797612Y-37610013D01*
X54733977Y-37641927D01*
X54690341Y-37657579D01*
X54663202Y-37657745D01*
X54649057Y-37643204D01*
X54648975Y-37643000D01*
X54641905Y-37625779D01*
X54625042Y-37584899D01*
X54599695Y-37523525D01*
X54567171Y-37444819D01*
X54528778Y-37351947D01*
X54485822Y-37248072D01*
X54444222Y-37147502D01*
X54398504Y-37036516D01*
X54356526Y-36933703D01*
X54319548Y-36842215D01*
X54288827Y-36765201D01*
X54265622Y-36705815D01*
X54251190Y-36667209D01*
X54246743Y-36652800D01*
X54257896Y-36636272D01*
X54287069Y-36609930D01*
X54325971Y-36580887D01*
X54436757Y-36489039D01*
X54523351Y-36383759D01*
X54584716Y-36267266D01*
X54619815Y-36141776D01*
X54627608Y-36009507D01*
X54621943Y-35948457D01*
X54591078Y-35821795D01*
X54537920Y-35709941D01*
X54465767Y-35614001D01*
X54377917Y-35535076D01*
X54277665Y-35474270D01*
X54168310Y-35432687D01*
X54053147Y-35411428D01*
X53935475Y-35411599D01*
X53818590Y-35434301D01*
X53705789Y-35480638D01*
X53600369Y-35551713D01*
X53556368Y-35591911D01*
X53471979Y-35695129D01*
X53413222Y-35807925D01*
X53379704Y-35927010D01*
X53371035Y-36049095D01*
X53386823Y-36170893D01*
X53426678Y-36289116D01*
X53490207Y-36400475D01*
X53577021Y-36501684D01*
X53674029Y-36580887D01*
X53714437Y-36611162D01*
X53742982Y-36637219D01*
X53753257Y-36652825D01*
X53747877Y-36669843D01*
X53732575Y-36710500D01*
X53708612Y-36771642D01*
X53677244Y-36850119D01*
X53639732Y-36942780D01*
X53597333Y-37046472D01*
X53555663Y-37147526D01*
X53509690Y-37258607D01*
X53467107Y-37361541D01*
X53429221Y-37453165D01*
X53397340Y-37530316D01*
X53372771Y-37589831D01*
X53356820Y-37628544D01*
X53350910Y-37643000D01*
X53336948Y-37657685D01*
X53309940Y-37657642D01*
X53266413Y-37642099D01*
X53202890Y-37610284D01*
X53202388Y-37610013D01*
X53154560Y-37585323D01*
X53115897Y-37567338D01*
X53094095Y-37559614D01*
X53093133Y-37559543D01*
X53076721Y-37567378D01*
X53040487Y-37589165D01*
X52988474Y-37622328D01*
X52924725Y-37664291D01*
X52854060Y-37711943D01*
X52782116Y-37760191D01*
X52717274Y-37802151D01*
X52663735Y-37835227D01*
X52625697Y-37856821D01*
X52607533Y-37864343D01*
X52590808Y-37854457D01*
X52557180Y-37826826D01*
X52510010Y-37784495D01*
X52452658Y-37730505D01*
X52388484Y-37667899D01*
X52367497Y-37646983D01*
X52150499Y-37429623D01*
X52315668Y-37187220D01*
X52365864Y-37112781D01*
X52409919Y-37045972D01*
X52445362Y-36990665D01*
X52469719Y-36950729D01*
X52480522Y-36930036D01*
X52480838Y-36928563D01*
X52475143Y-36909058D01*
X52459826Y-36869822D01*
X52437537Y-36817430D01*
X52421893Y-36782355D01*
X52392641Y-36715201D01*
X52365094Y-36647358D01*
X52343737Y-36590034D01*
X52337935Y-36572572D01*
X52321452Y-36525938D01*
X52305340Y-36489905D01*
X52296490Y-36476287D01*
X52276960Y-36467952D01*
X52234334Y-36456137D01*
X52174145Y-36442181D01*
X52101922Y-36427422D01*
X52069600Y-36421355D01*
X51987522Y-36406273D01*
X51908795Y-36391669D01*
X51841109Y-36378980D01*
X51792160Y-36369642D01*
X51782943Y-36367839D01*
X51706743Y-36352799D01*
X51706743Y-36035492D01*
X51706914Y-35931154D01*
X51707616Y-35852213D01*
X51709134Y-35795038D01*
X51711749Y-35755999D01*
X51715746Y-35731465D01*
X51721409Y-35717805D01*
X51729020Y-35711389D01*
X51732143Y-35710199D01*
X51750978Y-35705980D01*
X51792588Y-35697562D01*
X51851630Y-35685961D01*
X51922757Y-35672195D01*
X52000625Y-35657280D01*
X52079887Y-35642232D01*
X52155198Y-35628069D01*
X52221213Y-35615806D01*
X52272587Y-35606461D01*
X52303975Y-35601050D01*
X52310959Y-35600114D01*
X52317285Y-35587596D01*
X52331290Y-35554246D01*
X52350355Y-35506377D01*
X52357634Y-35487629D01*
X52386996Y-35415195D01*
X52421571Y-35335170D01*
X52452537Y-35267728D01*
X52475323Y-35216159D01*
X52490482Y-35173785D01*
X52495542Y-35147834D01*
X52494736Y-35144356D01*
X52484041Y-35127936D01*
X52459620Y-35091417D01*
X52424095Y-35038687D01*
X52380087Y-34973635D01*
X52330217Y-34900151D01*
X52320356Y-34885645D01*
X52262492Y-34799704D01*
X52219956Y-34734261D01*
X52191054Y-34686304D01*
X52174090Y-34652820D01*
X52167367Y-34630795D01*
X52169190Y-34617217D01*
X52169236Y-34617131D01*
X52183586Y-34599297D01*
X52215323Y-34564817D01*
X52261010Y-34517268D01*
X52317204Y-34460222D01*
X52380468Y-34397255D01*
X52387602Y-34390227D01*
X52467330Y-34313020D01*
X52528857Y-34256330D01*
X52573421Y-34219110D01*
X52602257Y-34200315D01*
X52614958Y-34197889D01*
X52633494Y-34208471D01*
X52671961Y-34232916D01*
X52726386Y-34268612D01*
X52792798Y-34312947D01*
X52867225Y-34363311D01*
X52884601Y-34375160D01*
X53131297Y-34543626D01*
X53242706Y-34493062D01*
X53310457Y-34463595D01*
X53383183Y-34433959D01*
X53445703Y-34410330D01*
X53448457Y-34409358D01*
X53497360Y-34391457D01*
X53535057Y-34376320D01*
X53553425Y-34367210D01*
X53553456Y-34367184D01*
X53559285Y-34350717D01*
X53569192Y-34310219D01*
X53582195Y-34250242D01*
X53597309Y-34175340D01*
X53613552Y-34090064D01*
X53614881Y-34082875D01*
X53631175Y-33995014D01*
X53646133Y-33915260D01*
X53658791Y-33848681D01*
X53668186Y-33800347D01*
X53673354Y-33775325D01*
X53673444Y-33774943D01*
X53676589Y-33764299D01*
X53682704Y-33756262D01*
X53695453Y-33750467D01*
X53718500Y-33746547D01*
X53755509Y-33744135D01*
X53810144Y-33742865D01*
X53886067Y-33742371D01*
X53986944Y-33742286D01*
X54000000Y-33742286D01*
X54103910Y-33742348D01*
G36*
X57153595Y-38466966D02*
G01*
X57211021Y-38504497D01*
X57238719Y-38538096D01*
X57260662Y-38599064D01*
X57262405Y-38647308D01*
X57258457Y-38711816D01*
X57109686Y-38776934D01*
X57037349Y-38810202D01*
X56990084Y-38836964D01*
X56965507Y-38860144D01*
X56961237Y-38882667D01*
X56974889Y-38907455D01*
X56989943Y-38923886D01*
X57033746Y-38950235D01*
X57081389Y-38952081D01*
X57125145Y-38931546D01*
X57157289Y-38890752D01*
X57163038Y-38876347D01*
X57190576Y-38831356D01*
X57222258Y-38812182D01*
X57265714Y-38795779D01*
X57265714Y-38857966D01*
X57261872Y-38900283D01*
X57246823Y-38935969D01*
X57215280Y-38976943D01*
X57210592Y-38982267D01*
X57175506Y-39018720D01*
X57145347Y-39038283D01*
X57107615Y-39047283D01*
X57076335Y-39050230D01*
X57020385Y-39050965D01*
X56980555Y-39041660D01*
X56955708Y-39027846D01*
X56916656Y-38997467D01*
X56889625Y-38964613D01*
X56872517Y-38923294D01*
X56863238Y-38867521D01*
X56859693Y-38791305D01*
X56859410Y-38752622D01*
X56860372Y-38706247D01*
X56948007Y-38706247D01*
X56949023Y-38731126D01*
X56951556Y-38735200D01*
X56968274Y-38729665D01*
X57004249Y-38715017D01*
X57052331Y-38694190D01*
X57062386Y-38689714D01*
X57123152Y-38658814D01*
X57156632Y-38631657D01*
X57163990Y-38606220D01*
X57146391Y-38580481D01*
X57131856Y-38569109D01*
X57079410Y-38546364D01*
X57030322Y-38550122D01*
X56989227Y-38577884D01*
X56960758Y-38627152D01*
X56951631Y-38666257D01*
X56948007Y-38706247D01*
X56860372Y-38706247D01*
X56861285Y-38662249D01*
X56868196Y-38595384D01*
X56881884Y-38546695D01*
X56904096Y-38510849D01*
X56936574Y-38482513D01*
X56950733Y-38473355D01*
X57015053Y-38449507D01*
X57085473Y-38448006D01*
X57153595Y-38466966D01*
G37*
X57153595Y-38466966D02*
X57211021Y-38504497D01*
X57238719Y-38538096D01*
X57260662Y-38599064D01*
X57262405Y-38647308D01*
X57258457Y-38711816D01*
X57109686Y-38776934D01*
X57037349Y-38810202D01*
X56990084Y-38836964D01*
X56965507Y-38860144D01*
X56961237Y-38882667D01*
X56974889Y-38907455D01*
X56989943Y-38923886D01*
X57033746Y-38950235D01*
X57081389Y-38952081D01*
X57125145Y-38931546D01*
X57157289Y-38890752D01*
X57163038Y-38876347D01*
X57190576Y-38831356D01*
X57222258Y-38812182D01*
X57265714Y-38795779D01*
X57265714Y-38857966D01*
X57261872Y-38900283D01*
X57246823Y-38935969D01*
X57215280Y-38976943D01*
X57210592Y-38982267D01*
X57175506Y-39018720D01*
X57145347Y-39038283D01*
X57107615Y-39047283D01*
X57076335Y-39050230D01*
X57020385Y-39050965D01*
X56980555Y-39041660D01*
X56955708Y-39027846D01*
X56916656Y-38997467D01*
X56889625Y-38964613D01*
X56872517Y-38923294D01*
X56863238Y-38867521D01*
X56859693Y-38791305D01*
X56859410Y-38752622D01*
X56860372Y-38706247D01*
X56948007Y-38706247D01*
X56949023Y-38731126D01*
X56951556Y-38735200D01*
X56968274Y-38729665D01*
X57004249Y-38715017D01*
X57052331Y-38694190D01*
X57062386Y-38689714D01*
X57123152Y-38658814D01*
X57156632Y-38631657D01*
X57163990Y-38606220D01*
X57146391Y-38580481D01*
X57131856Y-38569109D01*
X57079410Y-38546364D01*
X57030322Y-38550122D01*
X56989227Y-38577884D01*
X56960758Y-38627152D01*
X56951631Y-38666257D01*
X56948007Y-38706247D01*
X56860372Y-38706247D01*
X56861285Y-38662249D01*
X56868196Y-38595384D01*
X56881884Y-38546695D01*
X56904096Y-38510849D01*
X56936574Y-38482513D01*
X56950733Y-38473355D01*
X57015053Y-38449507D01*
X57085473Y-38448006D01*
X57153595Y-38466966D01*
G36*
X56652600Y-38458752D02*
G01*
X56669948Y-38466334D01*
X56711356Y-38499128D01*
X56746765Y-38546547D01*
X56768664Y-38597151D01*
X56772229Y-38622098D01*
X56760279Y-38656927D01*
X56734067Y-38675357D01*
X56705964Y-38686516D01*
X56693095Y-38688572D01*
X56686829Y-38673649D01*
X56674456Y-38641175D01*
X56669028Y-38626502D01*
X56638590Y-38575744D01*
X56594520Y-38550427D01*
X56538010Y-38551206D01*
X56533825Y-38552203D01*
X56503655Y-38566507D01*
X56481476Y-38594393D01*
X56466327Y-38639287D01*
X56457250Y-38704615D01*
X56453286Y-38793804D01*
X56452914Y-38841261D01*
X56452730Y-38916071D01*
X56451522Y-38967069D01*
X56448309Y-38999471D01*
X56442109Y-39018495D01*
X56431940Y-39029356D01*
X56416819Y-39037272D01*
X56415946Y-39037670D01*
X56386828Y-39049981D01*
X56372403Y-39054514D01*
X56370186Y-39040809D01*
X56368289Y-39002925D01*
X56366847Y-38945715D01*
X56365998Y-38874027D01*
X56365829Y-38821565D01*
X56366692Y-38720047D01*
X56370070Y-38643032D01*
X56377142Y-38586023D01*
X56389088Y-38544526D01*
X56407090Y-38514043D01*
X56432327Y-38490080D01*
X56457247Y-38473355D01*
X56517171Y-38451097D01*
X56586911Y-38446076D01*
X56652600Y-38458752D01*
G37*
X56652600Y-38458752D02*
X56669948Y-38466334D01*
X56711356Y-38499128D01*
X56746765Y-38546547D01*
X56768664Y-38597151D01*
X56772229Y-38622098D01*
X56760279Y-38656927D01*
X56734067Y-38675357D01*
X56705964Y-38686516D01*
X56693095Y-38688572D01*
X56686829Y-38673649D01*
X56674456Y-38641175D01*
X56669028Y-38626502D01*
X56638590Y-38575744D01*
X56594520Y-38550427D01*
X56538010Y-38551206D01*
X56533825Y-38552203D01*
X56503655Y-38566507D01*
X56481476Y-38594393D01*
X56466327Y-38639287D01*
X56457250Y-38704615D01*
X56453286Y-38793804D01*
X56452914Y-38841261D01*
X56452730Y-38916071D01*
X56451522Y-38967069D01*
X56448309Y-38999471D01*
X56442109Y-39018495D01*
X56431940Y-39029356D01*
X56416819Y-39037272D01*
X56415946Y-39037670D01*
X56386828Y-39049981D01*
X56372403Y-39054514D01*
X56370186Y-39040809D01*
X56368289Y-39002925D01*
X56366847Y-38945715D01*
X56365998Y-38874027D01*
X56365829Y-38821565D01*
X56366692Y-38720047D01*
X56370070Y-38643032D01*
X56377142Y-38586023D01*
X56389088Y-38544526D01*
X56407090Y-38514043D01*
X56432327Y-38490080D01*
X56457247Y-38473355D01*
X56517171Y-38451097D01*
X56586911Y-38446076D01*
X56652600Y-38458752D01*
G36*
X56144876Y-38456335D02*
G01*
X56186667Y-38475344D01*
X56219469Y-38498378D01*
X56243503Y-38524133D01*
X56260097Y-38557358D01*
X56270577Y-38602800D01*
X56276271Y-38665207D01*
X56278507Y-38749327D01*
X56278743Y-38804721D01*
X56278743Y-39020826D01*
X56241774Y-39037670D01*
X56212656Y-39049981D01*
X56198231Y-39054514D01*
X56195472Y-39041025D01*
X56193282Y-39004653D01*
X56191942Y-38951542D01*
X56191657Y-38909372D01*
X56190434Y-38848447D01*
X56187136Y-38800115D01*
X56182321Y-38770518D01*
X56178496Y-38764229D01*
X56152783Y-38770652D01*
X56112418Y-38787125D01*
X56065679Y-38809458D01*
X56020845Y-38833457D01*
X55986193Y-38854930D01*
X55970002Y-38869685D01*
X55969938Y-38869845D01*
X55971330Y-38897152D01*
X55983818Y-38923219D01*
X56005743Y-38944392D01*
X56037743Y-38951474D01*
X56065092Y-38950649D01*
X56103826Y-38950042D01*
X56124158Y-38959116D01*
X56136369Y-38983092D01*
X56137909Y-38987613D01*
X56143203Y-39021806D01*
X56129047Y-39042568D01*
X56092148Y-39052462D01*
X56052289Y-39054292D01*
X55980562Y-39040727D01*
X55943432Y-39021355D01*
X55897576Y-38975845D01*
X55873256Y-38919983D01*
X55871073Y-38860957D01*
X55891629Y-38805953D01*
X55922549Y-38771486D01*
X55953420Y-38752189D01*
X56001942Y-38727759D01*
X56058485Y-38702985D01*
X56067910Y-38699199D01*
X56130019Y-38671791D01*
X56165822Y-38647634D01*
X56177337Y-38623619D01*
X56166580Y-38596635D01*
X56148114Y-38575543D01*
X56104469Y-38549572D01*
X56056446Y-38547624D01*
X56012406Y-38567637D01*
X55980709Y-38607551D01*
X55976549Y-38617848D01*
X55952327Y-38655724D01*
X55916965Y-38683842D01*
X55872343Y-38706917D01*
X55872343Y-38641485D01*
X55874969Y-38601506D01*
X55886230Y-38569997D01*
X55911199Y-38536378D01*
X55935169Y-38510484D01*
X55972441Y-38473817D01*
X56001401Y-38454121D01*
X56032505Y-38446220D01*
X56067713Y-38444914D01*
X56144876Y-38456335D01*
G37*
X56144876Y-38456335D02*
X56186667Y-38475344D01*
X56219469Y-38498378D01*
X56243503Y-38524133D01*
X56260097Y-38557358D01*
X56270577Y-38602800D01*
X56276271Y-38665207D01*
X56278507Y-38749327D01*
X56278743Y-38804721D01*
X56278743Y-39020826D01*
X56241774Y-39037670D01*
X56212656Y-39049981D01*
X56198231Y-39054514D01*
X56195472Y-39041025D01*
X56193282Y-39004653D01*
X56191942Y-38951542D01*
X56191657Y-38909372D01*
X56190434Y-38848447D01*
X56187136Y-38800115D01*
X56182321Y-38770518D01*
X56178496Y-38764229D01*
X56152783Y-38770652D01*
X56112418Y-38787125D01*
X56065679Y-38809458D01*
X56020845Y-38833457D01*
X55986193Y-38854930D01*
X55970002Y-38869685D01*
X55969938Y-38869845D01*
X55971330Y-38897152D01*
X55983818Y-38923219D01*
X56005743Y-38944392D01*
X56037743Y-38951474D01*
X56065092Y-38950649D01*
X56103826Y-38950042D01*
X56124158Y-38959116D01*
X56136369Y-38983092D01*
X56137909Y-38987613D01*
X56143203Y-39021806D01*
X56129047Y-39042568D01*
X56092148Y-39052462D01*
X56052289Y-39054292D01*
X55980562Y-39040727D01*
X55943432Y-39021355D01*
X55897576Y-38975845D01*
X55873256Y-38919983D01*
X55871073Y-38860957D01*
X55891629Y-38805953D01*
X55922549Y-38771486D01*
X55953420Y-38752189D01*
X56001942Y-38727759D01*
X56058485Y-38702985D01*
X56067910Y-38699199D01*
X56130019Y-38671791D01*
X56165822Y-38647634D01*
X56177337Y-38623619D01*
X56166580Y-38596635D01*
X56148114Y-38575543D01*
X56104469Y-38549572D01*
X56056446Y-38547624D01*
X56012406Y-38567637D01*
X55980709Y-38607551D01*
X55976549Y-38617848D01*
X55952327Y-38655724D01*
X55916965Y-38683842D01*
X55872343Y-38706917D01*
X55872343Y-38641485D01*
X55874969Y-38601506D01*
X55886230Y-38569997D01*
X55911199Y-38536378D01*
X55935169Y-38510484D01*
X55972441Y-38473817D01*
X56001401Y-38454121D01*
X56032505Y-38446220D01*
X56067713Y-38444914D01*
X56144876Y-38456335D01*
G36*
X55779833Y-38458663D02*
G01*
X55782048Y-38496850D01*
X55783784Y-38554886D01*
X55784899Y-38628180D01*
X55785257Y-38705055D01*
X55785257Y-38965196D01*
X55739326Y-39011127D01*
X55707675Y-39039429D01*
X55679890Y-39050893D01*
X55641915Y-39050168D01*
X55626840Y-39048321D01*
X55579726Y-39042948D01*
X55540756Y-39039869D01*
X55531257Y-39039585D01*
X55499233Y-39041445D01*
X55453432Y-39046114D01*
X55435674Y-39048321D01*
X55392057Y-39051735D01*
X55362745Y-39044320D01*
X55333680Y-39021427D01*
X55323188Y-39011127D01*
X55277257Y-38965196D01*
X55277257Y-38478602D01*
X55314226Y-38461758D01*
X55346059Y-38449282D01*
X55364683Y-38444914D01*
X55369458Y-38458718D01*
X55373921Y-38497286D01*
X55377775Y-38556356D01*
X55380722Y-38631663D01*
X55382143Y-38695286D01*
X55386114Y-38945657D01*
X55420759Y-38950556D01*
X55452268Y-38947131D01*
X55467708Y-38936041D01*
X55472023Y-38915308D01*
X55475708Y-38871145D01*
X55478469Y-38809146D01*
X55480012Y-38734909D01*
X55480235Y-38696706D01*
X55480457Y-38476783D01*
X55526166Y-38460849D01*
X55558518Y-38450015D01*
X55576115Y-38444962D01*
X55576623Y-38444914D01*
X55578388Y-38458648D01*
X55580329Y-38496730D01*
X55582282Y-38554482D01*
X55584084Y-38627227D01*
X55585343Y-38695286D01*
X55589314Y-38945657D01*
X55676400Y-38945657D01*
X55680396Y-38717240D01*
X55684392Y-38488822D01*
X55726847Y-38466868D01*
X55758192Y-38451793D01*
X55776744Y-38444951D01*
X55777279Y-38444914D01*
X55779833Y-38458663D01*
G37*
X55779833Y-38458663D02*
X55782048Y-38496850D01*
X55783784Y-38554886D01*
X55784899Y-38628180D01*
X55785257Y-38705055D01*
X55785257Y-38965196D01*
X55739326Y-39011127D01*
X55707675Y-39039429D01*
X55679890Y-39050893D01*
X55641915Y-39050168D01*
X55626840Y-39048321D01*
X55579726Y-39042948D01*
X55540756Y-39039869D01*
X55531257Y-39039585D01*
X55499233Y-39041445D01*
X55453432Y-39046114D01*
X55435674Y-39048321D01*
X55392057Y-39051735D01*
X55362745Y-39044320D01*
X55333680Y-39021427D01*
X55323188Y-39011127D01*
X55277257Y-38965196D01*
X55277257Y-38478602D01*
X55314226Y-38461758D01*
X55346059Y-38449282D01*
X55364683Y-38444914D01*
X55369458Y-38458718D01*
X55373921Y-38497286D01*
X55377775Y-38556356D01*
X55380722Y-38631663D01*
X55382143Y-38695286D01*
X55386114Y-38945657D01*
X55420759Y-38950556D01*
X55452268Y-38947131D01*
X55467708Y-38936041D01*
X55472023Y-38915308D01*
X55475708Y-38871145D01*
X55478469Y-38809146D01*
X55480012Y-38734909D01*
X55480235Y-38696706D01*
X55480457Y-38476783D01*
X55526166Y-38460849D01*
X55558518Y-38450015D01*
X55576115Y-38444962D01*
X55576623Y-38444914D01*
X55578388Y-38458648D01*
X55580329Y-38496730D01*
X55582282Y-38554482D01*
X55584084Y-38627227D01*
X55585343Y-38695286D01*
X55589314Y-38945657D01*
X55676400Y-38945657D01*
X55680396Y-38717240D01*
X55684392Y-38488822D01*
X55726847Y-38466868D01*
X55758192Y-38451793D01*
X55776744Y-38444951D01*
X55777279Y-38444914D01*
X55779833Y-38458663D01*
G36*
X55190117Y-38565358D02*
G01*
X55189933Y-38673837D01*
X55189219Y-38757287D01*
X55187675Y-38819704D01*
X55185001Y-38865085D01*
X55180894Y-38897429D01*
X55175055Y-38920733D01*
X55167182Y-38938995D01*
X55161221Y-38949418D01*
X55111855Y-39005945D01*
X55049264Y-39041377D01*
X54980013Y-39054090D01*
X54910668Y-39042463D01*
X54869375Y-39021568D01*
X54826025Y-38985422D01*
X54796481Y-38941276D01*
X54778655Y-38883462D01*
X54770463Y-38806313D01*
X54769302Y-38749714D01*
X54769458Y-38745647D01*
X54870857Y-38745647D01*
X54871476Y-38810550D01*
X54874314Y-38853514D01*
X54880840Y-38881622D01*
X54892523Y-38901953D01*
X54906483Y-38917288D01*
X54953365Y-38946890D01*
X55003701Y-38949419D01*
X55051276Y-38924705D01*
X55054979Y-38921356D01*
X55070783Y-38903935D01*
X55080693Y-38883209D01*
X55086058Y-38852362D01*
X55088228Y-38804577D01*
X55088571Y-38751748D01*
X55087827Y-38685381D01*
X55084748Y-38641106D01*
X55078061Y-38612009D01*
X55066496Y-38591173D01*
X55057013Y-38580107D01*
X55012960Y-38552198D01*
X54962224Y-38548843D01*
X54913796Y-38570159D01*
X54904450Y-38578073D01*
X54888540Y-38595647D01*
X54878610Y-38616587D01*
X54873278Y-38647782D01*
X54871163Y-38696122D01*
X54870857Y-38745647D01*
X54769458Y-38745647D01*
X54772810Y-38658568D01*
X54784726Y-38590086D01*
X54807135Y-38538600D01*
X54842124Y-38498443D01*
X54869375Y-38477861D01*
X54918907Y-38455625D01*
X54976316Y-38445304D01*
X55029682Y-38448067D01*
X55059543Y-38459212D01*
X55071261Y-38462383D01*
X55079037Y-38450557D01*
X55084465Y-38418866D01*
X55088571Y-38370593D01*
X55093067Y-38316829D01*
X55099313Y-38284482D01*
X55110676Y-38265985D01*
X55130528Y-38253770D01*
X55143000Y-38248362D01*
X55190171Y-38228601D01*
X55190117Y-38565358D01*
G37*
X55190117Y-38565358D02*
X55189933Y-38673837D01*
X55189219Y-38757287D01*
X55187675Y-38819704D01*
X55185001Y-38865085D01*
X55180894Y-38897429D01*
X55175055Y-38920733D01*
X55167182Y-38938995D01*
X55161221Y-38949418D01*
X55111855Y-39005945D01*
X55049264Y-39041377D01*
X54980013Y-39054090D01*
X54910668Y-39042463D01*
X54869375Y-39021568D01*
X54826025Y-38985422D01*
X54796481Y-38941276D01*
X54778655Y-38883462D01*
X54770463Y-38806313D01*
X54769302Y-38749714D01*
X54769458Y-38745647D01*
X54870857Y-38745647D01*
X54871476Y-38810550D01*
X54874314Y-38853514D01*
X54880840Y-38881622D01*
X54892523Y-38901953D01*
X54906483Y-38917288D01*
X54953365Y-38946890D01*
X55003701Y-38949419D01*
X55051276Y-38924705D01*
X55054979Y-38921356D01*
X55070783Y-38903935D01*
X55080693Y-38883209D01*
X55086058Y-38852362D01*
X55088228Y-38804577D01*
X55088571Y-38751748D01*
X55087827Y-38685381D01*
X55084748Y-38641106D01*
X55078061Y-38612009D01*
X55066496Y-38591173D01*
X55057013Y-38580107D01*
X55012960Y-38552198D01*
X54962224Y-38548843D01*
X54913796Y-38570159D01*
X54904450Y-38578073D01*
X54888540Y-38595647D01*
X54878610Y-38616587D01*
X54873278Y-38647782D01*
X54871163Y-38696122D01*
X54870857Y-38745647D01*
X54769458Y-38745647D01*
X54772810Y-38658568D01*
X54784726Y-38590086D01*
X54807135Y-38538600D01*
X54842124Y-38498443D01*
X54869375Y-38477861D01*
X54918907Y-38455625D01*
X54976316Y-38445304D01*
X55029682Y-38448067D01*
X55059543Y-38459212D01*
X55071261Y-38462383D01*
X55079037Y-38450557D01*
X55084465Y-38418866D01*
X55088571Y-38370593D01*
X55093067Y-38316829D01*
X55099313Y-38284482D01*
X55110676Y-38265985D01*
X55130528Y-38253770D01*
X55143000Y-38248362D01*
X55190171Y-38228601D01*
X55190117Y-38565358D01*
G36*
X54529926Y-38449755D02*
G01*
X54595858Y-38474084D01*
X54649273Y-38517117D01*
X54670164Y-38547409D01*
X54692939Y-38602994D01*
X54692466Y-38643186D01*
X54668562Y-38670217D01*
X54659717Y-38674813D01*
X54621530Y-38689144D01*
X54602028Y-38685472D01*
X54595422Y-38661407D01*
X54595086Y-38648114D01*
X54582992Y-38599210D01*
X54551471Y-38564999D01*
X54507659Y-38548476D01*
X54458695Y-38552634D01*
X54418894Y-38574227D01*
X54405450Y-38586544D01*
X54395921Y-38601487D01*
X54389485Y-38624075D01*
X54385317Y-38659328D01*
X54382597Y-38712266D01*
X54380502Y-38787907D01*
X54379960Y-38811857D01*
X54377981Y-38893790D01*
X54375731Y-38951455D01*
X54372357Y-38989608D01*
X54367006Y-39013004D01*
X54358824Y-39026398D01*
X54346959Y-39034545D01*
X54339362Y-39038144D01*
X54307102Y-39050452D01*
X54288111Y-39054514D01*
X54281836Y-39040948D01*
X54278006Y-38999934D01*
X54276600Y-38930999D01*
X54277598Y-38833669D01*
X54277908Y-38818657D01*
X54280101Y-38729859D01*
X54282693Y-38665019D01*
X54286382Y-38619067D01*
X54291864Y-38586935D01*
X54299835Y-38563553D01*
X54310993Y-38543852D01*
X54316830Y-38535410D01*
X54350296Y-38498057D01*
X54387727Y-38469003D01*
X54392309Y-38466467D01*
X54459426Y-38446443D01*
X54529926Y-38449755D01*
G37*
X54529926Y-38449755D02*
X54595858Y-38474084D01*
X54649273Y-38517117D01*
X54670164Y-38547409D01*
X54692939Y-38602994D01*
X54692466Y-38643186D01*
X54668562Y-38670217D01*
X54659717Y-38674813D01*
X54621530Y-38689144D01*
X54602028Y-38685472D01*
X54595422Y-38661407D01*
X54595086Y-38648114D01*
X54582992Y-38599210D01*
X54551471Y-38564999D01*
X54507659Y-38548476D01*
X54458695Y-38552634D01*
X54418894Y-38574227D01*
X54405450Y-38586544D01*
X54395921Y-38601487D01*
X54389485Y-38624075D01*
X54385317Y-38659328D01*
X54382597Y-38712266D01*
X54380502Y-38787907D01*
X54379960Y-38811857D01*
X54377981Y-38893790D01*
X54375731Y-38951455D01*
X54372357Y-38989608D01*
X54367006Y-39013004D01*
X54358824Y-39026398D01*
X54346959Y-39034545D01*
X54339362Y-39038144D01*
X54307102Y-39050452D01*
X54288111Y-39054514D01*
X54281836Y-39040948D01*
X54278006Y-38999934D01*
X54276600Y-38930999D01*
X54277598Y-38833669D01*
X54277908Y-38818657D01*
X54280101Y-38729859D01*
X54282693Y-38665019D01*
X54286382Y-38619067D01*
X54291864Y-38586935D01*
X54299835Y-38563553D01*
X54310993Y-38543852D01*
X54316830Y-38535410D01*
X54350296Y-38498057D01*
X54387727Y-38469003D01*
X54392309Y-38466467D01*
X54459426Y-38446443D01*
X54529926Y-38449755D01*
G36*
X54039744Y-38450968D02*
G01*
X54096616Y-38472087D01*
X54097267Y-38472493D01*
X54132440Y-38498380D01*
X54158407Y-38528633D01*
X54176670Y-38568058D01*
X54188732Y-38621462D01*
X54196096Y-38693651D01*
X54200264Y-38789432D01*
X54200629Y-38803078D01*
X54205876Y-39008842D01*
X54161716Y-39031678D01*
X54129763Y-39047110D01*
X54110470Y-39054423D01*
X54109578Y-39054514D01*
X54106239Y-39041022D01*
X54103587Y-39004626D01*
X54101956Y-38951452D01*
X54101600Y-38908393D01*
X54101592Y-38838641D01*
X54098403Y-38794837D01*
X54087288Y-38773944D01*
X54063501Y-38772925D01*
X54022296Y-38788741D01*
X53960086Y-38817815D01*
X53914341Y-38841963D01*
X53890813Y-38862913D01*
X53883896Y-38885747D01*
X53883886Y-38886877D01*
X53895299Y-38926212D01*
X53929092Y-38947462D01*
X53980809Y-38950539D01*
X54018061Y-38950006D01*
X54037703Y-38960735D01*
X54049952Y-38986505D01*
X54057002Y-39019337D01*
X54046842Y-39037966D01*
X54043017Y-39040632D01*
X54007001Y-39051340D01*
X53956566Y-39052856D01*
X53904626Y-39045759D01*
X53867822Y-39032788D01*
X53816938Y-38989585D01*
X53788014Y-38929446D01*
X53782286Y-38882462D01*
X53786657Y-38840082D01*
X53802475Y-38805488D01*
X53833797Y-38774763D01*
X53884678Y-38743990D01*
X53959176Y-38709252D01*
X53963714Y-38707288D01*
X54030821Y-38676287D01*
X54072232Y-38650862D01*
X54089981Y-38628014D01*
X54086107Y-38604745D01*
X54062643Y-38578056D01*
X54055627Y-38571914D01*
X54008630Y-38548100D01*
X53959933Y-38549103D01*
X53917522Y-38572451D01*
X53889384Y-38615675D01*
X53886769Y-38624160D01*
X53861308Y-38665308D01*
X53829001Y-38685128D01*
X53782286Y-38704770D01*
X53782286Y-38653950D01*
X53796496Y-38580082D01*
X53838675Y-38512327D01*
X53860624Y-38489661D01*
X53910517Y-38460569D01*
X53973967Y-38447400D01*
X54039744Y-38450968D01*
G37*
X54039744Y-38450968D02*
X54096616Y-38472087D01*
X54097267Y-38472493D01*
X54132440Y-38498380D01*
X54158407Y-38528633D01*
X54176670Y-38568058D01*
X54188732Y-38621462D01*
X54196096Y-38693651D01*
X54200264Y-38789432D01*
X54200629Y-38803078D01*
X54205876Y-39008842D01*
X54161716Y-39031678D01*
X54129763Y-39047110D01*
X54110470Y-39054423D01*
X54109578Y-39054514D01*
X54106239Y-39041022D01*
X54103587Y-39004626D01*
X54101956Y-38951452D01*
X54101600Y-38908393D01*
X54101592Y-38838641D01*
X54098403Y-38794837D01*
X54087288Y-38773944D01*
X54063501Y-38772925D01*
X54022296Y-38788741D01*
X53960086Y-38817815D01*
X53914341Y-38841963D01*
X53890813Y-38862913D01*
X53883896Y-38885747D01*
X53883886Y-38886877D01*
X53895299Y-38926212D01*
X53929092Y-38947462D01*
X53980809Y-38950539D01*
X54018061Y-38950006D01*
X54037703Y-38960735D01*
X54049952Y-38986505D01*
X54057002Y-39019337D01*
X54046842Y-39037966D01*
X54043017Y-39040632D01*
X54007001Y-39051340D01*
X53956566Y-39052856D01*
X53904626Y-39045759D01*
X53867822Y-39032788D01*
X53816938Y-38989585D01*
X53788014Y-38929446D01*
X53782286Y-38882462D01*
X53786657Y-38840082D01*
X53802475Y-38805488D01*
X53833797Y-38774763D01*
X53884678Y-38743990D01*
X53959176Y-38709252D01*
X53963714Y-38707288D01*
X54030821Y-38676287D01*
X54072232Y-38650862D01*
X54089981Y-38628014D01*
X54086107Y-38604745D01*
X54062643Y-38578056D01*
X54055627Y-38571914D01*
X54008630Y-38548100D01*
X53959933Y-38549103D01*
X53917522Y-38572451D01*
X53889384Y-38615675D01*
X53886769Y-38624160D01*
X53861308Y-38665308D01*
X53829001Y-38685128D01*
X53782286Y-38704770D01*
X53782286Y-38653950D01*
X53796496Y-38580082D01*
X53838675Y-38512327D01*
X53860624Y-38489661D01*
X53910517Y-38460569D01*
X53973967Y-38447400D01*
X54039744Y-38450968D01*
G36*
X53375886Y-38351289D02*
G01*
X53380139Y-38410613D01*
X53385025Y-38445572D01*
X53391795Y-38460820D01*
X53401702Y-38461015D01*
X53404914Y-38459195D01*
X53447644Y-38446015D01*
X53503227Y-38446785D01*
X53559737Y-38460333D01*
X53595082Y-38477861D01*
X53631321Y-38505861D01*
X53657813Y-38537549D01*
X53675999Y-38577813D01*
X53687322Y-38631543D01*
X53693222Y-38703626D01*
X53695143Y-38798951D01*
X53695177Y-38817237D01*
X53695200Y-39022646D01*
X53649491Y-39038580D01*
X53617027Y-39049420D01*
X53599215Y-39054468D01*
X53598691Y-39054514D01*
X53596937Y-39040828D01*
X53595444Y-39003076D01*
X53594326Y-38946224D01*
X53593697Y-38875234D01*
X53593600Y-38832073D01*
X53593398Y-38746973D01*
X53592358Y-38685981D01*
X53589831Y-38644177D01*
X53585164Y-38616642D01*
X53577707Y-38598456D01*
X53566811Y-38584698D01*
X53560007Y-38578073D01*
X53513272Y-38551375D01*
X53462272Y-38549375D01*
X53416001Y-38571955D01*
X53407444Y-38580107D01*
X53394893Y-38595436D01*
X53386188Y-38613618D01*
X53380631Y-38639909D01*
X53377526Y-38679562D01*
X53376176Y-38737832D01*
X53375886Y-38818173D01*
X53375886Y-39022646D01*
X53330177Y-39038580D01*
X53297713Y-39049420D01*
X53279901Y-39054468D01*
X53279377Y-39054514D01*
X53278037Y-39040623D01*
X53276828Y-39001439D01*
X53275801Y-38940700D01*
X53275002Y-38862141D01*
X53274481Y-38769498D01*
X53274286Y-38666509D01*
X53274286Y-38269342D01*
X53321457Y-38249444D01*
X53368629Y-38229547D01*
X53375886Y-38351289D01*
G37*
X53375886Y-38351289D02*
X53380139Y-38410613D01*
X53385025Y-38445572D01*
X53391795Y-38460820D01*
X53401702Y-38461015D01*
X53404914Y-38459195D01*
X53447644Y-38446015D01*
X53503227Y-38446785D01*
X53559737Y-38460333D01*
X53595082Y-38477861D01*
X53631321Y-38505861D01*
X53657813Y-38537549D01*
X53675999Y-38577813D01*
X53687322Y-38631543D01*
X53693222Y-38703626D01*
X53695143Y-38798951D01*
X53695177Y-38817237D01*
X53695200Y-39022646D01*
X53649491Y-39038580D01*
X53617027Y-39049420D01*
X53599215Y-39054468D01*
X53598691Y-39054514D01*
X53596937Y-39040828D01*
X53595444Y-39003076D01*
X53594326Y-38946224D01*
X53593697Y-38875234D01*
X53593600Y-38832073D01*
X53593398Y-38746973D01*
X53592358Y-38685981D01*
X53589831Y-38644177D01*
X53585164Y-38616642D01*
X53577707Y-38598456D01*
X53566811Y-38584698D01*
X53560007Y-38578073D01*
X53513272Y-38551375D01*
X53462272Y-38549375D01*
X53416001Y-38571955D01*
X53407444Y-38580107D01*
X53394893Y-38595436D01*
X53386188Y-38613618D01*
X53380631Y-38639909D01*
X53377526Y-38679562D01*
X53376176Y-38737832D01*
X53375886Y-38818173D01*
X53375886Y-39022646D01*
X53330177Y-39038580D01*
X53297713Y-39049420D01*
X53279901Y-39054468D01*
X53279377Y-39054514D01*
X53278037Y-39040623D01*
X53276828Y-39001439D01*
X53275801Y-38940700D01*
X53275002Y-38862141D01*
X53274481Y-38769498D01*
X53274286Y-38666509D01*
X53274286Y-38269342D01*
X53321457Y-38249444D01*
X53368629Y-38229547D01*
X53375886Y-38351289D01*
G36*
X52168303Y-38431239D02*
G01*
X52225527Y-38469735D01*
X52269749Y-38525335D01*
X52296167Y-38596086D01*
X52301510Y-38648162D01*
X52300903Y-38669893D01*
X52295822Y-38686531D01*
X52281855Y-38701437D01*
X52254589Y-38717973D01*
X52209612Y-38739498D01*
X52142511Y-38769374D01*
X52142171Y-38769524D01*
X52080407Y-38797813D01*
X52029759Y-38822933D01*
X51995404Y-38842179D01*
X51982518Y-38852848D01*
X51982514Y-38852934D01*
X51993872Y-38876166D01*
X52020431Y-38901774D01*
X52050923Y-38920221D01*
X52066370Y-38923886D01*
X52108515Y-38911212D01*
X52144808Y-38879471D01*
X52162517Y-38844572D01*
X52179552Y-38818845D01*
X52212922Y-38789546D01*
X52252149Y-38764235D01*
X52286756Y-38750471D01*
X52293993Y-38749714D01*
X52302139Y-38762160D01*
X52302630Y-38793972D01*
X52296643Y-38836866D01*
X52285357Y-38882558D01*
X52269950Y-38922761D01*
X52269171Y-38924322D01*
X52222804Y-38989062D01*
X52162711Y-39033097D01*
X52094465Y-39054711D01*
X52023638Y-39052185D01*
X51955804Y-39023804D01*
X51952788Y-39021808D01*
X51899427Y-38973448D01*
X51864340Y-38910352D01*
X51844922Y-38827387D01*
X51842316Y-38804078D01*
X51837701Y-38694055D01*
X51843233Y-38642748D01*
X51982514Y-38642748D01*
X51984324Y-38674753D01*
X51994222Y-38684093D01*
X52018898Y-38677105D01*
X52057795Y-38660587D01*
X52101275Y-38639881D01*
X52102356Y-38639333D01*
X52139209Y-38619949D01*
X52154000Y-38607013D01*
X52150353Y-38593451D01*
X52134995Y-38575632D01*
X52095923Y-38549845D01*
X52053846Y-38547950D01*
X52016103Y-38566717D01*
X51990034Y-38602915D01*
X51982514Y-38642748D01*
X51843233Y-38642748D01*
X51847194Y-38606027D01*
X51871550Y-38536212D01*
X51905456Y-38487302D01*
X51966653Y-38437878D01*
X52034063Y-38413359D01*
X52102880Y-38411797D01*
X52168303Y-38431239D01*
G37*
X52168303Y-38431239D02*
X52225527Y-38469735D01*
X52269749Y-38525335D01*
X52296167Y-38596086D01*
X52301510Y-38648162D01*
X52300903Y-38669893D01*
X52295822Y-38686531D01*
X52281855Y-38701437D01*
X52254589Y-38717973D01*
X52209612Y-38739498D01*
X52142511Y-38769374D01*
X52142171Y-38769524D01*
X52080407Y-38797813D01*
X52029759Y-38822933D01*
X51995404Y-38842179D01*
X51982518Y-38852848D01*
X51982514Y-38852934D01*
X51993872Y-38876166D01*
X52020431Y-38901774D01*
X52050923Y-38920221D01*
X52066370Y-38923886D01*
X52108515Y-38911212D01*
X52144808Y-38879471D01*
X52162517Y-38844572D01*
X52179552Y-38818845D01*
X52212922Y-38789546D01*
X52252149Y-38764235D01*
X52286756Y-38750471D01*
X52293993Y-38749714D01*
X52302139Y-38762160D01*
X52302630Y-38793972D01*
X52296643Y-38836866D01*
X52285357Y-38882558D01*
X52269950Y-38922761D01*
X52269171Y-38924322D01*
X52222804Y-38989062D01*
X52162711Y-39033097D01*
X52094465Y-39054711D01*
X52023638Y-39052185D01*
X51955804Y-39023804D01*
X51952788Y-39021808D01*
X51899427Y-38973448D01*
X51864340Y-38910352D01*
X51844922Y-38827387D01*
X51842316Y-38804078D01*
X51837701Y-38694055D01*
X51843233Y-38642748D01*
X51982514Y-38642748D01*
X51984324Y-38674753D01*
X51994222Y-38684093D01*
X52018898Y-38677105D01*
X52057795Y-38660587D01*
X52101275Y-38639881D01*
X52102356Y-38639333D01*
X52139209Y-38619949D01*
X52154000Y-38607013D01*
X52150353Y-38593451D01*
X52134995Y-38575632D01*
X52095923Y-38549845D01*
X52053846Y-38547950D01*
X52016103Y-38566717D01*
X51990034Y-38602915D01*
X51982514Y-38642748D01*
X51843233Y-38642748D01*
X51847194Y-38606027D01*
X51871550Y-38536212D01*
X51905456Y-38487302D01*
X51966653Y-38437878D01*
X52034063Y-38413359D01*
X52102880Y-38411797D01*
X52168303Y-38431239D01*
G36*
X51041115Y-38421962D02*
G01*
X51109145Y-38457733D01*
X51159351Y-38515301D01*
X51177185Y-38552312D01*
X51191063Y-38607882D01*
X51198167Y-38678096D01*
X51198840Y-38754727D01*
X51193427Y-38829552D01*
X51182270Y-38894342D01*
X51165714Y-38940873D01*
X51160626Y-38948887D01*
X51100355Y-39008707D01*
X51028769Y-39044535D01*
X50951092Y-39055020D01*
X50872548Y-39038810D01*
X50850689Y-39029092D01*
X50808122Y-38999143D01*
X50770763Y-38959433D01*
X50767232Y-38954397D01*
X50752881Y-38930124D01*
X50743394Y-38904178D01*
X50737790Y-38870022D01*
X50735086Y-38821119D01*
X50734299Y-38750935D01*
X50734286Y-38735200D01*
X50734322Y-38730192D01*
X50879429Y-38730192D01*
X50880273Y-38796430D01*
X50883596Y-38840386D01*
X50890583Y-38868779D01*
X50902416Y-38888325D01*
X50908457Y-38894857D01*
X50943186Y-38919680D01*
X50976903Y-38918548D01*
X51010995Y-38897016D01*
X51031329Y-38874029D01*
X51043371Y-38840478D01*
X51050134Y-38787569D01*
X51050598Y-38781399D01*
X51051752Y-38685513D01*
X51039688Y-38614299D01*
X51014570Y-38568194D01*
X50976560Y-38547635D01*
X50962992Y-38546514D01*
X50927364Y-38552152D01*
X50902994Y-38571686D01*
X50888093Y-38609042D01*
X50880875Y-38668150D01*
X50879429Y-38730192D01*
X50734322Y-38730192D01*
X50734826Y-38660413D01*
X50737096Y-38608159D01*
X50742068Y-38571949D01*
X50750713Y-38545299D01*
X50764005Y-38521722D01*
X50766943Y-38517338D01*
X50816313Y-38458249D01*
X50870109Y-38423947D01*
X50935602Y-38410331D01*
X50957842Y-38409665D01*
X51041115Y-38421962D01*
G37*
X51041115Y-38421962D02*
X51109145Y-38457733D01*
X51159351Y-38515301D01*
X51177185Y-38552312D01*
X51191063Y-38607882D01*
X51198167Y-38678096D01*
X51198840Y-38754727D01*
X51193427Y-38829552D01*
X51182270Y-38894342D01*
X51165714Y-38940873D01*
X51160626Y-38948887D01*
X51100355Y-39008707D01*
X51028769Y-39044535D01*
X50951092Y-39055020D01*
X50872548Y-39038810D01*
X50850689Y-39029092D01*
X50808122Y-38999143D01*
X50770763Y-38959433D01*
X50767232Y-38954397D01*
X50752881Y-38930124D01*
X50743394Y-38904178D01*
X50737790Y-38870022D01*
X50735086Y-38821119D01*
X50734299Y-38750935D01*
X50734286Y-38735200D01*
X50734322Y-38730192D01*
X50879429Y-38730192D01*
X50880273Y-38796430D01*
X50883596Y-38840386D01*
X50890583Y-38868779D01*
X50902416Y-38888325D01*
X50908457Y-38894857D01*
X50943186Y-38919680D01*
X50976903Y-38918548D01*
X51010995Y-38897016D01*
X51031329Y-38874029D01*
X51043371Y-38840478D01*
X51050134Y-38787569D01*
X51050598Y-38781399D01*
X51051752Y-38685513D01*
X51039688Y-38614299D01*
X51014570Y-38568194D01*
X50976560Y-38547635D01*
X50962992Y-38546514D01*
X50927364Y-38552152D01*
X50902994Y-38571686D01*
X50888093Y-38609042D01*
X50880875Y-38668150D01*
X50879429Y-38730192D01*
X50734322Y-38730192D01*
X50734826Y-38660413D01*
X50737096Y-38608159D01*
X50742068Y-38571949D01*
X50750713Y-38545299D01*
X50764005Y-38521722D01*
X50766943Y-38517338D01*
X50816313Y-38458249D01*
X50870109Y-38423947D01*
X50935602Y-38410331D01*
X50957842Y-38409665D01*
X51041115Y-38421962D01*
G36*
X52716093Y-38427780D02*
G01*
X52762672Y-38454723D01*
X52795057Y-38481466D01*
X52818742Y-38509484D01*
X52835059Y-38543748D01*
X52845339Y-38589227D01*
X52850914Y-38650892D01*
X52853116Y-38733711D01*
X52853371Y-38793246D01*
X52853371Y-39012391D01*
X52791686Y-39040044D01*
X52730000Y-39067697D01*
X52722743Y-38827670D01*
X52719744Y-38738028D01*
X52716598Y-38672962D01*
X52712701Y-38628026D01*
X52707447Y-38598770D01*
X52700231Y-38580748D01*
X52690450Y-38569511D01*
X52687312Y-38567079D01*
X52639761Y-38548083D01*
X52591697Y-38555600D01*
X52563086Y-38575543D01*
X52551447Y-38589675D01*
X52543391Y-38608220D01*
X52538271Y-38636334D01*
X52535441Y-38679173D01*
X52534256Y-38741895D01*
X52534057Y-38807261D01*
X52534018Y-38889268D01*
X52532614Y-38947316D01*
X52527914Y-38986465D01*
X52517987Y-39011780D01*
X52500903Y-39028323D01*
X52474732Y-39041156D01*
X52439775Y-39054491D01*
X52401596Y-39069007D01*
X52406141Y-38811389D01*
X52407971Y-38718519D01*
X52410112Y-38649889D01*
X52413181Y-38600711D01*
X52417794Y-38566198D01*
X52424568Y-38541562D01*
X52434119Y-38522016D01*
X52445634Y-38504770D01*
X52501190Y-38449680D01*
X52568980Y-38417822D01*
X52642713Y-38410191D01*
X52716093Y-38427780D01*
G37*
X52716093Y-38427780D02*
X52762672Y-38454723D01*
X52795057Y-38481466D01*
X52818742Y-38509484D01*
X52835059Y-38543748D01*
X52845339Y-38589227D01*
X52850914Y-38650892D01*
X52853116Y-38733711D01*
X52853371Y-38793246D01*
X52853371Y-39012391D01*
X52791686Y-39040044D01*
X52730000Y-39067697D01*
X52722743Y-38827670D01*
X52719744Y-38738028D01*
X52716598Y-38672962D01*
X52712701Y-38628026D01*
X52707447Y-38598770D01*
X52700231Y-38580748D01*
X52690450Y-38569511D01*
X52687312Y-38567079D01*
X52639761Y-38548083D01*
X52591697Y-38555600D01*
X52563086Y-38575543D01*
X52551447Y-38589675D01*
X52543391Y-38608220D01*
X52538271Y-38636334D01*
X52535441Y-38679173D01*
X52534256Y-38741895D01*
X52534057Y-38807261D01*
X52534018Y-38889268D01*
X52532614Y-38947316D01*
X52527914Y-38986465D01*
X52517987Y-39011780D01*
X52500903Y-39028323D01*
X52474732Y-39041156D01*
X52439775Y-39054491D01*
X52401596Y-39069007D01*
X52406141Y-38811389D01*
X52407971Y-38718519D01*
X52410112Y-38649889D01*
X52413181Y-38600711D01*
X52417794Y-38566198D01*
X52424568Y-38541562D01*
X52434119Y-38522016D01*
X52445634Y-38504770D01*
X52501190Y-38449680D01*
X52568980Y-38417822D01*
X52642713Y-38410191D01*
X52716093Y-38427780D01*
G36*
X51599744Y-38419918D02*
G01*
X51655201Y-38447568D01*
X51704148Y-38498480D01*
X51717629Y-38517338D01*
X51732314Y-38542015D01*
X51741842Y-38568816D01*
X51747293Y-38604587D01*
X51749747Y-38656169D01*
X51750286Y-38724267D01*
X51747852Y-38817588D01*
X51739394Y-38887657D01*
X51723174Y-38939931D01*
X51697454Y-38979869D01*
X51660497Y-39012929D01*
X51657782Y-39014886D01*
X51621360Y-39034908D01*
X51577502Y-39044815D01*
X51521724Y-39047257D01*
X51431048Y-39047257D01*
X51431010Y-39135283D01*
X51430166Y-39184308D01*
X51425024Y-39213065D01*
X51411587Y-39230311D01*
X51385858Y-39244808D01*
X51379679Y-39247769D01*
X51350764Y-39261648D01*
X51328376Y-39270414D01*
X51311729Y-39271171D01*
X51300036Y-39261023D01*
X51292510Y-39237073D01*
X51288366Y-39196426D01*
X51286815Y-39136186D01*
X51287071Y-39053455D01*
X51288349Y-38945339D01*
X51288748Y-38913000D01*
X51290185Y-38801524D01*
X51291472Y-38728603D01*
X51430971Y-38728603D01*
X51431755Y-38790499D01*
X51435240Y-38830997D01*
X51443124Y-38857708D01*
X51457105Y-38878244D01*
X51466597Y-38888260D01*
X51505404Y-38917567D01*
X51539763Y-38919952D01*
X51575216Y-38895750D01*
X51576114Y-38894857D01*
X51590539Y-38876153D01*
X51599313Y-38850732D01*
X51603739Y-38811584D01*
X51605118Y-38751697D01*
X51605143Y-38738430D01*
X51601812Y-38655901D01*
X51590969Y-38598691D01*
X51571340Y-38563766D01*
X51541650Y-38548094D01*
X51524491Y-38546514D01*
X51483766Y-38553926D01*
X51455832Y-38578330D01*
X51439017Y-38622980D01*
X51431650Y-38691130D01*
X51430971Y-38728603D01*
X51291472Y-38728603D01*
X51291708Y-38715245D01*
X51293677Y-38650333D01*
X51296450Y-38602958D01*
X51300388Y-38569290D01*
X51305849Y-38545498D01*
X51313192Y-38527753D01*
X51322777Y-38512224D01*
X51326887Y-38506381D01*
X51381405Y-38451185D01*
X51450336Y-38419890D01*
X51530072Y-38411165D01*
X51599744Y-38419918D01*
G37*
X51599744Y-38419918D02*
X51655201Y-38447568D01*
X51704148Y-38498480D01*
X51717629Y-38517338D01*
X51732314Y-38542015D01*
X51741842Y-38568816D01*
X51747293Y-38604587D01*
X51749747Y-38656169D01*
X51750286Y-38724267D01*
X51747852Y-38817588D01*
X51739394Y-38887657D01*
X51723174Y-38939931D01*
X51697454Y-38979869D01*
X51660497Y-39012929D01*
X51657782Y-39014886D01*
X51621360Y-39034908D01*
X51577502Y-39044815D01*
X51521724Y-39047257D01*
X51431048Y-39047257D01*
X51431010Y-39135283D01*
X51430166Y-39184308D01*
X51425024Y-39213065D01*
X51411587Y-39230311D01*
X51385858Y-39244808D01*
X51379679Y-39247769D01*
X51350764Y-39261648D01*
X51328376Y-39270414D01*
X51311729Y-39271171D01*
X51300036Y-39261023D01*
X51292510Y-39237073D01*
X51288366Y-39196426D01*
X51286815Y-39136186D01*
X51287071Y-39053455D01*
X51288349Y-38945339D01*
X51288748Y-38913000D01*
X51290185Y-38801524D01*
X51291472Y-38728603D01*
X51430971Y-38728603D01*
X51431755Y-38790499D01*
X51435240Y-38830997D01*
X51443124Y-38857708D01*
X51457105Y-38878244D01*
X51466597Y-38888260D01*
X51505404Y-38917567D01*
X51539763Y-38919952D01*
X51575216Y-38895750D01*
X51576114Y-38894857D01*
X51590539Y-38876153D01*
X51599313Y-38850732D01*
X51603739Y-38811584D01*
X51605118Y-38751697D01*
X51605143Y-38738430D01*
X51601812Y-38655901D01*
X51590969Y-38598691D01*
X51571340Y-38563766D01*
X51541650Y-38548094D01*
X51524491Y-38546514D01*
X51483766Y-38553926D01*
X51455832Y-38578330D01*
X51439017Y-38622980D01*
X51431650Y-38691130D01*
X51430971Y-38728603D01*
X51291472Y-38728603D01*
X51291708Y-38715245D01*
X51293677Y-38650333D01*
X51296450Y-38602958D01*
X51300388Y-38569290D01*
X51305849Y-38545498D01*
X51313192Y-38527753D01*
X51322777Y-38512224D01*
X51326887Y-38506381D01*
X51381405Y-38451185D01*
X51450336Y-38419890D01*
X51530072Y-38411165D01*
X51599744Y-38419918D01*
D12*
X41730000Y-11560000D02*
X41730000Y-40410000D01*
X40670000Y-41470000D02*
X30170000Y-41470000D01*
X29110000Y-40410000D02*
X29110000Y-11560000D01*
X30170000Y-10500000D02*
X40670000Y-10500000D01*
X42624338Y-30050000D02*
X42624338Y-30550000D01*
X42624338Y-30550000D02*
X42191325Y-30300000D01*
X42191325Y-30300000D02*
X42624338Y-30050000D01*
X39430000Y-19753311D02*
X39430000Y-32216689D01*
X31410000Y-20582048D02*
X31410000Y-31387952D01*
X37481744Y-33851470D02*
X32781744Y-33022733D01*
X37481744Y-18118530D02*
X32781744Y-18947267D01*
X32781744Y-33022733D02*
G75*
G02*
X31410000Y-31387952I288256J1634781D01*
G01*
X32781744Y-18947267D02*
G75*
G03*
X31410000Y-20582048I288256J-1634781D01*
G01*
X37481744Y-33851470D02*
G75*
G03*
X39430000Y-32216689I288256J1634781D01*
G01*
X37481744Y-18118530D02*
G75*
G02*
X39430000Y-19753311I288256J-1634781D01*
G01*
X29110000Y-40410000D02*
G75*
G03*
X30170000Y-41470000I1060000J0D01*
G01*
X29110000Y-11560000D02*
G75*
G02*
X30170000Y-10500000I1060000J0D01*
G01*
X40670000Y-41470000D02*
G75*
G03*
X41730000Y-40410000I0J1060000D01*
G01*
X41730000Y-11560000D02*
G75*
G03*
X40670000Y-10500000I-1060000J0D01*
G01*
X44022500Y-30187742D02*
X44022500Y-30662258D01*
X42977500Y-30187742D02*
X42977500Y-30662258D01*
X60522500Y-22962742D02*
X60522500Y-23437258D01*
X59477500Y-22962742D02*
X59477500Y-23437258D01*
X26250000Y-30130000D02*
X26250000Y-28630000D01*
X26250000Y-28630000D02*
X25980000Y-28630000D01*
X25980000Y-28630000D02*
X25980000Y-25800000D01*
X19350000Y-30130000D02*
X19350000Y-28630000D01*
X19350000Y-28630000D02*
X19620000Y-28630000D01*
X19620000Y-28630000D02*
X19620000Y-27530000D01*
X18835000Y-28938748D02*
X18835000Y-29461252D01*
X17365000Y-28938748D02*
X17365000Y-29461252D01*
X26765000Y-29461252D02*
X26765000Y-28938748D01*
X28235000Y-29461252D02*
X28235000Y-28938748D01*
D10*
X27702380Y-20563333D02*
X28416666Y-20563333D01*
X28559523Y-20610952D01*
X28654761Y-20706190D01*
X28702380Y-20849047D01*
X28702380Y-20944285D01*
X27797619Y-20134761D02*
X27750000Y-20087142D01*
X27702380Y-19991904D01*
X27702380Y-19753809D01*
X27750000Y-19658571D01*
X27797619Y-19610952D01*
X27892857Y-19563333D01*
X27988095Y-19563333D01*
X28130952Y-19610952D01*
X28702380Y-20182380D01*
X28702380Y-19563333D01*
X45572380Y-30586666D02*
X45096190Y-30920000D01*
X45572380Y-31158095D02*
X44572380Y-31158095D01*
X44572380Y-30777142D01*
X44620000Y-30681904D01*
X44667619Y-30634285D01*
X44762857Y-30586666D01*
X44905714Y-30586666D01*
X45000952Y-30634285D01*
X45048571Y-30681904D01*
X45096190Y-30777142D01*
X45096190Y-31158095D01*
X44667619Y-30205714D02*
X44620000Y-30158095D01*
X44572380Y-30062857D01*
X44572380Y-29824761D01*
X44620000Y-29729523D01*
X44667619Y-29681904D01*
X44762857Y-29634285D01*
X44858095Y-29634285D01*
X45000952Y-29681904D01*
X45572380Y-30253333D01*
X45572380Y-29634285D01*
X61882380Y-23366666D02*
X61406190Y-23700000D01*
X61882380Y-23938095D02*
X60882380Y-23938095D01*
X60882380Y-23557142D01*
X60930000Y-23461904D01*
X60977619Y-23414285D01*
X61072857Y-23366666D01*
X61215714Y-23366666D01*
X61310952Y-23414285D01*
X61358571Y-23461904D01*
X61406190Y-23557142D01*
X61406190Y-23938095D01*
X61882380Y-22414285D02*
X61882380Y-22985714D01*
X61882380Y-22700000D02*
X60882380Y-22700000D01*
X61025238Y-22795238D01*
X61120476Y-22890476D01*
X61168095Y-22985714D01*
X21938095Y-37052380D02*
X21938095Y-37861904D01*
X21985714Y-37957142D01*
X22033333Y-38004761D01*
X22128571Y-38052380D01*
X22319047Y-38052380D01*
X22414285Y-38004761D01*
X22461904Y-37957142D01*
X22509523Y-37861904D01*
X22509523Y-37052380D01*
X23509523Y-38052380D02*
X22938095Y-38052380D01*
X23223809Y-38052380D02*
X23223809Y-37052380D01*
X23128571Y-37195238D01*
X23033333Y-37290476D01*
X22938095Y-37338095D01*
X17933333Y-32057142D02*
X17885714Y-32104761D01*
X17742857Y-32152380D01*
X17647619Y-32152380D01*
X17504761Y-32104761D01*
X17409523Y-32009523D01*
X17361904Y-31914285D01*
X17314285Y-31723809D01*
X17314285Y-31580952D01*
X17361904Y-31390476D01*
X17409523Y-31295238D01*
X17504761Y-31200000D01*
X17647619Y-31152380D01*
X17742857Y-31152380D01*
X17885714Y-31200000D01*
X17933333Y-31247619D01*
X18266666Y-31152380D02*
X18885714Y-31152380D01*
X18552380Y-31533333D01*
X18695238Y-31533333D01*
X18790476Y-31580952D01*
X18838095Y-31628571D01*
X18885714Y-31723809D01*
X18885714Y-31961904D01*
X18838095Y-32057142D01*
X18790476Y-32104761D01*
X18695238Y-32152380D01*
X18409523Y-32152380D01*
X18314285Y-32104761D01*
X18266666Y-32057142D01*
X27433333Y-32057142D02*
X27385714Y-32104761D01*
X27242857Y-32152380D01*
X27147619Y-32152380D01*
X27004761Y-32104761D01*
X26909523Y-32009523D01*
X26861904Y-31914285D01*
X26814285Y-31723809D01*
X26814285Y-31580952D01*
X26861904Y-31390476D01*
X26909523Y-31295238D01*
X27004761Y-31200000D01*
X27147619Y-31152380D01*
X27242857Y-31152380D01*
X27385714Y-31200000D01*
X27433333Y-31247619D01*
X28385714Y-32152380D02*
X27814285Y-32152380D01*
X28100000Y-32152380D02*
X28100000Y-31152380D01*
X28004761Y-31295238D01*
X27909523Y-31390476D01*
X27814285Y-31438095D01*
%LPC*%
D13*
X50000000Y-20700000D03*
X50000000Y-31000000D03*
X51600000Y-25850000D03*
D14*
X35420000Y-38485000D03*
X35420000Y-13485000D03*
D15*
X33440000Y-21140000D03*
X33440000Y-23430000D03*
X33440000Y-25720000D03*
X33440000Y-28010000D03*
X33440000Y-30300000D03*
X35420000Y-22285000D03*
X35420000Y-24575000D03*
X35420000Y-26865000D03*
X35420000Y-29155000D03*
X35420000Y-31445000D03*
X37400000Y-21140000D03*
X37400000Y-23430000D03*
X37400000Y-25720000D03*
X37400000Y-28010000D03*
D16*
X37400000Y-30300000D03*
G36*
G01*
X43225000Y-30850000D02*
X43775000Y-30850000D01*
G75*
G02*
X43975000Y-31050000I0J-200000D01*
G01*
X43975000Y-31450000D01*
G75*
G02*
X43775000Y-31650000I-200000J0D01*
G01*
X43225000Y-31650000D01*
G75*
G02*
X43025000Y-31450000I0J200000D01*
G01*
X43025000Y-31050000D01*
G75*
G02*
X43225000Y-30850000I200000J0D01*
G01*
G37*
G36*
G01*
X43225000Y-29200000D02*
X43775000Y-29200000D01*
G75*
G02*
X43975000Y-29400000I0J-200000D01*
G01*
X43975000Y-29800000D01*
G75*
G02*
X43775000Y-30000000I-200000J0D01*
G01*
X43225000Y-30000000D01*
G75*
G02*
X43025000Y-29800000I0J200000D01*
G01*
X43025000Y-29400000D01*
G75*
G02*
X43225000Y-29200000I200000J0D01*
G01*
G37*
G36*
G01*
X59725000Y-23625000D02*
X60275000Y-23625000D01*
G75*
G02*
X60475000Y-23825000I0J-200000D01*
G01*
X60475000Y-24225000D01*
G75*
G02*
X60275000Y-24425000I-200000J0D01*
G01*
X59725000Y-24425000D01*
G75*
G02*
X59525000Y-24225000I0J200000D01*
G01*
X59525000Y-23825000D01*
G75*
G02*
X59725000Y-23625000I200000J0D01*
G01*
G37*
G36*
G01*
X59725000Y-21975000D02*
X60275000Y-21975000D01*
G75*
G02*
X60475000Y-22175000I0J-200000D01*
G01*
X60475000Y-22575000D01*
G75*
G02*
X60275000Y-22775000I-200000J0D01*
G01*
X59725000Y-22775000D01*
G75*
G02*
X59525000Y-22575000I0J200000D01*
G01*
X59525000Y-22175000D01*
G75*
G02*
X59725000Y-21975000I200000J0D01*
G01*
G37*
D17*
X22800000Y-33200000D03*
D18*
X20520000Y-26900000D03*
X25080000Y-26900000D03*
D19*
X60000000Y-25700000D03*
X60000000Y-30700000D03*
X60000000Y-20700000D03*
D20*
X71750000Y-25700000D03*
D21*
X66000000Y-40250000D03*
X26000000Y-11750000D03*
D22*
X43560000Y-35300000D03*
D23*
X46100000Y-35300000D03*
G36*
G01*
X17625000Y-29650000D02*
X18575000Y-29650000D01*
G75*
G02*
X18825000Y-29900000I0J-250000D01*
G01*
X18825000Y-30400000D01*
G75*
G02*
X18575000Y-30650000I-250000J0D01*
G01*
X17625000Y-30650000D01*
G75*
G02*
X17375000Y-30400000I0J250000D01*
G01*
X17375000Y-29900000D01*
G75*
G02*
X17625000Y-29650000I250000J0D01*
G01*
G37*
G36*
G01*
X17625000Y-27750000D02*
X18575000Y-27750000D01*
G75*
G02*
X18825000Y-28000000I0J-250000D01*
G01*
X18825000Y-28500000D01*
G75*
G02*
X18575000Y-28750000I-250000J0D01*
G01*
X17625000Y-28750000D01*
G75*
G02*
X17375000Y-28500000I0J250000D01*
G01*
X17375000Y-28000000D01*
G75*
G02*
X17625000Y-27750000I250000J0D01*
G01*
G37*
G36*
G01*
X27975000Y-28750000D02*
X27025000Y-28750000D01*
G75*
G02*
X26775000Y-28500000I0J250000D01*
G01*
X26775000Y-28000000D01*
G75*
G02*
X27025000Y-27750000I250000J0D01*
G01*
X27975000Y-27750000D01*
G75*
G02*
X28225000Y-28000000I0J-250000D01*
G01*
X28225000Y-28500000D01*
G75*
G02*
X27975000Y-28750000I-250000J0D01*
G01*
G37*
G36*
G01*
X27975000Y-30650000D02*
X27025000Y-30650000D01*
G75*
G02*
X26775000Y-30400000I0J250000D01*
G01*
X26775000Y-29900000D01*
G75*
G02*
X27025000Y-29650000I250000J0D01*
G01*
X27975000Y-29650000D01*
G75*
G02*
X28225000Y-29900000I0J-250000D01*
G01*
X28225000Y-30400000D01*
G75*
G02*
X27975000Y-30650000I-250000J0D01*
G01*
G37*
M02*
