M48
; DRILL file {KiCad 5.1.10-88a1d61d58~90~ubuntu20.04.1} date Wed Oct 27 23:57:37 2021
; FORMAT={-:-/ absolute / metric / decimal}
; #@! TF.CreationDate,2021-10-27T23:57:37-06:00
; #@! TF.GenerationSoftware,Kicad,Pcbnew,5.1.10-88a1d61d58~90~ubuntu20.04.1
; #@! TF.FileFunction,Plated,1,2,PTH
FMAT,2
METRIC
T1C0.300
T2C0.900
T3C1.000
T4C2.000
T5C3.200
%
G90
G05
T1
X11.0Y-11.0
X11.0Y-16.5
X11.0Y-22.0
X11.0Y-27.5
X11.0Y-33.0
X16.0Y-29.0
X16.5Y-35.5
X17.0Y-11.0
X17.0Y-16.5
X17.0Y-22.0
X17.0Y-31.5
X19.0Y-32.5
X19.0Y-34.0
X19.0Y-41.0
X20.75Y-30.75
X20.75Y-31.75
X20.75Y-32.75
X20.75Y-33.75
X20.75Y-34.75
X20.75Y-35.75
X21.75Y-30.75
X21.75Y-31.75
X21.75Y-32.75
X21.75Y-33.75
X21.75Y-34.75
X21.75Y-35.75
X22.0Y-37.5
X22.4Y-11.0
X22.4Y-16.5
X22.4Y-22.0
X22.75Y-30.75
X22.75Y-31.75
X22.75Y-32.75
X22.75Y-33.75
X22.75Y-34.75
X22.75Y-35.75
X23.5Y-37.5
X23.75Y-30.75
X23.75Y-31.75
X23.75Y-32.75
X23.75Y-33.75
X23.75Y-34.75
X23.75Y-35.75
X24.75Y-30.75
X24.75Y-31.75
X24.75Y-32.75
X24.75Y-33.75
X24.75Y-34.75
X24.75Y-35.75
X26.5Y-32.5
X26.5Y-34.0
X28.5Y-16.5
X28.5Y-22.0
X28.5Y-31.5
X28.5Y-36.0
X28.5Y-41.0
X29.5Y-30.5
X30.0Y-11.0
X30.0Y-15.0
X30.0Y-19.0
X30.0Y-23.0
X30.0Y-26.35
X30.0Y-31.5
X30.0Y-37.0
X30.0Y-41.0
X31.0Y-35.0
X31.5Y-31.5
X31.7Y-24.6
X32.0Y-27.0
X32.5Y-32.5
X33.0Y-36.0
X33.909Y-11.0
X34.0Y-41.0
X34.6Y-34.25
X35.8Y-20.7
X36.25Y-19.8
X36.8Y-18.75
X37.5Y-32.0
X37.65Y-17.95
X37.818Y-11.0
X38.0Y-41.0
X38.45Y-17.15
X38.75Y-20.15
X38.8Y-22.3
X39.0Y-24.5
X39.0Y-27.0
X39.15Y-21.15
X39.3Y-16.25
X39.35Y-31.25
X39.55Y-19.35
X40.05Y-37.5
X40.2Y-15.4
X40.3Y-18.6
X41.0Y-14.65
X41.15Y-17.75
X41.727Y-11.0
X42.0Y-41.0
X42.1Y-14.4
X42.1Y-16.9
X42.1Y-34.05
X43.508Y-14.4
X43.508Y-16.9
X44.917Y-14.4
X44.917Y-16.9
X45.636Y-11.0
X46.0Y-41.0
X46.325Y-14.4
X46.325Y-16.9
X47.733Y-14.4
X47.733Y-16.9
X48.0Y-19.0
X48.0Y-22.5
X48.0Y-29.0
X48.0Y-32.5
X49.142Y-14.4
X49.142Y-16.9
X49.15Y-25.65
X49.5Y-24.6
X49.5Y-26.85
X49.545Y-11.0
X50.0Y-37.333
X50.0Y-41.0
X50.25Y-23.7
X50.4Y-27.75
X50.55Y-14.4
X50.55Y-16.9
X51.65Y-23.25
X51.65Y-28.15
X51.958Y-14.4
X51.958Y-16.9
X52.0Y-19.0
X52.0Y-22.5
X52.0Y-29.0
X52.0Y-32.5
X52.85Y-27.75
X53.05Y-22.65
X53.367Y-14.4
X53.367Y-16.9
X53.455Y-11.0
X53.75Y-26.85
X53.9Y-21.8
X54.0Y-25.65
X54.0Y-41.0
X54.35Y-24.6
X54.775Y-14.4
X54.775Y-16.9
X54.8Y-20.85
X55.2Y-23.7
X55.6Y-20.05
X56.1Y-22.8
X56.183Y-14.35
X56.183Y-16.85
X56.9Y-19.55
X57.1Y-21.85
X57.364Y-11.0
X57.592Y-14.4
X57.592Y-16.9
X58.0Y-37.333
X58.0Y-41.0
X58.15Y-25.7
X58.45Y-19.5
X58.5Y-21.85
X58.5Y-29.5
X58.5Y-32.0
X58.65Y-24.4
X58.65Y-27.1
X58.7Y-23.2
X59.0Y-14.45
X59.0Y-16.95
X60.0Y-17.95
X60.0Y-27.6
X60.25Y-14.75
X61.0Y-15.45
X61.05Y-19.1
X61.273Y-11.0
X61.3Y-27.1
X61.375Y-23.075
X61.5Y-29.5
X61.5Y-32.0
X61.7Y-16.2
X61.9Y-25.75
X62.0Y-37.333
X62.0Y-41.0
X62.4Y-16.95
X62.7Y-24.6
X63.0Y-29.0
X63.2Y-17.7
X63.35Y-18.95
X63.35Y-20.15
X63.35Y-21.25
X63.35Y-22.35
X64.5Y-20.0
X65.0Y-32.0
X65.25Y-11.0
X65.25Y-14.5
X66.5Y-18.0
X68.0Y-34.0
X69.0Y-17.0
X69.25Y-11.0
X69.25Y-14.5
X69.6Y-37.333
X69.6Y-41.0
X72.0Y-16.5
X72.0Y-35.0
X73.0Y-11.0
X73.333Y-41.0
X74.0Y-14.5
X75.5Y-17.5
X75.5Y-34.0
X77.0Y-17.5
X77.167Y-41.0
X78.0Y-19.0
X78.0Y-32.5
X80.0Y-22.0
X80.0Y-29.5
X81.0Y-19.0
X81.0Y-22.667
X81.0Y-26.333
X81.0Y-30.0
X81.0Y-33.667
X81.0Y-37.333
X81.0Y-41.0
T2
X43.56Y-35.3
X46.1Y-35.3
T3
X33.44Y-21.14
X33.44Y-23.43
X33.44Y-25.72
X33.44Y-28.01
X33.44Y-30.3
X35.42Y-22.285
X35.42Y-24.575
X35.42Y-26.865
X35.42Y-29.155
X35.42Y-31.445
X37.4Y-21.14
X37.4Y-23.43
X37.4Y-25.72
X37.4Y-28.01
X37.4Y-30.3
X60.0Y-20.7
X60.0Y-25.7
X60.0Y-30.7
T4
X50.0Y-20.7
X50.0Y-31.0
X51.6Y-25.85
T5
X35.42Y-13.485
X35.42Y-38.485
T0
M30
