G04 #@! TF.GenerationSoftware,KiCad,Pcbnew,10.0.3-10.0.3~ubuntu24.04.1*
G04 #@! TF.CreationDate,2026-06-11T02:09:13-06:00*
G04 #@! TF.ProjectId,Z680 Standalone Subwoofer,5a363830-2053-4746-916e-64616c6f6e65,0*
G04 #@! TF.SameCoordinates,Original*
G04 #@! TF.FileFunction,Legend,Bot*
G04 #@! TF.FilePolarity,Positive*
%FSLAX46Y46*%
G04 Gerber Fmt 4.6, Leading zero omitted, Abs format (unit mm)*
G04 Created by KiCad (PCBNEW 10.0.3-10.0.3~ubuntu24.04.1) date 2026-06-11 02:09:13*
%MOMM*%
%LPD*%
G01*
G04 APERTURE LIST*
G04 Aperture macros list*
%AMRoundRect*
0 Rectangle with rounded corners*
0 $1 Rounding radius*
0 $2 $3 $4 $5 $6 $7 $8 $9 X,Y pos of 4 corners*
0 Add a 4 corners polygon primitive as box body*
4,1,4,$2,$3,$4,$5,$6,$7,$8,$9,$2,$3,0*
0 Add four circle primitives for the rounded corners*
1,1,$1+$1,$2,$3*
1,1,$1+$1,$4,$5*
1,1,$1+$1,$6,$7*
1,1,$1+$1,$8,$9*
0 Add four rect primitives between the rounded corners*
20,1,$1+$1,$2,$3,$4,$5,0*
20,1,$1+$1,$4,$5,$6,$7,0*
20,1,$1+$1,$6,$7,$8,$9,0*
20,1,$1+$1,$8,$9,$2,$3,0*%
G04 Aperture macros list end*
%ADD10C,0.120000*%
%ADD11C,0.150000*%
%ADD12C,2.200000*%
%ADD13C,4.000000*%
%ADD14R,1.600000X1.600000*%
%ADD15C,1.600000*%
%ADD16RoundRect,0.250000X-0.475000X0.250000X-0.475000X-0.250000X0.475000X-0.250000X0.475000X0.250000X0*%
%ADD17R,1.800000X1.800000*%
%ADD18C,1.800000*%
%ADD19C,16.500000*%
%ADD20C,2.000000*%
%ADD21C,3.000000*%
G04 APERTURE END LIST*
D10*
X44500000Y-34000000D02*
X44500000Y-34800000D01*
X44500000Y-34800000D02*
X45000000Y-34400000D01*
X45000000Y-34000000D02*
X45000000Y-34800000D01*
X45000000Y-34400000D02*
X44500000Y-34000000D01*
D11*
X68023810Y-11644875D02*
X67357144Y-11644875D01*
X67357144Y-11644875D02*
X68023810Y-12644875D01*
X68023810Y-12644875D02*
X67357144Y-12644875D01*
X66547620Y-11644875D02*
X66738096Y-11644875D01*
X66738096Y-11644875D02*
X66833334Y-11692494D01*
X66833334Y-11692494D02*
X66880953Y-11740113D01*
X66880953Y-11740113D02*
X66976191Y-11882970D01*
X66976191Y-11882970D02*
X67023810Y-12073446D01*
X67023810Y-12073446D02*
X67023810Y-12454398D01*
X67023810Y-12454398D02*
X66976191Y-12549636D01*
X66976191Y-12549636D02*
X66928572Y-12597256D01*
X66928572Y-12597256D02*
X66833334Y-12644875D01*
X66833334Y-12644875D02*
X66642858Y-12644875D01*
X66642858Y-12644875D02*
X66547620Y-12597256D01*
X66547620Y-12597256D02*
X66500001Y-12549636D01*
X66500001Y-12549636D02*
X66452382Y-12454398D01*
X66452382Y-12454398D02*
X66452382Y-12216303D01*
X66452382Y-12216303D02*
X66500001Y-12121065D01*
X66500001Y-12121065D02*
X66547620Y-12073446D01*
X66547620Y-12073446D02*
X66642858Y-12025827D01*
X66642858Y-12025827D02*
X66833334Y-12025827D01*
X66833334Y-12025827D02*
X66928572Y-12073446D01*
X66928572Y-12073446D02*
X66976191Y-12121065D01*
X66976191Y-12121065D02*
X67023810Y-12216303D01*
X65880953Y-12073446D02*
X65976191Y-12025827D01*
X65976191Y-12025827D02*
X66023810Y-11978208D01*
X66023810Y-11978208D02*
X66071429Y-11882970D01*
X66071429Y-11882970D02*
X66071429Y-11835351D01*
X66071429Y-11835351D02*
X66023810Y-11740113D01*
X66023810Y-11740113D02*
X65976191Y-11692494D01*
X65976191Y-11692494D02*
X65880953Y-11644875D01*
X65880953Y-11644875D02*
X65690477Y-11644875D01*
X65690477Y-11644875D02*
X65595239Y-11692494D01*
X65595239Y-11692494D02*
X65547620Y-11740113D01*
X65547620Y-11740113D02*
X65500001Y-11835351D01*
X65500001Y-11835351D02*
X65500001Y-11882970D01*
X65500001Y-11882970D02*
X65547620Y-11978208D01*
X65547620Y-11978208D02*
X65595239Y-12025827D01*
X65595239Y-12025827D02*
X65690477Y-12073446D01*
X65690477Y-12073446D02*
X65880953Y-12073446D01*
X65880953Y-12073446D02*
X65976191Y-12121065D01*
X65976191Y-12121065D02*
X66023810Y-12168684D01*
X66023810Y-12168684D02*
X66071429Y-12263922D01*
X66071429Y-12263922D02*
X66071429Y-12454398D01*
X66071429Y-12454398D02*
X66023810Y-12549636D01*
X66023810Y-12549636D02*
X65976191Y-12597256D01*
X65976191Y-12597256D02*
X65880953Y-12644875D01*
X65880953Y-12644875D02*
X65690477Y-12644875D01*
X65690477Y-12644875D02*
X65595239Y-12597256D01*
X65595239Y-12597256D02*
X65547620Y-12549636D01*
X65547620Y-12549636D02*
X65500001Y-12454398D01*
X65500001Y-12454398D02*
X65500001Y-12263922D01*
X65500001Y-12263922D02*
X65547620Y-12168684D01*
X65547620Y-12168684D02*
X65595239Y-12121065D01*
X65595239Y-12121065D02*
X65690477Y-12073446D01*
X64880953Y-11644875D02*
X64785715Y-11644875D01*
X64785715Y-11644875D02*
X64690477Y-11692494D01*
X64690477Y-11692494D02*
X64642858Y-11740113D01*
X64642858Y-11740113D02*
X64595239Y-11835351D01*
X64595239Y-11835351D02*
X64547620Y-12025827D01*
X64547620Y-12025827D02*
X64547620Y-12263922D01*
X64547620Y-12263922D02*
X64595239Y-12454398D01*
X64595239Y-12454398D02*
X64642858Y-12549636D01*
X64642858Y-12549636D02*
X64690477Y-12597256D01*
X64690477Y-12597256D02*
X64785715Y-12644875D01*
X64785715Y-12644875D02*
X64880953Y-12644875D01*
X64880953Y-12644875D02*
X64976191Y-12597256D01*
X64976191Y-12597256D02*
X65023810Y-12549636D01*
X65023810Y-12549636D02*
X65071429Y-12454398D01*
X65071429Y-12454398D02*
X65119048Y-12263922D01*
X65119048Y-12263922D02*
X65119048Y-12025827D01*
X65119048Y-12025827D02*
X65071429Y-11835351D01*
X65071429Y-11835351D02*
X65023810Y-11740113D01*
X65023810Y-11740113D02*
X64976191Y-11692494D01*
X64976191Y-11692494D02*
X64880953Y-11644875D01*
X63404762Y-12597256D02*
X63261905Y-12644875D01*
X63261905Y-12644875D02*
X63023810Y-12644875D01*
X63023810Y-12644875D02*
X62928572Y-12597256D01*
X62928572Y-12597256D02*
X62880953Y-12549636D01*
X62880953Y-12549636D02*
X62833334Y-12454398D01*
X62833334Y-12454398D02*
X62833334Y-12359160D01*
X62833334Y-12359160D02*
X62880953Y-12263922D01*
X62880953Y-12263922D02*
X62928572Y-12216303D01*
X62928572Y-12216303D02*
X63023810Y-12168684D01*
X63023810Y-12168684D02*
X63214286Y-12121065D01*
X63214286Y-12121065D02*
X63309524Y-12073446D01*
X63309524Y-12073446D02*
X63357143Y-12025827D01*
X63357143Y-12025827D02*
X63404762Y-11930589D01*
X63404762Y-11930589D02*
X63404762Y-11835351D01*
X63404762Y-11835351D02*
X63357143Y-11740113D01*
X63357143Y-11740113D02*
X63309524Y-11692494D01*
X63309524Y-11692494D02*
X63214286Y-11644875D01*
X63214286Y-11644875D02*
X62976191Y-11644875D01*
X62976191Y-11644875D02*
X62833334Y-11692494D01*
X62547619Y-11978208D02*
X62166667Y-11978208D01*
X62404762Y-11644875D02*
X62404762Y-12502017D01*
X62404762Y-12502017D02*
X62357143Y-12597256D01*
X62357143Y-12597256D02*
X62261905Y-12644875D01*
X62261905Y-12644875D02*
X62166667Y-12644875D01*
X61404762Y-12644875D02*
X61404762Y-12121065D01*
X61404762Y-12121065D02*
X61452381Y-12025827D01*
X61452381Y-12025827D02*
X61547619Y-11978208D01*
X61547619Y-11978208D02*
X61738095Y-11978208D01*
X61738095Y-11978208D02*
X61833333Y-12025827D01*
X61404762Y-12597256D02*
X61500000Y-12644875D01*
X61500000Y-12644875D02*
X61738095Y-12644875D01*
X61738095Y-12644875D02*
X61833333Y-12597256D01*
X61833333Y-12597256D02*
X61880952Y-12502017D01*
X61880952Y-12502017D02*
X61880952Y-12406779D01*
X61880952Y-12406779D02*
X61833333Y-12311541D01*
X61833333Y-12311541D02*
X61738095Y-12263922D01*
X61738095Y-12263922D02*
X61500000Y-12263922D01*
X61500000Y-12263922D02*
X61404762Y-12216303D01*
X60928571Y-11978208D02*
X60928571Y-12644875D01*
X60928571Y-12073446D02*
X60880952Y-12025827D01*
X60880952Y-12025827D02*
X60785714Y-11978208D01*
X60785714Y-11978208D02*
X60642857Y-11978208D01*
X60642857Y-11978208D02*
X60547619Y-12025827D01*
X60547619Y-12025827D02*
X60500000Y-12121065D01*
X60500000Y-12121065D02*
X60500000Y-12644875D01*
X59595238Y-12644875D02*
X59595238Y-11644875D01*
X59595238Y-12597256D02*
X59690476Y-12644875D01*
X59690476Y-12644875D02*
X59880952Y-12644875D01*
X59880952Y-12644875D02*
X59976190Y-12597256D01*
X59976190Y-12597256D02*
X60023809Y-12549636D01*
X60023809Y-12549636D02*
X60071428Y-12454398D01*
X60071428Y-12454398D02*
X60071428Y-12168684D01*
X60071428Y-12168684D02*
X60023809Y-12073446D01*
X60023809Y-12073446D02*
X59976190Y-12025827D01*
X59976190Y-12025827D02*
X59880952Y-11978208D01*
X59880952Y-11978208D02*
X59690476Y-11978208D01*
X59690476Y-11978208D02*
X59595238Y-12025827D01*
X58690476Y-12644875D02*
X58690476Y-12121065D01*
X58690476Y-12121065D02*
X58738095Y-12025827D01*
X58738095Y-12025827D02*
X58833333Y-11978208D01*
X58833333Y-11978208D02*
X59023809Y-11978208D01*
X59023809Y-11978208D02*
X59119047Y-12025827D01*
X58690476Y-12597256D02*
X58785714Y-12644875D01*
X58785714Y-12644875D02*
X59023809Y-12644875D01*
X59023809Y-12644875D02*
X59119047Y-12597256D01*
X59119047Y-12597256D02*
X59166666Y-12502017D01*
X59166666Y-12502017D02*
X59166666Y-12406779D01*
X59166666Y-12406779D02*
X59119047Y-12311541D01*
X59119047Y-12311541D02*
X59023809Y-12263922D01*
X59023809Y-12263922D02*
X58785714Y-12263922D01*
X58785714Y-12263922D02*
X58690476Y-12216303D01*
X58071428Y-12644875D02*
X58166666Y-12597256D01*
X58166666Y-12597256D02*
X58214285Y-12502017D01*
X58214285Y-12502017D02*
X58214285Y-11644875D01*
X57547618Y-12644875D02*
X57642856Y-12597256D01*
X57642856Y-12597256D02*
X57690475Y-12549636D01*
X57690475Y-12549636D02*
X57738094Y-12454398D01*
X57738094Y-12454398D02*
X57738094Y-12168684D01*
X57738094Y-12168684D02*
X57690475Y-12073446D01*
X57690475Y-12073446D02*
X57642856Y-12025827D01*
X57642856Y-12025827D02*
X57547618Y-11978208D01*
X57547618Y-11978208D02*
X57404761Y-11978208D01*
X57404761Y-11978208D02*
X57309523Y-12025827D01*
X57309523Y-12025827D02*
X57261904Y-12073446D01*
X57261904Y-12073446D02*
X57214285Y-12168684D01*
X57214285Y-12168684D02*
X57214285Y-12454398D01*
X57214285Y-12454398D02*
X57261904Y-12549636D01*
X57261904Y-12549636D02*
X57309523Y-12597256D01*
X57309523Y-12597256D02*
X57404761Y-12644875D01*
X57404761Y-12644875D02*
X57547618Y-12644875D01*
X56785713Y-11978208D02*
X56785713Y-12644875D01*
X56785713Y-12073446D02*
X56738094Y-12025827D01*
X56738094Y-12025827D02*
X56642856Y-11978208D01*
X56642856Y-11978208D02*
X56499999Y-11978208D01*
X56499999Y-11978208D02*
X56404761Y-12025827D01*
X56404761Y-12025827D02*
X56357142Y-12121065D01*
X56357142Y-12121065D02*
X56357142Y-12644875D01*
X55499999Y-12597256D02*
X55595237Y-12644875D01*
X55595237Y-12644875D02*
X55785713Y-12644875D01*
X55785713Y-12644875D02*
X55880951Y-12597256D01*
X55880951Y-12597256D02*
X55928570Y-12502017D01*
X55928570Y-12502017D02*
X55928570Y-12121065D01*
X55928570Y-12121065D02*
X55880951Y-12025827D01*
X55880951Y-12025827D02*
X55785713Y-11978208D01*
X55785713Y-11978208D02*
X55595237Y-11978208D01*
X55595237Y-11978208D02*
X55499999Y-12025827D01*
X55499999Y-12025827D02*
X55452380Y-12121065D01*
X55452380Y-12121065D02*
X55452380Y-12216303D01*
X55452380Y-12216303D02*
X55928570Y-12311541D01*
X54309522Y-12597256D02*
X54166665Y-12644875D01*
X54166665Y-12644875D02*
X53928570Y-12644875D01*
X53928570Y-12644875D02*
X53833332Y-12597256D01*
X53833332Y-12597256D02*
X53785713Y-12549636D01*
X53785713Y-12549636D02*
X53738094Y-12454398D01*
X53738094Y-12454398D02*
X53738094Y-12359160D01*
X53738094Y-12359160D02*
X53785713Y-12263922D01*
X53785713Y-12263922D02*
X53833332Y-12216303D01*
X53833332Y-12216303D02*
X53928570Y-12168684D01*
X53928570Y-12168684D02*
X54119046Y-12121065D01*
X54119046Y-12121065D02*
X54214284Y-12073446D01*
X54214284Y-12073446D02*
X54261903Y-12025827D01*
X54261903Y-12025827D02*
X54309522Y-11930589D01*
X54309522Y-11930589D02*
X54309522Y-11835351D01*
X54309522Y-11835351D02*
X54261903Y-11740113D01*
X54261903Y-11740113D02*
X54214284Y-11692494D01*
X54214284Y-11692494D02*
X54119046Y-11644875D01*
X54119046Y-11644875D02*
X53880951Y-11644875D01*
X53880951Y-11644875D02*
X53738094Y-11692494D01*
X52880951Y-11978208D02*
X52880951Y-12644875D01*
X53309522Y-11978208D02*
X53309522Y-12502017D01*
X53309522Y-12502017D02*
X53261903Y-12597256D01*
X53261903Y-12597256D02*
X53166665Y-12644875D01*
X53166665Y-12644875D02*
X53023808Y-12644875D01*
X53023808Y-12644875D02*
X52928570Y-12597256D01*
X52928570Y-12597256D02*
X52880951Y-12549636D01*
X52404760Y-12644875D02*
X52404760Y-11644875D01*
X52404760Y-12025827D02*
X52309522Y-11978208D01*
X52309522Y-11978208D02*
X52119046Y-11978208D01*
X52119046Y-11978208D02*
X52023808Y-12025827D01*
X52023808Y-12025827D02*
X51976189Y-12073446D01*
X51976189Y-12073446D02*
X51928570Y-12168684D01*
X51928570Y-12168684D02*
X51928570Y-12454398D01*
X51928570Y-12454398D02*
X51976189Y-12549636D01*
X51976189Y-12549636D02*
X52023808Y-12597256D01*
X52023808Y-12597256D02*
X52119046Y-12644875D01*
X52119046Y-12644875D02*
X52309522Y-12644875D01*
X52309522Y-12644875D02*
X52404760Y-12597256D01*
X51595236Y-11978208D02*
X51404760Y-12644875D01*
X51404760Y-12644875D02*
X51214284Y-12168684D01*
X51214284Y-12168684D02*
X51023808Y-12644875D01*
X51023808Y-12644875D02*
X50833332Y-11978208D01*
X50309522Y-12644875D02*
X50404760Y-12597256D01*
X50404760Y-12597256D02*
X50452379Y-12549636D01*
X50452379Y-12549636D02*
X50499998Y-12454398D01*
X50499998Y-12454398D02*
X50499998Y-12168684D01*
X50499998Y-12168684D02*
X50452379Y-12073446D01*
X50452379Y-12073446D02*
X50404760Y-12025827D01*
X50404760Y-12025827D02*
X50309522Y-11978208D01*
X50309522Y-11978208D02*
X50166665Y-11978208D01*
X50166665Y-11978208D02*
X50071427Y-12025827D01*
X50071427Y-12025827D02*
X50023808Y-12073446D01*
X50023808Y-12073446D02*
X49976189Y-12168684D01*
X49976189Y-12168684D02*
X49976189Y-12454398D01*
X49976189Y-12454398D02*
X50023808Y-12549636D01*
X50023808Y-12549636D02*
X50071427Y-12597256D01*
X50071427Y-12597256D02*
X50166665Y-12644875D01*
X50166665Y-12644875D02*
X50309522Y-12644875D01*
X49404760Y-12644875D02*
X49499998Y-12597256D01*
X49499998Y-12597256D02*
X49547617Y-12549636D01*
X49547617Y-12549636D02*
X49595236Y-12454398D01*
X49595236Y-12454398D02*
X49595236Y-12168684D01*
X49595236Y-12168684D02*
X49547617Y-12073446D01*
X49547617Y-12073446D02*
X49499998Y-12025827D01*
X49499998Y-12025827D02*
X49404760Y-11978208D01*
X49404760Y-11978208D02*
X49261903Y-11978208D01*
X49261903Y-11978208D02*
X49166665Y-12025827D01*
X49166665Y-12025827D02*
X49119046Y-12073446D01*
X49119046Y-12073446D02*
X49071427Y-12168684D01*
X49071427Y-12168684D02*
X49071427Y-12454398D01*
X49071427Y-12454398D02*
X49119046Y-12549636D01*
X49119046Y-12549636D02*
X49166665Y-12597256D01*
X49166665Y-12597256D02*
X49261903Y-12644875D01*
X49261903Y-12644875D02*
X49404760Y-12644875D01*
X48785712Y-11978208D02*
X48404760Y-11978208D01*
X48642855Y-12644875D02*
X48642855Y-11787732D01*
X48642855Y-11787732D02*
X48595236Y-11692494D01*
X48595236Y-11692494D02*
X48499998Y-11644875D01*
X48499998Y-11644875D02*
X48404760Y-11644875D01*
X47690474Y-12597256D02*
X47785712Y-12644875D01*
X47785712Y-12644875D02*
X47976188Y-12644875D01*
X47976188Y-12644875D02*
X48071426Y-12597256D01*
X48071426Y-12597256D02*
X48119045Y-12502017D01*
X48119045Y-12502017D02*
X48119045Y-12121065D01*
X48119045Y-12121065D02*
X48071426Y-12025827D01*
X48071426Y-12025827D02*
X47976188Y-11978208D01*
X47976188Y-11978208D02*
X47785712Y-11978208D01*
X47785712Y-11978208D02*
X47690474Y-12025827D01*
X47690474Y-12025827D02*
X47642855Y-12121065D01*
X47642855Y-12121065D02*
X47642855Y-12216303D01*
X47642855Y-12216303D02*
X48119045Y-12311541D01*
X47214283Y-12644875D02*
X47214283Y-11978208D01*
X47214283Y-12168684D02*
X47166664Y-12073446D01*
X47166664Y-12073446D02*
X47119045Y-12025827D01*
X47119045Y-12025827D02*
X47023807Y-11978208D01*
X47023807Y-11978208D02*
X46928569Y-11978208D01*
X63928571Y-13731009D02*
X63785714Y-13778628D01*
X63785714Y-13778628D02*
X63738095Y-13826247D01*
X63738095Y-13826247D02*
X63690476Y-13921485D01*
X63690476Y-13921485D02*
X63690476Y-14064342D01*
X63690476Y-14064342D02*
X63738095Y-14159580D01*
X63738095Y-14159580D02*
X63785714Y-14207200D01*
X63785714Y-14207200D02*
X63880952Y-14254819D01*
X63880952Y-14254819D02*
X64261904Y-14254819D01*
X64261904Y-14254819D02*
X64261904Y-13254819D01*
X64261904Y-13254819D02*
X63928571Y-13254819D01*
X63928571Y-13254819D02*
X63833333Y-13302438D01*
X63833333Y-13302438D02*
X63785714Y-13350057D01*
X63785714Y-13350057D02*
X63738095Y-13445295D01*
X63738095Y-13445295D02*
X63738095Y-13540533D01*
X63738095Y-13540533D02*
X63785714Y-13635771D01*
X63785714Y-13635771D02*
X63833333Y-13683390D01*
X63833333Y-13683390D02*
X63928571Y-13731009D01*
X63928571Y-13731009D02*
X64261904Y-13731009D01*
X63261904Y-14254819D02*
X63261904Y-13254819D01*
X63261904Y-13254819D02*
X63023809Y-13254819D01*
X63023809Y-13254819D02*
X62880952Y-13302438D01*
X62880952Y-13302438D02*
X62785714Y-13397676D01*
X62785714Y-13397676D02*
X62738095Y-13492914D01*
X62738095Y-13492914D02*
X62690476Y-13683390D01*
X62690476Y-13683390D02*
X62690476Y-13826247D01*
X62690476Y-13826247D02*
X62738095Y-14016723D01*
X62738095Y-14016723D02*
X62785714Y-14111961D01*
X62785714Y-14111961D02*
X62880952Y-14207200D01*
X62880952Y-14207200D02*
X63023809Y-14254819D01*
X63023809Y-14254819D02*
X63261904Y-14254819D01*
X62261904Y-14254819D02*
X62261904Y-13254819D01*
X62261904Y-13254819D02*
X61928571Y-13969104D01*
X61928571Y-13969104D02*
X61595238Y-13254819D01*
X61595238Y-13254819D02*
X61595238Y-14254819D01*
X60404761Y-13350057D02*
X60357142Y-13302438D01*
X60357142Y-13302438D02*
X60261904Y-13254819D01*
X60261904Y-13254819D02*
X60023809Y-13254819D01*
X60023809Y-13254819D02*
X59928571Y-13302438D01*
X59928571Y-13302438D02*
X59880952Y-13350057D01*
X59880952Y-13350057D02*
X59833333Y-13445295D01*
X59833333Y-13445295D02*
X59833333Y-13540533D01*
X59833333Y-13540533D02*
X59880952Y-13683390D01*
X59880952Y-13683390D02*
X60452380Y-14254819D01*
X60452380Y-14254819D02*
X59833333Y-14254819D01*
X59214285Y-13254819D02*
X59119047Y-13254819D01*
X59119047Y-13254819D02*
X59023809Y-13302438D01*
X59023809Y-13302438D02*
X58976190Y-13350057D01*
X58976190Y-13350057D02*
X58928571Y-13445295D01*
X58928571Y-13445295D02*
X58880952Y-13635771D01*
X58880952Y-13635771D02*
X58880952Y-13873866D01*
X58880952Y-13873866D02*
X58928571Y-14064342D01*
X58928571Y-14064342D02*
X58976190Y-14159580D01*
X58976190Y-14159580D02*
X59023809Y-14207200D01*
X59023809Y-14207200D02*
X59119047Y-14254819D01*
X59119047Y-14254819D02*
X59214285Y-14254819D01*
X59214285Y-14254819D02*
X59309523Y-14207200D01*
X59309523Y-14207200D02*
X59357142Y-14159580D01*
X59357142Y-14159580D02*
X59404761Y-14064342D01*
X59404761Y-14064342D02*
X59452380Y-13873866D01*
X59452380Y-13873866D02*
X59452380Y-13635771D01*
X59452380Y-13635771D02*
X59404761Y-13445295D01*
X59404761Y-13445295D02*
X59357142Y-13350057D01*
X59357142Y-13350057D02*
X59309523Y-13302438D01*
X59309523Y-13302438D02*
X59214285Y-13254819D01*
X58499999Y-13350057D02*
X58452380Y-13302438D01*
X58452380Y-13302438D02*
X58357142Y-13254819D01*
X58357142Y-13254819D02*
X58119047Y-13254819D01*
X58119047Y-13254819D02*
X58023809Y-13302438D01*
X58023809Y-13302438D02*
X57976190Y-13350057D01*
X57976190Y-13350057D02*
X57928571Y-13445295D01*
X57928571Y-13445295D02*
X57928571Y-13540533D01*
X57928571Y-13540533D02*
X57976190Y-13683390D01*
X57976190Y-13683390D02*
X58547618Y-14254819D01*
X58547618Y-14254819D02*
X57928571Y-14254819D01*
X56976190Y-14254819D02*
X57547618Y-14254819D01*
X57261904Y-14254819D02*
X57261904Y-13254819D01*
X57261904Y-13254819D02*
X57357142Y-13397676D01*
X57357142Y-13397676D02*
X57452380Y-13492914D01*
X57452380Y-13492914D02*
X57547618Y-13540533D01*
X56547618Y-13873866D02*
X55785714Y-13873866D01*
X54785714Y-14254819D02*
X55357142Y-14254819D01*
X55071428Y-14254819D02*
X55071428Y-13254819D01*
X55071428Y-13254819D02*
X55166666Y-13397676D01*
X55166666Y-13397676D02*
X55261904Y-13492914D01*
X55261904Y-13492914D02*
X55357142Y-13540533D01*
X54166666Y-13254819D02*
X54071428Y-13254819D01*
X54071428Y-13254819D02*
X53976190Y-13302438D01*
X53976190Y-13302438D02*
X53928571Y-13350057D01*
X53928571Y-13350057D02*
X53880952Y-13445295D01*
X53880952Y-13445295D02*
X53833333Y-13635771D01*
X53833333Y-13635771D02*
X53833333Y-13873866D01*
X53833333Y-13873866D02*
X53880952Y-14064342D01*
X53880952Y-14064342D02*
X53928571Y-14159580D01*
X53928571Y-14159580D02*
X53976190Y-14207200D01*
X53976190Y-14207200D02*
X54071428Y-14254819D01*
X54071428Y-14254819D02*
X54166666Y-14254819D01*
X54166666Y-14254819D02*
X54261904Y-14207200D01*
X54261904Y-14207200D02*
X54309523Y-14159580D01*
X54309523Y-14159580D02*
X54357142Y-14064342D01*
X54357142Y-14064342D02*
X54404761Y-13873866D01*
X54404761Y-13873866D02*
X54404761Y-13635771D01*
X54404761Y-13635771D02*
X54357142Y-13445295D01*
X54357142Y-13445295D02*
X54309523Y-13350057D01*
X54309523Y-13350057D02*
X54261904Y-13302438D01*
X54261904Y-13302438D02*
X54166666Y-13254819D01*
X53404761Y-13873866D02*
X52642857Y-13873866D01*
X52214285Y-13350057D02*
X52166666Y-13302438D01*
X52166666Y-13302438D02*
X52071428Y-13254819D01*
X52071428Y-13254819D02*
X51833333Y-13254819D01*
X51833333Y-13254819D02*
X51738095Y-13302438D01*
X51738095Y-13302438D02*
X51690476Y-13350057D01*
X51690476Y-13350057D02*
X51642857Y-13445295D01*
X51642857Y-13445295D02*
X51642857Y-13540533D01*
X51642857Y-13540533D02*
X51690476Y-13683390D01*
X51690476Y-13683390D02*
X52261904Y-14254819D01*
X52261904Y-14254819D02*
X51642857Y-14254819D01*
X51309523Y-13254819D02*
X50642857Y-13254819D01*
X50642857Y-13254819D02*
X51071428Y-14254819D01*
X65261905Y-15769524D02*
X65309524Y-15817144D01*
X65309524Y-15817144D02*
X65452381Y-15864763D01*
X65452381Y-15864763D02*
X65547619Y-15864763D01*
X65547619Y-15864763D02*
X65690476Y-15817144D01*
X65690476Y-15817144D02*
X65785714Y-15721905D01*
X65785714Y-15721905D02*
X65833333Y-15626667D01*
X65833333Y-15626667D02*
X65880952Y-15436191D01*
X65880952Y-15436191D02*
X65880952Y-15293334D01*
X65880952Y-15293334D02*
X65833333Y-15102858D01*
X65833333Y-15102858D02*
X65785714Y-15007620D01*
X65785714Y-15007620D02*
X65690476Y-14912382D01*
X65690476Y-14912382D02*
X65547619Y-14864763D01*
X65547619Y-14864763D02*
X65452381Y-14864763D01*
X65452381Y-14864763D02*
X65309524Y-14912382D01*
X65309524Y-14912382D02*
X65261905Y-14960001D01*
X64261905Y-15769524D02*
X64309524Y-15817144D01*
X64309524Y-15817144D02*
X64452381Y-15864763D01*
X64452381Y-15864763D02*
X64547619Y-15864763D01*
X64547619Y-15864763D02*
X64690476Y-15817144D01*
X64690476Y-15817144D02*
X64785714Y-15721905D01*
X64785714Y-15721905D02*
X64833333Y-15626667D01*
X64833333Y-15626667D02*
X64880952Y-15436191D01*
X64880952Y-15436191D02*
X64880952Y-15293334D01*
X64880952Y-15293334D02*
X64833333Y-15102858D01*
X64833333Y-15102858D02*
X64785714Y-15007620D01*
X64785714Y-15007620D02*
X64690476Y-14912382D01*
X64690476Y-14912382D02*
X64547619Y-14864763D01*
X64547619Y-14864763D02*
X64452381Y-14864763D01*
X64452381Y-14864763D02*
X64309524Y-14912382D01*
X64309524Y-14912382D02*
X64261905Y-14960001D01*
X62738095Y-15340953D02*
X62595238Y-15388572D01*
X62595238Y-15388572D02*
X62547619Y-15436191D01*
X62547619Y-15436191D02*
X62500000Y-15531429D01*
X62500000Y-15531429D02*
X62500000Y-15674286D01*
X62500000Y-15674286D02*
X62547619Y-15769524D01*
X62547619Y-15769524D02*
X62595238Y-15817144D01*
X62595238Y-15817144D02*
X62690476Y-15864763D01*
X62690476Y-15864763D02*
X63071428Y-15864763D01*
X63071428Y-15864763D02*
X63071428Y-14864763D01*
X63071428Y-14864763D02*
X62738095Y-14864763D01*
X62738095Y-14864763D02*
X62642857Y-14912382D01*
X62642857Y-14912382D02*
X62595238Y-14960001D01*
X62595238Y-14960001D02*
X62547619Y-15055239D01*
X62547619Y-15055239D02*
X62547619Y-15150477D01*
X62547619Y-15150477D02*
X62595238Y-15245715D01*
X62595238Y-15245715D02*
X62642857Y-15293334D01*
X62642857Y-15293334D02*
X62738095Y-15340953D01*
X62738095Y-15340953D02*
X63071428Y-15340953D01*
X61880952Y-15388572D02*
X61880952Y-15864763D01*
X62214285Y-14864763D02*
X61880952Y-15388572D01*
X61880952Y-15388572D02*
X61547619Y-14864763D01*
X61214285Y-15483810D02*
X60452381Y-15483810D01*
X60023809Y-15817144D02*
X59880952Y-15864763D01*
X59880952Y-15864763D02*
X59642857Y-15864763D01*
X59642857Y-15864763D02*
X59547619Y-15817144D01*
X59547619Y-15817144D02*
X59500000Y-15769524D01*
X59500000Y-15769524D02*
X59452381Y-15674286D01*
X59452381Y-15674286D02*
X59452381Y-15579048D01*
X59452381Y-15579048D02*
X59500000Y-15483810D01*
X59500000Y-15483810D02*
X59547619Y-15436191D01*
X59547619Y-15436191D02*
X59642857Y-15388572D01*
X59642857Y-15388572D02*
X59833333Y-15340953D01*
X59833333Y-15340953D02*
X59928571Y-15293334D01*
X59928571Y-15293334D02*
X59976190Y-15245715D01*
X59976190Y-15245715D02*
X60023809Y-15150477D01*
X60023809Y-15150477D02*
X60023809Y-15055239D01*
X60023809Y-15055239D02*
X59976190Y-14960001D01*
X59976190Y-14960001D02*
X59928571Y-14912382D01*
X59928571Y-14912382D02*
X59833333Y-14864763D01*
X59833333Y-14864763D02*
X59595238Y-14864763D01*
X59595238Y-14864763D02*
X59452381Y-14912382D01*
X59071428Y-15579048D02*
X58595238Y-15579048D01*
X59166666Y-15864763D02*
X58833333Y-14864763D01*
X58833333Y-14864763D02*
X58500000Y-15864763D01*
X56976190Y-15198096D02*
X56976190Y-15864763D01*
X57214285Y-14817144D02*
X57452380Y-15531429D01*
X57452380Y-15531429D02*
X56833333Y-15531429D01*
X56452380Y-15769524D02*
X56404761Y-15817144D01*
X56404761Y-15817144D02*
X56452380Y-15864763D01*
X56452380Y-15864763D02*
X56499999Y-15817144D01*
X56499999Y-15817144D02*
X56452380Y-15769524D01*
X56452380Y-15769524D02*
X56452380Y-15864763D01*
X55785714Y-14864763D02*
X55690476Y-14864763D01*
X55690476Y-14864763D02*
X55595238Y-14912382D01*
X55595238Y-14912382D02*
X55547619Y-14960001D01*
X55547619Y-14960001D02*
X55500000Y-15055239D01*
X55500000Y-15055239D02*
X55452381Y-15245715D01*
X55452381Y-15245715D02*
X55452381Y-15483810D01*
X55452381Y-15483810D02*
X55500000Y-15674286D01*
X55500000Y-15674286D02*
X55547619Y-15769524D01*
X55547619Y-15769524D02*
X55595238Y-15817144D01*
X55595238Y-15817144D02*
X55690476Y-15864763D01*
X55690476Y-15864763D02*
X55785714Y-15864763D01*
X55785714Y-15864763D02*
X55880952Y-15817144D01*
X55880952Y-15817144D02*
X55928571Y-15769524D01*
X55928571Y-15769524D02*
X55976190Y-15674286D01*
X55976190Y-15674286D02*
X56023809Y-15483810D01*
X56023809Y-15483810D02*
X56023809Y-15245715D01*
X56023809Y-15245715D02*
X55976190Y-15055239D01*
X55976190Y-15055239D02*
X55928571Y-14960001D01*
X55928571Y-14960001D02*
X55880952Y-14912382D01*
X55880952Y-14912382D02*
X55785714Y-14864763D01*
X53785714Y-15864763D02*
X54261904Y-15864763D01*
X54261904Y-15864763D02*
X54261904Y-14864763D01*
X53452380Y-15864763D02*
X53452380Y-15198096D01*
X53452380Y-14864763D02*
X53499999Y-14912382D01*
X53499999Y-14912382D02*
X53452380Y-14960001D01*
X53452380Y-14960001D02*
X53404761Y-14912382D01*
X53404761Y-14912382D02*
X53452380Y-14864763D01*
X53452380Y-14864763D02*
X53452380Y-14960001D01*
X52547619Y-15817144D02*
X52642857Y-15864763D01*
X52642857Y-15864763D02*
X52833333Y-15864763D01*
X52833333Y-15864763D02*
X52928571Y-15817144D01*
X52928571Y-15817144D02*
X52976190Y-15769524D01*
X52976190Y-15769524D02*
X53023809Y-15674286D01*
X53023809Y-15674286D02*
X53023809Y-15388572D01*
X53023809Y-15388572D02*
X52976190Y-15293334D01*
X52976190Y-15293334D02*
X52928571Y-15245715D01*
X52928571Y-15245715D02*
X52833333Y-15198096D01*
X52833333Y-15198096D02*
X52642857Y-15198096D01*
X52642857Y-15198096D02*
X52547619Y-15245715D01*
X51738095Y-15817144D02*
X51833333Y-15864763D01*
X51833333Y-15864763D02*
X52023809Y-15864763D01*
X52023809Y-15864763D02*
X52119047Y-15817144D01*
X52119047Y-15817144D02*
X52166666Y-15721905D01*
X52166666Y-15721905D02*
X52166666Y-15340953D01*
X52166666Y-15340953D02*
X52119047Y-15245715D01*
X52119047Y-15245715D02*
X52023809Y-15198096D01*
X52023809Y-15198096D02*
X51833333Y-15198096D01*
X51833333Y-15198096D02*
X51738095Y-15245715D01*
X51738095Y-15245715D02*
X51690476Y-15340953D01*
X51690476Y-15340953D02*
X51690476Y-15436191D01*
X51690476Y-15436191D02*
X52166666Y-15531429D01*
X51261904Y-15198096D02*
X51261904Y-15864763D01*
X51261904Y-15293334D02*
X51214285Y-15245715D01*
X51214285Y-15245715D02*
X51119047Y-15198096D01*
X51119047Y-15198096D02*
X50976190Y-15198096D01*
X50976190Y-15198096D02*
X50880952Y-15245715D01*
X50880952Y-15245715D02*
X50833333Y-15340953D01*
X50833333Y-15340953D02*
X50833333Y-15864763D01*
X50404761Y-15817144D02*
X50309523Y-15864763D01*
X50309523Y-15864763D02*
X50119047Y-15864763D01*
X50119047Y-15864763D02*
X50023809Y-15817144D01*
X50023809Y-15817144D02*
X49976190Y-15721905D01*
X49976190Y-15721905D02*
X49976190Y-15674286D01*
X49976190Y-15674286D02*
X50023809Y-15579048D01*
X50023809Y-15579048D02*
X50119047Y-15531429D01*
X50119047Y-15531429D02*
X50261904Y-15531429D01*
X50261904Y-15531429D02*
X50357142Y-15483810D01*
X50357142Y-15483810D02*
X50404761Y-15388572D01*
X50404761Y-15388572D02*
X50404761Y-15340953D01*
X50404761Y-15340953D02*
X50357142Y-15245715D01*
X50357142Y-15245715D02*
X50261904Y-15198096D01*
X50261904Y-15198096D02*
X50119047Y-15198096D01*
X50119047Y-15198096D02*
X50023809Y-15245715D01*
X49166666Y-15817144D02*
X49261904Y-15864763D01*
X49261904Y-15864763D02*
X49452380Y-15864763D01*
X49452380Y-15864763D02*
X49547618Y-15817144D01*
X49547618Y-15817144D02*
X49595237Y-15721905D01*
X49595237Y-15721905D02*
X49595237Y-15340953D01*
X49595237Y-15340953D02*
X49547618Y-15245715D01*
X49547618Y-15245715D02*
X49452380Y-15198096D01*
X49452380Y-15198096D02*
X49261904Y-15198096D01*
X49261904Y-15198096D02*
X49166666Y-15245715D01*
X49166666Y-15245715D02*
X49119047Y-15340953D01*
X49119047Y-15340953D02*
X49119047Y-15436191D01*
X49119047Y-15436191D02*
X49595237Y-15531429D01*
X29774819Y-29033333D02*
X29298628Y-28700000D01*
X29774819Y-28461905D02*
X28774819Y-28461905D01*
X28774819Y-28461905D02*
X28774819Y-28842857D01*
X28774819Y-28842857D02*
X28822438Y-28938095D01*
X28822438Y-28938095D02*
X28870057Y-28985714D01*
X28870057Y-28985714D02*
X28965295Y-29033333D01*
X28965295Y-29033333D02*
X29108152Y-29033333D01*
X29108152Y-29033333D02*
X29203390Y-28985714D01*
X29203390Y-28985714D02*
X29251009Y-28938095D01*
X29251009Y-28938095D02*
X29298628Y-28842857D01*
X29298628Y-28842857D02*
X29298628Y-28461905D01*
X28774819Y-29366667D02*
X28774819Y-29985714D01*
X28774819Y-29985714D02*
X29155771Y-29652381D01*
X29155771Y-29652381D02*
X29155771Y-29795238D01*
X29155771Y-29795238D02*
X29203390Y-29890476D01*
X29203390Y-29890476D02*
X29251009Y-29938095D01*
X29251009Y-29938095D02*
X29346247Y-29985714D01*
X29346247Y-29985714D02*
X29584342Y-29985714D01*
X29584342Y-29985714D02*
X29679580Y-29938095D01*
X29679580Y-29938095D02*
X29727200Y-29890476D01*
X29727200Y-29890476D02*
X29774819Y-29795238D01*
X29774819Y-29795238D02*
X29774819Y-29509524D01*
X29774819Y-29509524D02*
X29727200Y-29414286D01*
X29727200Y-29414286D02*
X29679580Y-29366667D01*
X48938094Y-35754819D02*
X48938094Y-34754819D01*
X48938094Y-34754819D02*
X48699999Y-34754819D01*
X48699999Y-34754819D02*
X48557142Y-34802438D01*
X48557142Y-34802438D02*
X48461904Y-34897676D01*
X48461904Y-34897676D02*
X48414285Y-34992914D01*
X48414285Y-34992914D02*
X48366666Y-35183390D01*
X48366666Y-35183390D02*
X48366666Y-35326247D01*
X48366666Y-35326247D02*
X48414285Y-35516723D01*
X48414285Y-35516723D02*
X48461904Y-35611961D01*
X48461904Y-35611961D02*
X48557142Y-35707200D01*
X48557142Y-35707200D02*
X48699999Y-35754819D01*
X48699999Y-35754819D02*
X48938094Y-35754819D01*
X47414285Y-35754819D02*
X47985713Y-35754819D01*
X47699999Y-35754819D02*
X47699999Y-34754819D01*
X47699999Y-34754819D02*
X47795237Y-34897676D01*
X47795237Y-34897676D02*
X47890475Y-34992914D01*
X47890475Y-34992914D02*
X47985713Y-35040533D01*
X57254819Y-25104761D02*
X56778628Y-24771428D01*
X57254819Y-24533333D02*
X56254819Y-24533333D01*
X56254819Y-24533333D02*
X56254819Y-24914285D01*
X56254819Y-24914285D02*
X56302438Y-25009523D01*
X56302438Y-25009523D02*
X56350057Y-25057142D01*
X56350057Y-25057142D02*
X56445295Y-25104761D01*
X56445295Y-25104761D02*
X56588152Y-25104761D01*
X56588152Y-25104761D02*
X56683390Y-25057142D01*
X56683390Y-25057142D02*
X56731009Y-25009523D01*
X56731009Y-25009523D02*
X56778628Y-24914285D01*
X56778628Y-24914285D02*
X56778628Y-24533333D01*
X56254819Y-25390476D02*
X57254819Y-25723809D01*
X57254819Y-25723809D02*
X56254819Y-26057142D01*
X57254819Y-26914285D02*
X57254819Y-26342857D01*
X57254819Y-26628571D02*
X56254819Y-26628571D01*
X56254819Y-26628571D02*
X56397676Y-26533333D01*
X56397676Y-26533333D02*
X56492914Y-26438095D01*
X56492914Y-26438095D02*
X56540533Y-26342857D01*
X43454819Y-25516666D02*
X44169104Y-25516666D01*
X44169104Y-25516666D02*
X44311961Y-25469047D01*
X44311961Y-25469047D02*
X44407200Y-25373809D01*
X44407200Y-25373809D02*
X44454819Y-25230952D01*
X44454819Y-25230952D02*
X44454819Y-25135714D01*
X44454819Y-26516666D02*
X44454819Y-25945238D01*
X44454819Y-26230952D02*
X43454819Y-26230952D01*
X43454819Y-26230952D02*
X43597676Y-26135714D01*
X43597676Y-26135714D02*
X43692914Y-26040476D01*
X43692914Y-26040476D02*
X43740533Y-25945238D01*
D10*
X30265000Y-28938748D02*
X30265000Y-29461252D01*
X31735000Y-28938748D02*
X31735000Y-29461252D01*
X46390000Y-34064000D02*
X46390000Y-34220000D01*
X46390000Y-36380000D02*
X46390000Y-36536000D01*
X43157665Y-34221392D02*
G75*
G02*
X46390000Y-34064484I1672335J-1078608D01*
G01*
X43788870Y-34220163D02*
G75*
G02*
X45870961Y-34220000I1041130J-1079837D01*
G01*
X45870961Y-36380000D02*
G75*
G02*
X43788870Y-36379837I-1040961J1080000D01*
G01*
X46390000Y-36535516D02*
G75*
G02*
X43157665Y-36378608I-1560000J1235516D01*
G01*
X58000000Y-16700000D02*
X58000000Y-34700000D01*
X58000000Y-16700000D02*
X72000000Y-16700000D01*
X58000000Y-34700000D02*
X72000000Y-34700000D01*
X72000000Y-16700000D02*
G75*
G02*
X72000000Y-34700000I0J-9000000D01*
G01*
X47000000Y-18850000D02*
X53000000Y-18850000D01*
X47000000Y-21850000D02*
X47000000Y-18850000D01*
X47000000Y-32850001D02*
X47000000Y-29850001D01*
X53000000Y-18850000D02*
X53000000Y-21850000D01*
X53000000Y-29850001D02*
X53000000Y-32850001D01*
X53000000Y-32850001D02*
X47000000Y-32850001D01*
X47000000Y-29850000D02*
G75*
G02*
X47000000Y-21850000I3000000J4000000D01*
G01*
X53000000Y-21850001D02*
G75*
G02*
X52999999Y-29850000I-3000001J-3999999D01*
G01*
%LPC*%
D12*
X26000000Y-11750000D03*
X66000000Y-40250000D03*
D13*
X35420000Y-38485000D03*
X35420000Y-13485000D03*
D14*
X37400000Y-30300000D03*
D15*
X37400000Y-28010000D03*
X37400000Y-25720000D03*
X37400000Y-23430000D03*
X37400000Y-21140000D03*
X35420000Y-31445000D03*
X35420000Y-29155000D03*
X35420000Y-26865000D03*
X35420000Y-24575000D03*
X35420000Y-22285000D03*
X33440000Y-30300000D03*
X33440000Y-28010000D03*
X33440000Y-25720000D03*
X33440000Y-23430000D03*
X33440000Y-21140000D03*
D16*
X31000000Y-28250000D03*
X31000000Y-30150000D03*
D17*
X46100000Y-35300000D03*
D18*
X43560000Y-35300000D03*
D19*
X71750000Y-25700000D03*
D20*
X60000000Y-20700000D03*
X60000000Y-25700000D03*
X60000000Y-30700000D03*
D21*
X51600000Y-25850000D03*
X50000000Y-31000000D03*
X50000000Y-20700000D03*
%LPD*%
M02*
