G04 #@! TF.GenerationSoftware,KiCad,Pcbnew,5.1.10-88a1d61d58~90~ubuntu20.04.1*
G04 #@! TF.CreationDate,2021-10-27T23:57:33-06:00*
G04 #@! TF.ProjectId,Z680 Standalone Subwoofer,5a363830-2053-4746-916e-64616c6f6e65,rev?*
G04 #@! TF.SameCoordinates,Original*
G04 #@! TF.FileFunction,Paste,Top*
G04 #@! TF.FilePolarity,Positive*
%FSLAX46Y46*%
G04 Gerber Fmt 4.6, Leading zero omitted, Abs format (unit mm)*
G04 Created by KiCad (PCBNEW 5.1.10-88a1d61d58~90~ubuntu20.04.1) date 2021-10-27 23:57:33*
%MOMM*%
%LPD*%
G01*
G04 APERTURE LIST*
%ADD10R,2.750000X3.050000*%
%ADD11R,1.200000X2.200000*%
G04 APERTURE END LIST*
G36*
G01*
X43225000Y-30850000D02*
X43775000Y-30850000D01*
G75*
G02*
X43975000Y-31050000I0J-200000D01*
G01*
X43975000Y-31450000D01*
G75*
G02*
X43775000Y-31650000I-200000J0D01*
G01*
X43225000Y-31650000D01*
G75*
G02*
X43025000Y-31450000I0J200000D01*
G01*
X43025000Y-31050000D01*
G75*
G02*
X43225000Y-30850000I200000J0D01*
G01*
G37*
G36*
G01*
X43225000Y-29200000D02*
X43775000Y-29200000D01*
G75*
G02*
X43975000Y-29400000I0J-200000D01*
G01*
X43975000Y-29800000D01*
G75*
G02*
X43775000Y-30000000I-200000J0D01*
G01*
X43225000Y-30000000D01*
G75*
G02*
X43025000Y-29800000I0J200000D01*
G01*
X43025000Y-29400000D01*
G75*
G02*
X43225000Y-29200000I200000J0D01*
G01*
G37*
G36*
G01*
X59725000Y-23625000D02*
X60275000Y-23625000D01*
G75*
G02*
X60475000Y-23825000I0J-200000D01*
G01*
X60475000Y-24225000D01*
G75*
G02*
X60275000Y-24425000I-200000J0D01*
G01*
X59725000Y-24425000D01*
G75*
G02*
X59525000Y-24225000I0J200000D01*
G01*
X59525000Y-23825000D01*
G75*
G02*
X59725000Y-23625000I200000J0D01*
G01*
G37*
G36*
G01*
X59725000Y-21975000D02*
X60275000Y-21975000D01*
G75*
G02*
X60475000Y-22175000I0J-200000D01*
G01*
X60475000Y-22575000D01*
G75*
G02*
X60275000Y-22775000I-200000J0D01*
G01*
X59725000Y-22775000D01*
G75*
G02*
X59525000Y-22575000I0J200000D01*
G01*
X59525000Y-22175000D01*
G75*
G02*
X59725000Y-21975000I200000J0D01*
G01*
G37*
D10*
X21275000Y-31525000D03*
X24325000Y-34875000D03*
X24325000Y-31525000D03*
X21275000Y-34875000D03*
D11*
X20520000Y-26900000D03*
X25080000Y-26900000D03*
G36*
G01*
X17625000Y-29650000D02*
X18575000Y-29650000D01*
G75*
G02*
X18825000Y-29900000I0J-250000D01*
G01*
X18825000Y-30400000D01*
G75*
G02*
X18575000Y-30650000I-250000J0D01*
G01*
X17625000Y-30650000D01*
G75*
G02*
X17375000Y-30400000I0J250000D01*
G01*
X17375000Y-29900000D01*
G75*
G02*
X17625000Y-29650000I250000J0D01*
G01*
G37*
G36*
G01*
X17625000Y-27750000D02*
X18575000Y-27750000D01*
G75*
G02*
X18825000Y-28000000I0J-250000D01*
G01*
X18825000Y-28500000D01*
G75*
G02*
X18575000Y-28750000I-250000J0D01*
G01*
X17625000Y-28750000D01*
G75*
G02*
X17375000Y-28500000I0J250000D01*
G01*
X17375000Y-28000000D01*
G75*
G02*
X17625000Y-27750000I250000J0D01*
G01*
G37*
G36*
G01*
X27975000Y-28750000D02*
X27025000Y-28750000D01*
G75*
G02*
X26775000Y-28500000I0J250000D01*
G01*
X26775000Y-28000000D01*
G75*
G02*
X27025000Y-27750000I250000J0D01*
G01*
X27975000Y-27750000D01*
G75*
G02*
X28225000Y-28000000I0J-250000D01*
G01*
X28225000Y-28500000D01*
G75*
G02*
X27975000Y-28750000I-250000J0D01*
G01*
G37*
G36*
G01*
X27975000Y-30650000D02*
X27025000Y-30650000D01*
G75*
G02*
X26775000Y-30400000I0J250000D01*
G01*
X26775000Y-29900000D01*
G75*
G02*
X27025000Y-29650000I250000J0D01*
G01*
X27975000Y-29650000D01*
G75*
G02*
X28225000Y-29900000I0J-250000D01*
G01*
X28225000Y-30400000D01*
G75*
G02*
X27975000Y-30650000I-250000J0D01*
G01*
G37*
M02*
