G04 #@! TF.GenerationSoftware,KiCad,Pcbnew,5.1.10-88a1d61d58~90~ubuntu20.04.1*
G04 #@! TF.CreationDate,2021-10-27T23:57:33-06:00*
G04 #@! TF.ProjectId,Z680 Standalone Subwoofer,5a363830-2053-4746-916e-64616c6f6e65,rev?*
G04 #@! TF.SameCoordinates,Original*
G04 #@! TF.FileFunction,Copper,L1,Top*
G04 #@! TF.FilePolarity,Positive*
%FSLAX46Y46*%
G04 Gerber Fmt 4.6, Leading zero omitted, Abs format (unit mm)*
G04 Created by KiCad (PCBNEW 5.1.10-88a1d61d58~90~ubuntu20.04.1) date 2021-10-27 23:57:33*
%MOMM*%
%LPD*%
G01*
G04 APERTURE LIST*
G04 #@! TA.AperFunction,NonConductor*
%ADD10C,0.150000*%
G04 #@! TD*
G04 #@! TA.AperFunction,EtchedComponent*
%ADD11C,0.010000*%
G04 #@! TD*
G04 #@! TA.AperFunction,ComponentPad*
%ADD12C,3.000000*%
G04 #@! TD*
G04 #@! TA.AperFunction,ComponentPad*
%ADD13C,4.000000*%
G04 #@! TD*
G04 #@! TA.AperFunction,ComponentPad*
%ADD14C,1.600000*%
G04 #@! TD*
G04 #@! TA.AperFunction,ComponentPad*
%ADD15R,1.600000X1.600000*%
G04 #@! TD*
G04 #@! TA.AperFunction,SMDPad,CuDef*
%ADD16R,5.800000X6.400000*%
G04 #@! TD*
G04 #@! TA.AperFunction,SMDPad,CuDef*
%ADD17R,1.200000X2.200000*%
G04 #@! TD*
G04 #@! TA.AperFunction,ComponentPad*
%ADD18C,2.000000*%
G04 #@! TD*
G04 #@! TA.AperFunction,ComponentPad*
%ADD19C,1.800000*%
G04 #@! TD*
G04 #@! TA.AperFunction,ComponentPad*
%ADD20R,1.800000X1.800000*%
G04 #@! TD*
G04 #@! TA.AperFunction,ViaPad*
%ADD21C,0.700000*%
G04 #@! TD*
G04 #@! TA.AperFunction,Conductor*
%ADD22C,0.250000*%
G04 #@! TD*
G04 #@! TA.AperFunction,Conductor*
%ADD23C,0.500000*%
G04 #@! TD*
G04 #@! TA.AperFunction,Conductor*
%ADD24C,0.254000*%
G04 #@! TD*
G04 #@! TA.AperFunction,Conductor*
%ADD25C,0.150000*%
G04 #@! TD*
G04 APERTURE END LIST*
D10*
X51242857Y-40114285D02*
X51214285Y-40142857D01*
X51128571Y-40171428D01*
X51071428Y-40171428D01*
X50985714Y-40142857D01*
X50928571Y-40085714D01*
X50900000Y-40028571D01*
X50871428Y-39914285D01*
X50871428Y-39828571D01*
X50900000Y-39714285D01*
X50928571Y-39657142D01*
X50985714Y-39600000D01*
X51071428Y-39571428D01*
X51128571Y-39571428D01*
X51214285Y-39600000D01*
X51242857Y-39628571D01*
X51842857Y-40114285D02*
X51814285Y-40142857D01*
X51728571Y-40171428D01*
X51671428Y-40171428D01*
X51585714Y-40142857D01*
X51528571Y-40085714D01*
X51500000Y-40028571D01*
X51471428Y-39914285D01*
X51471428Y-39828571D01*
X51500000Y-39714285D01*
X51528571Y-39657142D01*
X51585714Y-39600000D01*
X51671428Y-39571428D01*
X51728571Y-39571428D01*
X51814285Y-39600000D01*
X51842857Y-39628571D01*
X52757142Y-39857142D02*
X52842857Y-39885714D01*
X52871428Y-39914285D01*
X52900000Y-39971428D01*
X52900000Y-40057142D01*
X52871428Y-40114285D01*
X52842857Y-40142857D01*
X52785714Y-40171428D01*
X52557142Y-40171428D01*
X52557142Y-39571428D01*
X52757142Y-39571428D01*
X52814285Y-39600000D01*
X52842857Y-39628571D01*
X52871428Y-39685714D01*
X52871428Y-39742857D01*
X52842857Y-39800000D01*
X52814285Y-39828571D01*
X52757142Y-39857142D01*
X52557142Y-39857142D01*
X53271428Y-39885714D02*
X53271428Y-40171428D01*
X53071428Y-39571428D02*
X53271428Y-39885714D01*
X53471428Y-39571428D01*
X53671428Y-39942857D02*
X54128571Y-39942857D01*
X54385714Y-40142857D02*
X54471428Y-40171428D01*
X54614285Y-40171428D01*
X54671428Y-40142857D01*
X54700000Y-40114285D01*
X54728571Y-40057142D01*
X54728571Y-40000000D01*
X54700000Y-39942857D01*
X54671428Y-39914285D01*
X54614285Y-39885714D01*
X54500000Y-39857142D01*
X54442857Y-39828571D01*
X54414285Y-39800000D01*
X54385714Y-39742857D01*
X54385714Y-39685714D01*
X54414285Y-39628571D01*
X54442857Y-39600000D01*
X54500000Y-39571428D01*
X54642857Y-39571428D01*
X54728571Y-39600000D01*
X54957142Y-40000000D02*
X55242857Y-40000000D01*
X54900000Y-40171428D02*
X55100000Y-39571428D01*
X55300000Y-40171428D01*
X56214285Y-39771428D02*
X56214285Y-40171428D01*
X56071428Y-39542857D02*
X55928571Y-39971428D01*
X56300000Y-39971428D01*
X56528571Y-40114285D02*
X56557142Y-40142857D01*
X56528571Y-40171428D01*
X56500000Y-40142857D01*
X56528571Y-40114285D01*
X56528571Y-40171428D01*
X56928571Y-39571428D02*
X56985714Y-39571428D01*
X57042857Y-39600000D01*
X57071428Y-39628571D01*
X57100000Y-39685714D01*
X57128571Y-39800000D01*
X57128571Y-39942857D01*
X57100000Y-40057142D01*
X57071428Y-40114285D01*
X57042857Y-40142857D01*
X56985714Y-40171428D01*
X56928571Y-40171428D01*
X56871428Y-40142857D01*
X56842857Y-40114285D01*
X56814285Y-40057142D01*
X56785714Y-39942857D01*
X56785714Y-39800000D01*
X56814285Y-39685714D01*
X56842857Y-39628571D01*
X56871428Y-39600000D01*
X56928571Y-39571428D01*
D11*
G36*
X54103910Y-33742348D02*
G01*
X54182454Y-33742778D01*
X54239298Y-33743942D01*
X54278105Y-33746207D01*
X54302538Y-33749940D01*
X54316262Y-33755506D01*
X54322940Y-33763273D01*
X54326236Y-33773605D01*
X54326556Y-33774943D01*
X54331562Y-33799079D01*
X54340829Y-33846701D01*
X54353392Y-33912741D01*
X54368287Y-33992128D01*
X54384551Y-34079796D01*
X54385119Y-34082875D01*
X54401410Y-34168789D01*
X54416652Y-34244696D01*
X54429861Y-34306045D01*
X54440054Y-34348282D01*
X54446248Y-34366855D01*
X54446543Y-34367184D01*
X54464788Y-34376253D01*
X54502405Y-34391367D01*
X54551271Y-34409262D01*
X54551543Y-34409358D01*
X54613093Y-34432493D01*
X54685657Y-34461965D01*
X54754057Y-34491597D01*
X54757294Y-34493062D01*
X54868702Y-34543626D01*
X55115399Y-34375160D01*
X55191077Y-34323803D01*
X55259631Y-34277889D01*
X55317088Y-34240030D01*
X55359476Y-34212837D01*
X55382825Y-34198921D01*
X55385042Y-34197889D01*
X55402010Y-34202484D01*
X55433701Y-34224655D01*
X55481352Y-34265447D01*
X55546198Y-34325905D01*
X55612397Y-34390227D01*
X55676214Y-34453612D01*
X55733329Y-34511451D01*
X55780305Y-34560175D01*
X55813703Y-34596210D01*
X55830085Y-34615984D01*
X55830694Y-34617002D01*
X55832505Y-34630572D01*
X55825683Y-34652733D01*
X55808540Y-34686478D01*
X55779393Y-34734800D01*
X55736555Y-34800692D01*
X55679448Y-34885517D01*
X55628766Y-34960177D01*
X55583461Y-35027140D01*
X55546150Y-35082516D01*
X55519452Y-35122420D01*
X55505985Y-35142962D01*
X55505137Y-35144356D01*
X55506781Y-35164038D01*
X55519245Y-35202293D01*
X55540048Y-35251889D01*
X55547462Y-35267728D01*
X55579814Y-35338290D01*
X55614328Y-35418353D01*
X55642365Y-35487629D01*
X55662568Y-35539045D01*
X55678615Y-35578119D01*
X55687888Y-35598541D01*
X55689041Y-35600114D01*
X55706096Y-35602721D01*
X55746298Y-35609863D01*
X55804302Y-35620523D01*
X55874763Y-35633685D01*
X55952335Y-35648333D01*
X56031672Y-35663449D01*
X56107431Y-35678018D01*
X56174264Y-35691022D01*
X56226828Y-35701445D01*
X56259776Y-35708270D01*
X56267857Y-35710199D01*
X56276205Y-35714962D01*
X56282506Y-35725718D01*
X56287045Y-35746098D01*
X56290104Y-35779734D01*
X56291967Y-35830255D01*
X56292918Y-35901292D01*
X56293240Y-35996476D01*
X56293257Y-36035492D01*
X56293257Y-36352799D01*
X56217057Y-36367839D01*
X56174663Y-36375995D01*
X56111400Y-36387899D01*
X56034962Y-36402116D01*
X55953043Y-36417210D01*
X55930400Y-36421355D01*
X55854806Y-36436053D01*
X55788953Y-36450505D01*
X55738366Y-36463375D01*
X55708574Y-36473322D01*
X55703612Y-36476287D01*
X55691426Y-36497283D01*
X55673953Y-36537967D01*
X55654577Y-36590322D01*
X55650734Y-36601600D01*
X55625339Y-36671523D01*
X55593817Y-36750418D01*
X55562969Y-36821266D01*
X55562817Y-36821595D01*
X55511447Y-36932733D01*
X55680399Y-37181253D01*
X55849352Y-37429772D01*
X55632429Y-37647058D01*
X55566819Y-37711726D01*
X55506979Y-37768733D01*
X55456267Y-37815033D01*
X55418046Y-37847584D01*
X55395675Y-37863343D01*
X55392466Y-37864343D01*
X55373626Y-37856469D01*
X55335180Y-37834578D01*
X55281330Y-37801267D01*
X55216276Y-37759131D01*
X55145940Y-37711943D01*
X55074555Y-37663810D01*
X55010908Y-37621928D01*
X54959041Y-37588871D01*
X54922995Y-37567218D01*
X54906867Y-37559543D01*
X54887189Y-37566037D01*
X54849875Y-37583150D01*
X54802621Y-37607326D01*
X54797612Y-37610013D01*
X54733977Y-37641927D01*
X54690341Y-37657579D01*
X54663202Y-37657745D01*
X54649057Y-37643204D01*
X54648975Y-37643000D01*
X54641905Y-37625779D01*
X54625042Y-37584899D01*
X54599695Y-37523525D01*
X54567171Y-37444819D01*
X54528778Y-37351947D01*
X54485822Y-37248072D01*
X54444222Y-37147502D01*
X54398504Y-37036516D01*
X54356526Y-36933703D01*
X54319548Y-36842215D01*
X54288827Y-36765201D01*
X54265622Y-36705815D01*
X54251190Y-36667209D01*
X54246743Y-36652800D01*
X54257896Y-36636272D01*
X54287069Y-36609930D01*
X54325971Y-36580887D01*
X54436757Y-36489039D01*
X54523351Y-36383759D01*
X54584716Y-36267266D01*
X54619815Y-36141776D01*
X54627608Y-36009507D01*
X54621943Y-35948457D01*
X54591078Y-35821795D01*
X54537920Y-35709941D01*
X54465767Y-35614001D01*
X54377917Y-35535076D01*
X54277665Y-35474270D01*
X54168310Y-35432687D01*
X54053147Y-35411428D01*
X53935475Y-35411599D01*
X53818590Y-35434301D01*
X53705789Y-35480638D01*
X53600369Y-35551713D01*
X53556368Y-35591911D01*
X53471979Y-35695129D01*
X53413222Y-35807925D01*
X53379704Y-35927010D01*
X53371035Y-36049095D01*
X53386823Y-36170893D01*
X53426678Y-36289116D01*
X53490207Y-36400475D01*
X53577021Y-36501684D01*
X53674029Y-36580887D01*
X53714437Y-36611162D01*
X53742982Y-36637219D01*
X53753257Y-36652825D01*
X53747877Y-36669843D01*
X53732575Y-36710500D01*
X53708612Y-36771642D01*
X53677244Y-36850119D01*
X53639732Y-36942780D01*
X53597333Y-37046472D01*
X53555663Y-37147526D01*
X53509690Y-37258607D01*
X53467107Y-37361541D01*
X53429221Y-37453165D01*
X53397340Y-37530316D01*
X53372771Y-37589831D01*
X53356820Y-37628544D01*
X53350910Y-37643000D01*
X53336948Y-37657685D01*
X53309940Y-37657642D01*
X53266413Y-37642099D01*
X53202890Y-37610284D01*
X53202388Y-37610013D01*
X53154560Y-37585323D01*
X53115897Y-37567338D01*
X53094095Y-37559614D01*
X53093133Y-37559543D01*
X53076721Y-37567378D01*
X53040487Y-37589165D01*
X52988474Y-37622328D01*
X52924725Y-37664291D01*
X52854060Y-37711943D01*
X52782116Y-37760191D01*
X52717274Y-37802151D01*
X52663735Y-37835227D01*
X52625697Y-37856821D01*
X52607533Y-37864343D01*
X52590808Y-37854457D01*
X52557180Y-37826826D01*
X52510010Y-37784495D01*
X52452658Y-37730505D01*
X52388484Y-37667899D01*
X52367497Y-37646983D01*
X52150499Y-37429623D01*
X52315668Y-37187220D01*
X52365864Y-37112781D01*
X52409919Y-37045972D01*
X52445362Y-36990665D01*
X52469719Y-36950729D01*
X52480522Y-36930036D01*
X52480838Y-36928563D01*
X52475143Y-36909058D01*
X52459826Y-36869822D01*
X52437537Y-36817430D01*
X52421893Y-36782355D01*
X52392641Y-36715201D01*
X52365094Y-36647358D01*
X52343737Y-36590034D01*
X52337935Y-36572572D01*
X52321452Y-36525938D01*
X52305340Y-36489905D01*
X52296490Y-36476287D01*
X52276960Y-36467952D01*
X52234334Y-36456137D01*
X52174145Y-36442181D01*
X52101922Y-36427422D01*
X52069600Y-36421355D01*
X51987522Y-36406273D01*
X51908795Y-36391669D01*
X51841109Y-36378980D01*
X51792160Y-36369642D01*
X51782943Y-36367839D01*
X51706743Y-36352799D01*
X51706743Y-36035492D01*
X51706914Y-35931154D01*
X51707616Y-35852213D01*
X51709134Y-35795038D01*
X51711749Y-35755999D01*
X51715746Y-35731465D01*
X51721409Y-35717805D01*
X51729020Y-35711389D01*
X51732143Y-35710199D01*
X51750978Y-35705980D01*
X51792588Y-35697562D01*
X51851630Y-35685961D01*
X51922757Y-35672195D01*
X52000625Y-35657280D01*
X52079887Y-35642232D01*
X52155198Y-35628069D01*
X52221213Y-35615806D01*
X52272587Y-35606461D01*
X52303975Y-35601050D01*
X52310959Y-35600114D01*
X52317285Y-35587596D01*
X52331290Y-35554246D01*
X52350355Y-35506377D01*
X52357634Y-35487629D01*
X52386996Y-35415195D01*
X52421571Y-35335170D01*
X52452537Y-35267728D01*
X52475323Y-35216159D01*
X52490482Y-35173785D01*
X52495542Y-35147834D01*
X52494736Y-35144356D01*
X52484041Y-35127936D01*
X52459620Y-35091417D01*
X52424095Y-35038687D01*
X52380087Y-34973635D01*
X52330217Y-34900151D01*
X52320356Y-34885645D01*
X52262492Y-34799704D01*
X52219956Y-34734261D01*
X52191054Y-34686304D01*
X52174090Y-34652820D01*
X52167367Y-34630795D01*
X52169190Y-34617217D01*
X52169236Y-34617131D01*
X52183586Y-34599297D01*
X52215323Y-34564817D01*
X52261010Y-34517268D01*
X52317204Y-34460222D01*
X52380468Y-34397255D01*
X52387602Y-34390227D01*
X52467330Y-34313020D01*
X52528857Y-34256330D01*
X52573421Y-34219110D01*
X52602257Y-34200315D01*
X52614958Y-34197889D01*
X52633494Y-34208471D01*
X52671961Y-34232916D01*
X52726386Y-34268612D01*
X52792798Y-34312947D01*
X52867225Y-34363311D01*
X52884601Y-34375160D01*
X53131297Y-34543626D01*
X53242706Y-34493062D01*
X53310457Y-34463595D01*
X53383183Y-34433959D01*
X53445703Y-34410330D01*
X53448457Y-34409358D01*
X53497360Y-34391457D01*
X53535057Y-34376320D01*
X53553425Y-34367210D01*
X53553456Y-34367184D01*
X53559285Y-34350717D01*
X53569192Y-34310219D01*
X53582195Y-34250242D01*
X53597309Y-34175340D01*
X53613552Y-34090064D01*
X53614881Y-34082875D01*
X53631175Y-33995014D01*
X53646133Y-33915260D01*
X53658791Y-33848681D01*
X53668186Y-33800347D01*
X53673354Y-33775325D01*
X53673444Y-33774943D01*
X53676589Y-33764299D01*
X53682704Y-33756262D01*
X53695453Y-33750467D01*
X53718500Y-33746547D01*
X53755509Y-33744135D01*
X53810144Y-33742865D01*
X53886067Y-33742371D01*
X53986944Y-33742286D01*
X54000000Y-33742286D01*
X54103910Y-33742348D01*
G37*
X54103910Y-33742348D02*
X54182454Y-33742778D01*
X54239298Y-33743942D01*
X54278105Y-33746207D01*
X54302538Y-33749940D01*
X54316262Y-33755506D01*
X54322940Y-33763273D01*
X54326236Y-33773605D01*
X54326556Y-33774943D01*
X54331562Y-33799079D01*
X54340829Y-33846701D01*
X54353392Y-33912741D01*
X54368287Y-33992128D01*
X54384551Y-34079796D01*
X54385119Y-34082875D01*
X54401410Y-34168789D01*
X54416652Y-34244696D01*
X54429861Y-34306045D01*
X54440054Y-34348282D01*
X54446248Y-34366855D01*
X54446543Y-34367184D01*
X54464788Y-34376253D01*
X54502405Y-34391367D01*
X54551271Y-34409262D01*
X54551543Y-34409358D01*
X54613093Y-34432493D01*
X54685657Y-34461965D01*
X54754057Y-34491597D01*
X54757294Y-34493062D01*
X54868702Y-34543626D01*
X55115399Y-34375160D01*
X55191077Y-34323803D01*
X55259631Y-34277889D01*
X55317088Y-34240030D01*
X55359476Y-34212837D01*
X55382825Y-34198921D01*
X55385042Y-34197889D01*
X55402010Y-34202484D01*
X55433701Y-34224655D01*
X55481352Y-34265447D01*
X55546198Y-34325905D01*
X55612397Y-34390227D01*
X55676214Y-34453612D01*
X55733329Y-34511451D01*
X55780305Y-34560175D01*
X55813703Y-34596210D01*
X55830085Y-34615984D01*
X55830694Y-34617002D01*
X55832505Y-34630572D01*
X55825683Y-34652733D01*
X55808540Y-34686478D01*
X55779393Y-34734800D01*
X55736555Y-34800692D01*
X55679448Y-34885517D01*
X55628766Y-34960177D01*
X55583461Y-35027140D01*
X55546150Y-35082516D01*
X55519452Y-35122420D01*
X55505985Y-35142962D01*
X55505137Y-35144356D01*
X55506781Y-35164038D01*
X55519245Y-35202293D01*
X55540048Y-35251889D01*
X55547462Y-35267728D01*
X55579814Y-35338290D01*
X55614328Y-35418353D01*
X55642365Y-35487629D01*
X55662568Y-35539045D01*
X55678615Y-35578119D01*
X55687888Y-35598541D01*
X55689041Y-35600114D01*
X55706096Y-35602721D01*
X55746298Y-35609863D01*
X55804302Y-35620523D01*
X55874763Y-35633685D01*
X55952335Y-35648333D01*
X56031672Y-35663449D01*
X56107431Y-35678018D01*
X56174264Y-35691022D01*
X56226828Y-35701445D01*
X56259776Y-35708270D01*
X56267857Y-35710199D01*
X56276205Y-35714962D01*
X56282506Y-35725718D01*
X56287045Y-35746098D01*
X56290104Y-35779734D01*
X56291967Y-35830255D01*
X56292918Y-35901292D01*
X56293240Y-35996476D01*
X56293257Y-36035492D01*
X56293257Y-36352799D01*
X56217057Y-36367839D01*
X56174663Y-36375995D01*
X56111400Y-36387899D01*
X56034962Y-36402116D01*
X55953043Y-36417210D01*
X55930400Y-36421355D01*
X55854806Y-36436053D01*
X55788953Y-36450505D01*
X55738366Y-36463375D01*
X55708574Y-36473322D01*
X55703612Y-36476287D01*
X55691426Y-36497283D01*
X55673953Y-36537967D01*
X55654577Y-36590322D01*
X55650734Y-36601600D01*
X55625339Y-36671523D01*
X55593817Y-36750418D01*
X55562969Y-36821266D01*
X55562817Y-36821595D01*
X55511447Y-36932733D01*
X55680399Y-37181253D01*
X55849352Y-37429772D01*
X55632429Y-37647058D01*
X55566819Y-37711726D01*
X55506979Y-37768733D01*
X55456267Y-37815033D01*
X55418046Y-37847584D01*
X55395675Y-37863343D01*
X55392466Y-37864343D01*
X55373626Y-37856469D01*
X55335180Y-37834578D01*
X55281330Y-37801267D01*
X55216276Y-37759131D01*
X55145940Y-37711943D01*
X55074555Y-37663810D01*
X55010908Y-37621928D01*
X54959041Y-37588871D01*
X54922995Y-37567218D01*
X54906867Y-37559543D01*
X54887189Y-37566037D01*
X54849875Y-37583150D01*
X54802621Y-37607326D01*
X54797612Y-37610013D01*
X54733977Y-37641927D01*
X54690341Y-37657579D01*
X54663202Y-37657745D01*
X54649057Y-37643204D01*
X54648975Y-37643000D01*
X54641905Y-37625779D01*
X54625042Y-37584899D01*
X54599695Y-37523525D01*
X54567171Y-37444819D01*
X54528778Y-37351947D01*
X54485822Y-37248072D01*
X54444222Y-37147502D01*
X54398504Y-37036516D01*
X54356526Y-36933703D01*
X54319548Y-36842215D01*
X54288827Y-36765201D01*
X54265622Y-36705815D01*
X54251190Y-36667209D01*
X54246743Y-36652800D01*
X54257896Y-36636272D01*
X54287069Y-36609930D01*
X54325971Y-36580887D01*
X54436757Y-36489039D01*
X54523351Y-36383759D01*
X54584716Y-36267266D01*
X54619815Y-36141776D01*
X54627608Y-36009507D01*
X54621943Y-35948457D01*
X54591078Y-35821795D01*
X54537920Y-35709941D01*
X54465767Y-35614001D01*
X54377917Y-35535076D01*
X54277665Y-35474270D01*
X54168310Y-35432687D01*
X54053147Y-35411428D01*
X53935475Y-35411599D01*
X53818590Y-35434301D01*
X53705789Y-35480638D01*
X53600369Y-35551713D01*
X53556368Y-35591911D01*
X53471979Y-35695129D01*
X53413222Y-35807925D01*
X53379704Y-35927010D01*
X53371035Y-36049095D01*
X53386823Y-36170893D01*
X53426678Y-36289116D01*
X53490207Y-36400475D01*
X53577021Y-36501684D01*
X53674029Y-36580887D01*
X53714437Y-36611162D01*
X53742982Y-36637219D01*
X53753257Y-36652825D01*
X53747877Y-36669843D01*
X53732575Y-36710500D01*
X53708612Y-36771642D01*
X53677244Y-36850119D01*
X53639732Y-36942780D01*
X53597333Y-37046472D01*
X53555663Y-37147526D01*
X53509690Y-37258607D01*
X53467107Y-37361541D01*
X53429221Y-37453165D01*
X53397340Y-37530316D01*
X53372771Y-37589831D01*
X53356820Y-37628544D01*
X53350910Y-37643000D01*
X53336948Y-37657685D01*
X53309940Y-37657642D01*
X53266413Y-37642099D01*
X53202890Y-37610284D01*
X53202388Y-37610013D01*
X53154560Y-37585323D01*
X53115897Y-37567338D01*
X53094095Y-37559614D01*
X53093133Y-37559543D01*
X53076721Y-37567378D01*
X53040487Y-37589165D01*
X52988474Y-37622328D01*
X52924725Y-37664291D01*
X52854060Y-37711943D01*
X52782116Y-37760191D01*
X52717274Y-37802151D01*
X52663735Y-37835227D01*
X52625697Y-37856821D01*
X52607533Y-37864343D01*
X52590808Y-37854457D01*
X52557180Y-37826826D01*
X52510010Y-37784495D01*
X52452658Y-37730505D01*
X52388484Y-37667899D01*
X52367497Y-37646983D01*
X52150499Y-37429623D01*
X52315668Y-37187220D01*
X52365864Y-37112781D01*
X52409919Y-37045972D01*
X52445362Y-36990665D01*
X52469719Y-36950729D01*
X52480522Y-36930036D01*
X52480838Y-36928563D01*
X52475143Y-36909058D01*
X52459826Y-36869822D01*
X52437537Y-36817430D01*
X52421893Y-36782355D01*
X52392641Y-36715201D01*
X52365094Y-36647358D01*
X52343737Y-36590034D01*
X52337935Y-36572572D01*
X52321452Y-36525938D01*
X52305340Y-36489905D01*
X52296490Y-36476287D01*
X52276960Y-36467952D01*
X52234334Y-36456137D01*
X52174145Y-36442181D01*
X52101922Y-36427422D01*
X52069600Y-36421355D01*
X51987522Y-36406273D01*
X51908795Y-36391669D01*
X51841109Y-36378980D01*
X51792160Y-36369642D01*
X51782943Y-36367839D01*
X51706743Y-36352799D01*
X51706743Y-36035492D01*
X51706914Y-35931154D01*
X51707616Y-35852213D01*
X51709134Y-35795038D01*
X51711749Y-35755999D01*
X51715746Y-35731465D01*
X51721409Y-35717805D01*
X51729020Y-35711389D01*
X51732143Y-35710199D01*
X51750978Y-35705980D01*
X51792588Y-35697562D01*
X51851630Y-35685961D01*
X51922757Y-35672195D01*
X52000625Y-35657280D01*
X52079887Y-35642232D01*
X52155198Y-35628069D01*
X52221213Y-35615806D01*
X52272587Y-35606461D01*
X52303975Y-35601050D01*
X52310959Y-35600114D01*
X52317285Y-35587596D01*
X52331290Y-35554246D01*
X52350355Y-35506377D01*
X52357634Y-35487629D01*
X52386996Y-35415195D01*
X52421571Y-35335170D01*
X52452537Y-35267728D01*
X52475323Y-35216159D01*
X52490482Y-35173785D01*
X52495542Y-35147834D01*
X52494736Y-35144356D01*
X52484041Y-35127936D01*
X52459620Y-35091417D01*
X52424095Y-35038687D01*
X52380087Y-34973635D01*
X52330217Y-34900151D01*
X52320356Y-34885645D01*
X52262492Y-34799704D01*
X52219956Y-34734261D01*
X52191054Y-34686304D01*
X52174090Y-34652820D01*
X52167367Y-34630795D01*
X52169190Y-34617217D01*
X52169236Y-34617131D01*
X52183586Y-34599297D01*
X52215323Y-34564817D01*
X52261010Y-34517268D01*
X52317204Y-34460222D01*
X52380468Y-34397255D01*
X52387602Y-34390227D01*
X52467330Y-34313020D01*
X52528857Y-34256330D01*
X52573421Y-34219110D01*
X52602257Y-34200315D01*
X52614958Y-34197889D01*
X52633494Y-34208471D01*
X52671961Y-34232916D01*
X52726386Y-34268612D01*
X52792798Y-34312947D01*
X52867225Y-34363311D01*
X52884601Y-34375160D01*
X53131297Y-34543626D01*
X53242706Y-34493062D01*
X53310457Y-34463595D01*
X53383183Y-34433959D01*
X53445703Y-34410330D01*
X53448457Y-34409358D01*
X53497360Y-34391457D01*
X53535057Y-34376320D01*
X53553425Y-34367210D01*
X53553456Y-34367184D01*
X53559285Y-34350717D01*
X53569192Y-34310219D01*
X53582195Y-34250242D01*
X53597309Y-34175340D01*
X53613552Y-34090064D01*
X53614881Y-34082875D01*
X53631175Y-33995014D01*
X53646133Y-33915260D01*
X53658791Y-33848681D01*
X53668186Y-33800347D01*
X53673354Y-33775325D01*
X53673444Y-33774943D01*
X53676589Y-33764299D01*
X53682704Y-33756262D01*
X53695453Y-33750467D01*
X53718500Y-33746547D01*
X53755509Y-33744135D01*
X53810144Y-33742865D01*
X53886067Y-33742371D01*
X53986944Y-33742286D01*
X54000000Y-33742286D01*
X54103910Y-33742348D01*
G36*
X57153595Y-38466966D02*
G01*
X57211021Y-38504497D01*
X57238719Y-38538096D01*
X57260662Y-38599064D01*
X57262405Y-38647308D01*
X57258457Y-38711816D01*
X57109686Y-38776934D01*
X57037349Y-38810202D01*
X56990084Y-38836964D01*
X56965507Y-38860144D01*
X56961237Y-38882667D01*
X56974889Y-38907455D01*
X56989943Y-38923886D01*
X57033746Y-38950235D01*
X57081389Y-38952081D01*
X57125145Y-38931546D01*
X57157289Y-38890752D01*
X57163038Y-38876347D01*
X57190576Y-38831356D01*
X57222258Y-38812182D01*
X57265714Y-38795779D01*
X57265714Y-38857966D01*
X57261872Y-38900283D01*
X57246823Y-38935969D01*
X57215280Y-38976943D01*
X57210592Y-38982267D01*
X57175506Y-39018720D01*
X57145347Y-39038283D01*
X57107615Y-39047283D01*
X57076335Y-39050230D01*
X57020385Y-39050965D01*
X56980555Y-39041660D01*
X56955708Y-39027846D01*
X56916656Y-38997467D01*
X56889625Y-38964613D01*
X56872517Y-38923294D01*
X56863238Y-38867521D01*
X56859693Y-38791305D01*
X56859410Y-38752622D01*
X56860372Y-38706247D01*
X56948007Y-38706247D01*
X56949023Y-38731126D01*
X56951556Y-38735200D01*
X56968274Y-38729665D01*
X57004249Y-38715017D01*
X57052331Y-38694190D01*
X57062386Y-38689714D01*
X57123152Y-38658814D01*
X57156632Y-38631657D01*
X57163990Y-38606220D01*
X57146391Y-38580481D01*
X57131856Y-38569109D01*
X57079410Y-38546364D01*
X57030322Y-38550122D01*
X56989227Y-38577884D01*
X56960758Y-38627152D01*
X56951631Y-38666257D01*
X56948007Y-38706247D01*
X56860372Y-38706247D01*
X56861285Y-38662249D01*
X56868196Y-38595384D01*
X56881884Y-38546695D01*
X56904096Y-38510849D01*
X56936574Y-38482513D01*
X56950733Y-38473355D01*
X57015053Y-38449507D01*
X57085473Y-38448006D01*
X57153595Y-38466966D01*
G37*
X57153595Y-38466966D02*
X57211021Y-38504497D01*
X57238719Y-38538096D01*
X57260662Y-38599064D01*
X57262405Y-38647308D01*
X57258457Y-38711816D01*
X57109686Y-38776934D01*
X57037349Y-38810202D01*
X56990084Y-38836964D01*
X56965507Y-38860144D01*
X56961237Y-38882667D01*
X56974889Y-38907455D01*
X56989943Y-38923886D01*
X57033746Y-38950235D01*
X57081389Y-38952081D01*
X57125145Y-38931546D01*
X57157289Y-38890752D01*
X57163038Y-38876347D01*
X57190576Y-38831356D01*
X57222258Y-38812182D01*
X57265714Y-38795779D01*
X57265714Y-38857966D01*
X57261872Y-38900283D01*
X57246823Y-38935969D01*
X57215280Y-38976943D01*
X57210592Y-38982267D01*
X57175506Y-39018720D01*
X57145347Y-39038283D01*
X57107615Y-39047283D01*
X57076335Y-39050230D01*
X57020385Y-39050965D01*
X56980555Y-39041660D01*
X56955708Y-39027846D01*
X56916656Y-38997467D01*
X56889625Y-38964613D01*
X56872517Y-38923294D01*
X56863238Y-38867521D01*
X56859693Y-38791305D01*
X56859410Y-38752622D01*
X56860372Y-38706247D01*
X56948007Y-38706247D01*
X56949023Y-38731126D01*
X56951556Y-38735200D01*
X56968274Y-38729665D01*
X57004249Y-38715017D01*
X57052331Y-38694190D01*
X57062386Y-38689714D01*
X57123152Y-38658814D01*
X57156632Y-38631657D01*
X57163990Y-38606220D01*
X57146391Y-38580481D01*
X57131856Y-38569109D01*
X57079410Y-38546364D01*
X57030322Y-38550122D01*
X56989227Y-38577884D01*
X56960758Y-38627152D01*
X56951631Y-38666257D01*
X56948007Y-38706247D01*
X56860372Y-38706247D01*
X56861285Y-38662249D01*
X56868196Y-38595384D01*
X56881884Y-38546695D01*
X56904096Y-38510849D01*
X56936574Y-38482513D01*
X56950733Y-38473355D01*
X57015053Y-38449507D01*
X57085473Y-38448006D01*
X57153595Y-38466966D01*
G36*
X56652600Y-38458752D02*
G01*
X56669948Y-38466334D01*
X56711356Y-38499128D01*
X56746765Y-38546547D01*
X56768664Y-38597151D01*
X56772229Y-38622098D01*
X56760279Y-38656927D01*
X56734067Y-38675357D01*
X56705964Y-38686516D01*
X56693095Y-38688572D01*
X56686829Y-38673649D01*
X56674456Y-38641175D01*
X56669028Y-38626502D01*
X56638590Y-38575744D01*
X56594520Y-38550427D01*
X56538010Y-38551206D01*
X56533825Y-38552203D01*
X56503655Y-38566507D01*
X56481476Y-38594393D01*
X56466327Y-38639287D01*
X56457250Y-38704615D01*
X56453286Y-38793804D01*
X56452914Y-38841261D01*
X56452730Y-38916071D01*
X56451522Y-38967069D01*
X56448309Y-38999471D01*
X56442109Y-39018495D01*
X56431940Y-39029356D01*
X56416819Y-39037272D01*
X56415946Y-39037670D01*
X56386828Y-39049981D01*
X56372403Y-39054514D01*
X56370186Y-39040809D01*
X56368289Y-39002925D01*
X56366847Y-38945715D01*
X56365998Y-38874027D01*
X56365829Y-38821565D01*
X56366692Y-38720047D01*
X56370070Y-38643032D01*
X56377142Y-38586023D01*
X56389088Y-38544526D01*
X56407090Y-38514043D01*
X56432327Y-38490080D01*
X56457247Y-38473355D01*
X56517171Y-38451097D01*
X56586911Y-38446076D01*
X56652600Y-38458752D01*
G37*
X56652600Y-38458752D02*
X56669948Y-38466334D01*
X56711356Y-38499128D01*
X56746765Y-38546547D01*
X56768664Y-38597151D01*
X56772229Y-38622098D01*
X56760279Y-38656927D01*
X56734067Y-38675357D01*
X56705964Y-38686516D01*
X56693095Y-38688572D01*
X56686829Y-38673649D01*
X56674456Y-38641175D01*
X56669028Y-38626502D01*
X56638590Y-38575744D01*
X56594520Y-38550427D01*
X56538010Y-38551206D01*
X56533825Y-38552203D01*
X56503655Y-38566507D01*
X56481476Y-38594393D01*
X56466327Y-38639287D01*
X56457250Y-38704615D01*
X56453286Y-38793804D01*
X56452914Y-38841261D01*
X56452730Y-38916071D01*
X56451522Y-38967069D01*
X56448309Y-38999471D01*
X56442109Y-39018495D01*
X56431940Y-39029356D01*
X56416819Y-39037272D01*
X56415946Y-39037670D01*
X56386828Y-39049981D01*
X56372403Y-39054514D01*
X56370186Y-39040809D01*
X56368289Y-39002925D01*
X56366847Y-38945715D01*
X56365998Y-38874027D01*
X56365829Y-38821565D01*
X56366692Y-38720047D01*
X56370070Y-38643032D01*
X56377142Y-38586023D01*
X56389088Y-38544526D01*
X56407090Y-38514043D01*
X56432327Y-38490080D01*
X56457247Y-38473355D01*
X56517171Y-38451097D01*
X56586911Y-38446076D01*
X56652600Y-38458752D01*
G36*
X56144876Y-38456335D02*
G01*
X56186667Y-38475344D01*
X56219469Y-38498378D01*
X56243503Y-38524133D01*
X56260097Y-38557358D01*
X56270577Y-38602800D01*
X56276271Y-38665207D01*
X56278507Y-38749327D01*
X56278743Y-38804721D01*
X56278743Y-39020826D01*
X56241774Y-39037670D01*
X56212656Y-39049981D01*
X56198231Y-39054514D01*
X56195472Y-39041025D01*
X56193282Y-39004653D01*
X56191942Y-38951542D01*
X56191657Y-38909372D01*
X56190434Y-38848447D01*
X56187136Y-38800115D01*
X56182321Y-38770518D01*
X56178496Y-38764229D01*
X56152783Y-38770652D01*
X56112418Y-38787125D01*
X56065679Y-38809458D01*
X56020845Y-38833457D01*
X55986193Y-38854930D01*
X55970002Y-38869685D01*
X55969938Y-38869845D01*
X55971330Y-38897152D01*
X55983818Y-38923219D01*
X56005743Y-38944392D01*
X56037743Y-38951474D01*
X56065092Y-38950649D01*
X56103826Y-38950042D01*
X56124158Y-38959116D01*
X56136369Y-38983092D01*
X56137909Y-38987613D01*
X56143203Y-39021806D01*
X56129047Y-39042568D01*
X56092148Y-39052462D01*
X56052289Y-39054292D01*
X55980562Y-39040727D01*
X55943432Y-39021355D01*
X55897576Y-38975845D01*
X55873256Y-38919983D01*
X55871073Y-38860957D01*
X55891629Y-38805953D01*
X55922549Y-38771486D01*
X55953420Y-38752189D01*
X56001942Y-38727759D01*
X56058485Y-38702985D01*
X56067910Y-38699199D01*
X56130019Y-38671791D01*
X56165822Y-38647634D01*
X56177337Y-38623619D01*
X56166580Y-38596635D01*
X56148114Y-38575543D01*
X56104469Y-38549572D01*
X56056446Y-38547624D01*
X56012406Y-38567637D01*
X55980709Y-38607551D01*
X55976549Y-38617848D01*
X55952327Y-38655724D01*
X55916965Y-38683842D01*
X55872343Y-38706917D01*
X55872343Y-38641485D01*
X55874969Y-38601506D01*
X55886230Y-38569997D01*
X55911199Y-38536378D01*
X55935169Y-38510484D01*
X55972441Y-38473817D01*
X56001401Y-38454121D01*
X56032505Y-38446220D01*
X56067713Y-38444914D01*
X56144876Y-38456335D01*
G37*
X56144876Y-38456335D02*
X56186667Y-38475344D01*
X56219469Y-38498378D01*
X56243503Y-38524133D01*
X56260097Y-38557358D01*
X56270577Y-38602800D01*
X56276271Y-38665207D01*
X56278507Y-38749327D01*
X56278743Y-38804721D01*
X56278743Y-39020826D01*
X56241774Y-39037670D01*
X56212656Y-39049981D01*
X56198231Y-39054514D01*
X56195472Y-39041025D01*
X56193282Y-39004653D01*
X56191942Y-38951542D01*
X56191657Y-38909372D01*
X56190434Y-38848447D01*
X56187136Y-38800115D01*
X56182321Y-38770518D01*
X56178496Y-38764229D01*
X56152783Y-38770652D01*
X56112418Y-38787125D01*
X56065679Y-38809458D01*
X56020845Y-38833457D01*
X55986193Y-38854930D01*
X55970002Y-38869685D01*
X55969938Y-38869845D01*
X55971330Y-38897152D01*
X55983818Y-38923219D01*
X56005743Y-38944392D01*
X56037743Y-38951474D01*
X56065092Y-38950649D01*
X56103826Y-38950042D01*
X56124158Y-38959116D01*
X56136369Y-38983092D01*
X56137909Y-38987613D01*
X56143203Y-39021806D01*
X56129047Y-39042568D01*
X56092148Y-39052462D01*
X56052289Y-39054292D01*
X55980562Y-39040727D01*
X55943432Y-39021355D01*
X55897576Y-38975845D01*
X55873256Y-38919983D01*
X55871073Y-38860957D01*
X55891629Y-38805953D01*
X55922549Y-38771486D01*
X55953420Y-38752189D01*
X56001942Y-38727759D01*
X56058485Y-38702985D01*
X56067910Y-38699199D01*
X56130019Y-38671791D01*
X56165822Y-38647634D01*
X56177337Y-38623619D01*
X56166580Y-38596635D01*
X56148114Y-38575543D01*
X56104469Y-38549572D01*
X56056446Y-38547624D01*
X56012406Y-38567637D01*
X55980709Y-38607551D01*
X55976549Y-38617848D01*
X55952327Y-38655724D01*
X55916965Y-38683842D01*
X55872343Y-38706917D01*
X55872343Y-38641485D01*
X55874969Y-38601506D01*
X55886230Y-38569997D01*
X55911199Y-38536378D01*
X55935169Y-38510484D01*
X55972441Y-38473817D01*
X56001401Y-38454121D01*
X56032505Y-38446220D01*
X56067713Y-38444914D01*
X56144876Y-38456335D01*
G36*
X55779833Y-38458663D02*
G01*
X55782048Y-38496850D01*
X55783784Y-38554886D01*
X55784899Y-38628180D01*
X55785257Y-38705055D01*
X55785257Y-38965196D01*
X55739326Y-39011127D01*
X55707675Y-39039429D01*
X55679890Y-39050893D01*
X55641915Y-39050168D01*
X55626840Y-39048321D01*
X55579726Y-39042948D01*
X55540756Y-39039869D01*
X55531257Y-39039585D01*
X55499233Y-39041445D01*
X55453432Y-39046114D01*
X55435674Y-39048321D01*
X55392057Y-39051735D01*
X55362745Y-39044320D01*
X55333680Y-39021427D01*
X55323188Y-39011127D01*
X55277257Y-38965196D01*
X55277257Y-38478602D01*
X55314226Y-38461758D01*
X55346059Y-38449282D01*
X55364683Y-38444914D01*
X55369458Y-38458718D01*
X55373921Y-38497286D01*
X55377775Y-38556356D01*
X55380722Y-38631663D01*
X55382143Y-38695286D01*
X55386114Y-38945657D01*
X55420759Y-38950556D01*
X55452268Y-38947131D01*
X55467708Y-38936041D01*
X55472023Y-38915308D01*
X55475708Y-38871145D01*
X55478469Y-38809146D01*
X55480012Y-38734909D01*
X55480235Y-38696706D01*
X55480457Y-38476783D01*
X55526166Y-38460849D01*
X55558518Y-38450015D01*
X55576115Y-38444962D01*
X55576623Y-38444914D01*
X55578388Y-38458648D01*
X55580329Y-38496730D01*
X55582282Y-38554482D01*
X55584084Y-38627227D01*
X55585343Y-38695286D01*
X55589314Y-38945657D01*
X55676400Y-38945657D01*
X55680396Y-38717240D01*
X55684392Y-38488822D01*
X55726847Y-38466868D01*
X55758192Y-38451793D01*
X55776744Y-38444951D01*
X55777279Y-38444914D01*
X55779833Y-38458663D01*
G37*
X55779833Y-38458663D02*
X55782048Y-38496850D01*
X55783784Y-38554886D01*
X55784899Y-38628180D01*
X55785257Y-38705055D01*
X55785257Y-38965196D01*
X55739326Y-39011127D01*
X55707675Y-39039429D01*
X55679890Y-39050893D01*
X55641915Y-39050168D01*
X55626840Y-39048321D01*
X55579726Y-39042948D01*
X55540756Y-39039869D01*
X55531257Y-39039585D01*
X55499233Y-39041445D01*
X55453432Y-39046114D01*
X55435674Y-39048321D01*
X55392057Y-39051735D01*
X55362745Y-39044320D01*
X55333680Y-39021427D01*
X55323188Y-39011127D01*
X55277257Y-38965196D01*
X55277257Y-38478602D01*
X55314226Y-38461758D01*
X55346059Y-38449282D01*
X55364683Y-38444914D01*
X55369458Y-38458718D01*
X55373921Y-38497286D01*
X55377775Y-38556356D01*
X55380722Y-38631663D01*
X55382143Y-38695286D01*
X55386114Y-38945657D01*
X55420759Y-38950556D01*
X55452268Y-38947131D01*
X55467708Y-38936041D01*
X55472023Y-38915308D01*
X55475708Y-38871145D01*
X55478469Y-38809146D01*
X55480012Y-38734909D01*
X55480235Y-38696706D01*
X55480457Y-38476783D01*
X55526166Y-38460849D01*
X55558518Y-38450015D01*
X55576115Y-38444962D01*
X55576623Y-38444914D01*
X55578388Y-38458648D01*
X55580329Y-38496730D01*
X55582282Y-38554482D01*
X55584084Y-38627227D01*
X55585343Y-38695286D01*
X55589314Y-38945657D01*
X55676400Y-38945657D01*
X55680396Y-38717240D01*
X55684392Y-38488822D01*
X55726847Y-38466868D01*
X55758192Y-38451793D01*
X55776744Y-38444951D01*
X55777279Y-38444914D01*
X55779833Y-38458663D01*
G36*
X55190117Y-38565358D02*
G01*
X55189933Y-38673837D01*
X55189219Y-38757287D01*
X55187675Y-38819704D01*
X55185001Y-38865085D01*
X55180894Y-38897429D01*
X55175055Y-38920733D01*
X55167182Y-38938995D01*
X55161221Y-38949418D01*
X55111855Y-39005945D01*
X55049264Y-39041377D01*
X54980013Y-39054090D01*
X54910668Y-39042463D01*
X54869375Y-39021568D01*
X54826025Y-38985422D01*
X54796481Y-38941276D01*
X54778655Y-38883462D01*
X54770463Y-38806313D01*
X54769302Y-38749714D01*
X54769458Y-38745647D01*
X54870857Y-38745647D01*
X54871476Y-38810550D01*
X54874314Y-38853514D01*
X54880840Y-38881622D01*
X54892523Y-38901953D01*
X54906483Y-38917288D01*
X54953365Y-38946890D01*
X55003701Y-38949419D01*
X55051276Y-38924705D01*
X55054979Y-38921356D01*
X55070783Y-38903935D01*
X55080693Y-38883209D01*
X55086058Y-38852362D01*
X55088228Y-38804577D01*
X55088571Y-38751748D01*
X55087827Y-38685381D01*
X55084748Y-38641106D01*
X55078061Y-38612009D01*
X55066496Y-38591173D01*
X55057013Y-38580107D01*
X55012960Y-38552198D01*
X54962224Y-38548843D01*
X54913796Y-38570159D01*
X54904450Y-38578073D01*
X54888540Y-38595647D01*
X54878610Y-38616587D01*
X54873278Y-38647782D01*
X54871163Y-38696122D01*
X54870857Y-38745647D01*
X54769458Y-38745647D01*
X54772810Y-38658568D01*
X54784726Y-38590086D01*
X54807135Y-38538600D01*
X54842124Y-38498443D01*
X54869375Y-38477861D01*
X54918907Y-38455625D01*
X54976316Y-38445304D01*
X55029682Y-38448067D01*
X55059543Y-38459212D01*
X55071261Y-38462383D01*
X55079037Y-38450557D01*
X55084465Y-38418866D01*
X55088571Y-38370593D01*
X55093067Y-38316829D01*
X55099313Y-38284482D01*
X55110676Y-38265985D01*
X55130528Y-38253770D01*
X55143000Y-38248362D01*
X55190171Y-38228601D01*
X55190117Y-38565358D01*
G37*
X55190117Y-38565358D02*
X55189933Y-38673837D01*
X55189219Y-38757287D01*
X55187675Y-38819704D01*
X55185001Y-38865085D01*
X55180894Y-38897429D01*
X55175055Y-38920733D01*
X55167182Y-38938995D01*
X55161221Y-38949418D01*
X55111855Y-39005945D01*
X55049264Y-39041377D01*
X54980013Y-39054090D01*
X54910668Y-39042463D01*
X54869375Y-39021568D01*
X54826025Y-38985422D01*
X54796481Y-38941276D01*
X54778655Y-38883462D01*
X54770463Y-38806313D01*
X54769302Y-38749714D01*
X54769458Y-38745647D01*
X54870857Y-38745647D01*
X54871476Y-38810550D01*
X54874314Y-38853514D01*
X54880840Y-38881622D01*
X54892523Y-38901953D01*
X54906483Y-38917288D01*
X54953365Y-38946890D01*
X55003701Y-38949419D01*
X55051276Y-38924705D01*
X55054979Y-38921356D01*
X55070783Y-38903935D01*
X55080693Y-38883209D01*
X55086058Y-38852362D01*
X55088228Y-38804577D01*
X55088571Y-38751748D01*
X55087827Y-38685381D01*
X55084748Y-38641106D01*
X55078061Y-38612009D01*
X55066496Y-38591173D01*
X55057013Y-38580107D01*
X55012960Y-38552198D01*
X54962224Y-38548843D01*
X54913796Y-38570159D01*
X54904450Y-38578073D01*
X54888540Y-38595647D01*
X54878610Y-38616587D01*
X54873278Y-38647782D01*
X54871163Y-38696122D01*
X54870857Y-38745647D01*
X54769458Y-38745647D01*
X54772810Y-38658568D01*
X54784726Y-38590086D01*
X54807135Y-38538600D01*
X54842124Y-38498443D01*
X54869375Y-38477861D01*
X54918907Y-38455625D01*
X54976316Y-38445304D01*
X55029682Y-38448067D01*
X55059543Y-38459212D01*
X55071261Y-38462383D01*
X55079037Y-38450557D01*
X55084465Y-38418866D01*
X55088571Y-38370593D01*
X55093067Y-38316829D01*
X55099313Y-38284482D01*
X55110676Y-38265985D01*
X55130528Y-38253770D01*
X55143000Y-38248362D01*
X55190171Y-38228601D01*
X55190117Y-38565358D01*
G36*
X54529926Y-38449755D02*
G01*
X54595858Y-38474084D01*
X54649273Y-38517117D01*
X54670164Y-38547409D01*
X54692939Y-38602994D01*
X54692466Y-38643186D01*
X54668562Y-38670217D01*
X54659717Y-38674813D01*
X54621530Y-38689144D01*
X54602028Y-38685472D01*
X54595422Y-38661407D01*
X54595086Y-38648114D01*
X54582992Y-38599210D01*
X54551471Y-38564999D01*
X54507659Y-38548476D01*
X54458695Y-38552634D01*
X54418894Y-38574227D01*
X54405450Y-38586544D01*
X54395921Y-38601487D01*
X54389485Y-38624075D01*
X54385317Y-38659328D01*
X54382597Y-38712266D01*
X54380502Y-38787907D01*
X54379960Y-38811857D01*
X54377981Y-38893790D01*
X54375731Y-38951455D01*
X54372357Y-38989608D01*
X54367006Y-39013004D01*
X54358824Y-39026398D01*
X54346959Y-39034545D01*
X54339362Y-39038144D01*
X54307102Y-39050452D01*
X54288111Y-39054514D01*
X54281836Y-39040948D01*
X54278006Y-38999934D01*
X54276600Y-38930999D01*
X54277598Y-38833669D01*
X54277908Y-38818657D01*
X54280101Y-38729859D01*
X54282693Y-38665019D01*
X54286382Y-38619067D01*
X54291864Y-38586935D01*
X54299835Y-38563553D01*
X54310993Y-38543852D01*
X54316830Y-38535410D01*
X54350296Y-38498057D01*
X54387727Y-38469003D01*
X54392309Y-38466467D01*
X54459426Y-38446443D01*
X54529926Y-38449755D01*
G37*
X54529926Y-38449755D02*
X54595858Y-38474084D01*
X54649273Y-38517117D01*
X54670164Y-38547409D01*
X54692939Y-38602994D01*
X54692466Y-38643186D01*
X54668562Y-38670217D01*
X54659717Y-38674813D01*
X54621530Y-38689144D01*
X54602028Y-38685472D01*
X54595422Y-38661407D01*
X54595086Y-38648114D01*
X54582992Y-38599210D01*
X54551471Y-38564999D01*
X54507659Y-38548476D01*
X54458695Y-38552634D01*
X54418894Y-38574227D01*
X54405450Y-38586544D01*
X54395921Y-38601487D01*
X54389485Y-38624075D01*
X54385317Y-38659328D01*
X54382597Y-38712266D01*
X54380502Y-38787907D01*
X54379960Y-38811857D01*
X54377981Y-38893790D01*
X54375731Y-38951455D01*
X54372357Y-38989608D01*
X54367006Y-39013004D01*
X54358824Y-39026398D01*
X54346959Y-39034545D01*
X54339362Y-39038144D01*
X54307102Y-39050452D01*
X54288111Y-39054514D01*
X54281836Y-39040948D01*
X54278006Y-38999934D01*
X54276600Y-38930999D01*
X54277598Y-38833669D01*
X54277908Y-38818657D01*
X54280101Y-38729859D01*
X54282693Y-38665019D01*
X54286382Y-38619067D01*
X54291864Y-38586935D01*
X54299835Y-38563553D01*
X54310993Y-38543852D01*
X54316830Y-38535410D01*
X54350296Y-38498057D01*
X54387727Y-38469003D01*
X54392309Y-38466467D01*
X54459426Y-38446443D01*
X54529926Y-38449755D01*
G36*
X54039744Y-38450968D02*
G01*
X54096616Y-38472087D01*
X54097267Y-38472493D01*
X54132440Y-38498380D01*
X54158407Y-38528633D01*
X54176670Y-38568058D01*
X54188732Y-38621462D01*
X54196096Y-38693651D01*
X54200264Y-38789432D01*
X54200629Y-38803078D01*
X54205876Y-39008842D01*
X54161716Y-39031678D01*
X54129763Y-39047110D01*
X54110470Y-39054423D01*
X54109578Y-39054514D01*
X54106239Y-39041022D01*
X54103587Y-39004626D01*
X54101956Y-38951452D01*
X54101600Y-38908393D01*
X54101592Y-38838641D01*
X54098403Y-38794837D01*
X54087288Y-38773944D01*
X54063501Y-38772925D01*
X54022296Y-38788741D01*
X53960086Y-38817815D01*
X53914341Y-38841963D01*
X53890813Y-38862913D01*
X53883896Y-38885747D01*
X53883886Y-38886877D01*
X53895299Y-38926212D01*
X53929092Y-38947462D01*
X53980809Y-38950539D01*
X54018061Y-38950006D01*
X54037703Y-38960735D01*
X54049952Y-38986505D01*
X54057002Y-39019337D01*
X54046842Y-39037966D01*
X54043017Y-39040632D01*
X54007001Y-39051340D01*
X53956566Y-39052856D01*
X53904626Y-39045759D01*
X53867822Y-39032788D01*
X53816938Y-38989585D01*
X53788014Y-38929446D01*
X53782286Y-38882462D01*
X53786657Y-38840082D01*
X53802475Y-38805488D01*
X53833797Y-38774763D01*
X53884678Y-38743990D01*
X53959176Y-38709252D01*
X53963714Y-38707288D01*
X54030821Y-38676287D01*
X54072232Y-38650862D01*
X54089981Y-38628014D01*
X54086107Y-38604745D01*
X54062643Y-38578056D01*
X54055627Y-38571914D01*
X54008630Y-38548100D01*
X53959933Y-38549103D01*
X53917522Y-38572451D01*
X53889384Y-38615675D01*
X53886769Y-38624160D01*
X53861308Y-38665308D01*
X53829001Y-38685128D01*
X53782286Y-38704770D01*
X53782286Y-38653950D01*
X53796496Y-38580082D01*
X53838675Y-38512327D01*
X53860624Y-38489661D01*
X53910517Y-38460569D01*
X53973967Y-38447400D01*
X54039744Y-38450968D01*
G37*
X54039744Y-38450968D02*
X54096616Y-38472087D01*
X54097267Y-38472493D01*
X54132440Y-38498380D01*
X54158407Y-38528633D01*
X54176670Y-38568058D01*
X54188732Y-38621462D01*
X54196096Y-38693651D01*
X54200264Y-38789432D01*
X54200629Y-38803078D01*
X54205876Y-39008842D01*
X54161716Y-39031678D01*
X54129763Y-39047110D01*
X54110470Y-39054423D01*
X54109578Y-39054514D01*
X54106239Y-39041022D01*
X54103587Y-39004626D01*
X54101956Y-38951452D01*
X54101600Y-38908393D01*
X54101592Y-38838641D01*
X54098403Y-38794837D01*
X54087288Y-38773944D01*
X54063501Y-38772925D01*
X54022296Y-38788741D01*
X53960086Y-38817815D01*
X53914341Y-38841963D01*
X53890813Y-38862913D01*
X53883896Y-38885747D01*
X53883886Y-38886877D01*
X53895299Y-38926212D01*
X53929092Y-38947462D01*
X53980809Y-38950539D01*
X54018061Y-38950006D01*
X54037703Y-38960735D01*
X54049952Y-38986505D01*
X54057002Y-39019337D01*
X54046842Y-39037966D01*
X54043017Y-39040632D01*
X54007001Y-39051340D01*
X53956566Y-39052856D01*
X53904626Y-39045759D01*
X53867822Y-39032788D01*
X53816938Y-38989585D01*
X53788014Y-38929446D01*
X53782286Y-38882462D01*
X53786657Y-38840082D01*
X53802475Y-38805488D01*
X53833797Y-38774763D01*
X53884678Y-38743990D01*
X53959176Y-38709252D01*
X53963714Y-38707288D01*
X54030821Y-38676287D01*
X54072232Y-38650862D01*
X54089981Y-38628014D01*
X54086107Y-38604745D01*
X54062643Y-38578056D01*
X54055627Y-38571914D01*
X54008630Y-38548100D01*
X53959933Y-38549103D01*
X53917522Y-38572451D01*
X53889384Y-38615675D01*
X53886769Y-38624160D01*
X53861308Y-38665308D01*
X53829001Y-38685128D01*
X53782286Y-38704770D01*
X53782286Y-38653950D01*
X53796496Y-38580082D01*
X53838675Y-38512327D01*
X53860624Y-38489661D01*
X53910517Y-38460569D01*
X53973967Y-38447400D01*
X54039744Y-38450968D01*
G36*
X53375886Y-38351289D02*
G01*
X53380139Y-38410613D01*
X53385025Y-38445572D01*
X53391795Y-38460820D01*
X53401702Y-38461015D01*
X53404914Y-38459195D01*
X53447644Y-38446015D01*
X53503227Y-38446785D01*
X53559737Y-38460333D01*
X53595082Y-38477861D01*
X53631321Y-38505861D01*
X53657813Y-38537549D01*
X53675999Y-38577813D01*
X53687322Y-38631543D01*
X53693222Y-38703626D01*
X53695143Y-38798951D01*
X53695177Y-38817237D01*
X53695200Y-39022646D01*
X53649491Y-39038580D01*
X53617027Y-39049420D01*
X53599215Y-39054468D01*
X53598691Y-39054514D01*
X53596937Y-39040828D01*
X53595444Y-39003076D01*
X53594326Y-38946224D01*
X53593697Y-38875234D01*
X53593600Y-38832073D01*
X53593398Y-38746973D01*
X53592358Y-38685981D01*
X53589831Y-38644177D01*
X53585164Y-38616642D01*
X53577707Y-38598456D01*
X53566811Y-38584698D01*
X53560007Y-38578073D01*
X53513272Y-38551375D01*
X53462272Y-38549375D01*
X53416001Y-38571955D01*
X53407444Y-38580107D01*
X53394893Y-38595436D01*
X53386188Y-38613618D01*
X53380631Y-38639909D01*
X53377526Y-38679562D01*
X53376176Y-38737832D01*
X53375886Y-38818173D01*
X53375886Y-39022646D01*
X53330177Y-39038580D01*
X53297713Y-39049420D01*
X53279901Y-39054468D01*
X53279377Y-39054514D01*
X53278037Y-39040623D01*
X53276828Y-39001439D01*
X53275801Y-38940700D01*
X53275002Y-38862141D01*
X53274481Y-38769498D01*
X53274286Y-38666509D01*
X53274286Y-38269342D01*
X53321457Y-38249444D01*
X53368629Y-38229547D01*
X53375886Y-38351289D01*
G37*
X53375886Y-38351289D02*
X53380139Y-38410613D01*
X53385025Y-38445572D01*
X53391795Y-38460820D01*
X53401702Y-38461015D01*
X53404914Y-38459195D01*
X53447644Y-38446015D01*
X53503227Y-38446785D01*
X53559737Y-38460333D01*
X53595082Y-38477861D01*
X53631321Y-38505861D01*
X53657813Y-38537549D01*
X53675999Y-38577813D01*
X53687322Y-38631543D01*
X53693222Y-38703626D01*
X53695143Y-38798951D01*
X53695177Y-38817237D01*
X53695200Y-39022646D01*
X53649491Y-39038580D01*
X53617027Y-39049420D01*
X53599215Y-39054468D01*
X53598691Y-39054514D01*
X53596937Y-39040828D01*
X53595444Y-39003076D01*
X53594326Y-38946224D01*
X53593697Y-38875234D01*
X53593600Y-38832073D01*
X53593398Y-38746973D01*
X53592358Y-38685981D01*
X53589831Y-38644177D01*
X53585164Y-38616642D01*
X53577707Y-38598456D01*
X53566811Y-38584698D01*
X53560007Y-38578073D01*
X53513272Y-38551375D01*
X53462272Y-38549375D01*
X53416001Y-38571955D01*
X53407444Y-38580107D01*
X53394893Y-38595436D01*
X53386188Y-38613618D01*
X53380631Y-38639909D01*
X53377526Y-38679562D01*
X53376176Y-38737832D01*
X53375886Y-38818173D01*
X53375886Y-39022646D01*
X53330177Y-39038580D01*
X53297713Y-39049420D01*
X53279901Y-39054468D01*
X53279377Y-39054514D01*
X53278037Y-39040623D01*
X53276828Y-39001439D01*
X53275801Y-38940700D01*
X53275002Y-38862141D01*
X53274481Y-38769498D01*
X53274286Y-38666509D01*
X53274286Y-38269342D01*
X53321457Y-38249444D01*
X53368629Y-38229547D01*
X53375886Y-38351289D01*
G36*
X52168303Y-38431239D02*
G01*
X52225527Y-38469735D01*
X52269749Y-38525335D01*
X52296167Y-38596086D01*
X52301510Y-38648162D01*
X52300903Y-38669893D01*
X52295822Y-38686531D01*
X52281855Y-38701437D01*
X52254589Y-38717973D01*
X52209612Y-38739498D01*
X52142511Y-38769374D01*
X52142171Y-38769524D01*
X52080407Y-38797813D01*
X52029759Y-38822933D01*
X51995404Y-38842179D01*
X51982518Y-38852848D01*
X51982514Y-38852934D01*
X51993872Y-38876166D01*
X52020431Y-38901774D01*
X52050923Y-38920221D01*
X52066370Y-38923886D01*
X52108515Y-38911212D01*
X52144808Y-38879471D01*
X52162517Y-38844572D01*
X52179552Y-38818845D01*
X52212922Y-38789546D01*
X52252149Y-38764235D01*
X52286756Y-38750471D01*
X52293993Y-38749714D01*
X52302139Y-38762160D01*
X52302630Y-38793972D01*
X52296643Y-38836866D01*
X52285357Y-38882558D01*
X52269950Y-38922761D01*
X52269171Y-38924322D01*
X52222804Y-38989062D01*
X52162711Y-39033097D01*
X52094465Y-39054711D01*
X52023638Y-39052185D01*
X51955804Y-39023804D01*
X51952788Y-39021808D01*
X51899427Y-38973448D01*
X51864340Y-38910352D01*
X51844922Y-38827387D01*
X51842316Y-38804078D01*
X51837701Y-38694055D01*
X51843233Y-38642748D01*
X51982514Y-38642748D01*
X51984324Y-38674753D01*
X51994222Y-38684093D01*
X52018898Y-38677105D01*
X52057795Y-38660587D01*
X52101275Y-38639881D01*
X52102356Y-38639333D01*
X52139209Y-38619949D01*
X52154000Y-38607013D01*
X52150353Y-38593451D01*
X52134995Y-38575632D01*
X52095923Y-38549845D01*
X52053846Y-38547950D01*
X52016103Y-38566717D01*
X51990034Y-38602915D01*
X51982514Y-38642748D01*
X51843233Y-38642748D01*
X51847194Y-38606027D01*
X51871550Y-38536212D01*
X51905456Y-38487302D01*
X51966653Y-38437878D01*
X52034063Y-38413359D01*
X52102880Y-38411797D01*
X52168303Y-38431239D01*
G37*
X52168303Y-38431239D02*
X52225527Y-38469735D01*
X52269749Y-38525335D01*
X52296167Y-38596086D01*
X52301510Y-38648162D01*
X52300903Y-38669893D01*
X52295822Y-38686531D01*
X52281855Y-38701437D01*
X52254589Y-38717973D01*
X52209612Y-38739498D01*
X52142511Y-38769374D01*
X52142171Y-38769524D01*
X52080407Y-38797813D01*
X52029759Y-38822933D01*
X51995404Y-38842179D01*
X51982518Y-38852848D01*
X51982514Y-38852934D01*
X51993872Y-38876166D01*
X52020431Y-38901774D01*
X52050923Y-38920221D01*
X52066370Y-38923886D01*
X52108515Y-38911212D01*
X52144808Y-38879471D01*
X52162517Y-38844572D01*
X52179552Y-38818845D01*
X52212922Y-38789546D01*
X52252149Y-38764235D01*
X52286756Y-38750471D01*
X52293993Y-38749714D01*
X52302139Y-38762160D01*
X52302630Y-38793972D01*
X52296643Y-38836866D01*
X52285357Y-38882558D01*
X52269950Y-38922761D01*
X52269171Y-38924322D01*
X52222804Y-38989062D01*
X52162711Y-39033097D01*
X52094465Y-39054711D01*
X52023638Y-39052185D01*
X51955804Y-39023804D01*
X51952788Y-39021808D01*
X51899427Y-38973448D01*
X51864340Y-38910352D01*
X51844922Y-38827387D01*
X51842316Y-38804078D01*
X51837701Y-38694055D01*
X51843233Y-38642748D01*
X51982514Y-38642748D01*
X51984324Y-38674753D01*
X51994222Y-38684093D01*
X52018898Y-38677105D01*
X52057795Y-38660587D01*
X52101275Y-38639881D01*
X52102356Y-38639333D01*
X52139209Y-38619949D01*
X52154000Y-38607013D01*
X52150353Y-38593451D01*
X52134995Y-38575632D01*
X52095923Y-38549845D01*
X52053846Y-38547950D01*
X52016103Y-38566717D01*
X51990034Y-38602915D01*
X51982514Y-38642748D01*
X51843233Y-38642748D01*
X51847194Y-38606027D01*
X51871550Y-38536212D01*
X51905456Y-38487302D01*
X51966653Y-38437878D01*
X52034063Y-38413359D01*
X52102880Y-38411797D01*
X52168303Y-38431239D01*
G36*
X51041115Y-38421962D02*
G01*
X51109145Y-38457733D01*
X51159351Y-38515301D01*
X51177185Y-38552312D01*
X51191063Y-38607882D01*
X51198167Y-38678096D01*
X51198840Y-38754727D01*
X51193427Y-38829552D01*
X51182270Y-38894342D01*
X51165714Y-38940873D01*
X51160626Y-38948887D01*
X51100355Y-39008707D01*
X51028769Y-39044535D01*
X50951092Y-39055020D01*
X50872548Y-39038810D01*
X50850689Y-39029092D01*
X50808122Y-38999143D01*
X50770763Y-38959433D01*
X50767232Y-38954397D01*
X50752881Y-38930124D01*
X50743394Y-38904178D01*
X50737790Y-38870022D01*
X50735086Y-38821119D01*
X50734299Y-38750935D01*
X50734286Y-38735200D01*
X50734322Y-38730192D01*
X50879429Y-38730192D01*
X50880273Y-38796430D01*
X50883596Y-38840386D01*
X50890583Y-38868779D01*
X50902416Y-38888325D01*
X50908457Y-38894857D01*
X50943186Y-38919680D01*
X50976903Y-38918548D01*
X51010995Y-38897016D01*
X51031329Y-38874029D01*
X51043371Y-38840478D01*
X51050134Y-38787569D01*
X51050598Y-38781399D01*
X51051752Y-38685513D01*
X51039688Y-38614299D01*
X51014570Y-38568194D01*
X50976560Y-38547635D01*
X50962992Y-38546514D01*
X50927364Y-38552152D01*
X50902994Y-38571686D01*
X50888093Y-38609042D01*
X50880875Y-38668150D01*
X50879429Y-38730192D01*
X50734322Y-38730192D01*
X50734826Y-38660413D01*
X50737096Y-38608159D01*
X50742068Y-38571949D01*
X50750713Y-38545299D01*
X50764005Y-38521722D01*
X50766943Y-38517338D01*
X50816313Y-38458249D01*
X50870109Y-38423947D01*
X50935602Y-38410331D01*
X50957842Y-38409665D01*
X51041115Y-38421962D01*
G37*
X51041115Y-38421962D02*
X51109145Y-38457733D01*
X51159351Y-38515301D01*
X51177185Y-38552312D01*
X51191063Y-38607882D01*
X51198167Y-38678096D01*
X51198840Y-38754727D01*
X51193427Y-38829552D01*
X51182270Y-38894342D01*
X51165714Y-38940873D01*
X51160626Y-38948887D01*
X51100355Y-39008707D01*
X51028769Y-39044535D01*
X50951092Y-39055020D01*
X50872548Y-39038810D01*
X50850689Y-39029092D01*
X50808122Y-38999143D01*
X50770763Y-38959433D01*
X50767232Y-38954397D01*
X50752881Y-38930124D01*
X50743394Y-38904178D01*
X50737790Y-38870022D01*
X50735086Y-38821119D01*
X50734299Y-38750935D01*
X50734286Y-38735200D01*
X50734322Y-38730192D01*
X50879429Y-38730192D01*
X50880273Y-38796430D01*
X50883596Y-38840386D01*
X50890583Y-38868779D01*
X50902416Y-38888325D01*
X50908457Y-38894857D01*
X50943186Y-38919680D01*
X50976903Y-38918548D01*
X51010995Y-38897016D01*
X51031329Y-38874029D01*
X51043371Y-38840478D01*
X51050134Y-38787569D01*
X51050598Y-38781399D01*
X51051752Y-38685513D01*
X51039688Y-38614299D01*
X51014570Y-38568194D01*
X50976560Y-38547635D01*
X50962992Y-38546514D01*
X50927364Y-38552152D01*
X50902994Y-38571686D01*
X50888093Y-38609042D01*
X50880875Y-38668150D01*
X50879429Y-38730192D01*
X50734322Y-38730192D01*
X50734826Y-38660413D01*
X50737096Y-38608159D01*
X50742068Y-38571949D01*
X50750713Y-38545299D01*
X50764005Y-38521722D01*
X50766943Y-38517338D01*
X50816313Y-38458249D01*
X50870109Y-38423947D01*
X50935602Y-38410331D01*
X50957842Y-38409665D01*
X51041115Y-38421962D01*
G36*
X52716093Y-38427780D02*
G01*
X52762672Y-38454723D01*
X52795057Y-38481466D01*
X52818742Y-38509484D01*
X52835059Y-38543748D01*
X52845339Y-38589227D01*
X52850914Y-38650892D01*
X52853116Y-38733711D01*
X52853371Y-38793246D01*
X52853371Y-39012391D01*
X52791686Y-39040044D01*
X52730000Y-39067697D01*
X52722743Y-38827670D01*
X52719744Y-38738028D01*
X52716598Y-38672962D01*
X52712701Y-38628026D01*
X52707447Y-38598770D01*
X52700231Y-38580748D01*
X52690450Y-38569511D01*
X52687312Y-38567079D01*
X52639761Y-38548083D01*
X52591697Y-38555600D01*
X52563086Y-38575543D01*
X52551447Y-38589675D01*
X52543391Y-38608220D01*
X52538271Y-38636334D01*
X52535441Y-38679173D01*
X52534256Y-38741895D01*
X52534057Y-38807261D01*
X52534018Y-38889268D01*
X52532614Y-38947316D01*
X52527914Y-38986465D01*
X52517987Y-39011780D01*
X52500903Y-39028323D01*
X52474732Y-39041156D01*
X52439775Y-39054491D01*
X52401596Y-39069007D01*
X52406141Y-38811389D01*
X52407971Y-38718519D01*
X52410112Y-38649889D01*
X52413181Y-38600711D01*
X52417794Y-38566198D01*
X52424568Y-38541562D01*
X52434119Y-38522016D01*
X52445634Y-38504770D01*
X52501190Y-38449680D01*
X52568980Y-38417822D01*
X52642713Y-38410191D01*
X52716093Y-38427780D01*
G37*
X52716093Y-38427780D02*
X52762672Y-38454723D01*
X52795057Y-38481466D01*
X52818742Y-38509484D01*
X52835059Y-38543748D01*
X52845339Y-38589227D01*
X52850914Y-38650892D01*
X52853116Y-38733711D01*
X52853371Y-38793246D01*
X52853371Y-39012391D01*
X52791686Y-39040044D01*
X52730000Y-39067697D01*
X52722743Y-38827670D01*
X52719744Y-38738028D01*
X52716598Y-38672962D01*
X52712701Y-38628026D01*
X52707447Y-38598770D01*
X52700231Y-38580748D01*
X52690450Y-38569511D01*
X52687312Y-38567079D01*
X52639761Y-38548083D01*
X52591697Y-38555600D01*
X52563086Y-38575543D01*
X52551447Y-38589675D01*
X52543391Y-38608220D01*
X52538271Y-38636334D01*
X52535441Y-38679173D01*
X52534256Y-38741895D01*
X52534057Y-38807261D01*
X52534018Y-38889268D01*
X52532614Y-38947316D01*
X52527914Y-38986465D01*
X52517987Y-39011780D01*
X52500903Y-39028323D01*
X52474732Y-39041156D01*
X52439775Y-39054491D01*
X52401596Y-39069007D01*
X52406141Y-38811389D01*
X52407971Y-38718519D01*
X52410112Y-38649889D01*
X52413181Y-38600711D01*
X52417794Y-38566198D01*
X52424568Y-38541562D01*
X52434119Y-38522016D01*
X52445634Y-38504770D01*
X52501190Y-38449680D01*
X52568980Y-38417822D01*
X52642713Y-38410191D01*
X52716093Y-38427780D01*
G36*
X51599744Y-38419918D02*
G01*
X51655201Y-38447568D01*
X51704148Y-38498480D01*
X51717629Y-38517338D01*
X51732314Y-38542015D01*
X51741842Y-38568816D01*
X51747293Y-38604587D01*
X51749747Y-38656169D01*
X51750286Y-38724267D01*
X51747852Y-38817588D01*
X51739394Y-38887657D01*
X51723174Y-38939931D01*
X51697454Y-38979869D01*
X51660497Y-39012929D01*
X51657782Y-39014886D01*
X51621360Y-39034908D01*
X51577502Y-39044815D01*
X51521724Y-39047257D01*
X51431048Y-39047257D01*
X51431010Y-39135283D01*
X51430166Y-39184308D01*
X51425024Y-39213065D01*
X51411587Y-39230311D01*
X51385858Y-39244808D01*
X51379679Y-39247769D01*
X51350764Y-39261648D01*
X51328376Y-39270414D01*
X51311729Y-39271171D01*
X51300036Y-39261023D01*
X51292510Y-39237073D01*
X51288366Y-39196426D01*
X51286815Y-39136186D01*
X51287071Y-39053455D01*
X51288349Y-38945339D01*
X51288748Y-38913000D01*
X51290185Y-38801524D01*
X51291472Y-38728603D01*
X51430971Y-38728603D01*
X51431755Y-38790499D01*
X51435240Y-38830997D01*
X51443124Y-38857708D01*
X51457105Y-38878244D01*
X51466597Y-38888260D01*
X51505404Y-38917567D01*
X51539763Y-38919952D01*
X51575216Y-38895750D01*
X51576114Y-38894857D01*
X51590539Y-38876153D01*
X51599313Y-38850732D01*
X51603739Y-38811584D01*
X51605118Y-38751697D01*
X51605143Y-38738430D01*
X51601812Y-38655901D01*
X51590969Y-38598691D01*
X51571340Y-38563766D01*
X51541650Y-38548094D01*
X51524491Y-38546514D01*
X51483766Y-38553926D01*
X51455832Y-38578330D01*
X51439017Y-38622980D01*
X51431650Y-38691130D01*
X51430971Y-38728603D01*
X51291472Y-38728603D01*
X51291708Y-38715245D01*
X51293677Y-38650333D01*
X51296450Y-38602958D01*
X51300388Y-38569290D01*
X51305849Y-38545498D01*
X51313192Y-38527753D01*
X51322777Y-38512224D01*
X51326887Y-38506381D01*
X51381405Y-38451185D01*
X51450336Y-38419890D01*
X51530072Y-38411165D01*
X51599744Y-38419918D01*
G37*
X51599744Y-38419918D02*
X51655201Y-38447568D01*
X51704148Y-38498480D01*
X51717629Y-38517338D01*
X51732314Y-38542015D01*
X51741842Y-38568816D01*
X51747293Y-38604587D01*
X51749747Y-38656169D01*
X51750286Y-38724267D01*
X51747852Y-38817588D01*
X51739394Y-38887657D01*
X51723174Y-38939931D01*
X51697454Y-38979869D01*
X51660497Y-39012929D01*
X51657782Y-39014886D01*
X51621360Y-39034908D01*
X51577502Y-39044815D01*
X51521724Y-39047257D01*
X51431048Y-39047257D01*
X51431010Y-39135283D01*
X51430166Y-39184308D01*
X51425024Y-39213065D01*
X51411587Y-39230311D01*
X51385858Y-39244808D01*
X51379679Y-39247769D01*
X51350764Y-39261648D01*
X51328376Y-39270414D01*
X51311729Y-39271171D01*
X51300036Y-39261023D01*
X51292510Y-39237073D01*
X51288366Y-39196426D01*
X51286815Y-39136186D01*
X51287071Y-39053455D01*
X51288349Y-38945339D01*
X51288748Y-38913000D01*
X51290185Y-38801524D01*
X51291472Y-38728603D01*
X51430971Y-38728603D01*
X51431755Y-38790499D01*
X51435240Y-38830997D01*
X51443124Y-38857708D01*
X51457105Y-38878244D01*
X51466597Y-38888260D01*
X51505404Y-38917567D01*
X51539763Y-38919952D01*
X51575216Y-38895750D01*
X51576114Y-38894857D01*
X51590539Y-38876153D01*
X51599313Y-38850732D01*
X51603739Y-38811584D01*
X51605118Y-38751697D01*
X51605143Y-38738430D01*
X51601812Y-38655901D01*
X51590969Y-38598691D01*
X51571340Y-38563766D01*
X51541650Y-38548094D01*
X51524491Y-38546514D01*
X51483766Y-38553926D01*
X51455832Y-38578330D01*
X51439017Y-38622980D01*
X51431650Y-38691130D01*
X51430971Y-38728603D01*
X51291472Y-38728603D01*
X51291708Y-38715245D01*
X51293677Y-38650333D01*
X51296450Y-38602958D01*
X51300388Y-38569290D01*
X51305849Y-38545498D01*
X51313192Y-38527753D01*
X51322777Y-38512224D01*
X51326887Y-38506381D01*
X51381405Y-38451185D01*
X51450336Y-38419890D01*
X51530072Y-38411165D01*
X51599744Y-38419918D01*
D12*
X50000000Y-20700000D03*
X50000000Y-31000000D03*
X51600000Y-25850000D03*
D13*
X35420000Y-38485000D03*
X35420000Y-13485000D03*
D14*
X33440000Y-21140000D03*
X33440000Y-23430000D03*
X33440000Y-25720000D03*
X33440000Y-28010000D03*
X33440000Y-30300000D03*
X35420000Y-22285000D03*
X35420000Y-24575000D03*
X35420000Y-26865000D03*
X35420000Y-29155000D03*
X35420000Y-31445000D03*
X37400000Y-21140000D03*
X37400000Y-23430000D03*
X37400000Y-25720000D03*
X37400000Y-28010000D03*
D15*
X37400000Y-30300000D03*
G04 #@! TA.AperFunction,SMDPad,CuDef*
G36*
G01*
X43225000Y-30850000D02*
X43775000Y-30850000D01*
G75*
G02*
X43975000Y-31050000I0J-200000D01*
G01*
X43975000Y-31450000D01*
G75*
G02*
X43775000Y-31650000I-200000J0D01*
G01*
X43225000Y-31650000D01*
G75*
G02*
X43025000Y-31450000I0J200000D01*
G01*
X43025000Y-31050000D01*
G75*
G02*
X43225000Y-30850000I200000J0D01*
G01*
G37*
G04 #@! TD.AperFunction*
G04 #@! TA.AperFunction,SMDPad,CuDef*
G36*
G01*
X43225000Y-29200000D02*
X43775000Y-29200000D01*
G75*
G02*
X43975000Y-29400000I0J-200000D01*
G01*
X43975000Y-29800000D01*
G75*
G02*
X43775000Y-30000000I-200000J0D01*
G01*
X43225000Y-30000000D01*
G75*
G02*
X43025000Y-29800000I0J200000D01*
G01*
X43025000Y-29400000D01*
G75*
G02*
X43225000Y-29200000I200000J0D01*
G01*
G37*
G04 #@! TD.AperFunction*
G04 #@! TA.AperFunction,SMDPad,CuDef*
G36*
G01*
X59725000Y-23625000D02*
X60275000Y-23625000D01*
G75*
G02*
X60475000Y-23825000I0J-200000D01*
G01*
X60475000Y-24225000D01*
G75*
G02*
X60275000Y-24425000I-200000J0D01*
G01*
X59725000Y-24425000D01*
G75*
G02*
X59525000Y-24225000I0J200000D01*
G01*
X59525000Y-23825000D01*
G75*
G02*
X59725000Y-23625000I200000J0D01*
G01*
G37*
G04 #@! TD.AperFunction*
G04 #@! TA.AperFunction,SMDPad,CuDef*
G36*
G01*
X59725000Y-21975000D02*
X60275000Y-21975000D01*
G75*
G02*
X60475000Y-22175000I0J-200000D01*
G01*
X60475000Y-22575000D01*
G75*
G02*
X60275000Y-22775000I-200000J0D01*
G01*
X59725000Y-22775000D01*
G75*
G02*
X59525000Y-22575000I0J200000D01*
G01*
X59525000Y-22175000D01*
G75*
G02*
X59725000Y-21975000I200000J0D01*
G01*
G37*
G04 #@! TD.AperFunction*
D16*
X22800000Y-33200000D03*
D17*
X20520000Y-26900000D03*
X25080000Y-26900000D03*
D18*
X60000000Y-25700000D03*
X60000000Y-30700000D03*
X60000000Y-20700000D03*
D19*
X43560000Y-35300000D03*
D20*
X46100000Y-35300000D03*
G04 #@! TA.AperFunction,SMDPad,CuDef*
G36*
G01*
X17625000Y-29650000D02*
X18575000Y-29650000D01*
G75*
G02*
X18825000Y-29900000I0J-250000D01*
G01*
X18825000Y-30400000D01*
G75*
G02*
X18575000Y-30650000I-250000J0D01*
G01*
X17625000Y-30650000D01*
G75*
G02*
X17375000Y-30400000I0J250000D01*
G01*
X17375000Y-29900000D01*
G75*
G02*
X17625000Y-29650000I250000J0D01*
G01*
G37*
G04 #@! TD.AperFunction*
G04 #@! TA.AperFunction,SMDPad,CuDef*
G36*
G01*
X17625000Y-27750000D02*
X18575000Y-27750000D01*
G75*
G02*
X18825000Y-28000000I0J-250000D01*
G01*
X18825000Y-28500000D01*
G75*
G02*
X18575000Y-28750000I-250000J0D01*
G01*
X17625000Y-28750000D01*
G75*
G02*
X17375000Y-28500000I0J250000D01*
G01*
X17375000Y-28000000D01*
G75*
G02*
X17625000Y-27750000I250000J0D01*
G01*
G37*
G04 #@! TD.AperFunction*
G04 #@! TA.AperFunction,SMDPad,CuDef*
G36*
G01*
X27975000Y-28750000D02*
X27025000Y-28750000D01*
G75*
G02*
X26775000Y-28500000I0J250000D01*
G01*
X26775000Y-28000000D01*
G75*
G02*
X27025000Y-27750000I250000J0D01*
G01*
X27975000Y-27750000D01*
G75*
G02*
X28225000Y-28000000I0J-250000D01*
G01*
X28225000Y-28500000D01*
G75*
G02*
X27975000Y-28750000I-250000J0D01*
G01*
G37*
G04 #@! TD.AperFunction*
G04 #@! TA.AperFunction,SMDPad,CuDef*
G36*
G01*
X27975000Y-30650000D02*
X27025000Y-30650000D01*
G75*
G02*
X26775000Y-30400000I0J250000D01*
G01*
X26775000Y-29900000D01*
G75*
G02*
X27025000Y-29650000I250000J0D01*
G01*
X27975000Y-29650000D01*
G75*
G02*
X28225000Y-29900000I0J-250000D01*
G01*
X28225000Y-30400000D01*
G75*
G02*
X27975000Y-30650000I-250000J0D01*
G01*
G37*
G04 #@! TD.AperFunction*
D21*
X20750000Y-30750000D03*
X24750000Y-30750000D03*
X23750000Y-34750000D03*
X22750000Y-34750000D03*
X21750000Y-34750000D03*
X23750000Y-33750000D03*
X22750000Y-33750000D03*
X21750000Y-33750000D03*
X21750000Y-32750000D03*
X22750000Y-32750000D03*
X23750000Y-32750000D03*
X23750000Y-31750000D03*
X22750000Y-31750000D03*
X21750000Y-31750000D03*
X21750000Y-30750000D03*
X22750000Y-30750000D03*
X23750000Y-30750000D03*
X23750000Y-35750000D03*
X22750000Y-35750000D03*
X21750000Y-35750000D03*
X20750000Y-33750000D03*
X20750000Y-34750000D03*
X24750000Y-34750000D03*
X24750000Y-33750000D03*
X24750000Y-32750000D03*
X20750000Y-32750000D03*
X20750000Y-35750000D03*
X24750000Y-35750000D03*
X24750000Y-31750000D03*
X20750000Y-31750000D03*
X26500000Y-32500000D03*
X26500000Y-34000000D03*
X23500000Y-37500000D03*
X22000000Y-37500000D03*
X19000000Y-32500000D03*
X19000000Y-34000000D03*
X17000000Y-31500000D03*
X16000000Y-29000000D03*
X28500000Y-31500000D03*
X29500000Y-30500000D03*
X31500000Y-31500000D03*
X32500000Y-32500000D03*
X30000000Y-31500000D03*
X11000000Y-11000000D03*
X22400000Y-11000000D03*
X17000000Y-11000000D03*
X11000000Y-33000000D03*
X11000000Y-22000000D03*
X28500000Y-22000000D03*
X11000000Y-16500000D03*
X11000000Y-27500000D03*
X28500000Y-16500000D03*
X19000000Y-41000000D03*
X28500000Y-41000000D03*
X28500000Y-36000000D03*
X31000000Y-35000000D03*
X16500000Y-35500000D03*
X17000000Y-16500000D03*
X22400000Y-16500000D03*
X22400000Y-22000000D03*
X17000000Y-22000000D03*
X56183330Y-14350000D03*
X49141665Y-14400000D03*
X44916666Y-14400000D03*
X51958331Y-14400000D03*
X47733332Y-14400000D03*
X59000000Y-14450000D03*
X43508333Y-14400000D03*
X46324999Y-14400000D03*
X53366664Y-14400000D03*
X54774997Y-14400000D03*
X50549998Y-14400000D03*
X42100000Y-14400000D03*
X57591663Y-14400000D03*
X58700000Y-23200000D03*
X61375000Y-23075000D03*
X61050000Y-19100000D03*
X59000000Y-16950000D03*
X60000000Y-17950000D03*
X57591663Y-16900000D03*
X42100000Y-16900000D03*
X43508333Y-16900000D03*
X44916666Y-16900000D03*
X46324999Y-16900000D03*
X47733332Y-16900000D03*
X49141665Y-16900000D03*
X50549998Y-16900000D03*
X51958331Y-16900000D03*
X53366664Y-16900000D03*
X54774997Y-16900000D03*
X56183330Y-16850000D03*
X38750000Y-20150000D03*
X39550000Y-19350000D03*
X40300000Y-18600000D03*
X41150000Y-17750000D03*
X36250000Y-19800000D03*
X36800000Y-18750000D03*
X37650000Y-17950000D03*
X38450000Y-17150000D03*
X39300000Y-16250000D03*
X40200000Y-15400000D03*
X41000000Y-14650000D03*
X58450000Y-19500000D03*
X56900000Y-19550000D03*
X57100000Y-21850000D03*
X58500000Y-21850000D03*
X53750000Y-26850000D03*
X54350000Y-24600000D03*
X55200000Y-23700000D03*
X56100000Y-22800000D03*
X50250000Y-23700000D03*
X53050000Y-22650000D03*
X53900000Y-21800000D03*
X54800000Y-20850000D03*
X55600000Y-20050000D03*
X60250000Y-14750000D03*
X61000000Y-15450000D03*
X61700000Y-16200000D03*
X62400000Y-16950000D03*
X63200000Y-17700000D03*
X63350000Y-22350000D03*
X63350000Y-21250000D03*
X63350000Y-20150000D03*
X63350000Y-18950000D03*
X62700000Y-24600000D03*
X61900000Y-25750000D03*
X61300000Y-27100000D03*
X60000000Y-27600000D03*
X58650000Y-27100000D03*
X58150000Y-25700000D03*
X58650000Y-24400000D03*
X35800000Y-20700000D03*
X39150000Y-21150000D03*
X49150000Y-25650000D03*
X51650000Y-28150000D03*
X51650000Y-23250000D03*
X49500000Y-24600000D03*
X49500000Y-26850000D03*
X50400000Y-27750000D03*
X54000000Y-25650000D03*
X52850000Y-27750000D03*
X38800000Y-22300000D03*
X31700000Y-24600000D03*
X30000000Y-26350000D03*
X34600000Y-34250000D03*
X50000000Y-37333330D03*
X40050000Y-37500000D03*
X39350000Y-31250000D03*
X42100000Y-34050000D03*
X30000000Y-41000000D03*
X34000000Y-41000000D03*
X38000000Y-41000000D03*
X42000000Y-41000000D03*
X46000000Y-41000000D03*
X50000000Y-41000000D03*
X54000000Y-41000000D03*
X58000000Y-41000000D03*
X62000000Y-41000000D03*
X69600000Y-41000000D03*
X73333333Y-41000000D03*
X77166666Y-41000000D03*
X81000000Y-41000000D03*
X81000000Y-33666664D03*
X81000000Y-29999998D03*
X81000000Y-26333332D03*
X81000000Y-22666666D03*
X81000000Y-19000000D03*
X30000000Y-11000000D03*
X33909090Y-11000000D03*
X37818180Y-11000000D03*
X41727270Y-11000000D03*
X45636360Y-11000000D03*
X49545450Y-11000000D03*
X53454540Y-11000000D03*
X57363630Y-11000000D03*
X61272720Y-11000000D03*
X65250000Y-11000000D03*
X69250000Y-11000000D03*
X73000000Y-11000000D03*
X30000000Y-15000000D03*
X30000000Y-19000000D03*
X30000000Y-23000000D03*
X30000000Y-37000000D03*
X33000000Y-36000000D03*
X72000000Y-35000000D03*
X72000000Y-16500000D03*
X66500000Y-18000000D03*
X78000000Y-19000000D03*
X78000000Y-32500000D03*
X65000000Y-32000000D03*
X63000000Y-29000000D03*
X68000000Y-34000000D03*
X75500000Y-34000000D03*
X69000000Y-17000000D03*
X75500000Y-17500000D03*
X64500000Y-20000000D03*
X80000000Y-22000000D03*
X80000000Y-29500000D03*
X77000000Y-17500000D03*
X39000000Y-24500000D03*
X39000000Y-27000000D03*
X32000000Y-27000000D03*
X37500000Y-32000000D03*
X52000000Y-32500000D03*
X48000000Y-32500000D03*
X52000000Y-29000000D03*
X48000000Y-22500000D03*
X52000000Y-22500000D03*
X52000000Y-19000000D03*
X48000000Y-19000000D03*
X61500000Y-29500000D03*
X58500000Y-29500000D03*
X58500000Y-32000000D03*
X61500000Y-32000000D03*
X81000000Y-37333330D03*
X58000000Y-37333330D03*
X62000000Y-37333330D03*
X69600000Y-37333330D03*
X69250000Y-14500000D03*
X65250000Y-14500000D03*
X74000000Y-14500000D03*
X48000000Y-29000000D03*
D22*
X35420000Y-22285000D02*
X32215000Y-22285000D01*
D23*
X27500000Y-27000000D02*
X27500000Y-28250000D01*
X32215000Y-22285000D02*
X27500000Y-27000000D01*
X25180000Y-27000000D02*
X25080000Y-26900000D01*
X27500000Y-27000000D02*
X25180000Y-27000000D01*
X33440000Y-32440000D02*
X33440000Y-30300000D01*
X33440000Y-32440000D02*
X33440000Y-34540000D01*
X33440000Y-34540000D02*
X34350000Y-35450000D01*
D22*
X34350000Y-35450000D02*
X40200000Y-35450000D01*
X40200000Y-35450000D02*
X41750000Y-37000000D01*
X41750000Y-37000000D02*
X45500000Y-37000000D01*
X46100000Y-36400000D02*
X46100000Y-35300000D01*
X45500000Y-37000000D02*
X46100000Y-36400000D01*
X61250000Y-23200000D02*
X58700000Y-23200000D01*
X61375000Y-23075000D02*
X61250000Y-23200000D01*
X61450000Y-23000000D02*
X61375000Y-23075000D01*
X61450000Y-19350000D02*
X61450000Y-23000000D01*
X61200000Y-19100000D02*
X61450000Y-19350000D01*
X61050000Y-19100000D02*
X61200000Y-19100000D01*
X35800000Y-20700000D02*
X36750000Y-22250000D01*
X38800000Y-22300000D02*
X36900000Y-22300000D01*
X36900000Y-22300000D02*
X36750000Y-22250000D01*
D23*
X20520000Y-26900000D02*
X18600000Y-26900000D01*
X18100000Y-27400000D02*
X18100000Y-28250000D01*
X18600000Y-26900000D02*
X18100000Y-27400000D01*
D22*
X35420000Y-29155000D02*
X22855000Y-29155000D01*
X20600000Y-26900000D02*
X20520000Y-26900000D01*
X22855000Y-29155000D02*
X20600000Y-26900000D01*
X43055000Y-29155000D02*
X43500000Y-29600000D01*
X38595000Y-29155000D02*
X43055000Y-29155000D01*
X35420000Y-29155000D02*
X38595000Y-29155000D01*
X38595000Y-29155000D02*
X38755000Y-29155000D01*
D23*
X60000000Y-22375000D02*
X60000000Y-20700000D01*
X56600000Y-20700000D02*
X51600000Y-25700000D01*
X60000000Y-20700000D02*
X56600000Y-20700000D01*
X60000000Y-25700000D02*
X60000000Y-24025000D01*
X37400000Y-19850000D02*
X37400000Y-21140000D01*
X41550000Y-15700000D02*
X37400000Y-19850000D01*
X59450000Y-15700000D02*
X41550000Y-15700000D01*
X62200000Y-18450000D02*
X59450000Y-15700000D01*
X62200000Y-23500000D02*
X62200000Y-18450000D01*
X60000000Y-25700000D02*
X62200000Y-23500000D01*
D22*
X43500000Y-35240000D02*
X43560000Y-35300000D01*
X43500000Y-31250000D02*
X43500000Y-35240000D01*
D24*
X73440955Y-11308425D02*
X73446629Y-11344251D01*
X73451175Y-11380236D01*
X73455535Y-11400487D01*
X73455538Y-11400505D01*
X73455542Y-11400518D01*
X73710702Y-12501352D01*
X73721367Y-12536021D01*
X73730938Y-12571006D01*
X73738114Y-12590458D01*
X74145842Y-13644369D01*
X74161289Y-13677197D01*
X74175691Y-13710477D01*
X74185536Y-13728724D01*
X74737693Y-14714672D01*
X74757613Y-14744998D01*
X74776560Y-14775916D01*
X74788869Y-14792581D01*
X74788877Y-14792593D01*
X74788884Y-14792601D01*
X75474448Y-15690905D01*
X75498435Y-15718113D01*
X75521555Y-15746061D01*
X75536100Y-15760837D01*
X76341406Y-16553590D01*
X76368999Y-16577157D01*
X76395815Y-16601557D01*
X76412296Y-16614136D01*
X77321266Y-17285511D01*
X77351896Y-17304949D01*
X77381891Y-17325334D01*
X77399981Y-17335465D01*
X78394479Y-17872067D01*
X78427539Y-17886995D01*
X78460111Y-17902951D01*
X78479441Y-17910429D01*
X78479447Y-17910432D01*
X78479452Y-17910433D01*
X79539634Y-18301555D01*
X79574482Y-18311680D01*
X79608962Y-18322883D01*
X79629143Y-18327561D01*
X79629160Y-18327566D01*
X79629174Y-18327568D01*
X80733879Y-18565405D01*
X80769811Y-18570519D01*
X80805520Y-18576751D01*
X80826176Y-18578541D01*
X81340000Y-18614922D01*
X81340001Y-41340000D01*
X69257866Y-41340000D01*
X69295303Y-41249619D01*
X69427000Y-40587530D01*
X69427000Y-39912470D01*
X69295303Y-39250381D01*
X69036968Y-38626707D01*
X68661925Y-38065415D01*
X68184585Y-37588075D01*
X67623293Y-37213032D01*
X66999619Y-36954697D01*
X66337530Y-36823000D01*
X65662470Y-36823000D01*
X65000381Y-36954697D01*
X64376707Y-37213032D01*
X63815415Y-37588075D01*
X63338075Y-38065415D01*
X62963032Y-38626707D01*
X62704697Y-39250381D01*
X62573000Y-39912470D01*
X62573000Y-40587530D01*
X62704697Y-41249619D01*
X62742134Y-41340000D01*
X29635000Y-41340000D01*
X29635000Y-36335000D01*
X30900000Y-36335000D01*
X31068361Y-36312274D01*
X31184575Y-36267664D01*
X31289852Y-36201239D01*
X32735625Y-35076749D01*
X32783468Y-35135046D01*
X32783471Y-35135049D01*
X32811184Y-35168817D01*
X32844951Y-35196529D01*
X33754953Y-36106532D01*
X33855940Y-36189410D01*
X33998599Y-36265662D01*
X33740285Y-36438262D01*
X33373262Y-36805285D01*
X33084893Y-37236859D01*
X32886261Y-37716399D01*
X32785000Y-38225475D01*
X32785000Y-38744525D01*
X32886261Y-39253601D01*
X33084893Y-39733141D01*
X33373262Y-40164715D01*
X33740285Y-40531738D01*
X34171859Y-40820107D01*
X34651399Y-41018739D01*
X35160475Y-41120000D01*
X35679525Y-41120000D01*
X36188601Y-41018739D01*
X36668141Y-40820107D01*
X37099715Y-40531738D01*
X37466738Y-40164715D01*
X37755107Y-39733141D01*
X37953739Y-39253601D01*
X38044860Y-38795500D01*
X50047143Y-38795500D01*
X50047143Y-41115500D01*
X57952857Y-41115500D01*
X57952857Y-38795500D01*
X57905687Y-38795500D01*
X57900771Y-38745364D01*
X57899191Y-38719390D01*
X57901210Y-38686404D01*
X57900233Y-38659737D01*
X57902248Y-38633133D01*
X57901988Y-38624200D01*
X57900245Y-38575957D01*
X57895974Y-38544243D01*
X57894749Y-38512269D01*
X57887659Y-38482494D01*
X57883575Y-38452168D01*
X57873229Y-38421896D01*
X57865815Y-38390761D01*
X57862847Y-38382332D01*
X57840904Y-38321363D01*
X57822447Y-38282484D01*
X57806399Y-38242566D01*
X57795724Y-38226190D01*
X57787338Y-38208526D01*
X57761690Y-38173983D01*
X57738187Y-38137931D01*
X57732551Y-38130996D01*
X57704853Y-38097397D01*
X57683734Y-38076353D01*
X57664884Y-38053268D01*
X57639609Y-38032383D01*
X57616375Y-38009231D01*
X57591576Y-37992693D01*
X57568598Y-37973706D01*
X57561151Y-37968765D01*
X57503725Y-37931234D01*
X57475908Y-37916712D01*
X57449640Y-37899554D01*
X57420678Y-37887880D01*
X57392999Y-37873430D01*
X57362902Y-37864591D01*
X57333792Y-37852857D01*
X57325200Y-37850401D01*
X57257078Y-37831441D01*
X57230771Y-37826825D01*
X57205165Y-37819299D01*
X57169416Y-37816058D01*
X57134052Y-37809853D01*
X57107366Y-37810434D01*
X57080770Y-37808023D01*
X57071835Y-37808151D01*
X57001415Y-37809652D01*
X56961915Y-37814377D01*
X56922186Y-37816281D01*
X56900044Y-37821778D01*
X56877392Y-37824488D01*
X56839573Y-37836792D01*
X56816923Y-37842415D01*
X56790117Y-37833701D01*
X56786302Y-37833246D01*
X56782626Y-37832099D01*
X56773864Y-37830345D01*
X56708175Y-37817669D01*
X56691224Y-37816090D01*
X56674677Y-37812123D01*
X56629159Y-37810309D01*
X56583807Y-37806084D01*
X56566884Y-37807826D01*
X56549870Y-37807148D01*
X56540953Y-37807728D01*
X56471213Y-37812749D01*
X56447725Y-37816772D01*
X56423933Y-37817926D01*
X56386310Y-37827290D01*
X56348099Y-37833834D01*
X56338818Y-37837381D01*
X56341098Y-37834601D01*
X56381241Y-37785714D01*
X56381346Y-37785518D01*
X56381479Y-37785356D01*
X56410831Y-37730505D01*
X56440246Y-37675624D01*
X56440309Y-37675417D01*
X56440411Y-37675227D01*
X56458479Y-37615954D01*
X56476747Y-37556170D01*
X56476769Y-37555951D01*
X56476831Y-37555748D01*
X56482924Y-37495262D01*
X56489349Y-37431901D01*
X56489328Y-37431679D01*
X56489349Y-37431471D01*
X56483570Y-37370874D01*
X56477574Y-37307551D01*
X56477511Y-37307340D01*
X56477491Y-37307129D01*
X56459781Y-37247904D01*
X56441869Y-37187857D01*
X56441767Y-37187664D01*
X56441706Y-37187459D01*
X56412670Y-37132497D01*
X56383597Y-37077377D01*
X56383373Y-37077042D01*
X56383360Y-37077018D01*
X56383341Y-37076994D01*
X56378625Y-37069952D01*
X56329650Y-36997914D01*
X56337966Y-36996314D01*
X56338097Y-36996275D01*
X56340986Y-36995726D01*
X56417186Y-36980686D01*
X56475016Y-36963264D01*
X56533005Y-36946197D01*
X56534823Y-36945246D01*
X56536783Y-36944656D01*
X56590117Y-36916339D01*
X56643697Y-36888328D01*
X56645294Y-36887044D01*
X56647104Y-36886083D01*
X56693948Y-36847926D01*
X56741042Y-36810062D01*
X56742359Y-36808492D01*
X56743948Y-36807198D01*
X56782473Y-36760686D01*
X56821330Y-36714378D01*
X56822318Y-36712581D01*
X56823624Y-36711004D01*
X56852355Y-36657943D01*
X56881504Y-36604922D01*
X56882125Y-36602965D01*
X56883099Y-36601166D01*
X56901003Y-36543452D01*
X56919271Y-36485862D01*
X56919499Y-36483829D01*
X56920107Y-36481869D01*
X56926455Y-36421819D01*
X56933195Y-36361735D01*
X56933222Y-36357804D01*
X56933238Y-36357655D01*
X56933224Y-36357504D01*
X56933257Y-36352799D01*
X56933257Y-36035492D01*
X56933255Y-36035475D01*
X56933257Y-36035213D01*
X56933240Y-35996197D01*
X56933230Y-35996094D01*
X56933236Y-35994311D01*
X56932914Y-35899127D01*
X56932901Y-35898999D01*
X56932861Y-35892724D01*
X56931910Y-35821688D01*
X56931571Y-35818652D01*
X56931800Y-35815602D01*
X56931532Y-35806670D01*
X56929669Y-35756150D01*
X56927952Y-35743471D01*
X56928221Y-35730674D01*
X56927474Y-35721769D01*
X56924415Y-35688133D01*
X56917704Y-35652944D01*
X56917513Y-35645923D01*
X56916305Y-35640590D01*
X56913621Y-35615703D01*
X56911739Y-35606967D01*
X56907200Y-35586587D01*
X56902063Y-35570921D01*
X56901017Y-35565438D01*
X56897068Y-35555661D01*
X56889919Y-35524102D01*
X56877675Y-35496553D01*
X56868279Y-35467900D01*
X56855627Y-35445407D01*
X56851957Y-35435481D01*
X56846769Y-35427012D01*
X56839191Y-35409962D01*
X56834728Y-35402220D01*
X56828427Y-35391464D01*
X56814454Y-35372205D01*
X56807045Y-35359033D01*
X56800280Y-35351128D01*
X56786707Y-35328972D01*
X56769755Y-35310597D01*
X56755075Y-35290364D01*
X56727503Y-35264799D01*
X56702011Y-35237167D01*
X56681814Y-35222435D01*
X56663483Y-35205438D01*
X56650913Y-35197693D01*
X56649672Y-35196567D01*
X56630736Y-35185178D01*
X56601099Y-35163560D01*
X56593368Y-35159077D01*
X56585020Y-35154315D01*
X56568537Y-35146939D01*
X56557141Y-35139918D01*
X56552791Y-35138297D01*
X56542634Y-35132188D01*
X56520563Y-35124230D01*
X56517052Y-35122260D01*
X56503436Y-35117809D01*
X56471008Y-35103298D01*
X56447671Y-35097950D01*
X56425133Y-35089824D01*
X56416455Y-35087689D01*
X56408374Y-35085760D01*
X56403252Y-35085056D01*
X56398330Y-35083447D01*
X56389592Y-35081574D01*
X56356645Y-35074749D01*
X56356489Y-35074732D01*
X56351310Y-35073668D01*
X56325466Y-35068543D01*
X56327417Y-35065359D01*
X56356564Y-35017037D01*
X56364672Y-35000037D01*
X56375030Y-34984287D01*
X56379132Y-34976348D01*
X56396275Y-34942603D01*
X56414583Y-34895721D01*
X56434668Y-34849552D01*
X56437356Y-34841029D01*
X56444178Y-34818869D01*
X56445868Y-34810568D01*
X56448934Y-34802664D01*
X56458319Y-34749429D01*
X56469103Y-34696474D01*
X56469149Y-34687999D01*
X56470620Y-34679654D01*
X56469487Y-34625609D01*
X56469779Y-34571570D01*
X56468179Y-34563252D01*
X56468001Y-34554776D01*
X56466881Y-34545910D01*
X56465070Y-34532341D01*
X56464958Y-34531864D01*
X56464940Y-34531370D01*
X56451524Y-34474572D01*
X56443918Y-34434852D01*
X56439836Y-34424769D01*
X56436544Y-34410736D01*
X56436339Y-34410285D01*
X56436227Y-34409809D01*
X56414208Y-34361466D01*
X56397045Y-34319074D01*
X56390274Y-34308743D01*
X56384941Y-34296987D01*
X56384659Y-34296593D01*
X56384452Y-34296139D01*
X56379917Y-34288439D01*
X56379308Y-34287421D01*
X56352914Y-34251738D01*
X56328578Y-34214605D01*
X56322925Y-34207684D01*
X56306543Y-34187911D01*
X56297062Y-34178509D01*
X56289129Y-34167759D01*
X56283100Y-34161163D01*
X56249702Y-34125128D01*
X56248325Y-34123907D01*
X56247200Y-34122443D01*
X56241042Y-34115966D01*
X56194066Y-34067243D01*
X56194012Y-34067197D01*
X56188718Y-34061762D01*
X56131604Y-34003923D01*
X56131496Y-34003833D01*
X56127223Y-33999529D01*
X56063406Y-33936144D01*
X56063318Y-33936072D01*
X56058391Y-33931218D01*
X55992192Y-33866896D01*
X55990520Y-33865563D01*
X55989125Y-33863935D01*
X55982631Y-33857796D01*
X55917785Y-33797338D01*
X55910535Y-33791796D01*
X55904302Y-33785120D01*
X55897554Y-33779262D01*
X55849903Y-33738470D01*
X55827963Y-33723127D01*
X55807863Y-33705421D01*
X55800576Y-33700248D01*
X55768885Y-33678077D01*
X55730824Y-33656651D01*
X55694080Y-33633015D01*
X55676503Y-33626073D01*
X55660040Y-33616805D01*
X55620454Y-33603808D01*
X55610621Y-33598961D01*
X55601993Y-33596643D01*
X55577908Y-33587130D01*
X55569299Y-33584734D01*
X55552331Y-33580140D01*
X55544201Y-33578772D01*
X55541366Y-33577841D01*
X55531483Y-33576632D01*
X55520838Y-33574840D01*
X55489992Y-33566553D01*
X55459398Y-33564500D01*
X55429157Y-33559411D01*
X55397236Y-33560329D01*
X55365366Y-33558191D01*
X55334948Y-33562121D01*
X55304302Y-33563003D01*
X55273163Y-33570104D01*
X55241490Y-33574197D01*
X55212426Y-33583956D01*
X55182523Y-33590776D01*
X55178321Y-33592651D01*
X55176628Y-33593048D01*
X55151749Y-33604331D01*
X55123081Y-33613957D01*
X55114954Y-33617671D01*
X55112737Y-33618703D01*
X55090464Y-33631855D01*
X55068458Y-33641675D01*
X55066765Y-33642871D01*
X55062874Y-33644636D01*
X55055166Y-33649158D01*
X55031817Y-33663074D01*
X55026916Y-33666687D01*
X55021454Y-33669384D01*
X55013899Y-33674157D01*
X54971511Y-33701350D01*
X54971461Y-33701390D01*
X54965331Y-33705368D01*
X54959778Y-33676831D01*
X54959759Y-33676766D01*
X54958225Y-33669104D01*
X54953219Y-33644968D01*
X54951662Y-33639975D01*
X54951020Y-33634783D01*
X54949002Y-33626077D01*
X54948682Y-33624739D01*
X54942393Y-33606525D01*
X54938619Y-33587629D01*
X54935963Y-33579097D01*
X54932667Y-33568765D01*
X54921032Y-33541740D01*
X54916038Y-33525724D01*
X54911792Y-33517909D01*
X54907912Y-33506674D01*
X54900653Y-33494226D01*
X54884374Y-33456041D01*
X54883728Y-33455094D01*
X54883274Y-33454039D01*
X54857406Y-33416391D01*
X54849800Y-33402041D01*
X54835908Y-33384961D01*
X54814007Y-33352842D01*
X54812603Y-33351186D01*
X54812539Y-33351093D01*
X54812453Y-33351009D01*
X54808228Y-33346026D01*
X54801551Y-33338259D01*
X54785233Y-33322659D01*
X54770984Y-33305141D01*
X54740183Y-33279592D01*
X54711264Y-33251946D01*
X54692223Y-33239810D01*
X54674847Y-33225397D01*
X54641986Y-33207573D01*
X54640614Y-33206520D01*
X54637846Y-33205153D01*
X54605933Y-33184813D01*
X54584901Y-33176608D01*
X54565053Y-33165842D01*
X54556796Y-33162426D01*
X54543072Y-33156860D01*
X54535602Y-33154651D01*
X54528624Y-33151204D01*
X54500008Y-33143490D01*
X54489568Y-33139417D01*
X54475777Y-33136958D01*
X54423294Y-33121436D01*
X54415543Y-33120720D01*
X54408023Y-33118693D01*
X54399199Y-33117282D01*
X54374766Y-33113549D01*
X54349379Y-33112180D01*
X54324313Y-33107877D01*
X54315396Y-33107294D01*
X54276589Y-33105029D01*
X54268932Y-33105331D01*
X54261334Y-33104321D01*
X54252401Y-33104076D01*
X54195557Y-33102912D01*
X54195223Y-33102938D01*
X54194893Y-33102899D01*
X54185958Y-33102788D01*
X54107414Y-33102358D01*
X54107280Y-33102370D01*
X54104292Y-33102348D01*
X54000382Y-33102286D01*
X54000357Y-33102288D01*
X54000000Y-33102286D01*
X53986944Y-33102286D01*
X53986912Y-33102289D01*
X53986405Y-33102286D01*
X53885528Y-33102371D01*
X53885375Y-33102386D01*
X53881903Y-33102385D01*
X53805980Y-33102879D01*
X53805099Y-33102971D01*
X53804206Y-33102892D01*
X53795271Y-33103038D01*
X53740636Y-33104308D01*
X53731751Y-33105388D01*
X53722808Y-33104971D01*
X53713887Y-33105490D01*
X53676877Y-33107902D01*
X53648613Y-33112545D01*
X53620005Y-33114171D01*
X53611185Y-33115608D01*
X53588138Y-33119528D01*
X53573055Y-33123641D01*
X53557542Y-33125503D01*
X53512916Y-33140041D01*
X53467632Y-33152389D01*
X53453644Y-33159349D01*
X53438780Y-33164191D01*
X53430619Y-33167833D01*
X53417870Y-33173627D01*
X53393240Y-33187873D01*
X53367221Y-33199421D01*
X53339294Y-33219074D01*
X53309746Y-33236164D01*
X53288346Y-33254927D01*
X53265073Y-33271305D01*
X53241503Y-33295998D01*
X53215828Y-33318510D01*
X53198481Y-33341072D01*
X53193248Y-33346554D01*
X53183894Y-33355823D01*
X53182664Y-33357642D01*
X53178831Y-33361658D01*
X53173370Y-33368732D01*
X53167255Y-33376769D01*
X53151933Y-33401611D01*
X53139693Y-33417530D01*
X53132877Y-33431288D01*
X53113938Y-33459302D01*
X53108727Y-33471660D01*
X53101684Y-33483080D01*
X53094749Y-33501664D01*
X53094627Y-33501867D01*
X53093607Y-33504721D01*
X53091122Y-33511380D01*
X53087194Y-33518389D01*
X53080926Y-33537599D01*
X53065412Y-33574396D01*
X53062821Y-33582948D01*
X53059676Y-33593592D01*
X53058867Y-33597808D01*
X53058011Y-33600102D01*
X53056729Y-33607959D01*
X53052609Y-33619493D01*
X53050500Y-33628176D01*
X53050410Y-33628558D01*
X53049822Y-33632932D01*
X53048451Y-33637134D01*
X53046583Y-33645873D01*
X53041415Y-33670895D01*
X53041406Y-33670978D01*
X53039944Y-33678231D01*
X53034658Y-33705425D01*
X53022961Y-33697753D01*
X53022837Y-33697688D01*
X53022730Y-33697602D01*
X53015221Y-33692756D01*
X52976754Y-33668312D01*
X52967191Y-33663474D01*
X52958527Y-33657151D01*
X52950797Y-33652666D01*
X52932261Y-33642084D01*
X52900978Y-33628077D01*
X52871041Y-33611355D01*
X52844097Y-33602607D01*
X52818261Y-33591039D01*
X52784863Y-33583377D01*
X52752239Y-33572785D01*
X52724107Y-33569438D01*
X52696518Y-33563108D01*
X52662251Y-33562078D01*
X52628208Y-33558027D01*
X52599982Y-33560205D01*
X52571668Y-33559354D01*
X52537850Y-33565000D01*
X52503673Y-33567638D01*
X52494884Y-33569254D01*
X52482182Y-33571680D01*
X52461691Y-33577716D01*
X52448468Y-33579924D01*
X52428102Y-33587611D01*
X52427168Y-33587886D01*
X52371901Y-33603209D01*
X52367304Y-33605521D01*
X52362367Y-33606975D01*
X52311554Y-33633555D01*
X52260310Y-33659323D01*
X52252790Y-33664150D01*
X52223954Y-33682945D01*
X52197901Y-33703814D01*
X52170060Y-33722220D01*
X52163161Y-33727900D01*
X52118597Y-33765120D01*
X52110785Y-33773061D01*
X52101802Y-33779649D01*
X52095188Y-33785659D01*
X52033661Y-33842349D01*
X52031339Y-33844951D01*
X52028571Y-33847089D01*
X52022109Y-33853261D01*
X51942381Y-33930468D01*
X51942284Y-33930583D01*
X51938453Y-33934304D01*
X51931319Y-33941332D01*
X51931223Y-33941447D01*
X51928986Y-33943643D01*
X51865722Y-34006610D01*
X51865636Y-34006714D01*
X51861264Y-34011091D01*
X51805070Y-34068137D01*
X51805032Y-34068184D01*
X51799516Y-34073846D01*
X51753829Y-34121395D01*
X51752343Y-34123279D01*
X51750530Y-34124854D01*
X51744432Y-34131387D01*
X51712695Y-34165867D01*
X51702562Y-34179300D01*
X51690611Y-34191159D01*
X51684961Y-34198083D01*
X51670611Y-34215916D01*
X51646080Y-34253373D01*
X51619724Y-34289060D01*
X51615201Y-34298651D01*
X51609163Y-34307423D01*
X51604894Y-34315273D01*
X51604848Y-34315360D01*
X51603749Y-34318009D01*
X51602178Y-34320407D01*
X51585516Y-34361604D01*
X51566450Y-34402035D01*
X51562773Y-34416729D01*
X51556965Y-34430723D01*
X51556380Y-34433640D01*
X51555344Y-34436201D01*
X51547064Y-34479513D01*
X51536132Y-34523205D01*
X51534882Y-34532054D01*
X51533059Y-34545632D01*
X51532873Y-34550837D01*
X51532401Y-34553190D01*
X51532396Y-34555400D01*
X51531141Y-34561392D01*
X51530545Y-34615965D01*
X51528598Y-34670458D01*
X51529865Y-34678321D01*
X51529778Y-34686291D01*
X51539794Y-34739946D01*
X51548467Y-34793774D01*
X51551236Y-34801238D01*
X51552699Y-34809076D01*
X51555249Y-34817640D01*
X51561972Y-34839665D01*
X51581450Y-34886516D01*
X51599195Y-34934061D01*
X51603179Y-34942061D01*
X51620143Y-34975545D01*
X51630382Y-34991637D01*
X51638345Y-35008969D01*
X51642904Y-35016655D01*
X51671806Y-35064612D01*
X51674694Y-35068490D01*
X51669196Y-35069570D01*
X51669058Y-35069611D01*
X51665682Y-35070270D01*
X51624072Y-35078688D01*
X51621989Y-35079326D01*
X51619820Y-35079563D01*
X51611086Y-35081456D01*
X51592251Y-35085675D01*
X51565006Y-35094646D01*
X51542644Y-35099127D01*
X51528916Y-35104822D01*
X51512631Y-35109021D01*
X51504258Y-35112145D01*
X51501135Y-35113335D01*
X51487224Y-35120259D01*
X51473611Y-35124741D01*
X51453343Y-35136173D01*
X51427272Y-35146989D01*
X51408993Y-35159193D01*
X51389313Y-35168988D01*
X51375005Y-35180030D01*
X51372066Y-35181559D01*
X51370121Y-35183116D01*
X51364819Y-35186107D01*
X51351252Y-35197746D01*
X51323392Y-35216347D01*
X51316520Y-35222059D01*
X51308909Y-35228475D01*
X51298814Y-35238830D01*
X51290430Y-35245301D01*
X51285722Y-35250690D01*
X51274561Y-35259626D01*
X51249194Y-35289732D01*
X51221720Y-35317916D01*
X51209044Y-35337384D01*
X51194078Y-35355146D01*
X51176425Y-35387101D01*
X51175694Y-35388035D01*
X51174401Y-35390589D01*
X51153565Y-35422589D01*
X51144913Y-35444144D01*
X51133680Y-35464478D01*
X51130200Y-35472709D01*
X51124537Y-35486369D01*
X51122474Y-35493153D01*
X51119274Y-35499473D01*
X51111341Y-35527782D01*
X51107037Y-35538506D01*
X51104371Y-35552658D01*
X51104319Y-35552843D01*
X51088191Y-35605870D01*
X51087485Y-35612918D01*
X51085572Y-35619746D01*
X51084074Y-35628555D01*
X51080077Y-35653089D01*
X51078431Y-35678878D01*
X51073839Y-35704314D01*
X51073180Y-35713225D01*
X51070565Y-35752264D01*
X51070826Y-35760731D01*
X51069659Y-35769121D01*
X51069359Y-35778052D01*
X51067841Y-35835227D01*
X51067925Y-35836411D01*
X51067783Y-35837587D01*
X51067641Y-35846522D01*
X51066939Y-35925463D01*
X51066954Y-35925627D01*
X51066915Y-35930105D01*
X51066744Y-36034443D01*
X51066750Y-36034504D01*
X51066743Y-36035492D01*
X51066743Y-36352799D01*
X51072637Y-36412913D01*
X51078152Y-36473104D01*
X51078732Y-36475071D01*
X51078932Y-36477109D01*
X51096385Y-36534916D01*
X51113491Y-36592907D01*
X51114442Y-36594724D01*
X51115034Y-36596684D01*
X51143391Y-36650016D01*
X51171426Y-36703564D01*
X51172710Y-36705159D01*
X51173673Y-36706970D01*
X51211860Y-36753791D01*
X51249752Y-36800861D01*
X51251324Y-36802179D01*
X51252618Y-36803765D01*
X51299096Y-36842215D01*
X51345484Y-36881091D01*
X51347284Y-36882079D01*
X51348860Y-36883383D01*
X51401971Y-36912100D01*
X51454977Y-36941198D01*
X51456930Y-36941816D01*
X51458733Y-36942791D01*
X51516443Y-36960655D01*
X51574059Y-36978894D01*
X51577905Y-36979681D01*
X51578053Y-36979727D01*
X51578209Y-36979743D01*
X51582814Y-36980686D01*
X51659014Y-36995726D01*
X51659086Y-36995733D01*
X51660077Y-36995934D01*
X51669294Y-36997738D01*
X51669435Y-36997752D01*
X51670215Y-36997906D01*
X51621606Y-37069245D01*
X51621548Y-37069351D01*
X51621467Y-37069448D01*
X51590744Y-37125687D01*
X51561681Y-37178838D01*
X51561645Y-37178952D01*
X51561584Y-37179064D01*
X51543080Y-37237941D01*
X51524184Y-37297983D01*
X51524170Y-37298107D01*
X51524134Y-37298223D01*
X51517511Y-37358714D01*
X51510542Y-37422141D01*
X51510553Y-37422264D01*
X51510539Y-37422388D01*
X51515910Y-37484366D01*
X51521278Y-37546586D01*
X51521311Y-37546700D01*
X51521322Y-37546828D01*
X51538844Y-37607326D01*
X51555979Y-37666574D01*
X51556035Y-37666683D01*
X51556070Y-37666803D01*
X51585149Y-37723016D01*
X51612805Y-37776528D01*
X51609849Y-37776157D01*
X51601971Y-37775942D01*
X51594251Y-37774392D01*
X51539611Y-37774243D01*
X51484989Y-37772755D01*
X51477226Y-37774073D01*
X51469346Y-37774052D01*
X51460456Y-37774962D01*
X51380720Y-37783687D01*
X51346956Y-37790768D01*
X51312705Y-37794864D01*
X51285977Y-37803558D01*
X51258474Y-37809326D01*
X51242340Y-37816189D01*
X51223270Y-37808432D01*
X51183052Y-37800661D01*
X51143441Y-37790195D01*
X51134610Y-37788828D01*
X51051337Y-37776531D01*
X50999423Y-37773992D01*
X50947619Y-37769746D01*
X50938685Y-37769952D01*
X50916445Y-37770618D01*
X50865375Y-37777174D01*
X50814093Y-37781971D01*
X50805331Y-37783729D01*
X50739838Y-37797345D01*
X50693065Y-37811953D01*
X50645737Y-37824567D01*
X50633561Y-37830538D01*
X50620612Y-37834582D01*
X50577593Y-37857983D01*
X50533590Y-37879561D01*
X50526022Y-37884313D01*
X50472226Y-37918616D01*
X50447608Y-37937935D01*
X50421229Y-37954754D01*
X50398599Y-37976394D01*
X50373964Y-37995727D01*
X50353575Y-38019451D01*
X50330957Y-38041080D01*
X50325180Y-38047898D01*
X50275810Y-38106987D01*
X50259278Y-38131241D01*
X50240317Y-38153655D01*
X50235290Y-38161044D01*
X50232353Y-38165428D01*
X50222785Y-38183250D01*
X50210942Y-38199663D01*
X50206500Y-38207417D01*
X50193207Y-38230994D01*
X50174972Y-38272313D01*
X50173273Y-38275478D01*
X50172587Y-38277716D01*
X50169243Y-38285295D01*
X50144758Y-38339339D01*
X50142831Y-38345142D01*
X50142776Y-38345267D01*
X50142748Y-38345393D01*
X50141942Y-38347820D01*
X50133297Y-38374470D01*
X50122116Y-38425439D01*
X50109294Y-38476043D01*
X50108017Y-38484887D01*
X50103045Y-38521097D01*
X50102064Y-38546421D01*
X50098149Y-38571458D01*
X50097699Y-38580383D01*
X50095429Y-38632637D01*
X50095816Y-38639763D01*
X50094969Y-38646855D01*
X50094843Y-38655790D01*
X50094339Y-38725570D01*
X50094339Y-38725592D01*
X50094303Y-38730599D01*
X50094317Y-38730749D01*
X50094286Y-38735729D01*
X50094299Y-38751464D01*
X50094311Y-38751588D01*
X50094339Y-38758111D01*
X50094758Y-38795500D01*
X50047143Y-38795500D01*
X38044860Y-38795500D01*
X38055000Y-38744525D01*
X38055000Y-38225475D01*
X37953739Y-37716399D01*
X37755107Y-37236859D01*
X37466738Y-36805285D01*
X37099715Y-36438262D01*
X36758097Y-36210000D01*
X39885199Y-36210000D01*
X41186201Y-37511003D01*
X41209999Y-37540001D01*
X41238997Y-37563799D01*
X41325723Y-37634974D01*
X41446644Y-37699608D01*
X41457753Y-37705546D01*
X41601014Y-37749003D01*
X41712667Y-37760000D01*
X41712677Y-37760000D01*
X41749999Y-37763676D01*
X41787322Y-37760000D01*
X45462678Y-37760000D01*
X45500000Y-37763676D01*
X45537322Y-37760000D01*
X45537333Y-37760000D01*
X45648986Y-37749003D01*
X45792247Y-37705546D01*
X45924276Y-37634974D01*
X46040001Y-37540001D01*
X46063803Y-37510998D01*
X46611004Y-36963798D01*
X46640001Y-36940001D01*
X46672714Y-36900140D01*
X46723653Y-36838072D01*
X47000000Y-36838072D01*
X47124482Y-36825812D01*
X47244180Y-36789502D01*
X47354494Y-36730537D01*
X47451185Y-36651185D01*
X47530537Y-36554494D01*
X47589502Y-36444180D01*
X47625812Y-36324482D01*
X47638072Y-36200000D01*
X47638072Y-34400000D01*
X47625812Y-34275518D01*
X47589502Y-34155820D01*
X47530537Y-34045506D01*
X47451185Y-33948815D01*
X47354494Y-33869463D01*
X47244180Y-33810498D01*
X47124482Y-33774188D01*
X47000000Y-33761928D01*
X45200000Y-33761928D01*
X45075518Y-33774188D01*
X44955820Y-33810498D01*
X44845506Y-33869463D01*
X44748815Y-33948815D01*
X44669463Y-34045506D01*
X44610498Y-34155820D01*
X44604944Y-34174127D01*
X44538505Y-34107688D01*
X44287095Y-33939701D01*
X44260000Y-33928478D01*
X44260000Y-32491653D01*
X48687952Y-32491653D01*
X48843962Y-32807214D01*
X49218745Y-32998020D01*
X49623551Y-33112044D01*
X50042824Y-33144902D01*
X50460451Y-33095334D01*
X50860383Y-32965243D01*
X51156038Y-32807214D01*
X51312048Y-32491653D01*
X50000000Y-31179605D01*
X48687952Y-32491653D01*
X44260000Y-32491653D01*
X44260000Y-32130916D01*
X44367606Y-32042606D01*
X44471831Y-31915608D01*
X44549278Y-31770716D01*
X44596969Y-31613500D01*
X44613072Y-31450000D01*
X44613072Y-31050000D01*
X44612366Y-31042824D01*
X47855098Y-31042824D01*
X47904666Y-31460451D01*
X48034757Y-31860383D01*
X48192786Y-32156038D01*
X48508347Y-32312048D01*
X49820395Y-31000000D01*
X50179605Y-31000000D01*
X51491653Y-32312048D01*
X51807214Y-32156038D01*
X51970447Y-31835413D01*
X59044192Y-31835413D01*
X59139956Y-32099814D01*
X59429571Y-32240704D01*
X59741108Y-32322384D01*
X60062595Y-32341718D01*
X60381675Y-32297961D01*
X60686088Y-32192795D01*
X60860044Y-32099814D01*
X60955808Y-31835413D01*
X60000000Y-30879605D01*
X59044192Y-31835413D01*
X51970447Y-31835413D01*
X51998020Y-31781255D01*
X52112044Y-31376449D01*
X52144902Y-30957176D01*
X52121808Y-30762595D01*
X58358282Y-30762595D01*
X58402039Y-31081675D01*
X58507205Y-31386088D01*
X58600186Y-31560044D01*
X58864587Y-31655808D01*
X59820395Y-30700000D01*
X60179605Y-30700000D01*
X61135413Y-31655808D01*
X61399814Y-31560044D01*
X61540704Y-31270429D01*
X61622384Y-30958892D01*
X61641718Y-30637405D01*
X61597961Y-30318325D01*
X61492795Y-30013912D01*
X61399814Y-29839956D01*
X61135413Y-29744192D01*
X60179605Y-30700000D01*
X59820395Y-30700000D01*
X58864587Y-29744192D01*
X58600186Y-29839956D01*
X58459296Y-30129571D01*
X58377616Y-30441108D01*
X58358282Y-30762595D01*
X52121808Y-30762595D01*
X52095334Y-30539549D01*
X51965243Y-30139617D01*
X51807214Y-29843962D01*
X51491653Y-29687952D01*
X50179605Y-31000000D01*
X49820395Y-31000000D01*
X48508347Y-29687952D01*
X48192786Y-29843962D01*
X48001980Y-30218745D01*
X47887956Y-30623551D01*
X47855098Y-31042824D01*
X44612366Y-31042824D01*
X44596969Y-30886500D01*
X44549278Y-30729284D01*
X44471831Y-30584392D01*
X44367606Y-30457394D01*
X44328134Y-30425000D01*
X44367606Y-30392606D01*
X44471831Y-30265608D01*
X44549278Y-30120716D01*
X44596969Y-29963500D01*
X44613072Y-29800000D01*
X44613072Y-29508347D01*
X48687952Y-29508347D01*
X50000000Y-30820395D01*
X51255808Y-29564587D01*
X59044192Y-29564587D01*
X60000000Y-30520395D01*
X60955808Y-29564587D01*
X60860044Y-29300186D01*
X60570429Y-29159296D01*
X60258892Y-29077616D01*
X59937405Y-29058282D01*
X59618325Y-29102039D01*
X59313912Y-29207205D01*
X59139956Y-29300186D01*
X59044192Y-29564587D01*
X51255808Y-29564587D01*
X51312048Y-29508347D01*
X51156038Y-29192786D01*
X50781255Y-29001980D01*
X50376449Y-28887956D01*
X49957176Y-28855098D01*
X49539549Y-28904666D01*
X49139617Y-29034757D01*
X48843962Y-29192786D01*
X48687952Y-29508347D01*
X44613072Y-29508347D01*
X44613072Y-29400000D01*
X44596969Y-29236500D01*
X44549278Y-29079284D01*
X44471831Y-28934392D01*
X44367606Y-28807394D01*
X44240608Y-28703169D01*
X44095716Y-28625722D01*
X43938500Y-28578031D01*
X43775000Y-28561928D01*
X43530334Y-28561928D01*
X43479276Y-28520026D01*
X43347247Y-28449454D01*
X43203986Y-28405997D01*
X43092333Y-28395000D01*
X43092322Y-28395000D01*
X43055000Y-28391324D01*
X43017678Y-28395000D01*
X38786531Y-28395000D01*
X38835000Y-28151335D01*
X38835000Y-27868665D01*
X38779853Y-27591426D01*
X38671680Y-27330273D01*
X38514637Y-27095241D01*
X38314759Y-26895363D01*
X38269317Y-26865000D01*
X38314759Y-26834637D01*
X38514637Y-26634759D01*
X38671680Y-26399727D01*
X38779853Y-26138574D01*
X38835000Y-25861335D01*
X38835000Y-25578665D01*
X38779853Y-25301426D01*
X38671680Y-25040273D01*
X38514637Y-24805241D01*
X38314759Y-24605363D01*
X38269317Y-24575000D01*
X38314759Y-24544637D01*
X38514637Y-24344759D01*
X38671680Y-24109727D01*
X38779853Y-23848574D01*
X38835000Y-23571335D01*
X38835000Y-23288665D01*
X38779853Y-23011426D01*
X38671680Y-22750273D01*
X38514637Y-22515241D01*
X38314759Y-22315363D01*
X38269317Y-22285000D01*
X38314759Y-22254637D01*
X38377743Y-22191653D01*
X48687952Y-22191653D01*
X48843962Y-22507214D01*
X49218745Y-22698020D01*
X49623551Y-22812044D01*
X50042824Y-22844902D01*
X50460451Y-22795334D01*
X50860383Y-22665243D01*
X51156038Y-22507214D01*
X51312048Y-22191653D01*
X50000000Y-20879605D01*
X48687952Y-22191653D01*
X38377743Y-22191653D01*
X38514637Y-22054759D01*
X38671680Y-21819727D01*
X38779853Y-21558574D01*
X38835000Y-21281335D01*
X38835000Y-20998665D01*
X38784110Y-20742824D01*
X47855098Y-20742824D01*
X47904666Y-21160451D01*
X48034757Y-21560383D01*
X48192786Y-21856038D01*
X48508347Y-22012048D01*
X49820395Y-20700000D01*
X50179605Y-20700000D01*
X51491653Y-22012048D01*
X51807214Y-21856038D01*
X51998020Y-21481255D01*
X52112044Y-21076449D01*
X52144902Y-20657176D01*
X52095334Y-20239549D01*
X51965243Y-19839617D01*
X51807214Y-19543962D01*
X51491653Y-19387952D01*
X50179605Y-20700000D01*
X49820395Y-20700000D01*
X48508347Y-19387952D01*
X48192786Y-19543962D01*
X48001980Y-19918745D01*
X47887956Y-20323551D01*
X47855098Y-20742824D01*
X38784110Y-20742824D01*
X38779853Y-20721426D01*
X38671680Y-20460273D01*
X38514637Y-20225241D01*
X38395487Y-20106091D01*
X39293231Y-19208347D01*
X48687952Y-19208347D01*
X50000000Y-20520395D01*
X51312048Y-19208347D01*
X51156038Y-18892786D01*
X50781255Y-18701980D01*
X50376449Y-18587956D01*
X49957176Y-18555098D01*
X49539549Y-18604666D01*
X49139617Y-18734757D01*
X48843962Y-18892786D01*
X48687952Y-19208347D01*
X39293231Y-19208347D01*
X41916579Y-16585000D01*
X59083422Y-16585000D01*
X61315001Y-18816580D01*
X61315001Y-19725116D01*
X61269987Y-19657748D01*
X61042252Y-19430013D01*
X60774463Y-19251082D01*
X60476912Y-19127832D01*
X60161033Y-19065000D01*
X59838967Y-19065000D01*
X59523088Y-19127832D01*
X59225537Y-19251082D01*
X58957748Y-19430013D01*
X58730013Y-19657748D01*
X58624941Y-19815000D01*
X56643469Y-19815000D01*
X56600000Y-19810719D01*
X56556531Y-19815000D01*
X56556523Y-19815000D01*
X56426510Y-19827805D01*
X56259687Y-19878411D01*
X56105941Y-19960589D01*
X56004953Y-20043468D01*
X56004951Y-20043470D01*
X55971183Y-20071183D01*
X55943470Y-20104951D01*
X52242993Y-23805429D01*
X52222756Y-23797047D01*
X51810279Y-23715000D01*
X51389721Y-23715000D01*
X50977244Y-23797047D01*
X50588698Y-23957988D01*
X50239017Y-24191637D01*
X49941637Y-24489017D01*
X49707988Y-24838698D01*
X49547047Y-25227244D01*
X49465000Y-25639721D01*
X49465000Y-26060279D01*
X49547047Y-26472756D01*
X49707988Y-26861302D01*
X49941637Y-27210983D01*
X50239017Y-27508363D01*
X50588698Y-27742012D01*
X50977244Y-27902953D01*
X51389721Y-27985000D01*
X51810279Y-27985000D01*
X52222756Y-27902953D01*
X52611302Y-27742012D01*
X52960983Y-27508363D01*
X53258363Y-27210983D01*
X53492012Y-26861302D01*
X53652953Y-26472756D01*
X53735000Y-26060279D01*
X53735000Y-25639721D01*
X53652953Y-25227244D01*
X53556703Y-24994875D01*
X56966579Y-21585000D01*
X58624941Y-21585000D01*
X58730013Y-21742252D01*
X58925428Y-21937667D01*
X58903031Y-22011500D01*
X58886928Y-22175000D01*
X58886928Y-22575000D01*
X58903031Y-22738500D01*
X58950722Y-22895716D01*
X59028169Y-23040608D01*
X59132394Y-23167606D01*
X59171866Y-23200000D01*
X59132394Y-23232394D01*
X59028169Y-23359392D01*
X58950722Y-23504284D01*
X58903031Y-23661500D01*
X58886928Y-23825000D01*
X58886928Y-24225000D01*
X58903031Y-24388500D01*
X58925428Y-24462333D01*
X58730013Y-24657748D01*
X58551082Y-24925537D01*
X58427832Y-25223088D01*
X58365000Y-25538967D01*
X58365000Y-25861033D01*
X58427832Y-26176912D01*
X58551082Y-26474463D01*
X58730013Y-26742252D01*
X58957748Y-26969987D01*
X59225537Y-27148918D01*
X59523088Y-27272168D01*
X59838967Y-27335000D01*
X60161033Y-27335000D01*
X60476912Y-27272168D01*
X60774463Y-27148918D01*
X61042252Y-26969987D01*
X61269987Y-26742252D01*
X61448918Y-26474463D01*
X61572168Y-26176912D01*
X61635000Y-25861033D01*
X61635000Y-25538967D01*
X61598103Y-25353475D01*
X62126674Y-24824904D01*
X62865000Y-24824904D01*
X62865000Y-26575096D01*
X63206445Y-28291659D01*
X63876215Y-29908626D01*
X64848570Y-31363858D01*
X66086142Y-32601430D01*
X67541374Y-33573785D01*
X69158341Y-34243555D01*
X70874904Y-34585000D01*
X72625096Y-34585000D01*
X74341659Y-34243555D01*
X75958626Y-33573785D01*
X77413858Y-32601430D01*
X78651430Y-31363858D01*
X79623785Y-29908626D01*
X80293555Y-28291659D01*
X80635000Y-26575096D01*
X80635000Y-24824904D01*
X80293555Y-23108341D01*
X79623785Y-21491374D01*
X78651430Y-20036142D01*
X77413858Y-18798570D01*
X75958626Y-17826215D01*
X74341659Y-17156445D01*
X72625096Y-16815000D01*
X70874904Y-16815000D01*
X69158341Y-17156445D01*
X67541374Y-17826215D01*
X66086142Y-18798570D01*
X64848570Y-20036142D01*
X63876215Y-21491374D01*
X63206445Y-23108341D01*
X62865000Y-24824904D01*
X62126674Y-24824904D01*
X62795050Y-24156529D01*
X62828817Y-24128817D01*
X62939411Y-23994059D01*
X63021589Y-23840313D01*
X63072195Y-23673490D01*
X63085000Y-23543477D01*
X63085000Y-23543469D01*
X63089281Y-23500000D01*
X63085000Y-23456531D01*
X63085000Y-18493465D01*
X63089281Y-18449999D01*
X63085000Y-18406533D01*
X63085000Y-18406523D01*
X63072195Y-18276510D01*
X63021589Y-18109687D01*
X62939411Y-17955941D01*
X62863333Y-17863240D01*
X62856532Y-17854953D01*
X62856530Y-17854951D01*
X62828817Y-17821183D01*
X62795049Y-17793470D01*
X60106534Y-15104956D01*
X60078817Y-15071183D01*
X59944059Y-14960589D01*
X59790313Y-14878411D01*
X59623490Y-14827805D01*
X59493477Y-14815000D01*
X59493469Y-14815000D01*
X59450000Y-14810719D01*
X59406531Y-14815000D01*
X41593465Y-14815000D01*
X41549999Y-14810719D01*
X41506533Y-14815000D01*
X41506523Y-14815000D01*
X41376510Y-14827805D01*
X41209687Y-14878411D01*
X41055941Y-14960589D01*
X41055939Y-14960590D01*
X41055940Y-14960590D01*
X40954953Y-15043468D01*
X40954951Y-15043470D01*
X40921183Y-15071183D01*
X40893470Y-15104951D01*
X36804956Y-19193466D01*
X36771183Y-19221183D01*
X36660589Y-19355942D01*
X36578411Y-19509688D01*
X36527805Y-19676511D01*
X36515000Y-19806524D01*
X36515000Y-19806531D01*
X36510719Y-19850000D01*
X36515000Y-19893470D01*
X36515000Y-20005479D01*
X36485241Y-20025363D01*
X36285363Y-20225241D01*
X36128320Y-20460273D01*
X36020147Y-20721426D01*
X35972562Y-20960647D01*
X35838574Y-20905147D01*
X35561335Y-20850000D01*
X35278665Y-20850000D01*
X35001426Y-20905147D01*
X34867438Y-20960647D01*
X34819853Y-20721426D01*
X34711680Y-20460273D01*
X34554637Y-20225241D01*
X34354759Y-20025363D01*
X34119727Y-19868320D01*
X33858574Y-19760147D01*
X33581335Y-19705000D01*
X33298665Y-19705000D01*
X33021426Y-19760147D01*
X32760273Y-19868320D01*
X32525241Y-20025363D01*
X32325363Y-20225241D01*
X32168320Y-20460273D01*
X32060147Y-20721426D01*
X32005000Y-20998665D01*
X32005000Y-21281335D01*
X32031741Y-21415768D01*
X31874686Y-21463412D01*
X31720940Y-21545590D01*
X31619953Y-21628468D01*
X29635000Y-23613421D01*
X29635000Y-13225475D01*
X32785000Y-13225475D01*
X32785000Y-13744525D01*
X32886261Y-14253601D01*
X33084893Y-14733141D01*
X33373262Y-15164715D01*
X33740285Y-15531738D01*
X34171859Y-15820107D01*
X34651399Y-16018739D01*
X35160475Y-16120000D01*
X35679525Y-16120000D01*
X36188601Y-16018739D01*
X36668141Y-15820107D01*
X37099715Y-15531738D01*
X37466738Y-15164715D01*
X37755107Y-14733141D01*
X37953739Y-14253601D01*
X38055000Y-13744525D01*
X38055000Y-13225475D01*
X37953739Y-12716399D01*
X37755107Y-12236859D01*
X37466738Y-11805285D01*
X37099715Y-11438262D01*
X36668141Y-11149893D01*
X36188601Y-10951261D01*
X35679525Y-10850000D01*
X35160475Y-10850000D01*
X34651399Y-10951261D01*
X34171859Y-11149893D01*
X33740285Y-11438262D01*
X33373262Y-11805285D01*
X33084893Y-12236859D01*
X32886261Y-12716399D01*
X32785000Y-13225475D01*
X29635000Y-13225475D01*
X29635000Y-10660000D01*
X73384795Y-10660000D01*
X73440955Y-11308425D01*
G04 #@! TA.AperFunction,Conductor*
D25*
G36*
X73440955Y-11308425D02*
G01*
X73446629Y-11344251D01*
X73451175Y-11380236D01*
X73455535Y-11400487D01*
X73455538Y-11400505D01*
X73455542Y-11400518D01*
X73710702Y-12501352D01*
X73721367Y-12536021D01*
X73730938Y-12571006D01*
X73738114Y-12590458D01*
X74145842Y-13644369D01*
X74161289Y-13677197D01*
X74175691Y-13710477D01*
X74185536Y-13728724D01*
X74737693Y-14714672D01*
X74757613Y-14744998D01*
X74776560Y-14775916D01*
X74788869Y-14792581D01*
X74788877Y-14792593D01*
X74788884Y-14792601D01*
X75474448Y-15690905D01*
X75498435Y-15718113D01*
X75521555Y-15746061D01*
X75536100Y-15760837D01*
X76341406Y-16553590D01*
X76368999Y-16577157D01*
X76395815Y-16601557D01*
X76412296Y-16614136D01*
X77321266Y-17285511D01*
X77351896Y-17304949D01*
X77381891Y-17325334D01*
X77399981Y-17335465D01*
X78394479Y-17872067D01*
X78427539Y-17886995D01*
X78460111Y-17902951D01*
X78479441Y-17910429D01*
X78479447Y-17910432D01*
X78479452Y-17910433D01*
X79539634Y-18301555D01*
X79574482Y-18311680D01*
X79608962Y-18322883D01*
X79629143Y-18327561D01*
X79629160Y-18327566D01*
X79629174Y-18327568D01*
X80733879Y-18565405D01*
X80769811Y-18570519D01*
X80805520Y-18576751D01*
X80826176Y-18578541D01*
X81340000Y-18614922D01*
X81340001Y-41340000D01*
X69257866Y-41340000D01*
X69295303Y-41249619D01*
X69427000Y-40587530D01*
X69427000Y-39912470D01*
X69295303Y-39250381D01*
X69036968Y-38626707D01*
X68661925Y-38065415D01*
X68184585Y-37588075D01*
X67623293Y-37213032D01*
X66999619Y-36954697D01*
X66337530Y-36823000D01*
X65662470Y-36823000D01*
X65000381Y-36954697D01*
X64376707Y-37213032D01*
X63815415Y-37588075D01*
X63338075Y-38065415D01*
X62963032Y-38626707D01*
X62704697Y-39250381D01*
X62573000Y-39912470D01*
X62573000Y-40587530D01*
X62704697Y-41249619D01*
X62742134Y-41340000D01*
X29635000Y-41340000D01*
X29635000Y-36335000D01*
X30900000Y-36335000D01*
X31068361Y-36312274D01*
X31184575Y-36267664D01*
X31289852Y-36201239D01*
X32735625Y-35076749D01*
X32783468Y-35135046D01*
X32783471Y-35135049D01*
X32811184Y-35168817D01*
X32844951Y-35196529D01*
X33754953Y-36106532D01*
X33855940Y-36189410D01*
X33998599Y-36265662D01*
X33740285Y-36438262D01*
X33373262Y-36805285D01*
X33084893Y-37236859D01*
X32886261Y-37716399D01*
X32785000Y-38225475D01*
X32785000Y-38744525D01*
X32886261Y-39253601D01*
X33084893Y-39733141D01*
X33373262Y-40164715D01*
X33740285Y-40531738D01*
X34171859Y-40820107D01*
X34651399Y-41018739D01*
X35160475Y-41120000D01*
X35679525Y-41120000D01*
X36188601Y-41018739D01*
X36668141Y-40820107D01*
X37099715Y-40531738D01*
X37466738Y-40164715D01*
X37755107Y-39733141D01*
X37953739Y-39253601D01*
X38044860Y-38795500D01*
X50047143Y-38795500D01*
X50047143Y-41115500D01*
X57952857Y-41115500D01*
X57952857Y-38795500D01*
X57905687Y-38795500D01*
X57900771Y-38745364D01*
X57899191Y-38719390D01*
X57901210Y-38686404D01*
X57900233Y-38659737D01*
X57902248Y-38633133D01*
X57901988Y-38624200D01*
X57900245Y-38575957D01*
X57895974Y-38544243D01*
X57894749Y-38512269D01*
X57887659Y-38482494D01*
X57883575Y-38452168D01*
X57873229Y-38421896D01*
X57865815Y-38390761D01*
X57862847Y-38382332D01*
X57840904Y-38321363D01*
X57822447Y-38282484D01*
X57806399Y-38242566D01*
X57795724Y-38226190D01*
X57787338Y-38208526D01*
X57761690Y-38173983D01*
X57738187Y-38137931D01*
X57732551Y-38130996D01*
X57704853Y-38097397D01*
X57683734Y-38076353D01*
X57664884Y-38053268D01*
X57639609Y-38032383D01*
X57616375Y-38009231D01*
X57591576Y-37992693D01*
X57568598Y-37973706D01*
X57561151Y-37968765D01*
X57503725Y-37931234D01*
X57475908Y-37916712D01*
X57449640Y-37899554D01*
X57420678Y-37887880D01*
X57392999Y-37873430D01*
X57362902Y-37864591D01*
X57333792Y-37852857D01*
X57325200Y-37850401D01*
X57257078Y-37831441D01*
X57230771Y-37826825D01*
X57205165Y-37819299D01*
X57169416Y-37816058D01*
X57134052Y-37809853D01*
X57107366Y-37810434D01*
X57080770Y-37808023D01*
X57071835Y-37808151D01*
X57001415Y-37809652D01*
X56961915Y-37814377D01*
X56922186Y-37816281D01*
X56900044Y-37821778D01*
X56877392Y-37824488D01*
X56839573Y-37836792D01*
X56816923Y-37842415D01*
X56790117Y-37833701D01*
X56786302Y-37833246D01*
X56782626Y-37832099D01*
X56773864Y-37830345D01*
X56708175Y-37817669D01*
X56691224Y-37816090D01*
X56674677Y-37812123D01*
X56629159Y-37810309D01*
X56583807Y-37806084D01*
X56566884Y-37807826D01*
X56549870Y-37807148D01*
X56540953Y-37807728D01*
X56471213Y-37812749D01*
X56447725Y-37816772D01*
X56423933Y-37817926D01*
X56386310Y-37827290D01*
X56348099Y-37833834D01*
X56338818Y-37837381D01*
X56341098Y-37834601D01*
X56381241Y-37785714D01*
X56381346Y-37785518D01*
X56381479Y-37785356D01*
X56410831Y-37730505D01*
X56440246Y-37675624D01*
X56440309Y-37675417D01*
X56440411Y-37675227D01*
X56458479Y-37615954D01*
X56476747Y-37556170D01*
X56476769Y-37555951D01*
X56476831Y-37555748D01*
X56482924Y-37495262D01*
X56489349Y-37431901D01*
X56489328Y-37431679D01*
X56489349Y-37431471D01*
X56483570Y-37370874D01*
X56477574Y-37307551D01*
X56477511Y-37307340D01*
X56477491Y-37307129D01*
X56459781Y-37247904D01*
X56441869Y-37187857D01*
X56441767Y-37187664D01*
X56441706Y-37187459D01*
X56412670Y-37132497D01*
X56383597Y-37077377D01*
X56383373Y-37077042D01*
X56383360Y-37077018D01*
X56383341Y-37076994D01*
X56378625Y-37069952D01*
X56329650Y-36997914D01*
X56337966Y-36996314D01*
X56338097Y-36996275D01*
X56340986Y-36995726D01*
X56417186Y-36980686D01*
X56475016Y-36963264D01*
X56533005Y-36946197D01*
X56534823Y-36945246D01*
X56536783Y-36944656D01*
X56590117Y-36916339D01*
X56643697Y-36888328D01*
X56645294Y-36887044D01*
X56647104Y-36886083D01*
X56693948Y-36847926D01*
X56741042Y-36810062D01*
X56742359Y-36808492D01*
X56743948Y-36807198D01*
X56782473Y-36760686D01*
X56821330Y-36714378D01*
X56822318Y-36712581D01*
X56823624Y-36711004D01*
X56852355Y-36657943D01*
X56881504Y-36604922D01*
X56882125Y-36602965D01*
X56883099Y-36601166D01*
X56901003Y-36543452D01*
X56919271Y-36485862D01*
X56919499Y-36483829D01*
X56920107Y-36481869D01*
X56926455Y-36421819D01*
X56933195Y-36361735D01*
X56933222Y-36357804D01*
X56933238Y-36357655D01*
X56933224Y-36357504D01*
X56933257Y-36352799D01*
X56933257Y-36035492D01*
X56933255Y-36035475D01*
X56933257Y-36035213D01*
X56933240Y-35996197D01*
X56933230Y-35996094D01*
X56933236Y-35994311D01*
X56932914Y-35899127D01*
X56932901Y-35898999D01*
X56932861Y-35892724D01*
X56931910Y-35821688D01*
X56931571Y-35818652D01*
X56931800Y-35815602D01*
X56931532Y-35806670D01*
X56929669Y-35756150D01*
X56927952Y-35743471D01*
X56928221Y-35730674D01*
X56927474Y-35721769D01*
X56924415Y-35688133D01*
X56917704Y-35652944D01*
X56917513Y-35645923D01*
X56916305Y-35640590D01*
X56913621Y-35615703D01*
X56911739Y-35606967D01*
X56907200Y-35586587D01*
X56902063Y-35570921D01*
X56901017Y-35565438D01*
X56897068Y-35555661D01*
X56889919Y-35524102D01*
X56877675Y-35496553D01*
X56868279Y-35467900D01*
X56855627Y-35445407D01*
X56851957Y-35435481D01*
X56846769Y-35427012D01*
X56839191Y-35409962D01*
X56834728Y-35402220D01*
X56828427Y-35391464D01*
X56814454Y-35372205D01*
X56807045Y-35359033D01*
X56800280Y-35351128D01*
X56786707Y-35328972D01*
X56769755Y-35310597D01*
X56755075Y-35290364D01*
X56727503Y-35264799D01*
X56702011Y-35237167D01*
X56681814Y-35222435D01*
X56663483Y-35205438D01*
X56650913Y-35197693D01*
X56649672Y-35196567D01*
X56630736Y-35185178D01*
X56601099Y-35163560D01*
X56593368Y-35159077D01*
X56585020Y-35154315D01*
X56568537Y-35146939D01*
X56557141Y-35139918D01*
X56552791Y-35138297D01*
X56542634Y-35132188D01*
X56520563Y-35124230D01*
X56517052Y-35122260D01*
X56503436Y-35117809D01*
X56471008Y-35103298D01*
X56447671Y-35097950D01*
X56425133Y-35089824D01*
X56416455Y-35087689D01*
X56408374Y-35085760D01*
X56403252Y-35085056D01*
X56398330Y-35083447D01*
X56389592Y-35081574D01*
X56356645Y-35074749D01*
X56356489Y-35074732D01*
X56351310Y-35073668D01*
X56325466Y-35068543D01*
X56327417Y-35065359D01*
X56356564Y-35017037D01*
X56364672Y-35000037D01*
X56375030Y-34984287D01*
X56379132Y-34976348D01*
X56396275Y-34942603D01*
X56414583Y-34895721D01*
X56434668Y-34849552D01*
X56437356Y-34841029D01*
X56444178Y-34818869D01*
X56445868Y-34810568D01*
X56448934Y-34802664D01*
X56458319Y-34749429D01*
X56469103Y-34696474D01*
X56469149Y-34687999D01*
X56470620Y-34679654D01*
X56469487Y-34625609D01*
X56469779Y-34571570D01*
X56468179Y-34563252D01*
X56468001Y-34554776D01*
X56466881Y-34545910D01*
X56465070Y-34532341D01*
X56464958Y-34531864D01*
X56464940Y-34531370D01*
X56451524Y-34474572D01*
X56443918Y-34434852D01*
X56439836Y-34424769D01*
X56436544Y-34410736D01*
X56436339Y-34410285D01*
X56436227Y-34409809D01*
X56414208Y-34361466D01*
X56397045Y-34319074D01*
X56390274Y-34308743D01*
X56384941Y-34296987D01*
X56384659Y-34296593D01*
X56384452Y-34296139D01*
X56379917Y-34288439D01*
X56379308Y-34287421D01*
X56352914Y-34251738D01*
X56328578Y-34214605D01*
X56322925Y-34207684D01*
X56306543Y-34187911D01*
X56297062Y-34178509D01*
X56289129Y-34167759D01*
X56283100Y-34161163D01*
X56249702Y-34125128D01*
X56248325Y-34123907D01*
X56247200Y-34122443D01*
X56241042Y-34115966D01*
X56194066Y-34067243D01*
X56194012Y-34067197D01*
X56188718Y-34061762D01*
X56131604Y-34003923D01*
X56131496Y-34003833D01*
X56127223Y-33999529D01*
X56063406Y-33936144D01*
X56063318Y-33936072D01*
X56058391Y-33931218D01*
X55992192Y-33866896D01*
X55990520Y-33865563D01*
X55989125Y-33863935D01*
X55982631Y-33857796D01*
X55917785Y-33797338D01*
X55910535Y-33791796D01*
X55904302Y-33785120D01*
X55897554Y-33779262D01*
X55849903Y-33738470D01*
X55827963Y-33723127D01*
X55807863Y-33705421D01*
X55800576Y-33700248D01*
X55768885Y-33678077D01*
X55730824Y-33656651D01*
X55694080Y-33633015D01*
X55676503Y-33626073D01*
X55660040Y-33616805D01*
X55620454Y-33603808D01*
X55610621Y-33598961D01*
X55601993Y-33596643D01*
X55577908Y-33587130D01*
X55569299Y-33584734D01*
X55552331Y-33580140D01*
X55544201Y-33578772D01*
X55541366Y-33577841D01*
X55531483Y-33576632D01*
X55520838Y-33574840D01*
X55489992Y-33566553D01*
X55459398Y-33564500D01*
X55429157Y-33559411D01*
X55397236Y-33560329D01*
X55365366Y-33558191D01*
X55334948Y-33562121D01*
X55304302Y-33563003D01*
X55273163Y-33570104D01*
X55241490Y-33574197D01*
X55212426Y-33583956D01*
X55182523Y-33590776D01*
X55178321Y-33592651D01*
X55176628Y-33593048D01*
X55151749Y-33604331D01*
X55123081Y-33613957D01*
X55114954Y-33617671D01*
X55112737Y-33618703D01*
X55090464Y-33631855D01*
X55068458Y-33641675D01*
X55066765Y-33642871D01*
X55062874Y-33644636D01*
X55055166Y-33649158D01*
X55031817Y-33663074D01*
X55026916Y-33666687D01*
X55021454Y-33669384D01*
X55013899Y-33674157D01*
X54971511Y-33701350D01*
X54971461Y-33701390D01*
X54965331Y-33705368D01*
X54959778Y-33676831D01*
X54959759Y-33676766D01*
X54958225Y-33669104D01*
X54953219Y-33644968D01*
X54951662Y-33639975D01*
X54951020Y-33634783D01*
X54949002Y-33626077D01*
X54948682Y-33624739D01*
X54942393Y-33606525D01*
X54938619Y-33587629D01*
X54935963Y-33579097D01*
X54932667Y-33568765D01*
X54921032Y-33541740D01*
X54916038Y-33525724D01*
X54911792Y-33517909D01*
X54907912Y-33506674D01*
X54900653Y-33494226D01*
X54884374Y-33456041D01*
X54883728Y-33455094D01*
X54883274Y-33454039D01*
X54857406Y-33416391D01*
X54849800Y-33402041D01*
X54835908Y-33384961D01*
X54814007Y-33352842D01*
X54812603Y-33351186D01*
X54812539Y-33351093D01*
X54812453Y-33351009D01*
X54808228Y-33346026D01*
X54801551Y-33338259D01*
X54785233Y-33322659D01*
X54770984Y-33305141D01*
X54740183Y-33279592D01*
X54711264Y-33251946D01*
X54692223Y-33239810D01*
X54674847Y-33225397D01*
X54641986Y-33207573D01*
X54640614Y-33206520D01*
X54637846Y-33205153D01*
X54605933Y-33184813D01*
X54584901Y-33176608D01*
X54565053Y-33165842D01*
X54556796Y-33162426D01*
X54543072Y-33156860D01*
X54535602Y-33154651D01*
X54528624Y-33151204D01*
X54500008Y-33143490D01*
X54489568Y-33139417D01*
X54475777Y-33136958D01*
X54423294Y-33121436D01*
X54415543Y-33120720D01*
X54408023Y-33118693D01*
X54399199Y-33117282D01*
X54374766Y-33113549D01*
X54349379Y-33112180D01*
X54324313Y-33107877D01*
X54315396Y-33107294D01*
X54276589Y-33105029D01*
X54268932Y-33105331D01*
X54261334Y-33104321D01*
X54252401Y-33104076D01*
X54195557Y-33102912D01*
X54195223Y-33102938D01*
X54194893Y-33102899D01*
X54185958Y-33102788D01*
X54107414Y-33102358D01*
X54107280Y-33102370D01*
X54104292Y-33102348D01*
X54000382Y-33102286D01*
X54000357Y-33102288D01*
X54000000Y-33102286D01*
X53986944Y-33102286D01*
X53986912Y-33102289D01*
X53986405Y-33102286D01*
X53885528Y-33102371D01*
X53885375Y-33102386D01*
X53881903Y-33102385D01*
X53805980Y-33102879D01*
X53805099Y-33102971D01*
X53804206Y-33102892D01*
X53795271Y-33103038D01*
X53740636Y-33104308D01*
X53731751Y-33105388D01*
X53722808Y-33104971D01*
X53713887Y-33105490D01*
X53676877Y-33107902D01*
X53648613Y-33112545D01*
X53620005Y-33114171D01*
X53611185Y-33115608D01*
X53588138Y-33119528D01*
X53573055Y-33123641D01*
X53557542Y-33125503D01*
X53512916Y-33140041D01*
X53467632Y-33152389D01*
X53453644Y-33159349D01*
X53438780Y-33164191D01*
X53430619Y-33167833D01*
X53417870Y-33173627D01*
X53393240Y-33187873D01*
X53367221Y-33199421D01*
X53339294Y-33219074D01*
X53309746Y-33236164D01*
X53288346Y-33254927D01*
X53265073Y-33271305D01*
X53241503Y-33295998D01*
X53215828Y-33318510D01*
X53198481Y-33341072D01*
X53193248Y-33346554D01*
X53183894Y-33355823D01*
X53182664Y-33357642D01*
X53178831Y-33361658D01*
X53173370Y-33368732D01*
X53167255Y-33376769D01*
X53151933Y-33401611D01*
X53139693Y-33417530D01*
X53132877Y-33431288D01*
X53113938Y-33459302D01*
X53108727Y-33471660D01*
X53101684Y-33483080D01*
X53094749Y-33501664D01*
X53094627Y-33501867D01*
X53093607Y-33504721D01*
X53091122Y-33511380D01*
X53087194Y-33518389D01*
X53080926Y-33537599D01*
X53065412Y-33574396D01*
X53062821Y-33582948D01*
X53059676Y-33593592D01*
X53058867Y-33597808D01*
X53058011Y-33600102D01*
X53056729Y-33607959D01*
X53052609Y-33619493D01*
X53050500Y-33628176D01*
X53050410Y-33628558D01*
X53049822Y-33632932D01*
X53048451Y-33637134D01*
X53046583Y-33645873D01*
X53041415Y-33670895D01*
X53041406Y-33670978D01*
X53039944Y-33678231D01*
X53034658Y-33705425D01*
X53022961Y-33697753D01*
X53022837Y-33697688D01*
X53022730Y-33697602D01*
X53015221Y-33692756D01*
X52976754Y-33668312D01*
X52967191Y-33663474D01*
X52958527Y-33657151D01*
X52950797Y-33652666D01*
X52932261Y-33642084D01*
X52900978Y-33628077D01*
X52871041Y-33611355D01*
X52844097Y-33602607D01*
X52818261Y-33591039D01*
X52784863Y-33583377D01*
X52752239Y-33572785D01*
X52724107Y-33569438D01*
X52696518Y-33563108D01*
X52662251Y-33562078D01*
X52628208Y-33558027D01*
X52599982Y-33560205D01*
X52571668Y-33559354D01*
X52537850Y-33565000D01*
X52503673Y-33567638D01*
X52494884Y-33569254D01*
X52482182Y-33571680D01*
X52461691Y-33577716D01*
X52448468Y-33579924D01*
X52428102Y-33587611D01*
X52427168Y-33587886D01*
X52371901Y-33603209D01*
X52367304Y-33605521D01*
X52362367Y-33606975D01*
X52311554Y-33633555D01*
X52260310Y-33659323D01*
X52252790Y-33664150D01*
X52223954Y-33682945D01*
X52197901Y-33703814D01*
X52170060Y-33722220D01*
X52163161Y-33727900D01*
X52118597Y-33765120D01*
X52110785Y-33773061D01*
X52101802Y-33779649D01*
X52095188Y-33785659D01*
X52033661Y-33842349D01*
X52031339Y-33844951D01*
X52028571Y-33847089D01*
X52022109Y-33853261D01*
X51942381Y-33930468D01*
X51942284Y-33930583D01*
X51938453Y-33934304D01*
X51931319Y-33941332D01*
X51931223Y-33941447D01*
X51928986Y-33943643D01*
X51865722Y-34006610D01*
X51865636Y-34006714D01*
X51861264Y-34011091D01*
X51805070Y-34068137D01*
X51805032Y-34068184D01*
X51799516Y-34073846D01*
X51753829Y-34121395D01*
X51752343Y-34123279D01*
X51750530Y-34124854D01*
X51744432Y-34131387D01*
X51712695Y-34165867D01*
X51702562Y-34179300D01*
X51690611Y-34191159D01*
X51684961Y-34198083D01*
X51670611Y-34215916D01*
X51646080Y-34253373D01*
X51619724Y-34289060D01*
X51615201Y-34298651D01*
X51609163Y-34307423D01*
X51604894Y-34315273D01*
X51604848Y-34315360D01*
X51603749Y-34318009D01*
X51602178Y-34320407D01*
X51585516Y-34361604D01*
X51566450Y-34402035D01*
X51562773Y-34416729D01*
X51556965Y-34430723D01*
X51556380Y-34433640D01*
X51555344Y-34436201D01*
X51547064Y-34479513D01*
X51536132Y-34523205D01*
X51534882Y-34532054D01*
X51533059Y-34545632D01*
X51532873Y-34550837D01*
X51532401Y-34553190D01*
X51532396Y-34555400D01*
X51531141Y-34561392D01*
X51530545Y-34615965D01*
X51528598Y-34670458D01*
X51529865Y-34678321D01*
X51529778Y-34686291D01*
X51539794Y-34739946D01*
X51548467Y-34793774D01*
X51551236Y-34801238D01*
X51552699Y-34809076D01*
X51555249Y-34817640D01*
X51561972Y-34839665D01*
X51581450Y-34886516D01*
X51599195Y-34934061D01*
X51603179Y-34942061D01*
X51620143Y-34975545D01*
X51630382Y-34991637D01*
X51638345Y-35008969D01*
X51642904Y-35016655D01*
X51671806Y-35064612D01*
X51674694Y-35068490D01*
X51669196Y-35069570D01*
X51669058Y-35069611D01*
X51665682Y-35070270D01*
X51624072Y-35078688D01*
X51621989Y-35079326D01*
X51619820Y-35079563D01*
X51611086Y-35081456D01*
X51592251Y-35085675D01*
X51565006Y-35094646D01*
X51542644Y-35099127D01*
X51528916Y-35104822D01*
X51512631Y-35109021D01*
X51504258Y-35112145D01*
X51501135Y-35113335D01*
X51487224Y-35120259D01*
X51473611Y-35124741D01*
X51453343Y-35136173D01*
X51427272Y-35146989D01*
X51408993Y-35159193D01*
X51389313Y-35168988D01*
X51375005Y-35180030D01*
X51372066Y-35181559D01*
X51370121Y-35183116D01*
X51364819Y-35186107D01*
X51351252Y-35197746D01*
X51323392Y-35216347D01*
X51316520Y-35222059D01*
X51308909Y-35228475D01*
X51298814Y-35238830D01*
X51290430Y-35245301D01*
X51285722Y-35250690D01*
X51274561Y-35259626D01*
X51249194Y-35289732D01*
X51221720Y-35317916D01*
X51209044Y-35337384D01*
X51194078Y-35355146D01*
X51176425Y-35387101D01*
X51175694Y-35388035D01*
X51174401Y-35390589D01*
X51153565Y-35422589D01*
X51144913Y-35444144D01*
X51133680Y-35464478D01*
X51130200Y-35472709D01*
X51124537Y-35486369D01*
X51122474Y-35493153D01*
X51119274Y-35499473D01*
X51111341Y-35527782D01*
X51107037Y-35538506D01*
X51104371Y-35552658D01*
X51104319Y-35552843D01*
X51088191Y-35605870D01*
X51087485Y-35612918D01*
X51085572Y-35619746D01*
X51084074Y-35628555D01*
X51080077Y-35653089D01*
X51078431Y-35678878D01*
X51073839Y-35704314D01*
X51073180Y-35713225D01*
X51070565Y-35752264D01*
X51070826Y-35760731D01*
X51069659Y-35769121D01*
X51069359Y-35778052D01*
X51067841Y-35835227D01*
X51067925Y-35836411D01*
X51067783Y-35837587D01*
X51067641Y-35846522D01*
X51066939Y-35925463D01*
X51066954Y-35925627D01*
X51066915Y-35930105D01*
X51066744Y-36034443D01*
X51066750Y-36034504D01*
X51066743Y-36035492D01*
X51066743Y-36352799D01*
X51072637Y-36412913D01*
X51078152Y-36473104D01*
X51078732Y-36475071D01*
X51078932Y-36477109D01*
X51096385Y-36534916D01*
X51113491Y-36592907D01*
X51114442Y-36594724D01*
X51115034Y-36596684D01*
X51143391Y-36650016D01*
X51171426Y-36703564D01*
X51172710Y-36705159D01*
X51173673Y-36706970D01*
X51211860Y-36753791D01*
X51249752Y-36800861D01*
X51251324Y-36802179D01*
X51252618Y-36803765D01*
X51299096Y-36842215D01*
X51345484Y-36881091D01*
X51347284Y-36882079D01*
X51348860Y-36883383D01*
X51401971Y-36912100D01*
X51454977Y-36941198D01*
X51456930Y-36941816D01*
X51458733Y-36942791D01*
X51516443Y-36960655D01*
X51574059Y-36978894D01*
X51577905Y-36979681D01*
X51578053Y-36979727D01*
X51578209Y-36979743D01*
X51582814Y-36980686D01*
X51659014Y-36995726D01*
X51659086Y-36995733D01*
X51660077Y-36995934D01*
X51669294Y-36997738D01*
X51669435Y-36997752D01*
X51670215Y-36997906D01*
X51621606Y-37069245D01*
X51621548Y-37069351D01*
X51621467Y-37069448D01*
X51590744Y-37125687D01*
X51561681Y-37178838D01*
X51561645Y-37178952D01*
X51561584Y-37179064D01*
X51543080Y-37237941D01*
X51524184Y-37297983D01*
X51524170Y-37298107D01*
X51524134Y-37298223D01*
X51517511Y-37358714D01*
X51510542Y-37422141D01*
X51510553Y-37422264D01*
X51510539Y-37422388D01*
X51515910Y-37484366D01*
X51521278Y-37546586D01*
X51521311Y-37546700D01*
X51521322Y-37546828D01*
X51538844Y-37607326D01*
X51555979Y-37666574D01*
X51556035Y-37666683D01*
X51556070Y-37666803D01*
X51585149Y-37723016D01*
X51612805Y-37776528D01*
X51609849Y-37776157D01*
X51601971Y-37775942D01*
X51594251Y-37774392D01*
X51539611Y-37774243D01*
X51484989Y-37772755D01*
X51477226Y-37774073D01*
X51469346Y-37774052D01*
X51460456Y-37774962D01*
X51380720Y-37783687D01*
X51346956Y-37790768D01*
X51312705Y-37794864D01*
X51285977Y-37803558D01*
X51258474Y-37809326D01*
X51242340Y-37816189D01*
X51223270Y-37808432D01*
X51183052Y-37800661D01*
X51143441Y-37790195D01*
X51134610Y-37788828D01*
X51051337Y-37776531D01*
X50999423Y-37773992D01*
X50947619Y-37769746D01*
X50938685Y-37769952D01*
X50916445Y-37770618D01*
X50865375Y-37777174D01*
X50814093Y-37781971D01*
X50805331Y-37783729D01*
X50739838Y-37797345D01*
X50693065Y-37811953D01*
X50645737Y-37824567D01*
X50633561Y-37830538D01*
X50620612Y-37834582D01*
X50577593Y-37857983D01*
X50533590Y-37879561D01*
X50526022Y-37884313D01*
X50472226Y-37918616D01*
X50447608Y-37937935D01*
X50421229Y-37954754D01*
X50398599Y-37976394D01*
X50373964Y-37995727D01*
X50353575Y-38019451D01*
X50330957Y-38041080D01*
X50325180Y-38047898D01*
X50275810Y-38106987D01*
X50259278Y-38131241D01*
X50240317Y-38153655D01*
X50235290Y-38161044D01*
X50232353Y-38165428D01*
X50222785Y-38183250D01*
X50210942Y-38199663D01*
X50206500Y-38207417D01*
X50193207Y-38230994D01*
X50174972Y-38272313D01*
X50173273Y-38275478D01*
X50172587Y-38277716D01*
X50169243Y-38285295D01*
X50144758Y-38339339D01*
X50142831Y-38345142D01*
X50142776Y-38345267D01*
X50142748Y-38345393D01*
X50141942Y-38347820D01*
X50133297Y-38374470D01*
X50122116Y-38425439D01*
X50109294Y-38476043D01*
X50108017Y-38484887D01*
X50103045Y-38521097D01*
X50102064Y-38546421D01*
X50098149Y-38571458D01*
X50097699Y-38580383D01*
X50095429Y-38632637D01*
X50095816Y-38639763D01*
X50094969Y-38646855D01*
X50094843Y-38655790D01*
X50094339Y-38725570D01*
X50094339Y-38725592D01*
X50094303Y-38730599D01*
X50094317Y-38730749D01*
X50094286Y-38735729D01*
X50094299Y-38751464D01*
X50094311Y-38751588D01*
X50094339Y-38758111D01*
X50094758Y-38795500D01*
X50047143Y-38795500D01*
X38044860Y-38795500D01*
X38055000Y-38744525D01*
X38055000Y-38225475D01*
X37953739Y-37716399D01*
X37755107Y-37236859D01*
X37466738Y-36805285D01*
X37099715Y-36438262D01*
X36758097Y-36210000D01*
X39885199Y-36210000D01*
X41186201Y-37511003D01*
X41209999Y-37540001D01*
X41238997Y-37563799D01*
X41325723Y-37634974D01*
X41446644Y-37699608D01*
X41457753Y-37705546D01*
X41601014Y-37749003D01*
X41712667Y-37760000D01*
X41712677Y-37760000D01*
X41749999Y-37763676D01*
X41787322Y-37760000D01*
X45462678Y-37760000D01*
X45500000Y-37763676D01*
X45537322Y-37760000D01*
X45537333Y-37760000D01*
X45648986Y-37749003D01*
X45792247Y-37705546D01*
X45924276Y-37634974D01*
X46040001Y-37540001D01*
X46063803Y-37510998D01*
X46611004Y-36963798D01*
X46640001Y-36940001D01*
X46672714Y-36900140D01*
X46723653Y-36838072D01*
X47000000Y-36838072D01*
X47124482Y-36825812D01*
X47244180Y-36789502D01*
X47354494Y-36730537D01*
X47451185Y-36651185D01*
X47530537Y-36554494D01*
X47589502Y-36444180D01*
X47625812Y-36324482D01*
X47638072Y-36200000D01*
X47638072Y-34400000D01*
X47625812Y-34275518D01*
X47589502Y-34155820D01*
X47530537Y-34045506D01*
X47451185Y-33948815D01*
X47354494Y-33869463D01*
X47244180Y-33810498D01*
X47124482Y-33774188D01*
X47000000Y-33761928D01*
X45200000Y-33761928D01*
X45075518Y-33774188D01*
X44955820Y-33810498D01*
X44845506Y-33869463D01*
X44748815Y-33948815D01*
X44669463Y-34045506D01*
X44610498Y-34155820D01*
X44604944Y-34174127D01*
X44538505Y-34107688D01*
X44287095Y-33939701D01*
X44260000Y-33928478D01*
X44260000Y-32491653D01*
X48687952Y-32491653D01*
X48843962Y-32807214D01*
X49218745Y-32998020D01*
X49623551Y-33112044D01*
X50042824Y-33144902D01*
X50460451Y-33095334D01*
X50860383Y-32965243D01*
X51156038Y-32807214D01*
X51312048Y-32491653D01*
X50000000Y-31179605D01*
X48687952Y-32491653D01*
X44260000Y-32491653D01*
X44260000Y-32130916D01*
X44367606Y-32042606D01*
X44471831Y-31915608D01*
X44549278Y-31770716D01*
X44596969Y-31613500D01*
X44613072Y-31450000D01*
X44613072Y-31050000D01*
X44612366Y-31042824D01*
X47855098Y-31042824D01*
X47904666Y-31460451D01*
X48034757Y-31860383D01*
X48192786Y-32156038D01*
X48508347Y-32312048D01*
X49820395Y-31000000D01*
X50179605Y-31000000D01*
X51491653Y-32312048D01*
X51807214Y-32156038D01*
X51970447Y-31835413D01*
X59044192Y-31835413D01*
X59139956Y-32099814D01*
X59429571Y-32240704D01*
X59741108Y-32322384D01*
X60062595Y-32341718D01*
X60381675Y-32297961D01*
X60686088Y-32192795D01*
X60860044Y-32099814D01*
X60955808Y-31835413D01*
X60000000Y-30879605D01*
X59044192Y-31835413D01*
X51970447Y-31835413D01*
X51998020Y-31781255D01*
X52112044Y-31376449D01*
X52144902Y-30957176D01*
X52121808Y-30762595D01*
X58358282Y-30762595D01*
X58402039Y-31081675D01*
X58507205Y-31386088D01*
X58600186Y-31560044D01*
X58864587Y-31655808D01*
X59820395Y-30700000D01*
X60179605Y-30700000D01*
X61135413Y-31655808D01*
X61399814Y-31560044D01*
X61540704Y-31270429D01*
X61622384Y-30958892D01*
X61641718Y-30637405D01*
X61597961Y-30318325D01*
X61492795Y-30013912D01*
X61399814Y-29839956D01*
X61135413Y-29744192D01*
X60179605Y-30700000D01*
X59820395Y-30700000D01*
X58864587Y-29744192D01*
X58600186Y-29839956D01*
X58459296Y-30129571D01*
X58377616Y-30441108D01*
X58358282Y-30762595D01*
X52121808Y-30762595D01*
X52095334Y-30539549D01*
X51965243Y-30139617D01*
X51807214Y-29843962D01*
X51491653Y-29687952D01*
X50179605Y-31000000D01*
X49820395Y-31000000D01*
X48508347Y-29687952D01*
X48192786Y-29843962D01*
X48001980Y-30218745D01*
X47887956Y-30623551D01*
X47855098Y-31042824D01*
X44612366Y-31042824D01*
X44596969Y-30886500D01*
X44549278Y-30729284D01*
X44471831Y-30584392D01*
X44367606Y-30457394D01*
X44328134Y-30425000D01*
X44367606Y-30392606D01*
X44471831Y-30265608D01*
X44549278Y-30120716D01*
X44596969Y-29963500D01*
X44613072Y-29800000D01*
X44613072Y-29508347D01*
X48687952Y-29508347D01*
X50000000Y-30820395D01*
X51255808Y-29564587D01*
X59044192Y-29564587D01*
X60000000Y-30520395D01*
X60955808Y-29564587D01*
X60860044Y-29300186D01*
X60570429Y-29159296D01*
X60258892Y-29077616D01*
X59937405Y-29058282D01*
X59618325Y-29102039D01*
X59313912Y-29207205D01*
X59139956Y-29300186D01*
X59044192Y-29564587D01*
X51255808Y-29564587D01*
X51312048Y-29508347D01*
X51156038Y-29192786D01*
X50781255Y-29001980D01*
X50376449Y-28887956D01*
X49957176Y-28855098D01*
X49539549Y-28904666D01*
X49139617Y-29034757D01*
X48843962Y-29192786D01*
X48687952Y-29508347D01*
X44613072Y-29508347D01*
X44613072Y-29400000D01*
X44596969Y-29236500D01*
X44549278Y-29079284D01*
X44471831Y-28934392D01*
X44367606Y-28807394D01*
X44240608Y-28703169D01*
X44095716Y-28625722D01*
X43938500Y-28578031D01*
X43775000Y-28561928D01*
X43530334Y-28561928D01*
X43479276Y-28520026D01*
X43347247Y-28449454D01*
X43203986Y-28405997D01*
X43092333Y-28395000D01*
X43092322Y-28395000D01*
X43055000Y-28391324D01*
X43017678Y-28395000D01*
X38786531Y-28395000D01*
X38835000Y-28151335D01*
X38835000Y-27868665D01*
X38779853Y-27591426D01*
X38671680Y-27330273D01*
X38514637Y-27095241D01*
X38314759Y-26895363D01*
X38269317Y-26865000D01*
X38314759Y-26834637D01*
X38514637Y-26634759D01*
X38671680Y-26399727D01*
X38779853Y-26138574D01*
X38835000Y-25861335D01*
X38835000Y-25578665D01*
X38779853Y-25301426D01*
X38671680Y-25040273D01*
X38514637Y-24805241D01*
X38314759Y-24605363D01*
X38269317Y-24575000D01*
X38314759Y-24544637D01*
X38514637Y-24344759D01*
X38671680Y-24109727D01*
X38779853Y-23848574D01*
X38835000Y-23571335D01*
X38835000Y-23288665D01*
X38779853Y-23011426D01*
X38671680Y-22750273D01*
X38514637Y-22515241D01*
X38314759Y-22315363D01*
X38269317Y-22285000D01*
X38314759Y-22254637D01*
X38377743Y-22191653D01*
X48687952Y-22191653D01*
X48843962Y-22507214D01*
X49218745Y-22698020D01*
X49623551Y-22812044D01*
X50042824Y-22844902D01*
X50460451Y-22795334D01*
X50860383Y-22665243D01*
X51156038Y-22507214D01*
X51312048Y-22191653D01*
X50000000Y-20879605D01*
X48687952Y-22191653D01*
X38377743Y-22191653D01*
X38514637Y-22054759D01*
X38671680Y-21819727D01*
X38779853Y-21558574D01*
X38835000Y-21281335D01*
X38835000Y-20998665D01*
X38784110Y-20742824D01*
X47855098Y-20742824D01*
X47904666Y-21160451D01*
X48034757Y-21560383D01*
X48192786Y-21856038D01*
X48508347Y-22012048D01*
X49820395Y-20700000D01*
X50179605Y-20700000D01*
X51491653Y-22012048D01*
X51807214Y-21856038D01*
X51998020Y-21481255D01*
X52112044Y-21076449D01*
X52144902Y-20657176D01*
X52095334Y-20239549D01*
X51965243Y-19839617D01*
X51807214Y-19543962D01*
X51491653Y-19387952D01*
X50179605Y-20700000D01*
X49820395Y-20700000D01*
X48508347Y-19387952D01*
X48192786Y-19543962D01*
X48001980Y-19918745D01*
X47887956Y-20323551D01*
X47855098Y-20742824D01*
X38784110Y-20742824D01*
X38779853Y-20721426D01*
X38671680Y-20460273D01*
X38514637Y-20225241D01*
X38395487Y-20106091D01*
X39293231Y-19208347D01*
X48687952Y-19208347D01*
X50000000Y-20520395D01*
X51312048Y-19208347D01*
X51156038Y-18892786D01*
X50781255Y-18701980D01*
X50376449Y-18587956D01*
X49957176Y-18555098D01*
X49539549Y-18604666D01*
X49139617Y-18734757D01*
X48843962Y-18892786D01*
X48687952Y-19208347D01*
X39293231Y-19208347D01*
X41916579Y-16585000D01*
X59083422Y-16585000D01*
X61315001Y-18816580D01*
X61315001Y-19725116D01*
X61269987Y-19657748D01*
X61042252Y-19430013D01*
X60774463Y-19251082D01*
X60476912Y-19127832D01*
X60161033Y-19065000D01*
X59838967Y-19065000D01*
X59523088Y-19127832D01*
X59225537Y-19251082D01*
X58957748Y-19430013D01*
X58730013Y-19657748D01*
X58624941Y-19815000D01*
X56643469Y-19815000D01*
X56600000Y-19810719D01*
X56556531Y-19815000D01*
X56556523Y-19815000D01*
X56426510Y-19827805D01*
X56259687Y-19878411D01*
X56105941Y-19960589D01*
X56004953Y-20043468D01*
X56004951Y-20043470D01*
X55971183Y-20071183D01*
X55943470Y-20104951D01*
X52242993Y-23805429D01*
X52222756Y-23797047D01*
X51810279Y-23715000D01*
X51389721Y-23715000D01*
X50977244Y-23797047D01*
X50588698Y-23957988D01*
X50239017Y-24191637D01*
X49941637Y-24489017D01*
X49707988Y-24838698D01*
X49547047Y-25227244D01*
X49465000Y-25639721D01*
X49465000Y-26060279D01*
X49547047Y-26472756D01*
X49707988Y-26861302D01*
X49941637Y-27210983D01*
X50239017Y-27508363D01*
X50588698Y-27742012D01*
X50977244Y-27902953D01*
X51389721Y-27985000D01*
X51810279Y-27985000D01*
X52222756Y-27902953D01*
X52611302Y-27742012D01*
X52960983Y-27508363D01*
X53258363Y-27210983D01*
X53492012Y-26861302D01*
X53652953Y-26472756D01*
X53735000Y-26060279D01*
X53735000Y-25639721D01*
X53652953Y-25227244D01*
X53556703Y-24994875D01*
X56966579Y-21585000D01*
X58624941Y-21585000D01*
X58730013Y-21742252D01*
X58925428Y-21937667D01*
X58903031Y-22011500D01*
X58886928Y-22175000D01*
X58886928Y-22575000D01*
X58903031Y-22738500D01*
X58950722Y-22895716D01*
X59028169Y-23040608D01*
X59132394Y-23167606D01*
X59171866Y-23200000D01*
X59132394Y-23232394D01*
X59028169Y-23359392D01*
X58950722Y-23504284D01*
X58903031Y-23661500D01*
X58886928Y-23825000D01*
X58886928Y-24225000D01*
X58903031Y-24388500D01*
X58925428Y-24462333D01*
X58730013Y-24657748D01*
X58551082Y-24925537D01*
X58427832Y-25223088D01*
X58365000Y-25538967D01*
X58365000Y-25861033D01*
X58427832Y-26176912D01*
X58551082Y-26474463D01*
X58730013Y-26742252D01*
X58957748Y-26969987D01*
X59225537Y-27148918D01*
X59523088Y-27272168D01*
X59838967Y-27335000D01*
X60161033Y-27335000D01*
X60476912Y-27272168D01*
X60774463Y-27148918D01*
X61042252Y-26969987D01*
X61269987Y-26742252D01*
X61448918Y-26474463D01*
X61572168Y-26176912D01*
X61635000Y-25861033D01*
X61635000Y-25538967D01*
X61598103Y-25353475D01*
X62126674Y-24824904D01*
X62865000Y-24824904D01*
X62865000Y-26575096D01*
X63206445Y-28291659D01*
X63876215Y-29908626D01*
X64848570Y-31363858D01*
X66086142Y-32601430D01*
X67541374Y-33573785D01*
X69158341Y-34243555D01*
X70874904Y-34585000D01*
X72625096Y-34585000D01*
X74341659Y-34243555D01*
X75958626Y-33573785D01*
X77413858Y-32601430D01*
X78651430Y-31363858D01*
X79623785Y-29908626D01*
X80293555Y-28291659D01*
X80635000Y-26575096D01*
X80635000Y-24824904D01*
X80293555Y-23108341D01*
X79623785Y-21491374D01*
X78651430Y-20036142D01*
X77413858Y-18798570D01*
X75958626Y-17826215D01*
X74341659Y-17156445D01*
X72625096Y-16815000D01*
X70874904Y-16815000D01*
X69158341Y-17156445D01*
X67541374Y-17826215D01*
X66086142Y-18798570D01*
X64848570Y-20036142D01*
X63876215Y-21491374D01*
X63206445Y-23108341D01*
X62865000Y-24824904D01*
X62126674Y-24824904D01*
X62795050Y-24156529D01*
X62828817Y-24128817D01*
X62939411Y-23994059D01*
X63021589Y-23840313D01*
X63072195Y-23673490D01*
X63085000Y-23543477D01*
X63085000Y-23543469D01*
X63089281Y-23500000D01*
X63085000Y-23456531D01*
X63085000Y-18493465D01*
X63089281Y-18449999D01*
X63085000Y-18406533D01*
X63085000Y-18406523D01*
X63072195Y-18276510D01*
X63021589Y-18109687D01*
X62939411Y-17955941D01*
X62863333Y-17863240D01*
X62856532Y-17854953D01*
X62856530Y-17854951D01*
X62828817Y-17821183D01*
X62795049Y-17793470D01*
X60106534Y-15104956D01*
X60078817Y-15071183D01*
X59944059Y-14960589D01*
X59790313Y-14878411D01*
X59623490Y-14827805D01*
X59493477Y-14815000D01*
X59493469Y-14815000D01*
X59450000Y-14810719D01*
X59406531Y-14815000D01*
X41593465Y-14815000D01*
X41549999Y-14810719D01*
X41506533Y-14815000D01*
X41506523Y-14815000D01*
X41376510Y-14827805D01*
X41209687Y-14878411D01*
X41055941Y-14960589D01*
X41055939Y-14960590D01*
X41055940Y-14960590D01*
X40954953Y-15043468D01*
X40954951Y-15043470D01*
X40921183Y-15071183D01*
X40893470Y-15104951D01*
X36804956Y-19193466D01*
X36771183Y-19221183D01*
X36660589Y-19355942D01*
X36578411Y-19509688D01*
X36527805Y-19676511D01*
X36515000Y-19806524D01*
X36515000Y-19806531D01*
X36510719Y-19850000D01*
X36515000Y-19893470D01*
X36515000Y-20005479D01*
X36485241Y-20025363D01*
X36285363Y-20225241D01*
X36128320Y-20460273D01*
X36020147Y-20721426D01*
X35972562Y-20960647D01*
X35838574Y-20905147D01*
X35561335Y-20850000D01*
X35278665Y-20850000D01*
X35001426Y-20905147D01*
X34867438Y-20960647D01*
X34819853Y-20721426D01*
X34711680Y-20460273D01*
X34554637Y-20225241D01*
X34354759Y-20025363D01*
X34119727Y-19868320D01*
X33858574Y-19760147D01*
X33581335Y-19705000D01*
X33298665Y-19705000D01*
X33021426Y-19760147D01*
X32760273Y-19868320D01*
X32525241Y-20025363D01*
X32325363Y-20225241D01*
X32168320Y-20460273D01*
X32060147Y-20721426D01*
X32005000Y-20998665D01*
X32005000Y-21281335D01*
X32031741Y-21415768D01*
X31874686Y-21463412D01*
X31720940Y-21545590D01*
X31619953Y-21628468D01*
X29635000Y-23613421D01*
X29635000Y-13225475D01*
X32785000Y-13225475D01*
X32785000Y-13744525D01*
X32886261Y-14253601D01*
X33084893Y-14733141D01*
X33373262Y-15164715D01*
X33740285Y-15531738D01*
X34171859Y-15820107D01*
X34651399Y-16018739D01*
X35160475Y-16120000D01*
X35679525Y-16120000D01*
X36188601Y-16018739D01*
X36668141Y-15820107D01*
X37099715Y-15531738D01*
X37466738Y-15164715D01*
X37755107Y-14733141D01*
X37953739Y-14253601D01*
X38055000Y-13744525D01*
X38055000Y-13225475D01*
X37953739Y-12716399D01*
X37755107Y-12236859D01*
X37466738Y-11805285D01*
X37099715Y-11438262D01*
X36668141Y-11149893D01*
X36188601Y-10951261D01*
X35679525Y-10850000D01*
X35160475Y-10850000D01*
X34651399Y-10951261D01*
X34171859Y-11149893D01*
X33740285Y-11438262D01*
X33373262Y-11805285D01*
X33084893Y-12236859D01*
X32886261Y-12716399D01*
X32785000Y-13225475D01*
X29635000Y-13225475D01*
X29635000Y-10660000D01*
X73384795Y-10660000D01*
X73440955Y-11308425D01*
G37*
G04 #@! TD.AperFunction*
D24*
X42403031Y-29963500D02*
X42450722Y-30120716D01*
X42528169Y-30265608D01*
X42632394Y-30392606D01*
X42671866Y-30425000D01*
X42632394Y-30457394D01*
X42528169Y-30584392D01*
X42450722Y-30729284D01*
X42403031Y-30886500D01*
X42386928Y-31050000D01*
X42386928Y-31450000D01*
X42403031Y-31613500D01*
X42450722Y-31770716D01*
X42528169Y-31915608D01*
X42632394Y-32042606D01*
X42740000Y-32130917D01*
X42740001Y-34001778D01*
X42581495Y-34107688D01*
X42367688Y-34321495D01*
X42199701Y-34572905D01*
X42083989Y-34852257D01*
X42025000Y-35148816D01*
X42025000Y-35451184D01*
X42083989Y-35747743D01*
X42199701Y-36027095D01*
X42341960Y-36240000D01*
X42064802Y-36240000D01*
X40763804Y-34939003D01*
X40740001Y-34909999D01*
X40624276Y-34815026D01*
X40492247Y-34744454D01*
X40348986Y-34700997D01*
X40237333Y-34690000D01*
X40237322Y-34690000D01*
X40200000Y-34686324D01*
X40162678Y-34690000D01*
X34841579Y-34690000D01*
X34325000Y-34173422D01*
X34325000Y-32437702D01*
X34606903Y-32437702D01*
X34678486Y-32681671D01*
X34933996Y-32802571D01*
X35208184Y-32871300D01*
X35490512Y-32885217D01*
X35770130Y-32843787D01*
X36036292Y-32748603D01*
X36161514Y-32681671D01*
X36233097Y-32437702D01*
X35420000Y-31624605D01*
X34606903Y-32437702D01*
X34325000Y-32437702D01*
X34325000Y-32228082D01*
X34427298Y-32258097D01*
X35240395Y-31445000D01*
X35226253Y-31430858D01*
X35405858Y-31251253D01*
X35420000Y-31265395D01*
X35434143Y-31251253D01*
X35613748Y-31430858D01*
X35599605Y-31445000D01*
X36412702Y-32258097D01*
X36656671Y-32186514D01*
X36777571Y-31931004D01*
X36825932Y-31738072D01*
X38200000Y-31738072D01*
X38324482Y-31725812D01*
X38444180Y-31689502D01*
X38554494Y-31630537D01*
X38651185Y-31551185D01*
X38730537Y-31454494D01*
X38789502Y-31344180D01*
X38825812Y-31224482D01*
X38838072Y-31100000D01*
X38838072Y-29915000D01*
X42398254Y-29915000D01*
X42403031Y-29963500D01*
G04 #@! TA.AperFunction,Conductor*
D25*
G36*
X42403031Y-29963500D02*
G01*
X42450722Y-30120716D01*
X42528169Y-30265608D01*
X42632394Y-30392606D01*
X42671866Y-30425000D01*
X42632394Y-30457394D01*
X42528169Y-30584392D01*
X42450722Y-30729284D01*
X42403031Y-30886500D01*
X42386928Y-31050000D01*
X42386928Y-31450000D01*
X42403031Y-31613500D01*
X42450722Y-31770716D01*
X42528169Y-31915608D01*
X42632394Y-32042606D01*
X42740000Y-32130917D01*
X42740001Y-34001778D01*
X42581495Y-34107688D01*
X42367688Y-34321495D01*
X42199701Y-34572905D01*
X42083989Y-34852257D01*
X42025000Y-35148816D01*
X42025000Y-35451184D01*
X42083989Y-35747743D01*
X42199701Y-36027095D01*
X42341960Y-36240000D01*
X42064802Y-36240000D01*
X40763804Y-34939003D01*
X40740001Y-34909999D01*
X40624276Y-34815026D01*
X40492247Y-34744454D01*
X40348986Y-34700997D01*
X40237333Y-34690000D01*
X40237322Y-34690000D01*
X40200000Y-34686324D01*
X40162678Y-34690000D01*
X34841579Y-34690000D01*
X34325000Y-34173422D01*
X34325000Y-32437702D01*
X34606903Y-32437702D01*
X34678486Y-32681671D01*
X34933996Y-32802571D01*
X35208184Y-32871300D01*
X35490512Y-32885217D01*
X35770130Y-32843787D01*
X36036292Y-32748603D01*
X36161514Y-32681671D01*
X36233097Y-32437702D01*
X35420000Y-31624605D01*
X34606903Y-32437702D01*
X34325000Y-32437702D01*
X34325000Y-32228082D01*
X34427298Y-32258097D01*
X35240395Y-31445000D01*
X35226253Y-31430858D01*
X35405858Y-31251253D01*
X35420000Y-31265395D01*
X35434143Y-31251253D01*
X35613748Y-31430858D01*
X35599605Y-31445000D01*
X36412702Y-32258097D01*
X36656671Y-32186514D01*
X36777571Y-31931004D01*
X36825932Y-31738072D01*
X38200000Y-31738072D01*
X38324482Y-31725812D01*
X38444180Y-31689502D01*
X38554494Y-31630537D01*
X38651185Y-31551185D01*
X38730537Y-31454494D01*
X38789502Y-31344180D01*
X38825812Y-31224482D01*
X38838072Y-31100000D01*
X38838072Y-29915000D01*
X42398254Y-29915000D01*
X42403031Y-29963500D01*
G37*
G04 #@! TD.AperFunction*
D24*
X32060147Y-23848574D02*
X32168320Y-24109727D01*
X32325363Y-24344759D01*
X32525241Y-24544637D01*
X32570683Y-24575000D01*
X32525241Y-24605363D01*
X32325363Y-24805241D01*
X32168320Y-25040273D01*
X32060147Y-25301426D01*
X32005000Y-25578665D01*
X32005000Y-25861335D01*
X32060147Y-26138574D01*
X32168320Y-26399727D01*
X32325363Y-26634759D01*
X32525241Y-26834637D01*
X32655049Y-26921372D01*
X32626903Y-27017298D01*
X33440000Y-27830395D01*
X33454143Y-27816253D01*
X33633748Y-27995858D01*
X33619605Y-28010000D01*
X33633748Y-28024143D01*
X33454143Y-28203748D01*
X33440000Y-28189605D01*
X33425858Y-28203748D01*
X33246253Y-28024143D01*
X33260395Y-28010000D01*
X32447298Y-27196903D01*
X32203329Y-27268486D01*
X32082429Y-27523996D01*
X32013700Y-27798184D01*
X31999783Y-28080512D01*
X32041213Y-28360130D01*
X32053683Y-28395000D01*
X29635000Y-28395000D01*
X29635000Y-26116578D01*
X32034075Y-23717504D01*
X32060147Y-23848574D01*
G04 #@! TA.AperFunction,Conductor*
D25*
G36*
X32060147Y-23848574D02*
G01*
X32168320Y-24109727D01*
X32325363Y-24344759D01*
X32525241Y-24544637D01*
X32570683Y-24575000D01*
X32525241Y-24605363D01*
X32325363Y-24805241D01*
X32168320Y-25040273D01*
X32060147Y-25301426D01*
X32005000Y-25578665D01*
X32005000Y-25861335D01*
X32060147Y-26138574D01*
X32168320Y-26399727D01*
X32325363Y-26634759D01*
X32525241Y-26834637D01*
X32655049Y-26921372D01*
X32626903Y-27017298D01*
X33440000Y-27830395D01*
X33454143Y-27816253D01*
X33633748Y-27995858D01*
X33619605Y-28010000D01*
X33633748Y-28024143D01*
X33454143Y-28203748D01*
X33440000Y-28189605D01*
X33425858Y-28203748D01*
X33246253Y-28024143D01*
X33260395Y-28010000D01*
X32447298Y-27196903D01*
X32203329Y-27268486D01*
X32082429Y-27523996D01*
X32013700Y-27798184D01*
X31999783Y-28080512D01*
X32041213Y-28360130D01*
X32053683Y-28395000D01*
X29635000Y-28395000D01*
X29635000Y-26116578D01*
X32034075Y-23717504D01*
X32060147Y-23848574D01*
G37*
G04 #@! TD.AperFunction*
D24*
X61315000Y-23133421D02*
X61012654Y-23435767D01*
X60971831Y-23359392D01*
X60867606Y-23232394D01*
X60828134Y-23200000D01*
X60867606Y-23167606D01*
X60971831Y-23040608D01*
X61049278Y-22895716D01*
X61096969Y-22738500D01*
X61113072Y-22575000D01*
X61113072Y-22175000D01*
X61096969Y-22011500D01*
X61074572Y-21937667D01*
X61269987Y-21742252D01*
X61315000Y-21674885D01*
X61315000Y-23133421D01*
G04 #@! TA.AperFunction,Conductor*
D25*
G36*
X61315000Y-23133421D02*
G01*
X61012654Y-23435767D01*
X60971831Y-23359392D01*
X60867606Y-23232394D01*
X60828134Y-23200000D01*
X60867606Y-23167606D01*
X60971831Y-23040608D01*
X61049278Y-22895716D01*
X61096969Y-22738500D01*
X61113072Y-22575000D01*
X61113072Y-22175000D01*
X61096969Y-22011500D01*
X61074572Y-21937667D01*
X61269987Y-21742252D01*
X61315000Y-21674885D01*
X61315000Y-23133421D01*
G37*
G04 #@! TD.AperFunction*
D24*
X22704697Y-10750381D02*
X22573000Y-11412470D01*
X22573000Y-12087530D01*
X22704697Y-12749619D01*
X22963032Y-13373293D01*
X23338075Y-13934585D01*
X23815415Y-14411925D01*
X24376707Y-14786968D01*
X25000381Y-15045303D01*
X25662470Y-15177000D01*
X26337530Y-15177000D01*
X26999619Y-15045303D01*
X27623293Y-14786968D01*
X28184585Y-14411925D01*
X28661925Y-13934585D01*
X28873000Y-13618689D01*
X28873000Y-24375421D01*
X27133422Y-26115000D01*
X26318072Y-26115000D01*
X26318072Y-25800000D01*
X26305812Y-25675518D01*
X26269502Y-25555820D01*
X26210537Y-25445506D01*
X26131185Y-25348815D01*
X26034494Y-25269463D01*
X25924180Y-25210498D01*
X25804482Y-25174188D01*
X25680000Y-25161928D01*
X24480000Y-25161928D01*
X24355518Y-25174188D01*
X24235820Y-25210498D01*
X24125506Y-25269463D01*
X24028815Y-25348815D01*
X23949463Y-25445506D01*
X23890498Y-25555820D01*
X23854188Y-25675518D01*
X23841928Y-25800000D01*
X23841928Y-28000000D01*
X23854188Y-28124482D01*
X23890498Y-28244180D01*
X23949463Y-28354494D01*
X23982705Y-28395000D01*
X23169802Y-28395000D01*
X21758072Y-26983271D01*
X21758072Y-25800000D01*
X21745812Y-25675518D01*
X21709502Y-25555820D01*
X21650537Y-25445506D01*
X21571185Y-25348815D01*
X21474494Y-25269463D01*
X21364180Y-25210498D01*
X21244482Y-25174188D01*
X21120000Y-25161928D01*
X19920000Y-25161928D01*
X19795518Y-25174188D01*
X19675820Y-25210498D01*
X19565506Y-25269463D01*
X19468815Y-25348815D01*
X19389463Y-25445506D01*
X19330498Y-25555820D01*
X19294188Y-25675518D01*
X19281928Y-25800000D01*
X19281928Y-26015000D01*
X18643469Y-26015000D01*
X18600000Y-26010719D01*
X18556531Y-26015000D01*
X18556523Y-26015000D01*
X18426510Y-26027805D01*
X18259687Y-26078411D01*
X18105941Y-26160589D01*
X17971183Y-26271183D01*
X17943466Y-26304956D01*
X17504956Y-26743466D01*
X17471183Y-26771183D01*
X17360589Y-26905942D01*
X17278411Y-27059688D01*
X17266227Y-27099853D01*
X17233718Y-27207019D01*
X17131614Y-27261595D01*
X16997038Y-27372038D01*
X16886595Y-27506614D01*
X16804528Y-27660150D01*
X16753992Y-27826746D01*
X16736928Y-28000000D01*
X16736928Y-28500000D01*
X16753992Y-28673254D01*
X16804528Y-28839850D01*
X16886595Y-28993386D01*
X16997038Y-29127962D01*
X17003594Y-29133342D01*
X16923815Y-29198815D01*
X16844463Y-29295506D01*
X16785498Y-29405820D01*
X16749188Y-29525518D01*
X16736928Y-29650000D01*
X16740000Y-29864250D01*
X16898750Y-30023000D01*
X17973000Y-30023000D01*
X17973000Y-30003000D01*
X18227000Y-30003000D01*
X18227000Y-30023000D01*
X18247000Y-30023000D01*
X18247000Y-30277000D01*
X18227000Y-30277000D01*
X18227000Y-31126250D01*
X18385750Y-31285000D01*
X18825000Y-31288072D01*
X18949482Y-31275812D01*
X19069180Y-31239502D01*
X19179494Y-31180537D01*
X19263100Y-31111923D01*
X19265000Y-32914250D01*
X19423750Y-33073000D01*
X22673000Y-33073000D01*
X22673000Y-33053000D01*
X22927000Y-33053000D01*
X22927000Y-33073000D01*
X26176250Y-33073000D01*
X26335000Y-32914250D01*
X26336900Y-31111923D01*
X26420506Y-31180537D01*
X26530820Y-31239502D01*
X26650518Y-31275812D01*
X26775000Y-31288072D01*
X27214250Y-31285000D01*
X27373000Y-31126250D01*
X27373000Y-30277000D01*
X27627000Y-30277000D01*
X27627000Y-31126250D01*
X27785750Y-31285000D01*
X28225000Y-31288072D01*
X28349482Y-31275812D01*
X28469180Y-31239502D01*
X28579494Y-31180537D01*
X28676185Y-31101185D01*
X28755537Y-31004494D01*
X28814502Y-30894180D01*
X28850812Y-30774482D01*
X28863072Y-30650000D01*
X28860000Y-30435750D01*
X28701250Y-30277000D01*
X27627000Y-30277000D01*
X27373000Y-30277000D01*
X27353000Y-30277000D01*
X27353000Y-30023000D01*
X27373000Y-30023000D01*
X27373000Y-30003000D01*
X27627000Y-30003000D01*
X27627000Y-30023000D01*
X28701250Y-30023000D01*
X28809250Y-29915000D01*
X32057111Y-29915000D01*
X32013700Y-30088184D01*
X31999783Y-30370512D01*
X32041213Y-30650130D01*
X32136397Y-30916292D01*
X32203329Y-31041514D01*
X32447298Y-31113097D01*
X33260395Y-30300000D01*
X33246253Y-30285858D01*
X33425858Y-30106253D01*
X33440000Y-30120395D01*
X33454143Y-30106253D01*
X33473000Y-30125110D01*
X33473000Y-30474890D01*
X33454143Y-30493748D01*
X33440000Y-30479605D01*
X32626903Y-31292702D01*
X32698486Y-31536671D01*
X32953996Y-31657571D01*
X33228184Y-31726300D01*
X33473000Y-31738368D01*
X33473000Y-33537886D01*
X30856425Y-35573000D01*
X29000000Y-35573000D01*
X28975224Y-35575440D01*
X28951399Y-35582667D01*
X28929443Y-35594403D01*
X28910197Y-35610197D01*
X28894403Y-35629443D01*
X28882667Y-35651399D01*
X28875440Y-35675224D01*
X28873000Y-35700000D01*
X28873000Y-41340000D01*
X18615205Y-41340000D01*
X18559045Y-40691575D01*
X18553371Y-40655749D01*
X18548825Y-40619764D01*
X18544465Y-40599513D01*
X18544462Y-40599495D01*
X18544458Y-40599482D01*
X18289298Y-39498648D01*
X18278633Y-39463979D01*
X18269062Y-39428994D01*
X18261886Y-39409541D01*
X17854158Y-38355631D01*
X17838708Y-38322798D01*
X17824309Y-38289523D01*
X17814464Y-38271276D01*
X17814464Y-38271275D01*
X17814460Y-38271269D01*
X17262307Y-37285327D01*
X17242375Y-37254984D01*
X17223440Y-37224084D01*
X17211122Y-37207406D01*
X16594929Y-36400000D01*
X19261928Y-36400000D01*
X19274188Y-36524482D01*
X19310498Y-36644180D01*
X19369463Y-36754494D01*
X19448815Y-36851185D01*
X19545506Y-36930537D01*
X19655820Y-36989502D01*
X19775518Y-37025812D01*
X19900000Y-37038072D01*
X22514250Y-37035000D01*
X22673000Y-36876250D01*
X22673000Y-33327000D01*
X22927000Y-33327000D01*
X22927000Y-36876250D01*
X23085750Y-37035000D01*
X25700000Y-37038072D01*
X25824482Y-37025812D01*
X25944180Y-36989502D01*
X26054494Y-36930537D01*
X26151185Y-36851185D01*
X26230537Y-36754494D01*
X26289502Y-36644180D01*
X26325812Y-36524482D01*
X26338072Y-36400000D01*
X26335000Y-33485750D01*
X26176250Y-33327000D01*
X22927000Y-33327000D01*
X22673000Y-33327000D01*
X19423750Y-33327000D01*
X19265000Y-33485750D01*
X19261928Y-36400000D01*
X16594929Y-36400000D01*
X16525552Y-36309095D01*
X16501563Y-36281885D01*
X16478445Y-36253940D01*
X16463908Y-36239173D01*
X16463900Y-36239163D01*
X16463892Y-36239156D01*
X15658595Y-35446410D01*
X15630986Y-35422830D01*
X15604185Y-35398443D01*
X15587712Y-35385871D01*
X15587704Y-35385864D01*
X15587697Y-35385859D01*
X14678734Y-34714489D01*
X14648104Y-34695051D01*
X14618109Y-34674666D01*
X14600019Y-34664535D01*
X13605520Y-34127932D01*
X13572446Y-34112998D01*
X13539889Y-34097049D01*
X13520567Y-34089574D01*
X13520552Y-34089567D01*
X13520539Y-34089563D01*
X12460366Y-33698445D01*
X12425535Y-33688325D01*
X12391039Y-33677117D01*
X12370841Y-33672435D01*
X11266121Y-33434595D01*
X11230191Y-33429481D01*
X11194480Y-33423249D01*
X11173824Y-33421459D01*
X10660000Y-33385078D01*
X10660000Y-30650000D01*
X16736928Y-30650000D01*
X16749188Y-30774482D01*
X16785498Y-30894180D01*
X16844463Y-31004494D01*
X16923815Y-31101185D01*
X17020506Y-31180537D01*
X17130820Y-31239502D01*
X17250518Y-31275812D01*
X17375000Y-31288072D01*
X17814250Y-31285000D01*
X17973000Y-31126250D01*
X17973000Y-30277000D01*
X16898750Y-30277000D01*
X16740000Y-30435750D01*
X16736928Y-30650000D01*
X10660000Y-30650000D01*
X10660000Y-10660000D01*
X22742134Y-10660000D01*
X22704697Y-10750381D01*
G04 #@! TA.AperFunction,Conductor*
D25*
G36*
X22704697Y-10750381D02*
G01*
X22573000Y-11412470D01*
X22573000Y-12087530D01*
X22704697Y-12749619D01*
X22963032Y-13373293D01*
X23338075Y-13934585D01*
X23815415Y-14411925D01*
X24376707Y-14786968D01*
X25000381Y-15045303D01*
X25662470Y-15177000D01*
X26337530Y-15177000D01*
X26999619Y-15045303D01*
X27623293Y-14786968D01*
X28184585Y-14411925D01*
X28661925Y-13934585D01*
X28873000Y-13618689D01*
X28873000Y-24375421D01*
X27133422Y-26115000D01*
X26318072Y-26115000D01*
X26318072Y-25800000D01*
X26305812Y-25675518D01*
X26269502Y-25555820D01*
X26210537Y-25445506D01*
X26131185Y-25348815D01*
X26034494Y-25269463D01*
X25924180Y-25210498D01*
X25804482Y-25174188D01*
X25680000Y-25161928D01*
X24480000Y-25161928D01*
X24355518Y-25174188D01*
X24235820Y-25210498D01*
X24125506Y-25269463D01*
X24028815Y-25348815D01*
X23949463Y-25445506D01*
X23890498Y-25555820D01*
X23854188Y-25675518D01*
X23841928Y-25800000D01*
X23841928Y-28000000D01*
X23854188Y-28124482D01*
X23890498Y-28244180D01*
X23949463Y-28354494D01*
X23982705Y-28395000D01*
X23169802Y-28395000D01*
X21758072Y-26983271D01*
X21758072Y-25800000D01*
X21745812Y-25675518D01*
X21709502Y-25555820D01*
X21650537Y-25445506D01*
X21571185Y-25348815D01*
X21474494Y-25269463D01*
X21364180Y-25210498D01*
X21244482Y-25174188D01*
X21120000Y-25161928D01*
X19920000Y-25161928D01*
X19795518Y-25174188D01*
X19675820Y-25210498D01*
X19565506Y-25269463D01*
X19468815Y-25348815D01*
X19389463Y-25445506D01*
X19330498Y-25555820D01*
X19294188Y-25675518D01*
X19281928Y-25800000D01*
X19281928Y-26015000D01*
X18643469Y-26015000D01*
X18600000Y-26010719D01*
X18556531Y-26015000D01*
X18556523Y-26015000D01*
X18426510Y-26027805D01*
X18259687Y-26078411D01*
X18105941Y-26160589D01*
X17971183Y-26271183D01*
X17943466Y-26304956D01*
X17504956Y-26743466D01*
X17471183Y-26771183D01*
X17360589Y-26905942D01*
X17278411Y-27059688D01*
X17266227Y-27099853D01*
X17233718Y-27207019D01*
X17131614Y-27261595D01*
X16997038Y-27372038D01*
X16886595Y-27506614D01*
X16804528Y-27660150D01*
X16753992Y-27826746D01*
X16736928Y-28000000D01*
X16736928Y-28500000D01*
X16753992Y-28673254D01*
X16804528Y-28839850D01*
X16886595Y-28993386D01*
X16997038Y-29127962D01*
X17003594Y-29133342D01*
X16923815Y-29198815D01*
X16844463Y-29295506D01*
X16785498Y-29405820D01*
X16749188Y-29525518D01*
X16736928Y-29650000D01*
X16740000Y-29864250D01*
X16898750Y-30023000D01*
X17973000Y-30023000D01*
X17973000Y-30003000D01*
X18227000Y-30003000D01*
X18227000Y-30023000D01*
X18247000Y-30023000D01*
X18247000Y-30277000D01*
X18227000Y-30277000D01*
X18227000Y-31126250D01*
X18385750Y-31285000D01*
X18825000Y-31288072D01*
X18949482Y-31275812D01*
X19069180Y-31239502D01*
X19179494Y-31180537D01*
X19263100Y-31111923D01*
X19265000Y-32914250D01*
X19423750Y-33073000D01*
X22673000Y-33073000D01*
X22673000Y-33053000D01*
X22927000Y-33053000D01*
X22927000Y-33073000D01*
X26176250Y-33073000D01*
X26335000Y-32914250D01*
X26336900Y-31111923D01*
X26420506Y-31180537D01*
X26530820Y-31239502D01*
X26650518Y-31275812D01*
X26775000Y-31288072D01*
X27214250Y-31285000D01*
X27373000Y-31126250D01*
X27373000Y-30277000D01*
X27627000Y-30277000D01*
X27627000Y-31126250D01*
X27785750Y-31285000D01*
X28225000Y-31288072D01*
X28349482Y-31275812D01*
X28469180Y-31239502D01*
X28579494Y-31180537D01*
X28676185Y-31101185D01*
X28755537Y-31004494D01*
X28814502Y-30894180D01*
X28850812Y-30774482D01*
X28863072Y-30650000D01*
X28860000Y-30435750D01*
X28701250Y-30277000D01*
X27627000Y-30277000D01*
X27373000Y-30277000D01*
X27353000Y-30277000D01*
X27353000Y-30023000D01*
X27373000Y-30023000D01*
X27373000Y-30003000D01*
X27627000Y-30003000D01*
X27627000Y-30023000D01*
X28701250Y-30023000D01*
X28809250Y-29915000D01*
X32057111Y-29915000D01*
X32013700Y-30088184D01*
X31999783Y-30370512D01*
X32041213Y-30650130D01*
X32136397Y-30916292D01*
X32203329Y-31041514D01*
X32447298Y-31113097D01*
X33260395Y-30300000D01*
X33246253Y-30285858D01*
X33425858Y-30106253D01*
X33440000Y-30120395D01*
X33454143Y-30106253D01*
X33473000Y-30125110D01*
X33473000Y-30474890D01*
X33454143Y-30493748D01*
X33440000Y-30479605D01*
X32626903Y-31292702D01*
X32698486Y-31536671D01*
X32953996Y-31657571D01*
X33228184Y-31726300D01*
X33473000Y-31738368D01*
X33473000Y-33537886D01*
X30856425Y-35573000D01*
X29000000Y-35573000D01*
X28975224Y-35575440D01*
X28951399Y-35582667D01*
X28929443Y-35594403D01*
X28910197Y-35610197D01*
X28894403Y-35629443D01*
X28882667Y-35651399D01*
X28875440Y-35675224D01*
X28873000Y-35700000D01*
X28873000Y-41340000D01*
X18615205Y-41340000D01*
X18559045Y-40691575D01*
X18553371Y-40655749D01*
X18548825Y-40619764D01*
X18544465Y-40599513D01*
X18544462Y-40599495D01*
X18544458Y-40599482D01*
X18289298Y-39498648D01*
X18278633Y-39463979D01*
X18269062Y-39428994D01*
X18261886Y-39409541D01*
X17854158Y-38355631D01*
X17838708Y-38322798D01*
X17824309Y-38289523D01*
X17814464Y-38271276D01*
X17814464Y-38271275D01*
X17814460Y-38271269D01*
X17262307Y-37285327D01*
X17242375Y-37254984D01*
X17223440Y-37224084D01*
X17211122Y-37207406D01*
X16594929Y-36400000D01*
X19261928Y-36400000D01*
X19274188Y-36524482D01*
X19310498Y-36644180D01*
X19369463Y-36754494D01*
X19448815Y-36851185D01*
X19545506Y-36930537D01*
X19655820Y-36989502D01*
X19775518Y-37025812D01*
X19900000Y-37038072D01*
X22514250Y-37035000D01*
X22673000Y-36876250D01*
X22673000Y-33327000D01*
X22927000Y-33327000D01*
X22927000Y-36876250D01*
X23085750Y-37035000D01*
X25700000Y-37038072D01*
X25824482Y-37025812D01*
X25944180Y-36989502D01*
X26054494Y-36930537D01*
X26151185Y-36851185D01*
X26230537Y-36754494D01*
X26289502Y-36644180D01*
X26325812Y-36524482D01*
X26338072Y-36400000D01*
X26335000Y-33485750D01*
X26176250Y-33327000D01*
X22927000Y-33327000D01*
X22673000Y-33327000D01*
X19423750Y-33327000D01*
X19265000Y-33485750D01*
X19261928Y-36400000D01*
X16594929Y-36400000D01*
X16525552Y-36309095D01*
X16501563Y-36281885D01*
X16478445Y-36253940D01*
X16463908Y-36239173D01*
X16463900Y-36239163D01*
X16463892Y-36239156D01*
X15658595Y-35446410D01*
X15630986Y-35422830D01*
X15604185Y-35398443D01*
X15587712Y-35385871D01*
X15587704Y-35385864D01*
X15587697Y-35385859D01*
X14678734Y-34714489D01*
X14648104Y-34695051D01*
X14618109Y-34674666D01*
X14600019Y-34664535D01*
X13605520Y-34127932D01*
X13572446Y-34112998D01*
X13539889Y-34097049D01*
X13520567Y-34089574D01*
X13520552Y-34089567D01*
X13520539Y-34089563D01*
X12460366Y-33698445D01*
X12425535Y-33688325D01*
X12391039Y-33677117D01*
X12370841Y-33672435D01*
X11266121Y-33434595D01*
X11230191Y-33429481D01*
X11194480Y-33423249D01*
X11173824Y-33421459D01*
X10660000Y-33385078D01*
X10660000Y-30650000D01*
X16736928Y-30650000D01*
X16749188Y-30774482D01*
X16785498Y-30894180D01*
X16844463Y-31004494D01*
X16923815Y-31101185D01*
X17020506Y-31180537D01*
X17130820Y-31239502D01*
X17250518Y-31275812D01*
X17375000Y-31288072D01*
X17814250Y-31285000D01*
X17973000Y-31126250D01*
X17973000Y-30277000D01*
X16898750Y-30277000D01*
X16740000Y-30435750D01*
X16736928Y-30650000D01*
X10660000Y-30650000D01*
X10660000Y-10660000D01*
X22742134Y-10660000D01*
X22704697Y-10750381D01*
G37*
G04 #@! TD.AperFunction*
M02*
