G04 #@! TF.GenerationSoftware,KiCad,Pcbnew,10.0.3-10.0.3~ubuntu24.04.1*
G04 #@! TF.CreationDate,2026-06-11T23:16:03-06:00*
G04 #@! TF.ProjectId,Z680 Standalone Subwoofer,5a363830-2053-4746-916e-64616c6f6e65,1*
G04 #@! TF.SameCoordinates,Original*
G04 #@! TF.FileFunction,Soldermask,Top*
G04 #@! TF.FilePolarity,Negative*
%FSLAX46Y46*%
G04 Gerber Fmt 4.6, Leading zero omitted, Abs format (unit mm)*
G04 Created by KiCad (PCBNEW 10.0.3-10.0.3~ubuntu24.04.1) date 2026-06-11 23:16:03*
%MOMM*%
%LPD*%
G01*
G04 APERTURE LIST*
G04 Aperture macros list*
%AMRoundRect*
0 Rectangle with rounded corners*
0 $1 Rounding radius*
0 $2 $3 $4 $5 $6 $7 $8 $9 X,Y pos of 4 corners*
0 Add a 4 corners polygon primitive as box body*
4,1,4,$2,$3,$4,$5,$6,$7,$8,$9,$2,$3,0*
0 Add four circle primitives for the rounded corners*
1,1,$1+$1,$2,$3*
1,1,$1+$1,$4,$5*
1,1,$1+$1,$6,$7*
1,1,$1+$1,$8,$9*
0 Add four rect primitives between the rounded corners*
20,1,$1+$1,$2,$3,$4,$5,0*
20,1,$1+$1,$4,$5,$6,$7,0*
20,1,$1+$1,$6,$7,$8,$9,0*
20,1,$1+$1,$8,$9,$2,$3,0*%
G04 Aperture macros list end*
%ADD10RoundRect,0.250000X0.475000X-0.250000X0.475000X0.250000X-0.475000X0.250000X-0.475000X-0.250000X0*%
%ADD11RoundRect,0.250000X-0.475000X0.250000X-0.475000X-0.250000X0.475000X-0.250000X0.475000X0.250000X0*%
%ADD12C,2.200000*%
%ADD13R,1.600000X1.600000*%
%ADD14C,1.600000*%
%ADD15C,4.000000*%
%ADD16RoundRect,0.200000X-0.275000X0.200000X-0.275000X-0.200000X0.275000X-0.200000X0.275000X0.200000X0*%
%ADD17RoundRect,0.250000X-0.350000X0.850000X-0.350000X-0.850000X0.350000X-0.850000X0.350000X0.850000X0*%
%ADD18RoundRect,0.249997X-2.650003X2.950003X-2.650003X-2.950003X2.650003X-2.950003X2.650003X2.950003X0*%
%ADD19R,1.800000X1.800000*%
%ADD20C,1.800000*%
%ADD21C,16.500000*%
%ADD22C,2.000000*%
%ADD23C,3.000000*%
G04 APERTURE END LIST*
D10*
X27500000Y-30150000D03*
X27500000Y-28250000D03*
D11*
X18100000Y-28250000D03*
X18100000Y-30150000D03*
D12*
X26000000Y-11750000D03*
X66000000Y-40250000D03*
D13*
X37400000Y-30300000D03*
D14*
X37400000Y-28010000D03*
X37400000Y-25720000D03*
X37400000Y-23430000D03*
X37400000Y-21140000D03*
X35420000Y-31445000D03*
X35420000Y-29155000D03*
X35420000Y-26865000D03*
X35420000Y-24575000D03*
X35420000Y-22285000D03*
X33440000Y-30300000D03*
X33440000Y-28010000D03*
X33440000Y-25720000D03*
X33440000Y-23430000D03*
X33440000Y-21140000D03*
D15*
X35420000Y-13485000D03*
X35420000Y-38485000D03*
D16*
X43500000Y-29600000D03*
X43500000Y-31250000D03*
D17*
X25080000Y-26960000D03*
D18*
X22800000Y-33260000D03*
D17*
X20520000Y-26960000D03*
D16*
X60000000Y-22375000D03*
X60000000Y-24025000D03*
X60000000Y-27375000D03*
X60000000Y-29025000D03*
D19*
X46100000Y-35300000D03*
D20*
X43560000Y-35300000D03*
D21*
X71750000Y-25700000D03*
D22*
X60000000Y-20700000D03*
X60000000Y-25700000D03*
X60000000Y-30700000D03*
D23*
X51600000Y-25850000D03*
X50000000Y-31000000D03*
X50000000Y-20700000D03*
M02*
