G04 #@! TF.GenerationSoftware,KiCad,Pcbnew,5.1.10-88a1d61d58~90~ubuntu20.04.1*
G04 #@! TF.CreationDate,2021-10-27T23:57:33-06:00*
G04 #@! TF.ProjectId,Z680 Standalone Subwoofer,5a363830-2053-4746-916e-64616c6f6e65,rev?*
G04 #@! TF.SameCoordinates,Original*
G04 #@! TF.FileFunction,Legend,Bot*
G04 #@! TF.FilePolarity,Positive*
%FSLAX46Y46*%
G04 Gerber Fmt 4.6, Leading zero omitted, Abs format (unit mm)*
G04 Created by KiCad (PCBNEW 5.1.10-88a1d61d58~90~ubuntu20.04.1) date 2021-10-27 23:57:33*
%MOMM*%
%LPD*%
G01*
G04 APERTURE LIST*
%ADD10C,0.150000*%
%ADD11C,0.120000*%
%ADD12C,3.000000*%
%ADD13C,4.000000*%
%ADD14C,1.600000*%
%ADD15R,1.600000X1.600000*%
%ADD16C,2.000000*%
%ADD17C,16.500000*%
%ADD18C,2.200000*%
%ADD19C,1.800000*%
%ADD20R,1.800000X1.800000*%
G04 APERTURE END LIST*
D10*
X68023809Y-11602380D02*
X67357142Y-11602380D01*
X68023809Y-12602380D01*
X67357142Y-12602380D01*
X66547619Y-11602380D02*
X66738095Y-11602380D01*
X66833333Y-11650000D01*
X66880952Y-11697619D01*
X66976190Y-11840476D01*
X67023809Y-12030952D01*
X67023809Y-12411904D01*
X66976190Y-12507142D01*
X66928571Y-12554761D01*
X66833333Y-12602380D01*
X66642857Y-12602380D01*
X66547619Y-12554761D01*
X66500000Y-12507142D01*
X66452380Y-12411904D01*
X66452380Y-12173809D01*
X66500000Y-12078571D01*
X66547619Y-12030952D01*
X66642857Y-11983333D01*
X66833333Y-11983333D01*
X66928571Y-12030952D01*
X66976190Y-12078571D01*
X67023809Y-12173809D01*
X65880952Y-12030952D02*
X65976190Y-11983333D01*
X66023809Y-11935714D01*
X66071428Y-11840476D01*
X66071428Y-11792857D01*
X66023809Y-11697619D01*
X65976190Y-11650000D01*
X65880952Y-11602380D01*
X65690476Y-11602380D01*
X65595238Y-11650000D01*
X65547619Y-11697619D01*
X65500000Y-11792857D01*
X65500000Y-11840476D01*
X65547619Y-11935714D01*
X65595238Y-11983333D01*
X65690476Y-12030952D01*
X65880952Y-12030952D01*
X65976190Y-12078571D01*
X66023809Y-12126190D01*
X66071428Y-12221428D01*
X66071428Y-12411904D01*
X66023809Y-12507142D01*
X65976190Y-12554761D01*
X65880952Y-12602380D01*
X65690476Y-12602380D01*
X65595238Y-12554761D01*
X65547619Y-12507142D01*
X65500000Y-12411904D01*
X65500000Y-12221428D01*
X65547619Y-12126190D01*
X65595238Y-12078571D01*
X65690476Y-12030952D01*
X64880952Y-11602380D02*
X64785714Y-11602380D01*
X64690476Y-11650000D01*
X64642857Y-11697619D01*
X64595238Y-11792857D01*
X64547619Y-11983333D01*
X64547619Y-12221428D01*
X64595238Y-12411904D01*
X64642857Y-12507142D01*
X64690476Y-12554761D01*
X64785714Y-12602380D01*
X64880952Y-12602380D01*
X64976190Y-12554761D01*
X65023809Y-12507142D01*
X65071428Y-12411904D01*
X65119047Y-12221428D01*
X65119047Y-11983333D01*
X65071428Y-11792857D01*
X65023809Y-11697619D01*
X64976190Y-11650000D01*
X64880952Y-11602380D01*
X63404761Y-12554761D02*
X63261904Y-12602380D01*
X63023809Y-12602380D01*
X62928571Y-12554761D01*
X62880952Y-12507142D01*
X62833333Y-12411904D01*
X62833333Y-12316666D01*
X62880952Y-12221428D01*
X62928571Y-12173809D01*
X63023809Y-12126190D01*
X63214285Y-12078571D01*
X63309523Y-12030952D01*
X63357142Y-11983333D01*
X63404761Y-11888095D01*
X63404761Y-11792857D01*
X63357142Y-11697619D01*
X63309523Y-11650000D01*
X63214285Y-11602380D01*
X62976190Y-11602380D01*
X62833333Y-11650000D01*
X62547619Y-11935714D02*
X62166666Y-11935714D01*
X62404761Y-11602380D02*
X62404761Y-12459523D01*
X62357142Y-12554761D01*
X62261904Y-12602380D01*
X62166666Y-12602380D01*
X61404761Y-12602380D02*
X61404761Y-12078571D01*
X61452380Y-11983333D01*
X61547619Y-11935714D01*
X61738095Y-11935714D01*
X61833333Y-11983333D01*
X61404761Y-12554761D02*
X61500000Y-12602380D01*
X61738095Y-12602380D01*
X61833333Y-12554761D01*
X61880952Y-12459523D01*
X61880952Y-12364285D01*
X61833333Y-12269047D01*
X61738095Y-12221428D01*
X61500000Y-12221428D01*
X61404761Y-12173809D01*
X60928571Y-11935714D02*
X60928571Y-12602380D01*
X60928571Y-12030952D02*
X60880952Y-11983333D01*
X60785714Y-11935714D01*
X60642857Y-11935714D01*
X60547619Y-11983333D01*
X60500000Y-12078571D01*
X60500000Y-12602380D01*
X59595238Y-12602380D02*
X59595238Y-11602380D01*
X59595238Y-12554761D02*
X59690476Y-12602380D01*
X59880952Y-12602380D01*
X59976190Y-12554761D01*
X60023809Y-12507142D01*
X60071428Y-12411904D01*
X60071428Y-12126190D01*
X60023809Y-12030952D01*
X59976190Y-11983333D01*
X59880952Y-11935714D01*
X59690476Y-11935714D01*
X59595238Y-11983333D01*
X58690476Y-12602380D02*
X58690476Y-12078571D01*
X58738095Y-11983333D01*
X58833333Y-11935714D01*
X59023809Y-11935714D01*
X59119047Y-11983333D01*
X58690476Y-12554761D02*
X58785714Y-12602380D01*
X59023809Y-12602380D01*
X59119047Y-12554761D01*
X59166666Y-12459523D01*
X59166666Y-12364285D01*
X59119047Y-12269047D01*
X59023809Y-12221428D01*
X58785714Y-12221428D01*
X58690476Y-12173809D01*
X58071428Y-12602380D02*
X58166666Y-12554761D01*
X58214285Y-12459523D01*
X58214285Y-11602380D01*
X57547619Y-12602380D02*
X57642857Y-12554761D01*
X57690476Y-12507142D01*
X57738095Y-12411904D01*
X57738095Y-12126190D01*
X57690476Y-12030952D01*
X57642857Y-11983333D01*
X57547619Y-11935714D01*
X57404761Y-11935714D01*
X57309523Y-11983333D01*
X57261904Y-12030952D01*
X57214285Y-12126190D01*
X57214285Y-12411904D01*
X57261904Y-12507142D01*
X57309523Y-12554761D01*
X57404761Y-12602380D01*
X57547619Y-12602380D01*
X56785714Y-11935714D02*
X56785714Y-12602380D01*
X56785714Y-12030952D02*
X56738095Y-11983333D01*
X56642857Y-11935714D01*
X56500000Y-11935714D01*
X56404761Y-11983333D01*
X56357142Y-12078571D01*
X56357142Y-12602380D01*
X55500000Y-12554761D02*
X55595238Y-12602380D01*
X55785714Y-12602380D01*
X55880952Y-12554761D01*
X55928571Y-12459523D01*
X55928571Y-12078571D01*
X55880952Y-11983333D01*
X55785714Y-11935714D01*
X55595238Y-11935714D01*
X55500000Y-11983333D01*
X55452380Y-12078571D01*
X55452380Y-12173809D01*
X55928571Y-12269047D01*
X54309523Y-12554761D02*
X54166666Y-12602380D01*
X53928571Y-12602380D01*
X53833333Y-12554761D01*
X53785714Y-12507142D01*
X53738095Y-12411904D01*
X53738095Y-12316666D01*
X53785714Y-12221428D01*
X53833333Y-12173809D01*
X53928571Y-12126190D01*
X54119047Y-12078571D01*
X54214285Y-12030952D01*
X54261904Y-11983333D01*
X54309523Y-11888095D01*
X54309523Y-11792857D01*
X54261904Y-11697619D01*
X54214285Y-11650000D01*
X54119047Y-11602380D01*
X53880952Y-11602380D01*
X53738095Y-11650000D01*
X52880952Y-11935714D02*
X52880952Y-12602380D01*
X53309523Y-11935714D02*
X53309523Y-12459523D01*
X53261904Y-12554761D01*
X53166666Y-12602380D01*
X53023809Y-12602380D01*
X52928571Y-12554761D01*
X52880952Y-12507142D01*
X52404761Y-12602380D02*
X52404761Y-11602380D01*
X52404761Y-11983333D02*
X52309523Y-11935714D01*
X52119047Y-11935714D01*
X52023809Y-11983333D01*
X51976190Y-12030952D01*
X51928571Y-12126190D01*
X51928571Y-12411904D01*
X51976190Y-12507142D01*
X52023809Y-12554761D01*
X52119047Y-12602380D01*
X52309523Y-12602380D01*
X52404761Y-12554761D01*
X51595238Y-11935714D02*
X51404761Y-12602380D01*
X51214285Y-12126190D01*
X51023809Y-12602380D01*
X50833333Y-11935714D01*
X50309523Y-12602380D02*
X50404761Y-12554761D01*
X50452380Y-12507142D01*
X50500000Y-12411904D01*
X50500000Y-12126190D01*
X50452380Y-12030952D01*
X50404761Y-11983333D01*
X50309523Y-11935714D01*
X50166666Y-11935714D01*
X50071428Y-11983333D01*
X50023809Y-12030952D01*
X49976190Y-12126190D01*
X49976190Y-12411904D01*
X50023809Y-12507142D01*
X50071428Y-12554761D01*
X50166666Y-12602380D01*
X50309523Y-12602380D01*
X49404761Y-12602380D02*
X49500000Y-12554761D01*
X49547619Y-12507142D01*
X49595238Y-12411904D01*
X49595238Y-12126190D01*
X49547619Y-12030952D01*
X49500000Y-11983333D01*
X49404761Y-11935714D01*
X49261904Y-11935714D01*
X49166666Y-11983333D01*
X49119047Y-12030952D01*
X49071428Y-12126190D01*
X49071428Y-12411904D01*
X49119047Y-12507142D01*
X49166666Y-12554761D01*
X49261904Y-12602380D01*
X49404761Y-12602380D01*
X48785714Y-11935714D02*
X48404761Y-11935714D01*
X48642857Y-12602380D02*
X48642857Y-11745238D01*
X48595238Y-11650000D01*
X48500000Y-11602380D01*
X48404761Y-11602380D01*
X47690476Y-12554761D02*
X47785714Y-12602380D01*
X47976190Y-12602380D01*
X48071428Y-12554761D01*
X48119047Y-12459523D01*
X48119047Y-12078571D01*
X48071428Y-11983333D01*
X47976190Y-11935714D01*
X47785714Y-11935714D01*
X47690476Y-11983333D01*
X47642857Y-12078571D01*
X47642857Y-12173809D01*
X48119047Y-12269047D01*
X47214285Y-12602380D02*
X47214285Y-11935714D01*
X47214285Y-12126190D02*
X47166666Y-12030952D01*
X47119047Y-11983333D01*
X47023809Y-11935714D01*
X46928571Y-11935714D01*
X63928571Y-13728571D02*
X63785714Y-13776190D01*
X63738095Y-13823809D01*
X63690476Y-13919047D01*
X63690476Y-14061904D01*
X63738095Y-14157142D01*
X63785714Y-14204761D01*
X63880952Y-14252380D01*
X64261904Y-14252380D01*
X64261904Y-13252380D01*
X63928571Y-13252380D01*
X63833333Y-13300000D01*
X63785714Y-13347619D01*
X63738095Y-13442857D01*
X63738095Y-13538095D01*
X63785714Y-13633333D01*
X63833333Y-13680952D01*
X63928571Y-13728571D01*
X64261904Y-13728571D01*
X63261904Y-14252380D02*
X63261904Y-13252380D01*
X63023809Y-13252380D01*
X62880952Y-13300000D01*
X62785714Y-13395238D01*
X62738095Y-13490476D01*
X62690476Y-13680952D01*
X62690476Y-13823809D01*
X62738095Y-14014285D01*
X62785714Y-14109523D01*
X62880952Y-14204761D01*
X63023809Y-14252380D01*
X63261904Y-14252380D01*
X62261904Y-14252380D02*
X62261904Y-13252380D01*
X61928571Y-13966666D01*
X61595238Y-13252380D01*
X61595238Y-14252380D01*
X60404761Y-13347619D02*
X60357142Y-13300000D01*
X60261904Y-13252380D01*
X60023809Y-13252380D01*
X59928571Y-13300000D01*
X59880952Y-13347619D01*
X59833333Y-13442857D01*
X59833333Y-13538095D01*
X59880952Y-13680952D01*
X60452380Y-14252380D01*
X59833333Y-14252380D01*
X59214285Y-13252380D02*
X59119047Y-13252380D01*
X59023809Y-13300000D01*
X58976190Y-13347619D01*
X58928571Y-13442857D01*
X58880952Y-13633333D01*
X58880952Y-13871428D01*
X58928571Y-14061904D01*
X58976190Y-14157142D01*
X59023809Y-14204761D01*
X59119047Y-14252380D01*
X59214285Y-14252380D01*
X59309523Y-14204761D01*
X59357142Y-14157142D01*
X59404761Y-14061904D01*
X59452380Y-13871428D01*
X59452380Y-13633333D01*
X59404761Y-13442857D01*
X59357142Y-13347619D01*
X59309523Y-13300000D01*
X59214285Y-13252380D01*
X58500000Y-13347619D02*
X58452380Y-13300000D01*
X58357142Y-13252380D01*
X58119047Y-13252380D01*
X58023809Y-13300000D01*
X57976190Y-13347619D01*
X57928571Y-13442857D01*
X57928571Y-13538095D01*
X57976190Y-13680952D01*
X58547619Y-14252380D01*
X57928571Y-14252380D01*
X56976190Y-14252380D02*
X57547619Y-14252380D01*
X57261904Y-14252380D02*
X57261904Y-13252380D01*
X57357142Y-13395238D01*
X57452380Y-13490476D01*
X57547619Y-13538095D01*
X56547619Y-13871428D02*
X55785714Y-13871428D01*
X54785714Y-14252380D02*
X55357142Y-14252380D01*
X55071428Y-14252380D02*
X55071428Y-13252380D01*
X55166666Y-13395238D01*
X55261904Y-13490476D01*
X55357142Y-13538095D01*
X54166666Y-13252380D02*
X54071428Y-13252380D01*
X53976190Y-13300000D01*
X53928571Y-13347619D01*
X53880952Y-13442857D01*
X53833333Y-13633333D01*
X53833333Y-13871428D01*
X53880952Y-14061904D01*
X53928571Y-14157142D01*
X53976190Y-14204761D01*
X54071428Y-14252380D01*
X54166666Y-14252380D01*
X54261904Y-14204761D01*
X54309523Y-14157142D01*
X54357142Y-14061904D01*
X54404761Y-13871428D01*
X54404761Y-13633333D01*
X54357142Y-13442857D01*
X54309523Y-13347619D01*
X54261904Y-13300000D01*
X54166666Y-13252380D01*
X53404761Y-13871428D02*
X52642857Y-13871428D01*
X52214285Y-13347619D02*
X52166666Y-13300000D01*
X52071428Y-13252380D01*
X51833333Y-13252380D01*
X51738095Y-13300000D01*
X51690476Y-13347619D01*
X51642857Y-13442857D01*
X51642857Y-13538095D01*
X51690476Y-13680952D01*
X52261904Y-14252380D01*
X51642857Y-14252380D01*
X51309523Y-13252380D02*
X50642857Y-13252380D01*
X51071428Y-14252380D01*
X65261904Y-15807142D02*
X65309523Y-15854761D01*
X65452380Y-15902380D01*
X65547619Y-15902380D01*
X65690476Y-15854761D01*
X65785714Y-15759523D01*
X65833333Y-15664285D01*
X65880952Y-15473809D01*
X65880952Y-15330952D01*
X65833333Y-15140476D01*
X65785714Y-15045238D01*
X65690476Y-14950000D01*
X65547619Y-14902380D01*
X65452380Y-14902380D01*
X65309523Y-14950000D01*
X65261904Y-14997619D01*
X64261904Y-15807142D02*
X64309523Y-15854761D01*
X64452380Y-15902380D01*
X64547619Y-15902380D01*
X64690476Y-15854761D01*
X64785714Y-15759523D01*
X64833333Y-15664285D01*
X64880952Y-15473809D01*
X64880952Y-15330952D01*
X64833333Y-15140476D01*
X64785714Y-15045238D01*
X64690476Y-14950000D01*
X64547619Y-14902380D01*
X64452380Y-14902380D01*
X64309523Y-14950000D01*
X64261904Y-14997619D01*
X62738095Y-15378571D02*
X62595238Y-15426190D01*
X62547619Y-15473809D01*
X62500000Y-15569047D01*
X62500000Y-15711904D01*
X62547619Y-15807142D01*
X62595238Y-15854761D01*
X62690476Y-15902380D01*
X63071428Y-15902380D01*
X63071428Y-14902380D01*
X62738095Y-14902380D01*
X62642857Y-14950000D01*
X62595238Y-14997619D01*
X62547619Y-15092857D01*
X62547619Y-15188095D01*
X62595238Y-15283333D01*
X62642857Y-15330952D01*
X62738095Y-15378571D01*
X63071428Y-15378571D01*
X61880952Y-15426190D02*
X61880952Y-15902380D01*
X62214285Y-14902380D02*
X61880952Y-15426190D01*
X61547619Y-14902380D01*
X61214285Y-15521428D02*
X60452380Y-15521428D01*
X60023809Y-15854761D02*
X59880952Y-15902380D01*
X59642857Y-15902380D01*
X59547619Y-15854761D01*
X59500000Y-15807142D01*
X59452380Y-15711904D01*
X59452380Y-15616666D01*
X59500000Y-15521428D01*
X59547619Y-15473809D01*
X59642857Y-15426190D01*
X59833333Y-15378571D01*
X59928571Y-15330952D01*
X59976190Y-15283333D01*
X60023809Y-15188095D01*
X60023809Y-15092857D01*
X59976190Y-14997619D01*
X59928571Y-14950000D01*
X59833333Y-14902380D01*
X59595238Y-14902380D01*
X59452380Y-14950000D01*
X59071428Y-15616666D02*
X58595238Y-15616666D01*
X59166666Y-15902380D02*
X58833333Y-14902380D01*
X58500000Y-15902380D01*
X56976190Y-15235714D02*
X56976190Y-15902380D01*
X57214285Y-14854761D02*
X57452380Y-15569047D01*
X56833333Y-15569047D01*
X56452380Y-15807142D02*
X56404761Y-15854761D01*
X56452380Y-15902380D01*
X56500000Y-15854761D01*
X56452380Y-15807142D01*
X56452380Y-15902380D01*
X55785714Y-14902380D02*
X55690476Y-14902380D01*
X55595238Y-14950000D01*
X55547619Y-14997619D01*
X55500000Y-15092857D01*
X55452380Y-15283333D01*
X55452380Y-15521428D01*
X55500000Y-15711904D01*
X55547619Y-15807142D01*
X55595238Y-15854761D01*
X55690476Y-15902380D01*
X55785714Y-15902380D01*
X55880952Y-15854761D01*
X55928571Y-15807142D01*
X55976190Y-15711904D01*
X56023809Y-15521428D01*
X56023809Y-15283333D01*
X55976190Y-15092857D01*
X55928571Y-14997619D01*
X55880952Y-14950000D01*
X55785714Y-14902380D01*
X53785714Y-15902380D02*
X54261904Y-15902380D01*
X54261904Y-14902380D01*
X53452380Y-15902380D02*
X53452380Y-15235714D01*
X53452380Y-14902380D02*
X53500000Y-14950000D01*
X53452380Y-14997619D01*
X53404761Y-14950000D01*
X53452380Y-14902380D01*
X53452380Y-14997619D01*
X52547619Y-15854761D02*
X52642857Y-15902380D01*
X52833333Y-15902380D01*
X52928571Y-15854761D01*
X52976190Y-15807142D01*
X53023809Y-15711904D01*
X53023809Y-15426190D01*
X52976190Y-15330952D01*
X52928571Y-15283333D01*
X52833333Y-15235714D01*
X52642857Y-15235714D01*
X52547619Y-15283333D01*
X51738095Y-15854761D02*
X51833333Y-15902380D01*
X52023809Y-15902380D01*
X52119047Y-15854761D01*
X52166666Y-15759523D01*
X52166666Y-15378571D01*
X52119047Y-15283333D01*
X52023809Y-15235714D01*
X51833333Y-15235714D01*
X51738095Y-15283333D01*
X51690476Y-15378571D01*
X51690476Y-15473809D01*
X52166666Y-15569047D01*
X51261904Y-15235714D02*
X51261904Y-15902380D01*
X51261904Y-15330952D02*
X51214285Y-15283333D01*
X51119047Y-15235714D01*
X50976190Y-15235714D01*
X50880952Y-15283333D01*
X50833333Y-15378571D01*
X50833333Y-15902380D01*
X50404761Y-15854761D02*
X50309523Y-15902380D01*
X50119047Y-15902380D01*
X50023809Y-15854761D01*
X49976190Y-15759523D01*
X49976190Y-15711904D01*
X50023809Y-15616666D01*
X50119047Y-15569047D01*
X50261904Y-15569047D01*
X50357142Y-15521428D01*
X50404761Y-15426190D01*
X50404761Y-15378571D01*
X50357142Y-15283333D01*
X50261904Y-15235714D01*
X50119047Y-15235714D01*
X50023809Y-15283333D01*
X49166666Y-15854761D02*
X49261904Y-15902380D01*
X49452380Y-15902380D01*
X49547619Y-15854761D01*
X49595238Y-15759523D01*
X49595238Y-15378571D01*
X49547619Y-15283333D01*
X49452380Y-15235714D01*
X49261904Y-15235714D01*
X49166666Y-15283333D01*
X49119047Y-15378571D01*
X49119047Y-15473809D01*
X49595238Y-15569047D01*
D11*
X45000000Y-34000000D02*
X45000000Y-34800000D01*
X45000000Y-34400000D02*
X44500000Y-34000000D01*
X44500000Y-34800000D02*
X45000000Y-34400000D01*
X44500000Y-34000000D02*
X44500000Y-34800000D01*
X47000000Y-21850000D02*
X47000000Y-18850000D01*
X47000000Y-18850000D02*
X53000000Y-18850000D01*
X53000000Y-18850000D02*
X53000000Y-21850000D01*
X53000000Y-29850001D02*
X53000000Y-32850001D01*
X47000000Y-32850001D02*
X47000000Y-29850001D01*
X53000000Y-32850001D02*
X47000000Y-32850001D01*
X47000000Y-21850000D02*
G75*
G03*
X47000000Y-29850000I3000000J-4000000D01*
G01*
X52999999Y-29850000D02*
G75*
G03*
X53000000Y-21850001I-2999999J4000000D01*
G01*
X58000000Y-16700000D02*
X72000000Y-16700000D01*
X58000000Y-34700000D02*
X72000000Y-34700000D01*
X58000000Y-16700000D02*
X58000000Y-34700000D01*
X72000000Y-34700000D02*
G75*
G03*
X72000000Y-16700000I0J9000000D01*
G01*
X46390000Y-34064000D02*
X46390000Y-34220000D01*
X46390000Y-36380000D02*
X46390000Y-36536000D01*
X43788870Y-36379837D02*
G75*
G03*
X45870961Y-36380000I1041130J1079837D01*
G01*
X43788870Y-34220163D02*
G75*
G02*
X45870961Y-34220000I1041130J-1079837D01*
G01*
X43157665Y-36378608D02*
G75*
G03*
X46390000Y-36535516I1672335J1078608D01*
G01*
X43157665Y-34221392D02*
G75*
G02*
X46390000Y-34064484I1672335J-1078608D01*
G01*
X30265000Y-28938748D02*
X30265000Y-29461252D01*
X31735000Y-28938748D02*
X31735000Y-29461252D01*
D10*
X43452380Y-25516666D02*
X44166666Y-25516666D01*
X44309523Y-25469047D01*
X44404761Y-25373809D01*
X44452380Y-25230952D01*
X44452380Y-25135714D01*
X44452380Y-26516666D02*
X44452380Y-25945238D01*
X44452380Y-26230952D02*
X43452380Y-26230952D01*
X43595238Y-26135714D01*
X43690476Y-26040476D01*
X43738095Y-25945238D01*
X57252380Y-25104761D02*
X56776190Y-24771428D01*
X57252380Y-24533333D02*
X56252380Y-24533333D01*
X56252380Y-24914285D01*
X56300000Y-25009523D01*
X56347619Y-25057142D01*
X56442857Y-25104761D01*
X56585714Y-25104761D01*
X56680952Y-25057142D01*
X56728571Y-25009523D01*
X56776190Y-24914285D01*
X56776190Y-24533333D01*
X56252380Y-25390476D02*
X57252380Y-25723809D01*
X56252380Y-26057142D01*
X57252380Y-26914285D02*
X57252380Y-26342857D01*
X57252380Y-26628571D02*
X56252380Y-26628571D01*
X56395238Y-26533333D01*
X56490476Y-26438095D01*
X56538095Y-26342857D01*
X48938095Y-35752380D02*
X48938095Y-34752380D01*
X48700000Y-34752380D01*
X48557142Y-34800000D01*
X48461904Y-34895238D01*
X48414285Y-34990476D01*
X48366666Y-35180952D01*
X48366666Y-35323809D01*
X48414285Y-35514285D01*
X48461904Y-35609523D01*
X48557142Y-35704761D01*
X48700000Y-35752380D01*
X48938095Y-35752380D01*
X47414285Y-35752380D02*
X47985714Y-35752380D01*
X47700000Y-35752380D02*
X47700000Y-34752380D01*
X47795238Y-34895238D01*
X47890476Y-34990476D01*
X47985714Y-35038095D01*
X29677142Y-29033333D02*
X29724761Y-28985714D01*
X29772380Y-28842857D01*
X29772380Y-28747619D01*
X29724761Y-28604761D01*
X29629523Y-28509523D01*
X29534285Y-28461904D01*
X29343809Y-28414285D01*
X29200952Y-28414285D01*
X29010476Y-28461904D01*
X28915238Y-28509523D01*
X28820000Y-28604761D01*
X28772380Y-28747619D01*
X28772380Y-28842857D01*
X28820000Y-28985714D01*
X28867619Y-29033333D01*
X28867619Y-29414285D02*
X28820000Y-29461904D01*
X28772380Y-29557142D01*
X28772380Y-29795238D01*
X28820000Y-29890476D01*
X28867619Y-29938095D01*
X28962857Y-29985714D01*
X29058095Y-29985714D01*
X29200952Y-29938095D01*
X29772380Y-29366666D01*
X29772380Y-29985714D01*
%LPC*%
D12*
X50000000Y-20700000D03*
X50000000Y-31000000D03*
X51600000Y-25850000D03*
D13*
X35420000Y-38485000D03*
X35420000Y-13485000D03*
D14*
X33440000Y-21140000D03*
X33440000Y-23430000D03*
X33440000Y-25720000D03*
X33440000Y-28010000D03*
X33440000Y-30300000D03*
X35420000Y-22285000D03*
X35420000Y-24575000D03*
X35420000Y-26865000D03*
X35420000Y-29155000D03*
X35420000Y-31445000D03*
X37400000Y-21140000D03*
X37400000Y-23430000D03*
X37400000Y-25720000D03*
X37400000Y-28010000D03*
D15*
X37400000Y-30300000D03*
D16*
X60000000Y-25700000D03*
X60000000Y-30700000D03*
X60000000Y-20700000D03*
D17*
X71750000Y-25700000D03*
D18*
X66000000Y-40250000D03*
X26000000Y-11750000D03*
D19*
X43560000Y-35300000D03*
D20*
X46100000Y-35300000D03*
G36*
G01*
X30525000Y-29650000D02*
X31475000Y-29650000D01*
G75*
G02*
X31725000Y-29900000I0J-250000D01*
G01*
X31725000Y-30400000D01*
G75*
G02*
X31475000Y-30650000I-250000J0D01*
G01*
X30525000Y-30650000D01*
G75*
G02*
X30275000Y-30400000I0J250000D01*
G01*
X30275000Y-29900000D01*
G75*
G02*
X30525000Y-29650000I250000J0D01*
G01*
G37*
G36*
G01*
X30525000Y-27750000D02*
X31475000Y-27750000D01*
G75*
G02*
X31725000Y-28000000I0J-250000D01*
G01*
X31725000Y-28500000D01*
G75*
G02*
X31475000Y-28750000I-250000J0D01*
G01*
X30525000Y-28750000D01*
G75*
G02*
X30275000Y-28500000I0J250000D01*
G01*
X30275000Y-28000000D01*
G75*
G02*
X30525000Y-27750000I250000J0D01*
G01*
G37*
M02*
