G04 #@! TF.GenerationSoftware,KiCad,Pcbnew,5.1.10-88a1d61d58~90~ubuntu20.04.1*
G04 #@! TF.CreationDate,2021-10-27T23:57:33-06:00*
G04 #@! TF.ProjectId,Z680 Standalone Subwoofer,5a363830-2053-4746-916e-64616c6f6e65,rev?*
G04 #@! TF.SameCoordinates,Original*
G04 #@! TF.FileFunction,Soldermask,Bot*
G04 #@! TF.FilePolarity,Negative*
%FSLAX46Y46*%
G04 Gerber Fmt 4.6, Leading zero omitted, Abs format (unit mm)*
G04 Created by KiCad (PCBNEW 5.1.10-88a1d61d58~90~ubuntu20.04.1) date 2021-10-27 23:57:33*
%MOMM*%
%LPD*%
G01*
G04 APERTURE LIST*
%ADD10C,3.000000*%
%ADD11C,4.000000*%
%ADD12C,1.600000*%
%ADD13R,1.600000X1.600000*%
%ADD14C,2.000000*%
%ADD15C,16.500000*%
%ADD16C,2.200000*%
%ADD17C,1.800000*%
%ADD18R,1.800000X1.800000*%
G04 APERTURE END LIST*
D10*
X50000000Y-20700000D03*
X50000000Y-31000000D03*
X51600000Y-25850000D03*
D11*
X35420000Y-38485000D03*
X35420000Y-13485000D03*
D12*
X33440000Y-21140000D03*
X33440000Y-23430000D03*
X33440000Y-25720000D03*
X33440000Y-28010000D03*
X33440000Y-30300000D03*
X35420000Y-22285000D03*
X35420000Y-24575000D03*
X35420000Y-26865000D03*
X35420000Y-29155000D03*
X35420000Y-31445000D03*
X37400000Y-21140000D03*
X37400000Y-23430000D03*
X37400000Y-25720000D03*
X37400000Y-28010000D03*
D13*
X37400000Y-30300000D03*
D14*
X60000000Y-25700000D03*
X60000000Y-30700000D03*
X60000000Y-20700000D03*
D15*
X71750000Y-25700000D03*
D16*
X66000000Y-40250000D03*
X26000000Y-11750000D03*
D17*
X43560000Y-35300000D03*
D18*
X46100000Y-35300000D03*
G36*
G01*
X30525000Y-29650000D02*
X31475000Y-29650000D01*
G75*
G02*
X31725000Y-29900000I0J-250000D01*
G01*
X31725000Y-30400000D01*
G75*
G02*
X31475000Y-30650000I-250000J0D01*
G01*
X30525000Y-30650000D01*
G75*
G02*
X30275000Y-30400000I0J250000D01*
G01*
X30275000Y-29900000D01*
G75*
G02*
X30525000Y-29650000I250000J0D01*
G01*
G37*
G36*
G01*
X30525000Y-27750000D02*
X31475000Y-27750000D01*
G75*
G02*
X31725000Y-28000000I0J-250000D01*
G01*
X31725000Y-28500000D01*
G75*
G02*
X31475000Y-28750000I-250000J0D01*
G01*
X30525000Y-28750000D01*
G75*
G02*
X30275000Y-28500000I0J250000D01*
G01*
X30275000Y-28000000D01*
G75*
G02*
X30525000Y-27750000I250000J0D01*
G01*
G37*
M02*
